<?xml version="1.0" encoding="utf-8"?>
<!-- Generator: Adobe Illustrator 16.0.0, SVG Export Plug-In . SVG Version: 6.00 Build 0)  -->
<!DOCTYPE svg PUBLIC "-//W3C//DTD SVG 1.1//EN" "http://www.w3.org/Graphics/SVG/1.1/DTD/svg11.dtd">
<svg version="1.1" id="Layer_1" xmlns="http://www.w3.org/2000/svg" xmlns:xlink="http://www.w3.org/1999/xlink" x="0px" y="0px"
	 width="309.206px" height="103.902px" viewBox="0 0 309.206 103.902" enable-background="new 0 0 309.206 103.902"
	 xml:space="preserve">
<g>
	<g>
		<path fill="#FFFFFF" d="M62.611,42.518c-0.148-0.928-0.631-4.643-5.794-4.643c-6.462,0-7.613,6.611-7.613,11.068
			c0,5.051,1.448,10.511,7.576,10.511c1.635,0,3.194-0.409,4.346-1.597c0.966-1.04,1.188-2.191,1.3-2.823h4.086
			c-0.558,5.274-5.423,7.465-10.028,7.465c-9.434,0-11.253-8.319-11.253-13.519c0-5.646,2.191-14.076,11.736-14.076
			c3.788,0,9.136,1.523,9.619,7.614H62.611z"/>
		<path fill="#FFFFFF" d="M79.32,42.963c7.465,0,9.136,5.868,9.136,9.768c0,5.459-3.082,9.991-9.434,9.991
			c-6.165,0-9.173-4.271-9.173-9.73C69.85,48.386,72.003,42.963,79.32,42.963z M79.097,60.122c2.638,0,5.646-1.894,5.646-7.502
			c0-4.643-2.154-7.094-5.422-7.094c-2.229,0-5.831,1.411-5.831,7.242C73.489,56.594,75.123,60.122,79.097,60.122z"/>
		<path fill="#FFFFFF" d="M106.837,35.312h3.491v23.807c0,0.409,0.074,2.005,0.148,2.971h-3.491l-0.074-2.971
			c-0.298,0.52-0.706,1.3-1.672,1.968c-1.522,1.04-3.343,1.375-4.605,1.375c-2.488,0-8.021-1.3-8.021-9.471
			c0-7.094,4.048-10.176,8.431-10.176c4.011,0,5.348,2.377,5.794,3.157V35.312z M105.537,47.309
			c-0.743-0.965-2.117-1.894-4.086-1.894c-5.125,0-5.125,6.202-5.125,7.465c0,3.306,0.854,7.131,5.125,7.131
			c5.497,0,5.497-6.054,5.497-7.502C106.948,49.797,106.316,48.312,105.537,47.309z"/>
		<path fill="#FFFFFF" d="M116.265,35.35h4.197v3.825h-4.197V35.35z M116.637,43.446h3.491V62.09h-3.491V43.446z"/>
		<path fill="#FFFFFF" d="M127.034,45.6l-0.037-2.154h3.491l0.037,3.008c0.408-0.78,1.745-3.38,5.979-3.38
			c1.671,0,6.759,0.631,6.759,6.351V62.09h-3.564V50.243c0-1.226-0.149-2.34-1.003-3.194c-0.892-0.854-2.117-1.263-3.306-1.263
			c-2.525,0-4.865,1.82-4.865,5.571V62.09h-3.491V45.6z"/>
		<path fill="#FFFFFF" d="M152.954,63.539c0.148,2.08,1.039,3.64,4.345,3.64c4.865,0,4.939-3.528,4.939-8.58
			c-1.485,3.083-5.014,3.157-6.128,3.157c-1.708,0-4.159-0.371-5.72-2.302c-1.597-1.895-2.116-4.383-2.116-6.871
			c0-6.314,3.714-9.396,8.282-9.396c3.751,0,5.125,1.857,5.868,2.823l0.037-2.562h3.379l-0.074,3.379l-0.037,11.662
			c0,4.494-0.148,6.314-0.891,7.725c-1.561,2.971-5.2,3.343-7.763,3.343c-7.465,0-7.688-3.491-7.837-6.017H152.954z M161.087,57.299
			c0.743-0.966,1.263-1.968,1.263-5.348c0-2.34-0.52-3.677-1.448-4.643c-0.929-1.003-2.414-1.634-4.011-1.634
			c-4.42,0-5.014,4.457-5.014,6.834c0,2.86,0.854,6.648,5.125,6.648C159.045,59.156,160.233,58.414,161.087,57.299z"/>
		<path fill="#FFFFFF" d="M182.882,35.275h5.162l13.185,22.172V35.275h3.417V62.09h-4.754l-13.63-22.767V62.09h-3.38V35.275z"/>
		<path fill="#FFFFFF" d="M213.629,53.399c-0.075,3.863,1.522,6.723,5.348,6.723c2.266,0,4.085-1.188,4.383-3.863h3.491
			c-0.111,0.929-0.261,2.451-1.598,3.9c-0.816,0.928-2.674,2.488-6.425,2.488c-5.868,0-8.653-3.64-8.653-9.545
			c0-3.677,0.742-6.722,3.677-8.765c1.782-1.263,4.011-1.374,5.088-1.374c8.356,0,8.171,7.391,8.097,10.436H213.629z
			 M223.471,50.948c0.037-1.783-0.297-5.497-4.605-5.497c-2.266,0-5.014,1.374-5.088,5.497H223.471z"/>
		<path fill="#FFFFFF" d="M232.344,47.234c0-1.263-0.074-2.562-0.186-3.788h3.528l0.074,3.603c0.668-2.6,2.896-3.454,4.457-3.677
			c1.039-0.148,1.819-0.111,2.414-0.074v3.417c-0.187-0.074-0.409-0.111-0.669-0.148s-0.594-0.037-1.003-0.037
			c-4.122,0-5.088,2.451-5.088,5.645v9.917h-3.528V47.234z"/>
		<path fill="#FFFFFF" d="M259.527,35.312h3.491v23.807c0,0.409,0.074,2.005,0.148,2.971h-3.491l-0.074-2.971
			c-0.298,0.52-0.706,1.3-1.672,1.968c-1.522,1.04-3.343,1.375-4.605,1.375c-2.488,0-8.021-1.3-8.021-9.471
			c0-7.094,4.048-10.176,8.431-10.176c4.011,0,5.348,2.377,5.794,3.157V35.312z M258.228,47.309
			c-0.743-0.965-2.117-1.894-4.086-1.894c-5.125,0-5.125,6.202-5.125,7.465c0,3.306,0.854,7.131,5.125,7.131
			c5.497,0,5.497-6.054,5.497-7.502C259.639,49.797,259.007,48.312,258.228,47.309z"/>
	</g>
	<g>
		<path fill="#307FE2" d="M309.206,103.902H0V0h309.206V103.902z M19.799,84.103h269.607l0-64.303H19.799V84.103L19.799,84.103z"/>
	</g>
	<g>
		<polygon fill="#307FE2" points="16.499,19.795 16.499,84.101 16.499,87.4 19.8,87.4 289.406,87.4 292.705,87.4 292.705,84.101 
			292.705,19.795 292.705,16.495 289.406,16.495 19.8,16.495 16.499,16.495 		"/>
	</g>
	<g>
		<path fill="#FFFFFF" d="M62.611,42.516c-0.148-0.928-0.631-4.643-5.794-4.643c-6.462,0-7.613,6.611-7.613,11.068
			c0,5.051,1.448,10.511,7.576,10.511c1.635,0,3.194-0.409,4.346-1.597c0.966-1.04,1.188-2.191,1.3-2.823h4.086
			c-0.558,5.274-5.423,7.465-10.028,7.465c-9.434,0-11.253-8.319-11.253-13.519c0-5.646,2.191-14.076,11.736-14.076
			c3.788,0,9.136,1.523,9.619,7.614H62.611z"/>
		<path fill="#FFFFFF" d="M79.32,42.961c7.465,0,9.136,5.868,9.136,9.768c0,5.459-3.082,9.991-9.434,9.991
			c-6.165,0-9.173-4.271-9.173-9.73C69.85,48.384,72.003,42.961,79.32,42.961z M79.097,60.12c2.638,0,5.646-1.894,5.646-7.502
			c0-4.643-2.154-7.094-5.422-7.094c-2.229,0-5.831,1.411-5.831,7.242C73.489,56.592,75.123,60.12,79.097,60.12z"/>
		<path fill="#FFFFFF" d="M106.837,35.311h3.491v23.807c0,0.409,0.074,2.005,0.148,2.971h-3.491l-0.074-2.971
			c-0.298,0.52-0.706,1.3-1.672,1.968c-1.522,1.04-3.343,1.375-4.605,1.375c-2.488,0-8.021-1.3-8.021-9.471
			c0-7.094,4.048-10.176,8.431-10.176c4.011,0,5.348,2.377,5.794,3.157V35.311z M105.537,47.307
			c-0.743-0.965-2.117-1.894-4.086-1.894c-5.125,0-5.125,6.202-5.125,7.465c0,3.306,0.854,7.131,5.125,7.131
			c5.497,0,5.497-6.054,5.497-7.502C106.948,49.795,106.316,48.31,105.537,47.307z"/>
		<path fill="#FFFFFF" d="M116.265,35.348h4.197v3.825h-4.197V35.348z M116.637,43.444h3.491v18.644h-3.491V43.444z"/>
		<path fill="#FFFFFF" d="M127.034,45.598l-0.037-2.154h3.491l0.037,3.008c0.408-0.78,1.745-3.38,5.979-3.38
			c1.671,0,6.759,0.631,6.759,6.351v12.665h-3.564V50.241c0-1.226-0.149-2.34-1.003-3.194c-0.892-0.854-2.117-1.263-3.306-1.263
			c-2.525,0-4.865,1.82-4.865,5.571v10.733h-3.491V45.598z"/>
		<path fill="#FFFFFF" d="M152.954,63.537c0.148,2.08,1.039,3.64,4.345,3.64c4.865,0,4.939-3.528,4.939-8.58
			c-1.485,3.083-5.014,3.157-6.128,3.157c-1.708,0-4.159-0.371-5.72-2.302c-1.597-1.895-2.116-4.383-2.116-6.871
			c0-6.314,3.714-9.396,8.282-9.396c3.751,0,5.125,1.857,5.868,2.823l0.037-2.562h3.379l-0.074,3.379l-0.037,11.662
			c0,4.494-0.148,6.314-0.891,7.725c-1.561,2.971-5.2,3.343-7.763,3.343c-7.465,0-7.688-3.491-7.837-6.017H152.954z M161.087,57.297
			c0.743-0.966,1.263-1.968,1.263-5.348c0-2.34-0.52-3.677-1.448-4.643c-0.929-1.003-2.414-1.634-4.011-1.634
			c-4.42,0-5.014,4.457-5.014,6.834c0,2.86,0.854,6.648,5.125,6.648C159.045,59.154,160.233,58.412,161.087,57.297z"/>
		<path fill="#FFFFFF" d="M182.882,35.273h5.162l13.185,22.172V35.273h3.417v26.815h-4.754l-13.63-22.767v22.767h-3.38V35.273z"/>
		<path fill="#FFFFFF" d="M213.629,53.397c-0.075,3.863,1.522,6.723,5.348,6.723c2.266,0,4.085-1.188,4.383-3.863h3.491
			c-0.111,0.929-0.261,2.451-1.598,3.9c-0.816,0.928-2.674,2.488-6.425,2.488c-5.868,0-8.653-3.64-8.653-9.545
			c0-3.677,0.742-6.722,3.677-8.765c1.782-1.263,4.011-1.374,5.088-1.374c8.356,0,8.171,7.391,8.097,10.436H213.629z
			 M223.471,50.946c0.037-1.783-0.297-5.497-4.605-5.497c-2.266,0-5.014,1.374-5.088,5.497H223.471z"/>
		<path fill="#FFFFFF" d="M232.344,47.232c0-1.263-0.074-2.562-0.186-3.788h3.528l0.074,3.603c0.668-2.6,2.896-3.454,4.457-3.677
			c1.039-0.148,1.819-0.111,2.414-0.074v3.417c-0.187-0.074-0.409-0.111-0.669-0.148s-0.594-0.037-1.003-0.037
			c-4.122,0-5.088,2.451-5.088,5.645v9.917h-3.528V47.232z"/>
		<path fill="#FFFFFF" d="M259.527,35.311h3.491v23.807c0,0.409,0.074,2.005,0.148,2.971h-3.491l-0.074-2.971
			c-0.298,0.52-0.706,1.3-1.672,1.968c-1.522,1.04-3.343,1.375-4.605,1.375c-2.488,0-8.021-1.3-8.021-9.471
			c0-7.094,4.048-10.176,8.431-10.176c4.011,0,5.348,2.377,5.794,3.157V35.311z M258.228,47.307
			c-0.743-0.965-2.117-1.894-4.086-1.894c-5.125,0-5.125,6.202-5.125,7.465c0,3.306,0.854,7.131,5.125,7.131
			c5.497,0,5.497-6.054,5.497-7.502C259.639,49.795,259.007,48.31,258.228,47.307z"/>
	</g>
	<g>
		<path fill="#FFFFFF" d="M296.004,90.7H13.199V13.195h282.805V90.7z M19.799,84.1h269.607l-0.001-64.306L19.799,19.795V84.1
			L19.799,84.1z"/>
	</g>
</g>
</svg>
