<?xml version="1.0" encoding="utf-8"?>
<!-- Generator: Adobe Illustrator 16.0.0, SVG Export Plug-In . SVG Version: 6.00 Build 0)  -->
<!DOCTYPE svg PUBLIC "-//W3C//DTD SVG 1.1//EN" "http://www.w3.org/Graphics/SVG/1.1/DTD/svg11.dtd">
<svg version="1.1" id="Layer_1" xmlns="http://www.w3.org/2000/svg" xmlns:xlink="http://www.w3.org/1999/xlink" x="0px" y="0px"
	 width="356.923px" height="100.929px" viewBox="0 0 356.923 100.929" enable-background="new 0 0 356.923 100.929"
	 xml:space="preserve">
<g>
	<g>
		<path fill="#307FE2" d="M302.614,100.93H54.307L0,50.449L54.308,0h248.309l54.307,50.467L302.614,100.93z M62.087,81.13h232.749
			l32.999-30.664l-33-30.666H62.087l-33,30.654l0,0L62.087,81.13L62.087,81.13z"/>
	</g>
	<g>
		<polygon fill="#307FE2" points="59.841,17.382 26.841,48.037 24.24,50.454 26.84,52.871 59.84,83.545 60.791,84.429 
			62.087,84.429 294.835,84.429 296.131,84.429 297.082,83.546 330.082,52.883 332.683,50.464 330.082,48.048 297.082,17.382 
			296.132,16.499 294.835,16.499 62.087,16.499 60.792,16.499 		"/>
	</g>
	<g>
		<path fill="#FFFFFF" d="M297.428,87.729H59.493L19.392,50.453l40.102-37.254h237.937l40.1,37.264L297.428,87.729z M62.087,81.129
			h232.748v0l33-30.663l-33.001-30.667H62.087l0.001,0L29.087,50.455L62.087,81.129L62.087,81.129z"/>
	</g>
	<g>
		<path fill="#FFFFFF" d="M67.483,33.747h7.763c3.603,0,7.836,0,10.808,3.491c2.377,2.786,3.305,6.463,3.305,10.14
			c0,5.794-2.414,9.359-4.457,10.993c-2.637,2.191-5.942,2.191-9.879,2.191h-7.54V33.747z M71.197,57.516h3.64
			c2.562,0,5.237-0.148,7.02-1.485c3.417-2.562,3.528-6.945,3.528-8.505c0-1.003-0.075-5.571-2.6-8.356
			c-1.708-1.895-3.862-2.34-7.131-2.34h-4.457V57.516z"/>
		<path fill="#FFFFFF" d="M96.41,51.872c-0.074,3.862,1.523,6.722,5.348,6.722c2.266,0,4.085-1.188,4.382-3.862h3.491
			c-0.111,0.929-0.26,2.451-1.597,3.899c-0.817,0.929-2.674,2.488-6.425,2.488c-5.868,0-8.654-3.64-8.654-9.545
			c0-3.677,0.743-6.722,3.677-8.765c1.783-1.263,4.011-1.374,5.088-1.374c8.356,0,8.171,7.391,8.097,10.437H96.41z M106.252,49.42
			c0.037-1.783-0.297-5.497-4.605-5.497c-2.266,0-5.014,1.374-5.088,5.497H106.252z"/>
		<path fill="#FFFFFF" d="M116.944,55.028c-0.037,1.412,0.706,3.38,4.085,3.38c1.448,0,2.525-0.26,3.268-1.188
			c0.372-0.482,0.594-1.114,0.594-1.745c0-1.82-1.3-2.154-4.085-2.786c-3.899-0.891-7.168-1.671-7.168-5.57
			c0-3.417,2.971-5.646,7.28-5.646c2.34,0,5.608,0.668,6.722,2.896c0.483,1.04,0.483,1.932,0.483,2.712h-3.565
			c0.111-2.823-2.34-3.046-3.603-3.046c-0.52,0-3.789,0-3.789,2.674c0,1.709,1.671,2.117,2.637,2.377
			c5.162,1.226,6.276,1.523,7.391,2.562c1.04,0.966,1.411,2.266,1.411,3.454c0,2.08-1.151,3.863-2.525,4.717
			c-1.634,1.003-3.603,1.263-5.534,1.263c-3.788,0-7.316-1.56-7.279-6.054H116.944z"/>
		<path fill="#FFFFFF" d="M133.171,33.822h4.197v3.825h-4.197V33.822z M133.543,41.917h3.491v18.645h-3.491V41.917z"/>
		<path fill="#FFFFFF" d="M147.171,62.01c0.148,2.08,1.04,3.64,4.345,3.64c4.866,0,4.94-3.528,4.94-8.579
			c-1.486,3.083-5.014,3.157-6.128,3.157c-1.708,0-4.16-0.372-5.719-2.303c-1.597-1.895-2.117-4.383-2.117-6.871
			c0-6.313,3.714-9.396,8.282-9.396c3.751,0,5.125,1.857,5.868,2.822l0.037-2.562h3.38l-0.074,3.38l-0.037,11.662
			c0,4.494-0.149,6.313-0.892,7.725c-1.56,2.972-5.2,3.343-7.762,3.343c-7.465,0-7.688-3.491-7.836-6.017H147.171z M155.305,55.771
			c0.743-0.966,1.263-1.969,1.263-5.349c0-2.339-0.52-3.677-1.449-4.642c-0.928-1.003-2.414-1.635-4.011-1.635
			c-4.42,0-5.014,4.457-5.014,6.834c0,2.859,0.854,6.648,5.125,6.648C153.262,57.628,154.45,56.885,155.305,55.771z"/>
		<path fill="#FFFFFF" d="M166.628,44.072l-0.037-2.154h3.491l0.038,3.009c0.408-0.78,1.746-3.38,5.979-3.38
			c1.671,0,6.759,0.632,6.759,6.351v12.665h-3.565V48.714c0-1.226-0.148-2.34-1.003-3.194c-0.891-0.854-2.117-1.263-3.305-1.263
			c-2.526,0-4.865,1.82-4.865,5.571v10.733h-3.491V44.072z"/>
		<path fill="#FFFFFF" d="M215.684,40.99c-0.149-0.929-0.631-4.643-5.794-4.643c-6.462,0-7.614,6.61-7.614,11.067
			c0,5.051,1.449,10.511,7.577,10.511c1.634,0,3.194-0.409,4.345-1.598c0.966-1.039,1.188-2.19,1.3-2.822h4.085
			c-0.557,5.273-5.422,7.465-10.028,7.465c-9.434,0-11.253-8.319-11.253-13.519c0-5.646,2.191-14.076,11.736-14.076
			c3.789,0,9.137,1.522,9.619,7.614H215.684z"/>
		<path fill="#FFFFFF" d="M224.481,45.707c0-1.264-0.074-2.563-0.186-3.789h3.528l0.075,3.603c0.668-2.6,2.896-3.454,4.457-3.677
			c1.04-0.148,1.82-0.111,2.414-0.074v3.417c-0.186-0.074-0.409-0.111-0.668-0.148S233.506,45,233.097,45
			c-4.123,0-5.088,2.451-5.088,5.646v9.916h-3.528V45.707z"/>
		<path fill="#FFFFFF" d="M238.405,33.822h4.197v3.825h-4.197V33.822z M238.777,41.917h3.491v18.645h-3.491V41.917z"/>
		<path fill="#FFFFFF" d="M246.203,41.843h3.305v-3.899l3.454-1.114v5.014h4.16v2.562h-4.16v11.18c0,0.929,0,2.488,2.488,2.488
			c0.706,0,1.375-0.111,1.671-0.186v2.711c-0.631,0.111-1.634,0.223-2.897,0.223c-3.194,0-4.717-0.929-4.717-3.974V44.406h-3.305
			V41.843z"/>
		<path fill="#FFFFFF" d="M261.094,33.822h4.197v3.825h-4.197V33.822z M261.465,41.917h3.491v18.645h-3.491V41.917z"/>
		<path fill="#FFFFFF" d="M282.373,47.897c-0.074-0.854-0.334-3.899-3.714-3.899c-4.828,0-4.828,5.608-4.828,7.02
			c0,3.825,0.929,7.391,4.643,7.391c2.971,0,3.974-2.229,4.048-4.048h3.528c-0.223,3.64-2.934,6.685-7.54,6.685
			c-1.263,0-4.16-0.26-6.128-2.414c-1.114-1.3-2.229-3.268-2.229-7.131c0-7.762,4.754-10.064,8.468-10.064
			c1.226,0,4.011,0.26,5.72,2.303c1.374,1.597,1.485,3.119,1.56,4.159H282.373z"/>
	</g>
</g>
</svg>
