<?xml version="1.0" encoding="utf-8"?>
<!-- Generator: Adobe Illustrator 16.0.0, SVG Export Plug-In . SVG Version: 6.00 Build 0)  -->
<!DOCTYPE svg PUBLIC "-//W3C//DTD SVG 1.1//EN" "http://www.w3.org/Graphics/SVG/1.1/DTD/svg11.dtd">
<svg version="1.1" id="Layer_1" xmlns="http://www.w3.org/2000/svg" xmlns:xlink="http://www.w3.org/1999/xlink" x="0px" y="0px"
	 width="297.06px" height="100.929px" viewBox="0 0 297.06 100.929" enable-background="new 0 0 297.06 100.929"
	 xml:space="preserve">
<g>
	<g>
		<path fill="#307FE2" d="M242.651,100.929H54.309L0,50.463L54.308,0h188.54l54.212,51.227L242.651,100.929z M62.086,81.129
			l172.889-0.002l32.996-30.146l0,0l-33-31.182H62.087l-33,30.664L62.086,81.129L62.086,81.129z"/>
	</g>
	<g>
		<polygon fill="#307FE2" points="59.841,17.381 26.841,48.045 24.239,50.463 26.841,52.881 59.841,83.545 60.79,84.428 
			62.086,84.428 234.972,84.428 236.251,84.428 237.197,83.565 270.197,53.418 272.82,51.023 270.238,48.583 237.238,17.401 
			236.284,16.499 234.972,16.499 62.086,16.499 60.791,16.499 		"/>
	</g>
	<g>
		<path fill="#FFFFFF" d="M237.532,87.728H59.492L19.391,50.463l40.103-37.265h178.104l40.071,37.866L237.532,87.728z
			 M62.086,81.128h172.885v0l33-30.146l0,0L234.97,19.798H62.086l-33,30.665l0.001,0L62.086,81.128L62.086,81.128z"/>
	</g>
	<g>
		<path fill="#FFFFFF" d="M89.704,40.253c-0.409-2.488-2.414-4.197-6.054-4.197c-2.525,0-4.643,0.668-6.054,2.266
			c-2.34,2.6-2.86,6.091-2.86,8.616c0,2.266,0.483,6.091,2.451,8.431c1.746,2.005,4.457,2.637,7.131,2.637
			c3.045,0,4.977-0.594,5.831-0.854v-7.948h-6.128v-3.083h9.842v13.222c-1.56,0.52-4.977,1.634-9.545,1.634
			c-4.939,0-7.836-1.411-9.73-3.343c-2.637-2.674-3.751-6.425-3.751-10.213c0-2.674,0.668-8.988,5.757-12.405
			c2.637-1.783,6.128-1.894,7.465-1.894c2.117,0,5.348,0.26,7.911,2.86c1.597,1.671,1.708,3.231,1.783,4.271H89.704z"/>
		<path fill="#FFFFFF" d="M100.506,33.605h3.491v26.778h-3.491V33.605z"/>
		<path fill="#FFFFFF" d="M118.852,41.256c7.465,0,9.136,5.868,9.136,9.768c0,5.459-3.083,9.991-9.433,9.991
			c-6.166,0-9.174-4.271-9.174-9.73C109.381,46.678,111.535,41.256,118.852,41.256z M118.629,58.415
			c2.637,0,5.645-1.895,5.645-7.502c0-4.643-2.154-7.094-5.422-7.094c-2.229,0-5.831,1.412-5.831,7.242
			C113.021,54.886,114.655,58.415,118.629,58.415z"/>
		<path fill="#FFFFFF" d="M136.934,44.45c0.483-0.854,1.857-3.194,6.091-3.194c1.857,0,4.197,0.446,5.905,2.377
			c0.928,1.077,2.191,2.934,2.191,7.02c0,3.603-0.854,5.571-1.783,6.796c-1.485,2.117-3.974,3.194-6.537,3.194
			c-0.891,0-2.562-0.111-4.16-1.188c-1.04-0.706-1.448-1.337-1.82-1.894l-0.074,2.823h-3.38l0.074-3.343V33.568h3.491V44.45z
			 M142.208,43.633c-5.348,0-5.348,6.239-5.348,7.428c0,1.226,0,7.057,5.2,7.057c4.308,0,5.385-4.197,5.385-7.242
			C147.445,49.018,147.073,43.633,142.208,43.633z"/>
		<path fill="#FFFFFF" d="M167.496,60.383c-0.26-0.929-0.334-1.82-0.334-2.786c-1.671,3.083-4.197,3.38-5.757,3.38
			c-4.271,0-6.574-2.414-6.574-5.497c0-1.486,0.52-3.863,3.269-5.459c2.005-1.114,4.977-1.226,6.462-1.226
			c0.891,0,1.448,0.037,2.525,0.111c0-2.303,0-3.306-0.668-4.123c-0.706-0.929-2.229-1.226-3.231-1.226
			c-3.528,0-3.714,2.414-3.751,3.157h-3.491c0.111-0.966,0.223-2.266,1.3-3.528c1.412-1.56,4.048-2.005,6.017-2.005
			c2.711,0,5.608,0.854,6.611,2.748c0.594,1.114,0.631,2.006,0.631,2.86l-0.149,8.914c0,0.297,0.038,2.786,0.297,4.68H167.496z
			 M165.082,51.209c-1.412,0-6.723,0-6.723,3.788c0,1.188,0.743,3.231,3.863,3.231c1.783,0,3.12-0.706,3.974-2.005
			c0.78-1.263,0.817-2.303,0.892-4.902C166.456,51.247,165.936,51.209,165.082,51.209z"/>
		<path fill="#FFFFFF" d="M176.852,33.605h3.491v26.778h-3.491V33.605z"/>
		<path fill="#FFFFFF" d="M186.766,33.642h4.197v3.825h-4.197V33.642z M187.138,41.739h3.491v18.644h-3.491V41.739z"/>
		<path fill="#FFFFFF" d="M199.429,54.849c-0.037,1.411,0.706,3.379,4.085,3.379c1.448,0,2.525-0.26,3.268-1.188
			c0.372-0.482,0.594-1.114,0.594-1.746c0-1.82-1.3-2.154-4.085-2.785c-3.899-0.892-7.168-1.671-7.168-5.571
			c0-3.417,2.971-5.645,7.28-5.645c2.34,0,5.608,0.668,6.722,2.897c0.483,1.04,0.483,1.931,0.483,2.711h-3.565
			c0.111-2.822-2.34-3.045-3.603-3.045c-0.52,0-3.789,0-3.789,2.674c0,1.708,1.671,2.117,2.637,2.377
			c5.162,1.226,6.276,1.522,7.391,2.562c1.04,0.966,1.411,2.266,1.411,3.454c0,2.08-1.151,3.862-2.525,4.717
			c-1.634,1.002-3.603,1.263-5.534,1.263c-3.788,0-7.316-1.56-7.279-6.054H199.429z"/>
		<path fill="#FFFFFF" d="M213.13,41.665h3.305v-3.9l3.454-1.114v5.014h4.16v2.562h-4.16v11.179c0,0.928,0,2.488,2.488,2.488
			c0.706,0,1.375-0.111,1.671-0.186v2.711c-0.631,0.111-1.634,0.223-2.897,0.223c-3.194,0-4.717-0.928-4.717-3.974V44.227h-3.305
			V41.665z"/>
	</g>
</g>
</svg>
