<?xml version="1.0" encoding="utf-8"?>
<!-- Generator: Adobe Illustrator 16.0.0, SVG Export Plug-In . SVG Version: 6.00 Build 0)  -->
<!DOCTYPE svg PUBLIC "-//W3C//DTD SVG 1.1//EN" "http://www.w3.org/Graphics/SVG/1.1/DTD/svg11.dtd">
<svg version="1.1" id="Layer_1" xmlns="http://www.w3.org/2000/svg" xmlns:xlink="http://www.w3.org/1999/xlink" x="0px" y="0px"
	 width="360.312px" height="100.929px" viewBox="0 0 360.312 100.929" enable-background="new 0 0 360.312 100.929"
	 xml:space="preserve">
<g>
	<g>
		<path fill="#307FE2" d="M306.003,100.93H54.304L0,50.438L54.313,0h251.691l54.308,50.467L306.003,100.93z M62.087,81.13l236.139,0
			l33-30.663L298.224,19.8L62.086,19.801L29.087,50.446L62.088,81.13H62.087z"/>
	</g>
	<g>
		<polygon fill="#307FE2" points="59.843,17.381 26.843,48.028 24.239,50.445 26.841,52.863 59.841,83.546 60.792,84.429 
			62.089,84.429 298.224,84.429 299.521,84.429 300.47,83.547 333.47,52.883 336.073,50.465 333.47,48.048 300.47,17.382 
			299.521,16.5 298.224,16.5 62.089,16.5 60.792,16.5 		"/>
	</g>
	<g>
		<path fill="#FFFFFF" d="M300.817,87.729H59.497L19.391,50.443L59.496,13.2h241.322l40.105,37.265L300.817,87.729z M62.087,81.129
			h236.137l32.999-30.664l-33-30.667H62.088l-33,30.647L62.087,81.129L62.087,81.129z"/>
	</g>
	<g>
		<path fill="#FFFFFF" d="M68.461,33.629h16.825v3.157h-13.11v8.356h12.479v3.12H72.176v8.913h13.407v3.269H68.461V33.629z"/>
		<path fill="#FFFFFF" d="M91.708,43.954L91.67,41.8h3.491l0.037,3.008c0.408-0.78,1.745-3.38,5.979-3.38
			c1.671,0,6.76,0.631,6.76,6.351v12.665h-3.566V48.597c0-1.226-0.148-2.34-1.002-3.194c-0.892-0.854-2.117-1.263-3.306-1.263
			c-2.525,0-4.865,1.82-4.865,5.571v10.733h-3.491V43.954z"/>
		<path fill="#FFFFFF" d="M111.423,41.726h3.306v-3.899l3.454-1.114v5.014h4.16v2.563h-4.16v11.179c0,0.928,0,2.488,2.488,2.488
			c0.706,0,1.374-0.111,1.672-0.186v2.711c-0.632,0.111-1.635,0.223-2.897,0.223c-3.194,0-4.717-0.928-4.717-3.974V44.289h-3.306
			V41.726z"/>
		<path fill="#FFFFFF" d="M126.834,45.588c0-1.263-0.074-2.562-0.186-3.788h3.528l0.074,3.603c0.668-2.6,2.896-3.454,4.457-3.677
			c1.039-0.148,1.819-0.111,2.414-0.074v3.417c-0.187-0.074-0.409-0.111-0.669-0.148s-0.594-0.037-1.003-0.037
			c-4.122,0-5.088,2.451-5.088,5.645v9.917h-3.528V45.588z"/>
		<path fill="#FFFFFF" d="M143.21,51.753c-0.075,3.863,1.522,6.723,5.348,6.723c2.266,0,4.085-1.188,4.383-3.863h3.491
			c-0.111,0.929-0.261,2.451-1.598,3.9c-0.816,0.928-2.674,2.488-6.425,2.488c-5.868,0-8.653-3.64-8.653-9.545
			c0-3.677,0.742-6.722,3.677-8.765c1.782-1.263,4.011-1.374,5.088-1.374c8.356,0,8.171,7.391,8.097,10.436H143.21z M153.052,49.302
			c0.037-1.783-0.297-5.497-4.605-5.497c-2.266,0-5.014,1.374-5.088,5.497H153.052z"/>
		<path fill="#FFFFFF" d="M161.628,44.846c0-0.817-0.037-1.263-0.111-3.045h3.528l0.074,3.083c1.745-2.934,4.828-3.38,6.351-3.38
			c4.011,0,7.837,2.749,7.837,9.656c0,6.945-4.049,9.991-8.506,9.991c-2.711,0-4.717-1.151-5.719-2.786v9.248h-3.454V44.846z
			 M170.208,58.587c0.892,0,2.748-0.186,3.937-1.82c1.337-1.82,1.522-4.494,1.522-5.831c0-3.343-1.002-6.834-5.125-6.834
			c-5.571,0-5.571,5.905-5.571,7.577C164.97,53.945,165.305,58.587,170.208,58.587z"/>
		<path fill="#FFFFFF" d="M184.613,45.588c0-1.263-0.074-2.562-0.186-3.788h3.528l0.074,3.603c0.668-2.6,2.896-3.454,4.457-3.677
			c1.039-0.148,1.819-0.111,2.414-0.074v3.417c-0.187-0.074-0.409-0.111-0.669-0.148s-0.595-0.037-1.003-0.037
			c-4.122,0-5.088,2.451-5.088,5.645v9.917h-3.528V45.588z"/>
		<path fill="#FFFFFF" d="M200.99,51.753c-0.075,3.863,1.522,6.723,5.348,6.723c2.266,0,4.085-1.188,4.383-3.863h3.491
			c-0.111,0.929-0.261,2.451-1.598,3.9c-0.816,0.928-2.674,2.488-6.425,2.488c-5.868,0-8.653-3.64-8.653-9.545
			c0-3.677,0.742-6.722,3.677-8.765c1.782-1.263,4.011-1.374,5.088-1.374c8.356,0,8.171,7.391,8.097,10.436H200.99z M210.832,49.302
			c0.037-1.783-0.297-5.497-4.605-5.497c-2.266,0-5.014,1.374-5.088,5.497H210.832z"/>
		<path fill="#FFFFFF" d="M219.629,43.954l-0.037-2.154h3.491l0.037,3.008c0.408-0.78,1.745-3.38,5.979-3.38
			c1.671,0,6.76,0.631,6.76,6.351v12.665h-3.566V48.597c0-1.226-0.148-2.34-1.002-3.194c-0.892-0.854-2.117-1.263-3.306-1.263
			c-2.525,0-4.865,1.82-4.865,5.571v10.733h-3.491V43.954z"/>
		<path fill="#FFFFFF" d="M244.324,51.753c-0.075,3.863,1.522,6.723,5.348,6.723c2.266,0,4.085-1.188,4.383-3.863h3.491
			c-0.111,0.929-0.261,2.451-1.598,3.9c-0.816,0.928-2.674,2.488-6.425,2.488c-5.868,0-8.653-3.64-8.653-9.545
			c0-3.677,0.742-6.722,3.677-8.765c1.782-1.263,4.011-1.374,5.088-1.374c8.356,0,8.171,7.391,8.097,10.436H244.324z
			 M254.166,49.302c0.037-1.783-0.297-5.497-4.605-5.497c-2.266,0-5.014,1.374-5.088,5.497H254.166z"/>
		<path fill="#FFFFFF" d="M266.045,41.8v11.996c0,1.82,0.409,4.123,3.975,4.123c1.745,0,3.38-0.594,4.382-2.08
			c0.78-1.114,0.78-2.562,0.78-3.491V41.8h3.603v15.153c0,0.372,0.074,2.451,0.111,3.491h-3.64l-0.074-3.194
			c-0.668,1.3-1.932,3.379-5.942,3.379c-4.605,0-6.76-2.637-6.76-6.313V41.8H266.045z"/>
		<path fill="#FFFFFF" d="M285.726,45.588c0-1.263-0.074-2.562-0.186-3.788h3.528l0.074,3.603c0.668-2.6,2.896-3.454,4.457-3.677
			c1.039-0.148,1.819-0.111,2.414-0.074v3.417c-0.187-0.074-0.409-0.111-0.669-0.148s-0.595-0.037-1.003-0.037
			c-4.122,0-5.088,2.451-5.088,5.645v9.917h-3.528V45.588z"/>
	</g>
</g>
</svg>
