<?xml version="1.0" encoding="utf-8"?>
<!-- Generator: Adobe Illustrator 16.0.0, SVG Export Plug-In . SVG Version: 6.00 Build 0)  -->
<!DOCTYPE svg PUBLIC "-//W3C//DTD SVG 1.1//EN" "http://www.w3.org/Graphics/SVG/1.1/DTD/svg11.dtd">
<svg version="1.1" id="Layer_1" xmlns="http://www.w3.org/2000/svg" xmlns:xlink="http://www.w3.org/1999/xlink" x="0px" y="0px"
	 width="231.533px" height="116.505px" viewBox="0 0 231.533 116.505" enable-background="new 0 0 231.533 116.505"
	 xml:space="preserve">
<g>
	<g>
		<g>
			<path fill="#307FE2" d="M46.324,116.505c-10.514,0-20.087-4.835-28.455-14.371C3.999,86.332-1.703,71.142,0.438,55.699
				c2.241-16.16,13.084-30.259,22.28-40.737C31.43,5.034,41.087,0,51.419,0c8.804,0,16.109,3.643,21.444,6.302
				c5.418,2.7,9.688,4.83,15.822,4.83c10.389,0,14.802-1.347,20.909-3.212c7.21-2.202,16.179-4.94,32.487-4.94
				c7.14,0,12.048-0.525,16.796-1.034c3.719-0.398,7.682-0.787,11.644-0.787c10.298,0,19.489,2.607,32.783,9.3
				c15.649,7.878,24.902,18.657,27.502,32.035c4.033,20.745-9.413,39.482-23.101,55.075l0.001,0.001
				c-9.684,11.036-19.865,16.4-31.127,16.4c-6.892,0-12.738-1.974-17.896-3.715c-5.342-1.804-9.954-3.362-16.595-3.362
				c-14.789,0-22.632-1.141-29.551-2.148c-6.398-0.933-11.924-1.738-23.85-1.738c-6.077,0-11.361,2.711-17.48,5.851
				C64.914,112.086,56.302,116.505,46.324,116.505z M51.419,19.8c-1.633,0-6.604,0-13.819,8.223
				C26.646,40.502,21.234,49.876,20.051,58.418c-0.832,6-0.421,15.706,12.7,30.655c6.003,6.841,10.621,7.632,13.573,7.632
				c5.195,0,10.851-2.902,15.842-5.462c7.345-3.768,15.663-8.036,26.523-8.036c13.361,0,20.144,0.988,26.703,1.944
				c6.859,0.998,13.341,1.941,26.697,1.941c9.894,0,16.819,2.339,22.93,4.402c4.073,1.375,7.921,2.675,11.56,2.675
				c3.335,0,8.647-1.001,16.245-9.66h-0.001c10.518-11.983,20.946-25.896,18.547-38.239c-1.37-7.05-7.079-13.148-16.969-18.127
				c-11.885-5.983-17.948-7.186-23.88-7.186c-2.707,0-5.546,0.248-9.536,0.675c-4.771,0.511-10.707,1.146-18.903,1.146
				c-13.353,0-20.139,2.072-26.7,4.076c-6.869,2.097-13.353,4.076-26.696,4.076c-10.795,0-18.475-3.828-24.646-6.904
				C59.865,21.946,55.561,19.8,51.419,19.8z"/>
		</g>
		<g>
			<path fill="#307FE2" d="M192.824,84.51c-17.607,20.066-24.037,2.584-50.734,2.584c-26.699,0-26.699-3.888-53.398-3.888
				c-26.697,0-38.33,25.935-55.939,5.868C12.684,66.211,17.533,50.887,37.6,28.023c17.607-20.066,24.389,2.908,51.086,2.908
				c26.695,0,26.695-8.152,53.396-8.152c26.699,0,28.471-6.641,52.318,5.364C222.014,42.045,212.891,61.646,192.824,84.51"/>
		</g>
		<g>
			<path fill="#FFFFFF" d="M46.548,99.99c-5.792,0-11.116-2.858-16.276-8.739C8.181,66.084,14.933,48.848,35.119,25.846
				c5.595-6.376,10.806-9.345,16.399-9.345c4.819,0,9.271,2.219,13.983,4.568c6.169,3.076,13.161,6.562,23.184,6.562
				c12.854,0,19.109-1.91,25.731-3.932c6.795-2.075,13.821-4.22,27.665-4.22c8.021,0,13.616-0.599,18.553-1.128
				c3.531-0.378,6.58-0.704,9.697-0.704c7.597,0,14.761,2.116,25.552,7.548c11.003,5.54,17.128,12.227,18.726,20.445
				c1.411,7.261,0.493,18.488-19.305,41.046c-6.532,7.445-12.333,10.765-18.808,10.765c-4.153,0-8.037-1.311-12.534-2.83
				c-5.869-1.981-12.522-4.228-21.873-4.228c-13.589,0-20.495-1.005-27.175-1.978c-6.743-0.982-13.113-1.91-26.224-1.91
				c-10.066,0-18.011,4.076-25.02,7.672c-5.825,2.989-11.326,5.811-17.121,5.812C46.55,99.99,46.549,99.99,46.548,99.99z
				 M51.519,23.101c-2.236,0-5.855,0.736-11.438,7.099C29.403,42.365,24.414,50.968,23.399,58.965
				c-1.109,8.732,2.54,17.347,11.833,27.933c5.105,5.819,8.903,6.492,11.315,6.492c0,0,0.001,0,0.002,0
				c4.201,0,8.793-2.356,14.109-5.084c7.294-3.742,16.372-8.399,28.032-8.399c13.589,0,20.495,1.005,27.175,1.978
				c6.743,0.982,13.113,1.91,26.224,1.91c10.435,0,17.947,2.536,23.984,4.574c3.946,1.333,7.354,2.483,10.423,2.483
				c3.151,0,7.261-1.012,13.847-8.518c9.405-10.716,19.927-24.428,17.787-35.433c-1.183-6.079-6.159-11.25-15.215-15.81
				c-11.32-5.699-17.034-6.843-22.584-6.843c-2.765,0-5.651,0.309-8.994,0.667c-4.849,0.519-10.882,1.165-19.256,1.165
				c-12.858,0-19.114,1.911-25.738,3.933c-6.793,2.075-13.818,4.22-27.658,4.22c-11.576,0-19.646-4.022-26.129-7.255
				C58.386,24.896,54.784,23.101,51.519,23.101z"/>
		</g>
	</g>
	<g>
		<path fill="#FFFFFF" d="M56.782,44.258v11.513h12.739V44.258h3.713v26.815h-3.713V58.965H56.782v12.107h-3.714V44.258H56.782z"/>
		<path fill="#FFFFFF" d="M79.543,44.332h4.197v3.825h-4.197V44.332z M79.915,52.429h3.491v18.644h-3.491V52.429z"/>
		<path fill="#FFFFFF" d="M92.207,65.539c-0.037,1.411,0.705,3.379,4.085,3.379c1.448,0,2.525-0.26,3.269-1.188
			c0.371-0.482,0.594-1.114,0.594-1.746c0-1.82-1.3-2.154-4.086-2.785c-3.898-0.892-7.168-1.671-7.168-5.571
			c0-3.417,2.972-5.645,7.28-5.645c2.339,0,5.608,0.668,6.722,2.897c0.483,1.04,0.483,1.931,0.483,2.711H99.82
			c0.111-2.822-2.34-3.045-3.603-3.045c-0.521,0-3.788,0-3.788,2.674c0,1.708,1.671,2.117,2.637,2.377
			c5.162,1.226,6.276,1.522,7.391,2.562c1.04,0.966,1.412,2.266,1.412,3.454c0,2.08-1.152,3.862-2.526,4.717
			c-1.634,1.002-3.603,1.263-5.534,1.263c-3.787,0-7.316-1.56-7.279-6.054H92.207z"/>
		<path fill="#FFFFFF" d="M119.09,44.258h7.764c3.602,0,7.836,0,10.807,3.491c2.377,2.785,3.306,6.462,3.306,10.139
			c0,5.794-2.414,9.359-4.456,10.993c-2.638,2.191-5.943,2.191-9.88,2.191h-7.54V44.258z M122.805,68.027h3.64
			c2.562,0,5.237-0.148,7.02-1.486c3.417-2.562,3.528-6.945,3.528-8.505c0-1.003-0.074-5.571-2.6-8.356
			c-1.709-1.894-3.863-2.34-7.131-2.34h-4.457V68.027z"/>
		<path fill="#FFFFFF" d="M157.266,71.073c-0.261-0.929-0.335-1.82-0.335-2.786c-1.671,3.083-4.196,3.38-5.757,3.38
			c-4.271,0-6.574-2.414-6.574-5.497c0-1.486,0.521-3.863,3.27-5.459c2.005-1.114,4.977-1.226,6.462-1.226
			c0.892,0,1.448,0.038,2.525,0.112c0-2.303,0-3.306-0.669-4.123c-0.705-0.929-2.229-1.226-3.23-1.226
			c-3.529,0-3.715,2.414-3.752,3.157h-3.49c0.111-0.966,0.223-2.266,1.299-3.528c1.412-1.56,4.049-2.005,6.018-2.005
			c2.711,0,5.607,0.854,6.611,2.748c0.594,1.114,0.631,2.006,0.631,2.86l-0.148,8.914c0,0.297,0.037,2.786,0.297,4.68H157.266z
			 M154.852,61.899c-1.412,0-6.723,0-6.723,3.788c0,1.188,0.742,3.231,3.862,3.231c1.782,0,3.12-0.706,3.974-2.005
			c0.78-1.263,0.817-2.303,0.892-4.902C156.225,61.937,155.705,61.899,154.852,61.899z"/>
		<path fill="#FFFFFF" d="M179.471,44.295h3.491v23.807c0,0.409,0.074,2.005,0.148,2.971h-3.491l-0.074-2.971
			c-0.297,0.52-0.705,1.3-1.671,1.968c-1.522,1.04-3.343,1.375-4.605,1.375c-2.488,0-8.022-1.3-8.022-9.471
			c0-7.094,4.049-10.176,8.432-10.176c4.01,0,5.348,2.377,5.793,3.157V44.295z M178.171,56.291
			c-0.743-0.965-2.116-1.894-4.085-1.894c-5.125,0-5.125,6.202-5.125,7.465c0,3.306,0.854,7.131,5.125,7.131
			c5.496,0,5.496-6.054,5.496-7.502C179.582,58.779,178.951,57.294,178.171,56.291z"/>
	</g>
</g>
</svg>
