<?xml version="1.0" encoding="utf-8"?>
<!-- Generator: Adobe Illustrator 16.0.0, SVG Export Plug-In . SVG Version: 6.00 Build 0)  -->
<!DOCTYPE svg PUBLIC "-//W3C//DTD SVG 1.1//EN" "http://www.w3.org/Graphics/SVG/1.1/DTD/svg11.dtd">
<svg version="1.1" id="Layer_1" xmlns="http://www.w3.org/2000/svg" xmlns:xlink="http://www.w3.org/1999/xlink" x="0px" y="0px"
	 width="192.979px" height="103.903px" viewBox="0 0 192.979 103.903" enable-background="new 0 0 192.979 103.903"
	 xml:space="preserve">
<g>
	<g>
		<path fill="#FFFFFF" d="M49.127,54.254c0.074,1.857,0.297,5.312,6.462,5.312c5.571,0,6.276-3.454,6.276-4.791
			c0-3.009-2.414-3.603-6.165-4.531c-4.085-1.003-5.905-1.448-7.279-2.377c-2.191-1.485-2.786-3.491-2.786-5.273
			c0-5.46,5.163-7.837,10.213-7.837c1.783,0,5.385,0.297,7.54,2.637c1.486,1.635,1.56,3.454,1.634,4.568H61.16
			c-0.186-3.343-3.008-4.085-5.645-4.085c-3.714,0-5.942,1.671-5.942,4.345c0,2.377,1.56,3.194,4.828,3.975
			c6.388,1.634,7.094,1.782,8.653,2.822c2.489,1.634,2.674,4.234,2.674,5.349c0,4.754-3.714,8.356-10.585,8.356
			c-2.042,0-6.202-0.335-8.319-3.046c-1.522-1.969-1.56-4.123-1.56-5.423H49.127z"/>
		<path fill="#FFFFFF" d="M78.909,62.203l-2.674,6.945h-3.603l2.823-7.131l-7.762-18.57h3.937l5.831,14.708l5.942-14.708h3.789
			L78.909,62.203z"/>
		<path fill="#FFFFFF" d="M91.235,35.313h3.491v26.778h-3.491V35.313z"/>
		<path fill="#FFFFFF" d="M98.662,43.447h3.899l5.942,14.782l5.794-14.782h3.863l-8.171,18.645h-3.528L98.662,43.447z"/>
		<path fill="#FFFFFF" d="M121.796,35.351h4.197v3.825h-4.197V35.351z M122.167,43.447h3.491v18.645h-3.491V43.447z"/>
		<path fill="#FFFFFF" d="M143.818,62.091c-0.26-0.929-0.334-1.82-0.334-2.785c-1.671,3.082-4.197,3.379-5.757,3.379
			c-4.271,0-6.574-2.414-6.574-5.496c0-1.485,0.52-3.862,3.269-5.46c2.005-1.114,4.977-1.226,6.462-1.226
			c0.891,0,1.448,0.037,2.525,0.111c0-2.303,0-3.305-0.668-4.122c-0.706-0.929-2.229-1.226-3.231-1.226
			c-3.528,0-3.714,2.414-3.751,3.156h-3.491c0.111-0.965,0.223-2.265,1.3-3.527c1.412-1.561,4.048-2.006,6.017-2.006
			c2.711,0,5.608,0.854,6.611,2.748c0.594,1.114,0.631,2.006,0.631,2.86l-0.149,8.913c0,0.297,0.037,2.785,0.297,4.68H143.818z
			 M141.404,52.917c-1.412,0-6.723,0-6.723,3.788c0,1.188,0.743,3.231,3.863,3.231c1.783,0,3.12-0.705,3.974-2.006
			c0.78-1.263,0.817-2.302,0.892-4.902C142.778,52.955,142.258,52.917,141.404,52.917z"/>
	</g>
	<g>
		<path fill="#307FE2" d="M192.979,103.903H0V0h192.979V103.903z M19.799,84.104l153.38,0V19.798l0,0.001H19.799V84.104
			L19.799,84.104z"/>
	</g>
	<g>
		<polygon fill="#307FE2" points="16.5,19.796 16.5,84.101 16.5,87.4 19.8,87.4 173.18,87.4 176.48,87.4 176.48,84.101 
			176.48,19.796 176.48,16.496 173.18,16.496 19.8,16.496 16.5,16.496 		"/>
	</g>
	<g>
		<path fill="#FFFFFF" d="M49.129,54.252c0.074,1.857,0.297,5.312,6.462,5.312c5.571,0,6.276-3.454,6.276-4.791
			c0-3.009-2.414-3.603-6.165-4.531c-4.085-1.003-5.905-1.448-7.279-2.377c-2.191-1.485-2.786-3.491-2.786-5.273
			c0-5.46,5.163-7.837,10.213-7.837c1.783,0,5.385,0.297,7.54,2.637c1.486,1.635,1.56,3.454,1.634,4.568h-3.863
			c-0.186-3.343-3.008-4.085-5.645-4.085c-3.714,0-5.942,1.671-5.942,4.345c0,2.377,1.56,3.194,4.828,3.975
			c6.388,1.634,7.094,1.782,8.653,2.822c2.489,1.634,2.674,4.234,2.674,5.349c0,4.754-3.714,8.356-10.585,8.356
			c-2.042,0-6.202-0.335-8.319-3.046c-1.522-1.969-1.56-4.123-1.56-5.423H49.129z"/>
		<path fill="#FFFFFF" d="M78.911,62.201l-2.674,6.945h-3.603l2.823-7.131l-7.762-18.57h3.937l5.831,14.708l5.942-14.708h3.789
			L78.911,62.201z"/>
		<path fill="#FFFFFF" d="M91.237,35.311h3.491v26.778h-3.491V35.311z"/>
		<path fill="#FFFFFF" d="M98.664,43.445h3.899l5.942,14.782l5.794-14.782h3.863l-8.171,18.645h-3.528L98.664,43.445z"/>
		<path fill="#FFFFFF" d="M121.798,35.349h4.197v3.825h-4.197V35.349z M122.169,43.445h3.491v18.645h-3.491V43.445z"/>
		<path fill="#FFFFFF" d="M143.82,62.089c-0.26-0.929-0.334-1.82-0.334-2.785c-1.671,3.082-4.197,3.379-5.757,3.379
			c-4.271,0-6.574-2.414-6.574-5.496c0-1.485,0.52-3.862,3.269-5.46c2.005-1.114,4.977-1.226,6.462-1.226
			c0.891,0,1.448,0.037,2.525,0.111c0-2.303,0-3.305-0.668-4.122c-0.706-0.929-2.229-1.226-3.231-1.226
			c-3.528,0-3.714,2.414-3.751,3.156h-3.491c0.111-0.965,0.223-2.265,1.3-3.527c1.412-1.561,4.048-2.006,6.017-2.006
			c2.711,0,5.608,0.854,6.611,2.748c0.594,1.114,0.631,2.006,0.631,2.86l-0.149,8.913c0,0.297,0.037,2.785,0.297,4.68H143.82z
			 M141.406,52.916c-1.412,0-6.723,0-6.723,3.788c0,1.188,0.743,3.231,3.863,3.231c1.783,0,3.12-0.705,3.974-2.006
			c0.78-1.263,0.817-2.302,0.892-4.902C142.78,52.953,142.26,52.916,141.406,52.916z"/>
	</g>
	<g>
		<path fill="#FFFFFF" d="M179.78,90.7H13.201V13.196H179.78V90.7z M19.8,84.1h153.38V19.795L19.8,19.796V84.1L19.8,84.1z"/>
	</g>
</g>
</svg>
