<?xml version="1.0" encoding="utf-8"?>
<!-- Generator: Adobe Illustrator 16.0.0, SVG Export Plug-In . SVG Version: 6.00 Build 0)  -->
<!DOCTYPE svg PUBLIC "-//W3C//DTD SVG 1.1//EN" "http://www.w3.org/Graphics/SVG/1.1/DTD/svg11.dtd">
<svg version="1.1" id="Layer_1" xmlns="http://www.w3.org/2000/svg" xmlns:xlink="http://www.w3.org/1999/xlink" x="0px" y="0px"
	 width="288.671px" height="100.929px" viewBox="0 0 288.671 100.929" enable-background="new 0 0 288.671 100.929"
	 xml:space="preserve">
<g>
	<g>
		<path fill="#307FE2" d="M234.305,100.929H54.291L0,50.332L54.326,0H234.42l54.251,50.92L234.305,100.929z M62.088,81.129h164.495
			l-0.001,0l33-30.354l-33-30.974H62.088l-33,30.574L62.09,81.129H62.088z"/>
	</g>
	<g>
		<polygon fill="#307FE2" points="59.846,17.378 26.846,47.952 24.24,50.366 26.839,52.788 59.839,83.542 60.789,84.429 
			62.089,84.429 226.583,84.429 227.87,84.429 228.817,83.558 261.817,53.202 264.431,50.798 261.842,48.367 228.842,17.393 
			227.889,16.5 226.583,16.5 62.089,16.5 60.795,16.5 		"/>
	</g>
	<g>
		<path fill="#FFFFFF" d="M229.157,87.729H59.488L19.392,50.358L59.501,13.2h169.693l40.085,37.625L229.157,87.729z M62.089,81.129
			h164.494l33-30.357l0,0l-33-30.973H62.089l-33,30.574l0,0L62.089,81.129L62.089,81.129z"/>
	</g>
	<g>
		<path fill="#FFFFFF" d="M83.55,40.662c-0.149-0.929-0.631-4.643-5.794-4.643c-6.462,0-7.614,6.61-7.614,11.067
			c0,5.051,1.449,10.511,7.577,10.511c1.634,0,3.194-0.409,4.345-1.598c0.966-1.039,1.188-2.19,1.3-2.822h4.085
			c-0.557,5.273-5.422,7.465-10.028,7.465c-9.434,0-11.253-8.319-11.253-13.519c0-5.646,2.191-14.076,11.736-14.076
			c3.789,0,9.137,1.522,9.619,7.614H83.55z"/>
		<path fill="#FFFFFF" d="M100.258,41.107c7.465,0,9.136,5.868,9.136,9.768c0,5.46-3.083,9.991-9.433,9.991
			c-6.166,0-9.174-4.271-9.174-9.731C90.788,46.529,92.942,41.107,100.258,41.107z M100.036,58.265c2.637,0,5.645-1.894,5.645-7.502
			c0-4.643-2.154-7.094-5.422-7.094c-2.229,0-5.831,1.411-5.831,7.242C94.427,54.737,96.062,58.265,100.036,58.265z"/>
		<path fill="#FFFFFF" d="M114.924,33.456h3.491v26.778h-3.491V33.456z"/>
		<path fill="#FFFFFF" d="M125.248,33.456h3.491v26.778h-3.491V33.456z"/>
		<path fill="#FFFFFF" d="M137.613,51.543c-0.074,3.862,1.523,6.722,5.348,6.722c2.266,0,4.085-1.188,4.382-3.862h3.491
			c-0.111,0.929-0.26,2.451-1.597,3.899c-0.817,0.929-2.674,2.488-6.425,2.488c-5.868,0-8.654-3.64-8.654-9.545
			c0-3.677,0.743-6.722,3.677-8.765c1.783-1.263,4.011-1.374,5.088-1.374c8.356,0,8.171,7.391,8.097,10.437H137.613z
			 M147.455,49.092c0.037-1.783-0.297-5.497-4.605-5.497c-2.266,0-5.014,1.374-5.088,5.497H147.455z"/>
		<path fill="#FFFFFF" d="M166.764,47.569c-0.074-0.854-0.334-3.899-3.714-3.899c-4.828,0-4.828,5.608-4.828,7.02
			c0,3.825,0.929,7.391,4.643,7.391c2.971,0,3.974-2.229,4.048-4.048h3.528c-0.223,3.64-2.934,6.685-7.54,6.685
			c-1.263,0-4.16-0.26-6.128-2.414c-1.114-1.3-2.229-3.268-2.229-7.131c0-7.762,4.754-10.064,8.468-10.064
			c1.226,0,4.011,0.26,5.72,2.303c1.374,1.597,1.485,3.119,1.56,4.159H166.764z"/>
		<path fill="#FFFFFF" d="M171.849,41.515h3.305v-3.899l3.454-1.114v5.014h4.16v2.562h-4.16v11.18c0,0.929,0,2.488,2.488,2.488
			c0.706,0,1.375-0.111,1.671-0.186v2.711c-0.631,0.111-1.634,0.223-2.897,0.223c-3.194,0-4.717-0.929-4.717-3.974V44.078h-3.305
			V41.515z"/>
		<path fill="#FFFFFF" d="M195.17,41.107c7.465,0,9.137,5.868,9.137,9.768c0,5.46-3.083,9.991-9.434,9.991
			c-6.166,0-9.174-4.271-9.174-9.731C185.699,46.529,187.854,41.107,195.17,41.107z M194.947,58.265
			c2.637,0,5.645-1.894,5.645-7.502c0-4.643-2.154-7.094-5.422-7.094c-2.229,0-5.831,1.411-5.831,7.242
			C189.339,54.737,190.973,58.265,194.947,58.265z"/>
		<path fill="#FFFFFF" d="M209.948,45.378c0-1.264-0.074-2.563-0.186-3.789h3.528l0.075,3.603c0.668-2.6,2.896-3.454,4.457-3.677
			c1.04-0.148,1.82-0.111,2.414-0.074v3.417c-0.186-0.074-0.409-0.111-0.668-0.148s-0.594-0.037-1.003-0.037
			c-4.123,0-5.088,2.451-5.088,5.646v9.916h-3.528V45.378z"/>
	</g>
</g>
</svg>
