<?xml version="1.0" encoding="utf-8"?>
<!-- Generator: Adobe Illustrator 16.0.0, SVG Export Plug-In . SVG Version: 6.00 Build 0)  -->
<!DOCTYPE svg PUBLIC "-//W3C//DTD SVG 1.1//EN" "http://www.w3.org/Graphics/SVG/1.1/DTD/svg11.dtd">
<svg version="1.1" id="Layer_1" xmlns="http://www.w3.org/2000/svg" xmlns:xlink="http://www.w3.org/1999/xlink" x="0px" y="0px"
	 width="256.771px" height="107.202px" viewBox="0 0 256.771 107.202" enable-background="new 0 0 256.771 107.202"
	 xml:space="preserve">
<g>
	<g>
		<rect x="84.168" y="30.076" fill="#307FE2" width="78.031" height="60.944"/>
	</g>
	<g>
		<path fill="#307FE2" d="M162.699,91.52H83.668V29.576h79.031V91.52z M84.668,90.52h77.031V30.576H84.668V90.52z"/>
	</g>
	<g>
		<rect x="47.844" y="22.895" fill="#307FE2" width="150.68" height="70.854"/>
	</g>
	<g>
		<path fill="#307FE2" d="M199.023,94.249H47.344V22.395h151.68V94.249z M48.344,93.249h149.68V23.395H48.344V93.249z"/>
	</g>
	<g>
		<path fill="#FFFFFF" d="M46.452,35.278h8.987c3.269,0,5.497,0.187,7.316,2.154c1.338,1.374,1.969,3.194,1.969,5.2
			c0,2.042-0.668,3.788-2.117,5.236c-1.411,1.411-3.268,2.303-8.096,2.303h-4.346v11.922h-3.714V35.278z M50.166,47.051h4.42
			c2.451,0,6.202-0.186,6.202-4.567c0-4.197-3.491-4.197-5.423-4.197h-5.199V47.051z"/>
		<path fill="#FFFFFF" d="M68.62,47.238c0-1.264-0.074-2.563-0.186-3.789h3.528l0.074,3.603c0.668-2.6,2.896-3.454,4.457-3.677
			c1.039-0.148,1.819-0.111,2.414-0.074v3.417c-0.187-0.074-0.409-0.111-0.669-0.148s-0.595-0.037-1.003-0.037
			c-4.122,0-5.088,2.451-5.088,5.646v9.916H68.62V47.238z"/>
		<path fill="#FFFFFF" d="M90.976,42.966c7.465,0,9.136,5.868,9.136,9.768c0,5.46-3.082,9.991-9.434,9.991
			c-6.165,0-9.173-4.271-9.173-9.731C81.505,48.388,83.658,42.966,90.976,42.966z M90.752,60.125c2.638,0,5.646-1.894,5.646-7.502
			c0-4.643-2.154-7.094-5.422-7.094c-2.229,0-5.831,1.411-5.831,7.242C85.145,56.596,86.778,60.125,90.752,60.125z"/>
		<path fill="#FFFFFF" d="M114.89,37.878c-0.595-0.037-1.338-0.074-2.043-0.074c-2.823,0-2.823,1.411-2.823,2.711v2.934h4.346v2.525
			h-4.346v16.119h-3.453V45.974h-3.678v-2.525h3.678v-2.116c0-2.563,0.148-3.491,0.779-4.457c0.78-1.188,2.266-2.043,4.68-2.043
			c1.003,0,2.117,0.148,2.86,0.26V37.878z"/>
		<path fill="#FFFFFF" d="M120.05,53.403c-0.075,3.862,1.522,6.722,5.348,6.722c2.266,0,4.085-1.188,4.383-3.862h3.491
			c-0.111,0.929-0.261,2.451-1.598,3.899c-0.816,0.929-2.674,2.488-6.425,2.488c-5.868,0-8.653-3.64-8.653-9.545
			c0-3.677,0.742-6.722,3.677-8.765c1.782-1.263,4.011-1.374,5.088-1.374c8.356,0,8.171,7.391,8.097,10.437H120.05z M129.892,50.952
			c0.037-1.783-0.297-5.497-4.605-5.497c-2.266,0-5.014,1.374-5.088,5.497H129.892z"/>
		<path fill="#FFFFFF" d="M140.583,56.559c-0.037,1.412,0.706,3.38,4.086,3.38c1.448,0,2.525-0.26,3.269-1.188
			c0.371-0.482,0.594-1.114,0.594-1.745c0-1.82-1.3-2.154-4.085-2.786c-3.9-0.891-7.168-1.671-7.168-5.57
			c0-3.417,2.971-5.646,7.279-5.646c2.34,0,5.608,0.668,6.722,2.896c0.483,1.04,0.483,1.932,0.483,2.712h-3.565
			c0.111-2.823-2.34-3.046-3.603-3.046c-0.521,0-3.788,0-3.788,2.674c0,1.709,1.671,2.117,2.637,2.377
			c5.162,1.226,6.276,1.523,7.391,2.562c1.04,0.966,1.411,2.266,1.411,3.454c0,2.08-1.151,3.863-2.525,4.717
			c-1.634,1.003-3.603,1.263-5.534,1.263c-3.788,0-7.316-1.56-7.279-6.054H140.583z"/>
		<path fill="#FFFFFF" d="M159.15,56.559c-0.037,1.412,0.706,3.38,4.086,3.38c1.448,0,2.525-0.26,3.269-1.188
			c0.371-0.482,0.594-1.114,0.594-1.745c0-1.82-1.3-2.154-4.085-2.786c-3.9-0.891-7.168-1.671-7.168-5.57
			c0-3.417,2.971-5.646,7.279-5.646c2.34,0,5.607,0.668,6.722,2.896c0.483,1.04,0.483,1.932,0.483,2.712h-3.565
			c0.111-2.823-2.34-3.046-3.603-3.046c-0.521,0-3.788,0-3.788,2.674c0,1.709,1.671,2.117,2.637,2.377
			c5.162,1.226,6.276,1.523,7.391,2.562c1.04,0.966,1.411,2.266,1.411,3.454c0,2.08-1.151,3.863-2.525,4.717
			c-1.634,1.003-3.603,1.263-5.534,1.263c-3.788,0-7.316-1.56-7.279-6.054H159.15z"/>
		<path fill="#FFFFFF" d="M183.809,42.966c7.465,0,9.136,5.868,9.136,9.768c0,5.46-3.082,9.991-9.434,9.991
			c-6.165,0-9.173-4.271-9.173-9.731C174.338,48.388,176.491,42.966,183.809,42.966z M183.585,60.125
			c2.638,0,5.646-1.894,5.646-7.502c0-4.643-2.154-7.094-5.422-7.094c-2.229,0-5.831,1.411-5.831,7.242
			C177.978,56.596,179.611,60.125,183.585,60.125z"/>
		<path fill="#FFFFFF" d="M198.585,47.238c0-1.264-0.074-2.563-0.186-3.789h3.528l0.074,3.603c0.668-2.6,2.896-3.454,4.457-3.677
			c1.039-0.148,1.819-0.111,2.414-0.074v3.417c-0.187-0.074-0.409-0.111-0.669-0.148s-0.595-0.037-1.003-0.037
			c-4.122,0-5.088,2.451-5.088,5.646v9.916h-3.528V47.238z"/>
	</g>
	<g>
		<path fill="#307FE2" d="M256.771,107.202H0V0h256.771V107.202z M19.801,87.402l217.17,0V19.8l-217.17,0V87.402z"/>
	</g>
	<g>
		<polygon fill="#307FE2" points="16.502,19.8 16.502,87.402 16.502,90.701 19.801,90.701 236.971,90.701 240.271,90.701 
			240.271,87.402 240.271,19.8 240.271,16.5 236.971,16.5 19.801,16.5 16.502,16.5 		"/>
	</g>
	<g>
		<path fill="#FFFFFF" d="M46.454,35.278h8.987c3.269,0,5.497,0.187,7.316,2.154c1.338,1.374,1.969,3.194,1.969,5.2
			c0,2.042-0.668,3.788-2.117,5.236c-1.411,1.411-3.268,2.303-8.096,2.303h-4.346v11.922h-3.714V35.278z M50.168,47.051h4.42
			c2.451,0,6.202-0.186,6.202-4.567c0-4.197-3.491-4.197-5.423-4.197h-5.199V47.051z"/>
		<path fill="#FFFFFF" d="M68.622,47.238c0-1.264-0.074-2.563-0.186-3.789h3.528l0.074,3.603c0.668-2.6,2.896-3.454,4.457-3.677
			c1.039-0.148,1.819-0.111,2.414-0.074v3.417c-0.187-0.074-0.409-0.111-0.669-0.148s-0.595-0.037-1.003-0.037
			c-4.122,0-5.088,2.451-5.088,5.646v9.916h-3.528V47.238z"/>
		<path fill="#FFFFFF" d="M90.978,42.966c7.465,0,9.136,5.868,9.136,9.768c0,5.46-3.082,9.991-9.434,9.991
			c-6.165,0-9.173-4.271-9.173-9.731C81.507,48.388,83.66,42.966,90.978,42.966z M90.754,60.125c2.638,0,5.646-1.894,5.646-7.502
			c0-4.643-2.154-7.094-5.422-7.094c-2.229,0-5.831,1.411-5.831,7.242C85.146,56.596,86.78,60.125,90.754,60.125z"/>
		<path fill="#FFFFFF" d="M114.892,37.878c-0.595-0.037-1.338-0.074-2.043-0.074c-2.823,0-2.823,1.411-2.823,2.711v2.934h4.346
			v2.525h-4.346v16.119h-3.453V45.974h-3.678v-2.525h3.678v-2.116c0-2.563,0.148-3.491,0.779-4.457
			c0.78-1.188,2.266-2.043,4.68-2.043c1.003,0,2.117,0.148,2.86,0.26V37.878z"/>
		<path fill="#FFFFFF" d="M120.052,53.403c-0.075,3.862,1.522,6.722,5.348,6.722c2.266,0,4.085-1.188,4.383-3.862h3.491
			c-0.111,0.929-0.261,2.451-1.598,3.899c-0.816,0.929-2.674,2.488-6.425,2.488c-5.868,0-8.653-3.64-8.653-9.545
			c0-3.677,0.742-6.722,3.677-8.765c1.782-1.263,4.011-1.374,5.088-1.374c8.356,0,8.171,7.391,8.097,10.437H120.052z
			 M129.894,50.952c0.037-1.783-0.297-5.497-4.605-5.497c-2.266,0-5.014,1.374-5.088,5.497H129.894z"/>
		<path fill="#FFFFFF" d="M140.585,56.559c-0.037,1.412,0.706,3.38,4.086,3.38c1.448,0,2.525-0.26,3.269-1.188
			c0.371-0.482,0.594-1.114,0.594-1.745c0-1.82-1.3-2.154-4.085-2.786c-3.9-0.891-7.168-1.671-7.168-5.57
			c0-3.417,2.971-5.646,7.279-5.646c2.34,0,5.608,0.668,6.722,2.896c0.483,1.04,0.483,1.932,0.483,2.712h-3.565
			c0.111-2.823-2.34-3.046-3.603-3.046c-0.521,0-3.788,0-3.788,2.674c0,1.709,1.671,2.117,2.637,2.377
			c5.162,1.226,6.276,1.523,7.391,2.562c1.04,0.966,1.411,2.266,1.411,3.454c0,2.08-1.151,3.863-2.525,4.717
			c-1.634,1.003-3.603,1.263-5.534,1.263c-3.788,0-7.316-1.56-7.279-6.054H140.585z"/>
		<path fill="#FFFFFF" d="M159.152,56.559c-0.037,1.412,0.706,3.38,4.086,3.38c1.448,0,2.525-0.26,3.269-1.188
			c0.371-0.482,0.594-1.114,0.594-1.745c0-1.82-1.3-2.154-4.085-2.786c-3.9-0.891-7.168-1.671-7.168-5.57
			c0-3.417,2.971-5.646,7.279-5.646c2.34,0,5.607,0.668,6.722,2.896c0.483,1.04,0.483,1.932,0.483,2.712h-3.565
			c0.111-2.823-2.34-3.046-3.603-3.046c-0.521,0-3.788,0-3.788,2.674c0,1.709,1.671,2.117,2.637,2.377
			c5.162,1.226,6.276,1.523,7.391,2.562c1.04,0.966,1.411,2.266,1.411,3.454c0,2.08-1.151,3.863-2.525,4.717
			c-1.634,1.003-3.603,1.263-5.534,1.263c-3.788,0-7.316-1.56-7.279-6.054H159.152z"/>
		<path fill="#FFFFFF" d="M183.811,42.966c7.465,0,9.136,5.868,9.136,9.768c0,5.46-3.082,9.991-9.434,9.991
			c-6.165,0-9.173-4.271-9.173-9.731C174.34,48.388,176.493,42.966,183.811,42.966z M183.587,60.125
			c2.638,0,5.646-1.894,5.646-7.502c0-4.643-2.154-7.094-5.422-7.094c-2.229,0-5.831,1.411-5.831,7.242
			C177.979,56.596,179.613,60.125,183.587,60.125z"/>
		<path fill="#FFFFFF" d="M198.587,47.238c0-1.264-0.074-2.563-0.186-3.789h3.528l0.074,3.603c0.668-2.6,2.896-3.454,4.457-3.677
			c1.039-0.148,1.819-0.111,2.414-0.074v3.417c-0.187-0.074-0.409-0.111-0.669-0.148s-0.595-0.037-1.003-0.037
			c-4.122,0-5.088,2.451-5.088,5.646v9.916h-3.528V47.238z"/>
	</g>
	<g>
		<path fill="#FFFFFF" d="M243.571,94H13.202V13.2h230.369V94z M19.801,87.401h217.171l-0.001-67.602H19.801l0.001,0.001
			L19.801,87.401L19.801,87.401z"/>
	</g>
</g>
</svg>
