<?xml version="1.0" encoding="utf-8"?>
<!-- Generator: Adobe Illustrator 16.0.0, SVG Export Plug-In . SVG Version: 6.00 Build 0)  -->
<!DOCTYPE svg PUBLIC "-//W3C//DTD SVG 1.1//EN" "http://www.w3.org/Graphics/SVG/1.1/DTD/svg11.dtd">
<svg version="1.1" id="Layer_1" xmlns="http://www.w3.org/2000/svg" xmlns:xlink="http://www.w3.org/1999/xlink" x="0px" y="0px"
	 width="199.85px" height="103.903px" viewBox="0 0 199.85 103.903" enable-background="new 0 0 199.85 103.903"
	 xml:space="preserve">
<g>
	<g>
		<path fill="#FFFFFF" d="M46.528,35.276h6.574l7.576,22.099l7.762-22.099h6.128v26.815h-3.64V37.951l-8.802,24.141h-3.528
			L50.13,38.099v23.992h-3.603V35.276z"/>
		<path fill="#FFFFFF" d="M92.872,62.091c-0.26-0.929-0.334-1.82-0.334-2.785c-1.671,3.082-4.197,3.379-5.757,3.379
			c-4.271,0-6.574-2.414-6.574-5.496c0-1.485,0.52-3.862,3.269-5.46c2.005-1.114,4.977-1.226,6.462-1.226
			c0.891,0,1.448,0.037,2.525,0.111c0-2.303,0-3.305-0.668-4.122c-0.706-0.929-2.229-1.226-3.231-1.226
			c-3.528,0-3.714,2.414-3.751,3.156h-3.491c0.111-0.965,0.223-2.265,1.3-3.527c1.412-1.561,4.048-2.006,6.017-2.006
			c2.711,0,5.608,0.854,6.611,2.748c0.594,1.114,0.631,2.006,0.631,2.86l-0.149,8.913c0,0.297,0.037,2.785,0.297,4.68H92.872z
			 M90.458,52.917c-1.412,0-6.723,0-6.723,3.788c0,1.188,0.743,3.231,3.863,3.231c1.783,0,3.12-0.705,3.974-2.006
			c0.78-1.263,0.817-2.302,0.892-4.902C91.832,52.955,91.312,52.917,90.458,52.917z"/>
		<path fill="#FFFFFF" d="M102.338,47.236c0-1.264-0.074-2.563-0.186-3.789h3.528l0.074,3.603c0.668-2.6,2.896-3.454,4.457-3.677
			c1.039-0.148,1.819-0.111,2.414-0.074v3.417c-0.187-0.074-0.409-0.111-0.669-0.148s-0.595-0.037-1.003-0.037
			c-4.122,0-5.088,2.451-5.088,5.646v9.916h-3.528V47.236z"/>
		<path fill="#FFFFFF" d="M116.262,35.351h4.197v3.825h-4.197V35.351z M116.634,43.447h3.491v18.645h-3.491V43.447z"/>
		<path fill="#FFFFFF" d="M123.615,66.771c2.748,0.111,3.417-0.371,3.417-3.343V43.447h3.491v20.39c0,1.783-0.074,5.571-4.754,5.571
			c-0.446,0-1.188-0.037-2.154-0.148V66.771z M126.698,35.351h4.233v3.862h-4.233V35.351z"/>
		<path fill="#FFFFFF" d="M137.355,45.601l-0.037-2.154h3.491l0.037,3.009c0.408-0.78,1.745-3.38,5.979-3.38
			c1.671,0,6.76,0.632,6.76,6.351v12.665h-3.566V50.244c0-1.226-0.148-2.34-1.002-3.194c-0.892-0.854-2.117-1.263-3.306-1.263
			c-2.525,0-4.865,1.82-4.865,5.571v10.733h-3.491V45.601z"/>
	</g>
	<g>
		<path fill="#307FE2" d="M199.85,103.903H0V0h199.85V103.903z M19.8,84.104h160.25l0,0V19.798L19.8,19.8V84.104z"/>
	</g>
	<g>
		<polygon fill="#307FE2" points="16.5,19.796 16.5,84.101 16.5,87.4 19.8,87.4 180.048,87.4 183.348,87.4 183.348,84.101 
			183.348,19.796 183.348,16.496 180.048,16.496 19.8,16.496 16.5,16.496 		"/>
	</g>
	<g>
		<path fill="#FFFFFF" d="M46.528,35.274h6.574l7.576,22.099l7.762-22.099h6.128v26.815h-3.64V37.949l-8.802,24.141h-3.528
			L50.13,38.097v23.992h-3.603V35.274z"/>
		<path fill="#FFFFFF" d="M92.872,62.089c-0.26-0.929-0.334-1.82-0.334-2.785c-1.671,3.082-4.197,3.379-5.757,3.379
			c-4.271,0-6.574-2.414-6.574-5.496c0-1.485,0.52-3.862,3.269-5.46c2.005-1.114,4.977-1.226,6.462-1.226
			c0.891,0,1.448,0.037,2.525,0.111c0-2.303,0-3.305-0.668-4.122c-0.706-0.929-2.229-1.226-3.231-1.226
			c-3.528,0-3.714,2.414-3.751,3.156h-3.491c0.111-0.965,0.223-2.265,1.3-3.527c1.412-1.561,4.048-2.006,6.017-2.006
			c2.711,0,5.608,0.854,6.611,2.748c0.594,1.114,0.631,2.006,0.631,2.86l-0.149,8.913c0,0.297,0.037,2.785,0.297,4.68H92.872z
			 M90.458,52.916c-1.412,0-6.723,0-6.723,3.788c0,1.188,0.743,3.231,3.863,3.231c1.783,0,3.12-0.705,3.974-2.006
			c0.78-1.263,0.817-2.302,0.892-4.902C91.832,52.953,91.312,52.916,90.458,52.916z"/>
		<path fill="#FFFFFF" d="M102.338,47.234c0-1.264-0.074-2.563-0.186-3.789h3.528l0.074,3.603c0.668-2.6,2.896-3.454,4.457-3.677
			c1.039-0.148,1.819-0.111,2.414-0.074v3.417c-0.187-0.074-0.409-0.111-0.669-0.148s-0.595-0.037-1.003-0.037
			c-4.122,0-5.088,2.451-5.088,5.646v9.916h-3.528V47.234z"/>
		<path fill="#FFFFFF" d="M116.262,35.349h4.197v3.825h-4.197V35.349z M116.634,43.445h3.491v18.645h-3.491V43.445z"/>
		<path fill="#FFFFFF" d="M123.615,66.769c2.748,0.111,3.417-0.371,3.417-3.343V43.445h3.491v20.39c0,1.783-0.074,5.571-4.754,5.571
			c-0.446,0-1.188-0.037-2.154-0.148V66.769z M126.698,35.349h4.233v3.862h-4.233V35.349z"/>
		<path fill="#FFFFFF" d="M137.355,45.599l-0.037-2.154h3.491l0.037,3.009c0.408-0.78,1.745-3.38,5.979-3.38
			c1.671,0,6.76,0.632,6.76,6.351v12.665h-3.566V50.242c0-1.226-0.148-2.34-1.002-3.194c-0.892-0.854-2.117-1.263-3.306-1.263
			c-2.525,0-4.865,1.82-4.865,5.571v10.733h-3.491V45.599z"/>
	</g>
	<g>
		<path fill="#FFFFFF" d="M186.648,90.7H13.2V13.196h173.448V90.7z M19.8,84.1h160.249V19.795L19.8,19.796V84.1L19.8,84.1z"/>
	</g>
</g>
</svg>
