<?xml version="1.0" encoding="utf-8"?>
<!-- Generator: Adobe Illustrator 16.0.0, SVG Export Plug-In . SVG Version: 6.00 Build 0)  -->
<!DOCTYPE svg PUBLIC "-//W3C//DTD SVG 1.1//EN" "http://www.w3.org/Graphics/SVG/1.1/DTD/svg11.dtd">
<svg version="1.1" id="Layer_1" xmlns="http://www.w3.org/2000/svg" xmlns:xlink="http://www.w3.org/1999/xlink" x="0px" y="0px"
	 width="194.531px" height="123.648px" viewBox="0 0 194.531 123.648" enable-background="new 0 0 194.531 123.648"
	 xml:space="preserve">
<g>
	<g>
		<g>
			<path fill="#307FE2" d="M54.878,124.875c-11.946,0-22.696-5.031-32.863-15.384C-7.18,79.766-7.346,44.444,21.569,15.007
				C31.485,4.909,41.964,0,53.604,0c9.142,0,17.058,3.041,24.042,5.725C84.437,8.335,90.849,10.8,98.675,10.8
				c8.735,0,14.43-0.83,19.936-1.632c4.742-0.689,9.408-1.308,14.388-1.308c9.984,0,19.438,2.47,32.628,8.526
				c11.146,5.119,25.094,14.824,28.254,31.996c3.104,16.857-4.834,34.265-24.981,54.781c-11.737,11.949-22.462,17.277-34.773,17.277
				c-5.341,0-10.413-0.959-16.386-2.399c-5.495-1.325-11.165-2.692-19.064-2.692c-7.888,0-14.234,2.217-20.954,4.564
				C71.065,122.24,63.524,124.875,54.878,124.875z M53.604,19.8c-3.859,0-9.915,0.941-17.908,9.081
				C14.4,50.561,14.555,73.638,36.141,95.618c8.326,8.478,14.682,9.458,18.736,9.458c5.287,0,10.641-1.871,16.31-3.852
				c7.616-2.66,16.242-5.673,27.488-5.673c10.253,0,17.705,1.797,23.694,3.241c4.61,1.112,8.368,1.851,11.756,1.851
				c4.933,0,10.848-1.375,20.647-11.351c22.321-22.731,20.299-33.714,19.635-37.323c-1.32-7.174-6.896-12.926-17.044-17.587
				c-12.863-5.906-19.312-6.72-24.365-6.72c-3.658,0-7.544,0.521-11.536,1.101c-5.619,0.819-12.616,1.838-22.787,1.838
				c-11.501,0-20.336-3.396-28.131-6.393C64.645,21.941,59.072,19.8,53.604,19.8z"/>
		</g>
		<g>
			<path fill="#307FE2" d="M154.772,89.29c-20.939,21.318-26.215,6.26-56.098,6.26c-29.881,0-41.598,21.386-62.535,0.067
				c-21.316-21.703-21.764-45.033-0.445-66.735c20.936-21.317,33.1,1.72,62.98,1.72c29.883,0,31.535-8.689,58.689,3.779
				C185.073,47.102,176.085,67.588,154.772,89.29"/>
		</g>
		<g>
			<path fill="#FFFFFF" d="M54.98,108.375c-7.461,0-14.196-3.319-21.195-10.445c-22.743-23.157-22.901-48.5-0.445-71.36
				c6.725-6.847,13.215-10.036,20.427-10.036c6.005,0,11.812,2.232,17.961,4.595c7.529,2.893,16.062,6.173,26.947,6.173
				c9.913,0,16.502-0.958,22.314-1.804c4.211-0.613,7.848-1.142,11.778-1.142c7.58,0,15.105,2.036,25.974,7.026
				c11.04,5.068,17.403,11.793,18.912,19.987c2.017,10.956-4.698,24.116-20.526,40.233c-8.658,8.815-15.375,12.411-23.186,12.411
				c-3.995,0-7.859-0.932-12.334-2.011c-6.124-1.478-13.064-3.152-22.933-3.152c-10.69,0-19.036,2.917-26.399,5.49
				C66.337,106.415,60.728,108.375,54.98,108.375z M53.767,23.134c-5.396,0-10.243,2.486-15.718,8.061
				c-19.811,20.167-19.656,41.644,0.445,62.11c5.753,5.858,10.838,8.47,16.486,8.47c4.627,0,9.488-1.699,15.117-3.666
				c7.859-2.746,16.767-5.858,28.577-5.858c10.652,0,18.319,1.849,24.48,3.335c4.065,0.98,7.576,1.827,10.786,1.827
				c4.273,0,9.469-1.264,18.477-10.435c14.015-14.27,20.32-25.849,18.744-34.414c-1.097-5.956-6.202-11.064-15.175-15.184
				c-9.938-4.563-16.664-6.424-23.22-6.424c-3.453,0-6.871,0.498-10.828,1.073c-5.735,0.834-12.874,1.873-23.265,1.873
				c-12.109,0-21.25-3.513-29.314-6.612C63.558,25.06,58.547,23.134,53.767,23.134z"/>
		</g>
	</g>
	<g>
		<path fill="#FFFFFF" d="M73.383,54.873c-0.148-0.929-0.631-4.643-5.794-4.643c-6.462,0-7.613,6.61-7.613,11.067
			c0,5.051,1.448,10.511,7.576,10.511c1.635,0,3.194-0.409,4.346-1.598c0.966-1.039,1.188-2.19,1.3-2.822h4.086
			c-0.558,5.273-5.423,7.465-10.028,7.465c-9.434,0-11.253-8.319-11.253-13.519c0-5.646,2.191-14.076,11.736-14.076
			c3.788,0,9.136,1.522,9.619,7.614H73.383z"/>
		<path fill="#FFFFFF" d="M81.995,47.667h3.528V58.55c1.151-1.969,3.454-3.083,6.054-3.083c1.968,0,4.791,0.706,5.868,2.972
			c0.371,0.742,0.631,1.634,0.631,4.345v11.662h-3.565v-11.03c0-1.672,0-5.274-4.011-5.274c-2.6,0-3.899,1.598-4.383,2.488
			c-0.594,1.04-0.594,2.786-0.594,3.938v9.879h-3.528V47.667z"/>
		<path fill="#FFFFFF" d="M104.349,47.705h4.197v3.825h-4.197V47.705z M104.721,55.801h3.491v18.645h-3.491V55.801z"/>
		<path fill="#FFFFFF" d="M115.08,47.667h3.491v26.778h-3.491V47.667z"/>
		<path fill="#FFFFFF" d="M138.254,47.667h3.491v23.808c0,0.408,0.074,2.005,0.148,2.971h-3.491l-0.074-2.971
			c-0.298,0.52-0.706,1.3-1.672,1.968c-1.522,1.04-3.343,1.374-4.605,1.374c-2.488,0-8.021-1.3-8.021-9.471
			c0-7.094,4.048-10.176,8.431-10.176c4.011,0,5.348,2.377,5.794,3.156V47.667z M136.954,59.664
			c-0.743-0.966-2.117-1.895-4.086-1.895c-5.125,0-5.125,6.202-5.125,7.465c0,3.306,0.854,7.131,5.125,7.131
			c5.497,0,5.497-6.054,5.497-7.502C138.365,62.152,137.733,60.666,136.954,59.664z"/>
	</g>
</g>
</svg>
