<?xml version="1.0" encoding="utf-8"?>
<!-- Generator: Adobe Illustrator 16.0.0, SVG Export Plug-In . SVG Version: 6.00 Build 0)  -->
<!DOCTYPE svg PUBLIC "-//W3C//DTD SVG 1.1//EN" "http://www.w3.org/Graphics/SVG/1.1/DTD/svg11.dtd">
<svg version="1.1" id="Layer_1" xmlns="http://www.w3.org/2000/svg" xmlns:xlink="http://www.w3.org/1999/xlink" x="0px" y="0px"
	 width="304.712px" height="122.483px" viewBox="0 0 304.712 122.483" enable-background="new 0 0 304.712 122.483"
	 xml:space="preserve">
<g>
	<g>
		<path fill="#307FE2" d="M137.178,122.483l-13.793-17.34l-16.649,14.779l-12.18-18.812L75.946,114.2l-9.784-21.077l-22.814,10.165
			l-3.169-27.929L0,61.248l40.189-14.13l3.178-27.931l22.813,10.167l9.78-21.083l18.594,13.099l12.164-18.812l16.656,14.787
			l13.797-17.34l15.185,16.088L167.537,0l13.792,17.342l16.653-14.787l12.18,18.821l18.606-13.093l9.784,21.08l22.812-10.166
			l3.173,27.929l40.174,14.113l-40.187,14.129l-3.178,27.933l-22.815-10.17l-9.78,21.083l-18.591-13.098l-12.166,18.81
			l-16.655-14.784l-13.798,17.338l-15.183-16.087L137.178,122.483z M152.357,77.543l13.911,14.739l12.589-15.82l15.036,13.347
			l10.83-16.745L220.77,84.37l8.009-17.265l15.95,7.109l1.48-13.014l-1.467-12.918l-15.941,7.104l-8.017-17.273l-16.062,11.302
			L193.887,32.67l-15.042,13.356l-12.583-15.82L152.36,44.944l-13.913-14.742l-12.59,15.822l-15.035-13.348L99.994,49.421
			L83.943,38.113l-8.009,17.263L59.986,48.27l-1.479,13.004l1.468,12.93l15.939-7.101l8.017,17.273l16.062-11.299l10.836,16.736
			l15.042-13.352l12.582,15.818L152.357,77.543z"/>
	</g>
	<g>
		<polygon fill="#307FE2" points="274.853,61.243 255.39,68.085 253.038,88.757 233.655,80.118 224.761,99.292 207.442,87.09 
			195.944,104.868 180.099,90.802 166.905,107.381 152.358,91.968 137.815,107.381 124.628,90.802 108.782,104.868 97.274,87.093 
			79.938,99.288 71.038,80.113 51.661,88.746 49.315,68.075 29.862,61.243 49.325,54.4 51.677,33.728 71.058,42.365 79.952,23.192 
			97.274,35.395 108.771,17.617 124.616,31.684 137.81,15.103 152.358,30.518 166.899,15.103 180.087,31.684 195.935,17.613 
			207.442,35.395 224.776,23.198 233.677,42.375 253.054,33.74 255.401,54.41 		"/>
	</g>
	<g>
		<path fill="#FFFFFF" d="M137.656,111.157l-13.339-16.769l-16.047,14.244L96.595,90.597L78.94,103.016l-9.121-19.65l-20.236,9.016
			l-2.552-22.485l-24.635-8.651l24.645-8.665L49.6,30.093l20.238,9.019l9.116-19.65l17.641,12.427l11.663-18.037l16.048,14.248
			l13.345-16.771l14.707,15.583l14.701-15.584l13.339,16.771l16.049-14.25l11.676,18.042l17.652-12.421l9.121,19.652l20.236-9.018
			l2.554,22.485l24.632,8.653l-24.644,8.665l-2.559,22.487l-20.24-9.022l-9.116,19.651l-17.637-12.425l-11.665,18.036
			l-16.048-14.245l-13.345,16.769l-14.706-15.582L137.656,111.157z M152.358,88.362l14.388,15.245l13.042-16.39l15.644,13.886
			l11.331-17.519l17,11.977l8.674-18.697l18.524,8.257l2.145-18.856l14.282-5.021l-14.271-5.013l-2.142-18.855l-18.518,8.252
			l-8.68-18.701L206.763,38.9l-11.34-17.523L179.776,35.27L166.74,18.879l-14.382,15.246l-14.39-15.247l-13.042,16.391
			l-15.644-13.888l-11.329,17.52L80.95,26.922l-8.673,18.695l-18.523-8.254L51.609,56.22l-14.281,5.021L51.6,66.254l2.14,18.856
			l18.518-8.25l8.68,18.699l17.018-11.97l11.34,17.515l15.645-13.887l13.036,16.389L152.358,88.362z"/>
	</g>
	<g>
		<path fill="#FFFFFF" d="M89.643,44.965h3.974l10.845,26.815h-4.048l-2.897-6.982H85.074l-2.897,6.982h-3.825L89.643,44.965z
			 M86.263,61.791h10.139l-4.939-13.147L86.263,61.791z"/>
		<path fill="#FFFFFF" d="M108.207,55.291l-0.037-2.154h3.491l0.037,3.009c0.408-0.78,1.745-3.38,5.979-3.38
			c1.671,0,6.759,0.632,6.759,6.351v12.665h-3.564V59.933c0-1.226-0.149-2.34-1.003-3.194c-0.892-0.854-2.117-1.263-3.306-1.263
			c-2.525,0-4.865,1.82-4.865,5.571v10.733h-3.491V55.291z"/>
		<path fill="#FFFFFF" d="M127.924,53.062h3.306v-3.899l3.454-1.114v5.014h4.16v2.562h-4.16v11.18c0,0.929,0,2.488,2.488,2.488
			c0.706,0,1.374-0.111,1.672-0.186v2.711c-0.632,0.111-1.635,0.223-2.897,0.223c-3.194,0-4.717-0.929-4.717-3.974V55.625h-3.306
			V53.062z"/>
		<path fill="#FFFFFF" d="M143.148,45.002h3.528v10.883c1.151-1.969,3.454-3.083,6.054-3.083c1.968,0,4.791,0.706,5.868,2.972
			c0.371,0.742,0.631,1.634,0.631,4.345v11.662h-3.565V60.75c0-1.672,0-5.274-4.011-5.274c-2.6,0-3.899,1.598-4.383,2.488
			c-0.594,1.04-0.594,2.786-0.594,3.938v9.879h-3.528V45.002z"/>
		<path fill="#FFFFFF" d="M173.934,52.654c7.465,0,9.136,5.868,9.136,9.768c0,5.46-3.082,9.991-9.434,9.991
			c-6.165,0-9.173-4.271-9.173-9.731C164.463,58.076,166.616,52.654,173.934,52.654z M173.71,69.812
			c2.638,0,5.646-1.894,5.646-7.502c0-4.643-2.154-7.094-5.422-7.094c-2.229,0-5.831,1.411-5.831,7.242
			C168.103,66.284,169.736,69.812,173.71,69.812z"/>
		<path fill="#FFFFFF" d="M188.637,55.291l-0.037-2.154h3.491l0.037,3.009c0.408-0.78,1.745-3.38,5.979-3.38
			c1.671,0,6.759,0.632,6.759,6.351v12.665h-3.564V59.933c0-1.226-0.149-2.34-1.003-3.194c-0.892-0.854-2.117-1.263-3.306-1.263
			c-2.525,0-4.865,1.82-4.865,5.571v10.733h-3.491V55.291z"/>
		<path fill="#FFFFFF" d="M218.864,71.892l-2.674,6.945h-3.603l2.822-7.131l-7.763-18.57h3.938l5.831,14.708l5.942-14.708h3.788
			L218.864,71.892z"/>
	</g>
</g>
</svg>
