<?xml version="1.0" encoding="utf-8"?>
<!-- Generator: Adobe Illustrator 16.0.0, SVG Export Plug-In . SVG Version: 6.00 Build 0)  -->
<!DOCTYPE svg PUBLIC "-//W3C//DTD SVG 1.1//EN" "http://www.w3.org/Graphics/SVG/1.1/DTD/svg11.dtd">
<svg version="1.1" id="Layer_1" xmlns="http://www.w3.org/2000/svg" xmlns:xlink="http://www.w3.org/1999/xlink" x="0px" y="0px"
	 width="369.729px" height="102.105px" viewBox="0 0 369.729 102.105" enable-background="new 0 0 369.729 102.105"
	 xml:space="preserve">
<g>
	<g>
		<path fill="#307FE2" d="M315.422,100.93H54.246L0,49.982L54.368,0h261.055l54.307,50.468L315.422,100.93z M62.087,81.13h245.556
			l33-30.663l-33-30.667l0,0H62.087L29.088,50.136l33,30.994H62.087z"/>
	</g>
	<g>
		<polygon fill="#307FE2" points="59.854,17.37 26.854,47.708 24.238,50.111 26.828,52.542 59.828,83.535 60.779,84.43 
			62.086,84.43 307.643,84.43 308.938,84.43 309.889,83.547 342.889,52.883 345.491,50.465 342.889,48.047 309.889,17.381 
			308.939,16.499 307.643,16.499 62.086,16.499 60.801,16.499 		"/>
	</g>
	<g>
		<path fill="#FFFFFF" d="M310.235,87.73H59.471L19.389,50.085l40.125-36.886h250.723l40.102,37.267L310.235,87.73z M62.086,81.13
			l245.556,0l33-30.665l0,0l-33-30.667H62.086l0.001,0l-33,30.338L62.088,81.13H62.086z"/>
	</g>
	<g>
		<path fill="#FFFFFF" d="M71.555,33.461h3.714v26.815h-3.714V33.461z"/>
		<path fill="#FFFFFF" d="M81.989,43.786l-0.037-2.154h3.491l0.037,3.008c0.408-0.78,1.745-3.38,5.979-3.38
			c1.671,0,6.759,0.631,6.759,6.351v12.665h-3.565V48.428c0-1.226-0.148-2.34-1.003-3.194c-0.891-0.854-2.117-1.263-3.305-1.263
			c-2.525,0-4.865,1.82-4.865,5.571v10.733h-3.491V43.786z"/>
		<path fill="#FFFFFF" d="M101.706,41.557h3.305v-3.899l3.454-1.114v5.014h4.16v2.563h-4.16v11.179c0,0.928,0,2.488,2.488,2.488
			c0.706,0,1.375-0.111,1.671-0.186v2.711c-0.631,0.111-1.634,0.223-2.897,0.223c-3.194,0-4.717-0.928-4.717-3.974V44.12h-3.305
			V41.557z"/>
		<path fill="#FFFFFF" d="M119.047,51.585c-0.074,3.863,1.523,6.723,5.348,6.723c2.266,0,4.085-1.188,4.382-3.863h3.491
			c-0.111,0.929-0.26,2.451-1.597,3.9c-0.817,0.928-2.674,2.488-6.425,2.488c-5.868,0-8.654-3.64-8.654-9.545
			c0-3.677,0.743-6.722,3.677-8.765c1.783-1.263,4.011-1.374,5.088-1.374c8.356,0,8.171,7.391,8.097,10.436H119.047z M128.89,49.134
			c0.037-1.783-0.297-5.497-4.605-5.497c-2.266,0-5.014,1.374-5.088,5.497H128.89z"/>
		<path fill="#FFFFFF" d="M137.651,33.498h3.491v26.778h-3.491V33.498z"/>
		<path fill="#FFFFFF" d="M147.974,33.498h3.491v26.778h-3.491V33.498z"/>
		<path fill="#FFFFFF" d="M160.34,51.585c-0.074,3.863,1.523,6.723,5.348,6.723c2.266,0,4.085-1.188,4.382-3.863h3.491
			c-0.111,0.929-0.26,2.451-1.597,3.9c-0.817,0.928-2.674,2.488-6.425,2.488c-5.868,0-8.654-3.64-8.654-9.545
			c0-3.677,0.743-6.722,3.677-8.765c1.783-1.263,4.011-1.374,5.088-1.374c8.356,0,8.171,7.391,8.097,10.436H160.34z M170.182,49.134
			c0.037-1.783-0.297-5.497-4.605-5.497c-2.266,0-5.014,1.374-5.088,5.497H170.182z"/>
		<path fill="#FFFFFF" d="M189.491,47.611c-0.074-0.854-0.334-3.9-3.714-3.9c-4.828,0-4.828,5.608-4.828,7.02
			c0,3.825,0.929,7.391,4.643,7.391c2.971,0,3.974-2.228,4.048-4.048h3.528c-0.223,3.64-2.934,6.685-7.54,6.685
			c-1.263,0-4.16-0.26-6.128-2.414c-1.114-1.3-2.229-3.269-2.229-7.131c0-7.762,4.754-10.065,8.468-10.065
			c1.226,0,4.011,0.26,5.72,2.303c1.374,1.597,1.485,3.12,1.56,4.16H189.491z"/>
		<path fill="#FFFFFF" d="M194.576,41.557h3.305v-3.899l3.454-1.114v5.014h4.16v2.563h-4.16v11.179c0,0.928,0,2.488,2.488,2.488
			c0.706,0,1.375-0.111,1.671-0.186v2.711c-0.631,0.111-1.634,0.223-2.897,0.223c-3.194,0-4.717-0.928-4.717-3.974V44.12h-3.305
			V41.557z"/>
		<path fill="#FFFFFF" d="M212.995,41.632v11.996c0,1.82,0.409,4.123,3.974,4.123c1.745,0,3.379-0.594,4.382-2.08
			c0.78-1.114,0.78-2.562,0.78-3.491V41.632h3.603v15.153c0,0.372,0.074,2.451,0.111,3.491h-3.64l-0.074-3.194
			c-0.668,1.3-1.931,3.379-5.942,3.379c-4.605,0-6.759-2.637-6.759-6.313V41.632H212.995z"/>
		<path fill="#FFFFFF" d="M243.854,60.276c-0.26-0.929-0.334-1.82-0.334-2.786c-1.671,3.083-4.197,3.38-5.757,3.38
			c-4.271,0-6.574-2.414-6.574-5.497c0-1.486,0.52-3.863,3.269-5.459c2.005-1.114,4.977-1.226,6.462-1.226
			c0.891,0,1.448,0.038,2.525,0.112c0-2.303,0-3.306-0.668-4.123c-0.706-0.929-2.229-1.226-3.231-1.226
			c-3.528,0-3.714,2.414-3.751,3.157h-3.491c0.111-0.966,0.223-2.266,1.3-3.528c1.412-1.56,4.048-2.005,6.017-2.005
			c2.711,0,5.608,0.854,6.611,2.748c0.594,1.114,0.631,2.006,0.631,2.86l-0.149,8.914c0,0.297,0.037,2.786,0.297,4.68H243.854z
			 M241.439,51.103c-1.412,0-6.723,0-6.723,3.788c0,1.188,0.743,3.231,3.863,3.231c1.783,0,3.12-0.706,3.974-2.005
			c0.78-1.263,0.817-2.303,0.892-4.902C242.813,51.14,242.293,51.103,241.439,51.103z"/>
		<path fill="#FFFFFF" d="M253.209,33.498h3.491v26.778h-3.491V33.498z"/>
		<path fill="#FFFFFF" d="M263.124,33.535h4.197v3.825h-4.197V33.535z M263.495,41.632h3.491v18.644h-3.491V41.632z"/>
		<path fill="#FFFFFF" d="M275.786,54.742c-0.037,1.411,0.706,3.379,4.085,3.379c1.448,0,2.525-0.26,3.268-1.188
			c0.372-0.482,0.594-1.114,0.594-1.746c0-1.82-1.3-2.154-4.085-2.785c-3.899-0.892-7.168-1.671-7.168-5.571
			c0-3.417,2.971-5.645,7.28-5.645c2.339,0,5.608,0.668,6.722,2.897c0.483,1.04,0.483,1.931,0.483,2.711H283.4
			c0.111-2.822-2.34-3.045-3.603-3.045c-0.52,0-3.789,0-3.789,2.674c0,1.708,1.671,2.117,2.637,2.377
			c5.162,1.226,6.276,1.522,7.391,2.562c1.04,0.966,1.412,2.266,1.412,3.454c0,2.08-1.151,3.862-2.526,4.717
			c-1.634,1.002-3.603,1.263-5.534,1.263c-3.788,0-7.316-1.56-7.279-6.054H275.786z"/>
		<path fill="#FFFFFF" d="M289.488,41.557h3.305v-3.899l3.454-1.114v5.014h4.16v2.563h-4.16v11.179c0,0.928,0,2.488,2.488,2.488
			c0.706,0,1.375-0.111,1.671-0.186v2.711c-0.631,0.111-1.634,0.223-2.897,0.223c-3.194,0-4.717-0.928-4.717-3.974V44.12h-3.305
			V41.557z"/>
	</g>
</g>
</svg>
