<?xml version="1.0" encoding="utf-8"?>
<!-- Generator: Adobe Illustrator 16.0.0, SVG Export Plug-In . SVG Version: 6.00 Build 0)  -->
<!DOCTYPE svg PUBLIC "-//W3C//DTD SVG 1.1//EN" "http://www.w3.org/Graphics/SVG/1.1/DTD/svg11.dtd">
<svg version="1.1" id="Layer_1" xmlns="http://www.w3.org/2000/svg" xmlns:xlink="http://www.w3.org/1999/xlink" x="0px" y="0px"
	 width="235.422px" height="107.204px" viewBox="0 0 235.422 107.204" enable-background="new 0 0 235.422 107.204"
	 xml:space="preserve">
<g>
	<g>
		<path fill="#FFFFFF" d="M46.455,35.278h3.714v26.815h-3.714V35.278z"/>
		<path fill="#FFFFFF" d="M56.89,45.603l-0.037-2.154h3.491l0.037,3.009c0.408-0.78,1.745-3.38,5.979-3.38
			c1.671,0,6.759,0.632,6.759,6.351v12.665h-3.564V50.246c0-1.226-0.149-2.34-1.003-3.194c-0.892-0.854-2.117-1.263-3.306-1.263
			c-2.525,0-4.865,1.82-4.865,5.571v10.733H56.89V45.603z"/>
		<path fill="#FFFFFF" d="M75.9,43.449h3.9l5.942,14.782l5.794-14.782h3.862l-8.171,18.645H83.7L75.9,43.449z"/>
		<path fill="#FFFFFF" d="M101.486,53.403c-0.075,3.862,1.522,6.722,5.348,6.722c2.266,0,4.085-1.188,4.383-3.862h3.491
			c-0.111,0.929-0.261,2.451-1.598,3.899c-0.816,0.929-2.674,2.488-6.425,2.488c-5.868,0-8.653-3.64-8.653-9.545
			c0-3.677,0.742-6.722,3.677-8.765c1.782-1.263,4.011-1.374,5.088-1.374c8.356,0,8.171,7.391,8.097,10.437H101.486z
			 M111.328,50.952c0.037-1.783-0.297-5.497-4.605-5.497c-2.266,0-5.014,1.374-5.088,5.497H111.328z"/>
		<path fill="#FFFFFF" d="M120.127,45.603l-0.037-2.154h3.491l0.037,3.009c0.408-0.78,1.745-3.38,5.979-3.38
			c1.671,0,6.76,0.632,6.76,6.351v12.665h-3.566V50.246c0-1.226-0.148-2.34-1.002-3.194c-0.892-0.854-2.117-1.263-3.306-1.263
			c-2.525,0-4.865,1.82-4.865,5.571v10.733h-3.491V45.603z"/>
		<path fill="#FFFFFF" d="M139.844,43.375h3.306v-3.899l3.454-1.114v5.014h4.16v2.562h-4.16v11.18c0,0.929,0,2.488,2.488,2.488
			c0.706,0,1.374-0.111,1.672-0.186v2.711c-0.632,0.111-1.635,0.223-2.897,0.223c-3.194,0-4.717-0.929-4.717-3.974V45.937h-3.306
			V43.375z"/>
		<path fill="#FFFFFF" d="M163.165,42.966c7.465,0,9.136,5.868,9.136,9.768c0,5.46-3.082,9.991-9.434,9.991
			c-6.165,0-9.173-4.271-9.173-9.731C153.694,48.388,155.848,42.966,163.165,42.966z M162.941,60.125
			c2.638,0,5.646-1.894,5.646-7.502c0-4.643-2.154-7.094-5.422-7.094c-2.229,0-5.831,1.411-5.831,7.242
			C157.334,56.596,158.968,60.125,162.941,60.125z"/>
		<path fill="#FFFFFF" d="M177.942,47.238c0-1.264-0.074-2.563-0.186-3.789h3.528l0.074,3.603c0.668-2.6,2.896-3.454,4.457-3.677
			c1.039-0.148,1.819-0.111,2.414-0.074v3.417c-0.187-0.074-0.409-0.111-0.669-0.148s-0.595-0.037-1.003-0.037
			c-4.122,0-5.088,2.451-5.088,5.646v9.916h-3.528V47.238z"/>
	</g>
	<g>
		<path fill="#307FE2" d="M235.422,107.204H0V0h235.422V107.204z M19.801,87.404h195.82L215.619,19.8l-195.818,0v67.605V87.404z"/>
	</g>
	<g>
		<polygon fill="#307FE2" points="16.502,19.8 16.502,87.406 16.502,90.705 19.801,90.705 215.621,90.705 218.922,90.705 
			218.922,87.406 218.922,19.8 218.922,16.5 215.621,16.5 19.801,16.5 16.502,16.5 		"/>
	</g>
	<g>
		<path fill="#FFFFFF" d="M46.456,35.278h3.714v26.815h-3.714V35.278z"/>
		<path fill="#FFFFFF" d="M56.891,45.603l-0.037-2.154h3.491l0.037,3.009c0.408-0.78,1.745-3.38,5.979-3.38
			c1.671,0,6.76,0.632,6.76,6.351v12.665h-3.566V50.246c0-1.226-0.148-2.34-1.002-3.194c-0.892-0.854-2.117-1.263-3.306-1.263
			c-2.525,0-4.865,1.82-4.865,5.571v10.733h-3.491V45.603z"/>
		<path fill="#FFFFFF" d="M75.901,43.449h3.9l5.942,14.782l5.794-14.782H95.4l-8.171,18.645h-3.528L75.901,43.449z"/>
		<path fill="#FFFFFF" d="M101.487,53.403c-0.075,3.862,1.522,6.722,5.348,6.722c2.266,0,4.085-1.188,4.383-3.862h3.491
			c-0.111,0.929-0.261,2.451-1.598,3.899c-0.816,0.929-2.674,2.488-6.425,2.488c-5.868,0-8.653-3.64-8.653-9.545
			c0-3.677,0.742-6.722,3.677-8.765c1.782-1.263,4.011-1.374,5.088-1.374c8.356,0,8.171,7.391,8.097,10.437H101.487z
			 M111.329,50.952c0.037-1.783-0.297-5.497-4.605-5.497c-2.266,0-5.014,1.374-5.088,5.497H111.329z"/>
		<path fill="#FFFFFF" d="M120.128,45.603l-0.037-2.154h3.491l0.037,3.009c0.408-0.78,1.745-3.38,5.979-3.38
			c1.671,0,6.759,0.632,6.759,6.351v12.665h-3.564V50.246c0-1.226-0.149-2.34-1.003-3.194c-0.892-0.854-2.117-1.263-3.306-1.263
			c-2.525,0-4.865,1.82-4.865,5.571v10.733h-3.491V45.603z"/>
		<path fill="#FFFFFF" d="M139.845,43.375h3.306v-3.899l3.454-1.114v5.014h4.16v2.562h-4.16v11.18c0,0.929,0,2.488,2.488,2.488
			c0.706,0,1.374-0.111,1.672-0.186v2.711c-0.632,0.111-1.635,0.223-2.897,0.223c-3.194,0-4.717-0.929-4.717-3.974V45.937h-3.306
			V43.375z"/>
		<path fill="#FFFFFF" d="M163.166,42.966c7.465,0,9.136,5.868,9.136,9.768c0,5.46-3.082,9.991-9.434,9.991
			c-6.165,0-9.173-4.271-9.173-9.731C153.695,48.388,155.849,42.966,163.166,42.966z M162.942,60.125
			c2.638,0,5.646-1.894,5.646-7.502c0-4.643-2.154-7.094-5.422-7.094c-2.229,0-5.831,1.411-5.831,7.242
			C157.335,56.596,158.969,60.125,162.942,60.125z"/>
		<path fill="#FFFFFF" d="M177.943,47.238c0-1.264-0.074-2.563-0.186-3.789h3.528l0.074,3.603c0.668-2.6,2.896-3.454,4.457-3.677
			c1.039-0.148,1.819-0.111,2.414-0.074v3.417c-0.187-0.074-0.409-0.111-0.669-0.148s-0.594-0.037-1.003-0.037
			c-4.122,0-5.088,2.451-5.088,5.646v9.916h-3.528V47.238z"/>
	</g>
	<g>
		<path fill="#FFFFFF" d="M222.222,94.004H13.202V13.2h209.02V94.004z M19.801,87.405h195.821l-0.001-67.605H19.801l0.001,0.001
			L19.801,87.405L19.801,87.405z"/>
	</g>
</g>
</svg>
