<?xml version="1.0" encoding="utf-8"?>
<!-- Generator: Adobe Illustrator 16.0.0, SVG Export Plug-In . SVG Version: 6.00 Build 0)  -->
<!DOCTYPE svg PUBLIC "-//W3C//DTD SVG 1.1//EN" "http://www.w3.org/Graphics/SVG/1.1/DTD/svg11.dtd">
<svg version="1.1" id="Layer_1" xmlns="http://www.w3.org/2000/svg" xmlns:xlink="http://www.w3.org/1999/xlink" x="0px" y="0px"
	 width="334.055px" height="120.65px" viewBox="0 0 334.055 120.65" enable-background="new 0 0 334.055 120.65"
	 xml:space="preserve">
<g>
	<g>
		<path fill="#307FE2" d="M152.293,120.65l-15.509-17.105l-17.931,14.674l-14.142-18.502l-19.574,13.073L72.993,92.192
			l-23.036,10.356L42.86,75.044L0,60.333l42.879-14.737l7.1-27.5L73.012,28.45L85.146,7.851l19.562,13.074l14.124-18.496
			l17.94,14.679l15.512-17.104l16.694,15.917L185.666,0l15.509,17.106l17.932-14.675l14.143,18.499l19.569-13.074l12.149,20.605
			l23.037-10.354l7.094,27.502l42.858,14.71L295.08,75.058l-7.101,27.498l-23.032-10.356L252.813,112.8l-19.564-13.076
			l-14.123,18.498l-17.939-14.678l-15.512,17.104l-16.693-15.917L152.293,120.65z M168.979,77.371l15.666,14.938l14.516-16.005
			l16.654,13.626l12.979-16.999l17.596,11.76l10.499-17.825l17.792,8l3.761-14.563l-3.742-14.507l-17.784,7.993L246.4,35.956
			l-17.599,11.758l-12.994-16.997l-16.658,13.634l-14.511-16.005l-15.656,14.937l-15.669-14.94l-14.516,16.006L122.141,30.72
			l-12.978,16.997L91.569,35.958L81.07,53.781l-17.791-7.998l-3.762,14.568l3.744,14.507l17.784-7.996l10.512,17.831l17.605-11.758
			l12.991,16.998l16.655-13.63l14.511,16.004L168.979,77.371z"/>
	</g>
	<g>
		<polygon fill="#307FE2" points="307.482,60.326 286.826,67.427 281.33,88.711 260.918,79.533 249.602,98.746 231.021,86.328 
			217.471,104.076 200.174,89.924 185.16,106.479 168.98,91.051 152.807,106.479 137.797,89.924 120.504,104.076 106.938,86.326 
			88.348,98.742 77.02,79.527 56.609,88.703 51.115,67.41 30.477,60.326 51.133,53.227 56.629,31.939 77.041,41.115 88.357,21.904 
			106.936,34.32 120.486,16.574 137.785,30.729 152.799,14.173 168.98,29.602 185.152,14.173 200.162,30.729 217.457,16.574 
			231.025,34.322 249.609,21.906 260.941,41.125 281.352,31.951 286.844,53.242 		"/>
	</g>
	<g>
		<path fill="#FFFFFF" d="M152.678,110.021l-15.134-16.692l-17.453,14.283l-13.71-17.938l-18.836,12.581L76.013,82.693
			l-21.066,9.471l-5.895-22.846l-26.194-8.991l26.212-9.009l5.897-22.84l21.067,9.47l11.521-19.558l18.824,12.58l13.693-17.934
			l17.46,14.286L152.67,10.63l16.31,15.551L185.28,10.63l15.135,16.693l17.454-14.285l13.712,17.936l18.83-12.58l11.537,19.565
			l21.066-9.469l5.893,22.844l26.193,8.99l-26.211,9.01l-5.897,22.837L261.925,82.7l-11.521,19.56l-18.826-12.583l-13.693,17.936
			l-17.458-14.284l-15.138,16.692l-16.309-15.55L152.678,110.021z M168.98,87.631l16.051,15.305l14.89-16.417l17.136,14.021
			l13.408-17.561l18.334,12.253l11.112-18.866l19.757,8.883l5.095-19.731l15.102-5.191L284.78,55.15l-5.092-19.738l-19.754,8.879
			l-11.127-18.872L230.47,37.67L217.045,20.11l-17.136,14.024l-14.885-16.418L168.98,33.022l-16.053-15.307l-14.89,16.418
			L120.9,20.111l-13.408,17.559L89.16,25.417L78.048,44.282L58.291,35.4l-5.095,19.734l-15.101,5.19l15.083,5.177l5.094,19.74
			l19.754-8.88L89.15,95.23l18.344-12.251l13.423,17.562l17.133-14.022l14.886,16.417L168.98,87.631z"/>
	</g>
	<g>
		<path fill="#FFFFFF" d="M77.848,65.881c0.037,0.928,0.037,2.08,0.594,2.934c0.445,0.706,1.561,1.634,3.453,1.634
			c1.523,0,2.936-0.631,3.715-1.894c0.631-1.077,0.631-2.785,0.631-3.603V46.346h3.715v19.61c0,4.939-3.9,7.614-8.32,7.614
			c-1.41,0-4.531-0.334-6.387-2.786c-1.264-1.708-1.338-3.825-1.338-4.902H77.848z"/>
		<path fill="#FFFFFF" d="M104.436,54.034c7.465,0,9.137,5.868,9.137,9.768c0,5.459-3.082,9.991-9.434,9.991
			c-6.166,0-9.174-4.271-9.174-9.73C94.965,59.456,97.119,54.034,104.436,54.034z M104.213,71.192c2.637,0,5.645-1.894,5.645-7.502
			c0-4.643-2.154-7.094-5.422-7.094c-2.229,0-5.83,1.411-5.83,7.242C98.605,67.664,100.238,71.192,104.213,71.192z"/>
		<path fill="#FFFFFF" d="M119.027,46.383h3.529v10.882c1.15-1.968,3.453-3.083,6.053-3.083c1.969,0,4.791,0.706,5.869,2.971
			c0.371,0.743,0.631,1.634,0.631,4.345v11.662h-3.566V62.13c0-1.671,0-5.273-4.01-5.273c-2.6,0-3.9,1.597-4.383,2.488
			c-0.594,1.04-0.594,2.785-0.594,3.937v9.879h-3.529V46.383z"/>
		<path fill="#FFFFFF" d="M141.826,56.67l-0.037-2.154h3.492l0.037,3.008c0.408-0.78,1.744-3.38,5.979-3.38
			c1.672,0,6.76,0.631,6.76,6.351v12.665h-3.564V61.313c0-1.226-0.15-2.34-1.004-3.194c-0.891-0.854-2.117-1.263-3.305-1.263
			c-2.525,0-4.865,1.82-4.865,5.571v10.733h-3.492V56.67z"/>
		<path fill="#FFFFFF" d="M190.883,53.588c-0.148-0.928-0.631-4.643-5.795-4.643c-6.461,0-7.613,6.611-7.613,11.068
			c0,5.051,1.449,10.511,7.576,10.511c1.635,0,3.195-0.409,4.346-1.597c0.967-1.04,1.189-2.191,1.301-2.823h4.086
			c-0.559,5.274-5.424,7.465-10.029,7.465c-9.434,0-11.252-8.319-11.252-13.519c0-5.646,2.191-14.076,11.736-14.076
			c3.787,0,9.135,1.523,9.619,7.614H190.883z"/>
		<path fill="#FFFFFF" d="M210.859,73.161c-0.26-0.929-0.334-1.82-0.334-2.786c-1.672,3.083-4.197,3.38-5.758,3.38
			c-4.27,0-6.572-2.414-6.572-5.497c0-1.486,0.52-3.863,3.268-5.459c2.006-1.114,4.977-1.226,6.463-1.226
			c0.891,0,1.447,0.038,2.525,0.112c0-2.303,0-3.306-0.67-4.123c-0.705-0.929-2.227-1.226-3.23-1.226
			c-3.527,0-3.713,2.414-3.75,3.157h-3.492c0.111-0.966,0.223-2.266,1.301-3.528c1.41-1.56,4.047-2.005,6.016-2.005
			c2.711,0,5.607,0.854,6.611,2.748c0.594,1.114,0.631,2.006,0.631,2.86l-0.148,8.914c0,0.297,0.037,2.786,0.297,4.68H210.859z
			 M208.445,63.987c-1.412,0-6.723,0-6.723,3.788c0,1.188,0.742,3.231,3.863,3.231c1.781,0,3.119-0.706,3.973-2.005
			c0.781-1.263,0.818-2.303,0.893-4.902C209.818,64.024,209.299,63.987,208.445,63.987z"/>
		<path fill="#FFFFFF" d="M223.482,74.609c0.148,2.08,1.039,3.64,4.346,3.64c4.865,0,4.939-3.528,4.939-8.58
			c-1.486,3.083-5.014,3.157-6.129,3.157c-1.707,0-4.158-0.371-5.719-2.302c-1.598-1.895-2.117-4.383-2.117-6.871
			c0-6.314,3.715-9.396,8.283-9.396c3.75,0,5.125,1.857,5.867,2.823l0.037-2.562h3.379l-0.074,3.379l-0.037,11.662
			c0,4.494-0.148,6.314-0.891,7.725c-1.561,2.971-5.199,3.343-7.762,3.343c-7.465,0-7.688-3.491-7.838-6.017H223.482z
			 M231.615,68.37c0.744-0.966,1.264-1.968,1.264-5.348c0-2.34-0.52-3.677-1.449-4.643c-0.928-1.003-2.414-1.634-4.01-1.634
			c-4.42,0-5.014,4.457-5.014,6.834c0,2.86,0.854,6.648,5.125,6.648C229.574,70.227,230.762,69.484,231.615,68.37z"/>
		<path fill="#FFFFFF" d="M244.945,64.47c-0.074,3.863,1.523,6.723,5.348,6.723c2.266,0,4.086-1.188,4.383-3.863h3.492
			c-0.111,0.929-0.262,2.451-1.598,3.9c-0.816,0.928-2.674,2.488-6.426,2.488c-5.867,0-8.652-3.64-8.652-9.545
			c0-3.677,0.742-6.722,3.676-8.765c1.783-1.263,4.012-1.374,5.088-1.374c8.357,0,8.172,7.391,8.098,10.436H244.945z
			 M254.787,62.019c0.037-1.783-0.297-5.497-4.605-5.497c-2.266,0-5.014,1.374-5.088,5.497H254.787z"/>
	</g>
</g>
</svg>
