<?xml version="1.0" encoding="utf-8"?>
<!-- Generator: Adobe Illustrator 16.0.0, SVG Export Plug-In . SVG Version: 6.00 Build 0)  -->
<!DOCTYPE svg PUBLIC "-//W3C//DTD SVG 1.1//EN" "http://www.w3.org/Graphics/SVG/1.1/DTD/svg11.dtd">
<svg version="1.1" id="Layer_1" xmlns="http://www.w3.org/2000/svg" xmlns:xlink="http://www.w3.org/1999/xlink" x="0px" y="0px"
	 width="325.693px" height="103.902px" viewBox="0 0 325.693 103.902" enable-background="new 0 0 325.693 103.902"
	 xml:space="preserve">
<g>
	<g>
		<path fill="#FFFFFF" d="M62.61,42.52c-0.148-0.928-0.631-4.643-5.794-4.643c-6.462,0-7.613,6.611-7.613,11.068
			c0,5.051,1.448,10.511,7.576,10.511c1.635,0,3.194-0.409,4.346-1.597c0.966-1.04,1.188-2.191,1.3-2.823h4.086
			c-0.558,5.274-5.423,7.465-10.028,7.465c-9.434,0-11.253-8.319-11.253-13.519c0-5.646,2.191-14.076,11.736-14.076
			c3.788,0,9.136,1.523,9.619,7.614H62.61z"/>
		<path fill="#FFFFFF" d="M79.319,42.965c7.465,0,9.136,5.868,9.136,9.768c0,5.459-3.082,9.991-9.434,9.991
			c-6.165,0-9.173-4.271-9.173-9.73C69.849,48.388,72.002,42.965,79.319,42.965z M79.096,60.124c2.638,0,5.646-1.894,5.646-7.502
			c0-4.643-2.154-7.094-5.422-7.094c-2.229,0-5.831,1.411-5.831,7.242C73.488,56.596,75.122,60.124,79.096,60.124z"/>
		<path fill="#FFFFFF" d="M94.022,45.602l-0.037-2.154h3.491l0.037,3.008c0.408-0.78,1.745-3.38,5.979-3.38
			c1.671,0,6.759,0.631,6.759,6.351v12.665h-3.564V50.245c0-1.226-0.149-2.34-1.003-3.194c-0.892-0.854-2.117-1.263-3.306-1.263
			c-2.525,0-4.865,1.82-4.865,5.571v10.733h-3.491V45.602z"/>
		<path fill="#FFFFFF" d="M127.221,49.428c-0.074-0.854-0.335-3.9-3.714-3.9c-4.829,0-4.829,5.608-4.829,7.02
			c0,3.825,0.929,7.391,4.643,7.391c2.972,0,3.975-2.228,4.049-4.048h3.528c-0.223,3.64-2.935,6.685-7.54,6.685
			c-1.263,0-4.159-0.26-6.128-2.414c-1.114-1.3-2.229-3.269-2.229-7.131c0-7.762,4.754-10.065,8.469-10.065
			c1.226,0,4.011,0.26,5.719,2.303c1.374,1.597,1.486,3.12,1.561,4.16H127.221z"/>
		<path fill="#FFFFFF" d="M137.282,53.401c-0.075,3.863,1.522,6.723,5.348,6.723c2.266,0,4.085-1.188,4.383-3.863h3.491
			c-0.111,0.929-0.261,2.451-1.598,3.9c-0.816,0.928-2.674,2.488-6.425,2.488c-5.868,0-8.653-3.64-8.653-9.545
			c0-3.677,0.742-6.722,3.677-8.765c1.782-1.263,4.011-1.374,5.088-1.374c8.356,0,8.171,7.391,8.097,10.436H137.282z M147.124,50.95
			c0.037-1.783-0.297-5.497-4.605-5.497c-2.266,0-5.014,1.374-5.088,5.497H147.124z"/>
		<path fill="#FFFFFF" d="M155.7,46.494c0-0.817-0.037-1.263-0.111-3.045h3.528l0.074,3.083c1.745-2.934,4.828-3.38,6.351-3.38
			c4.011,0,7.837,2.749,7.837,9.656c0,6.945-4.049,9.991-8.506,9.991c-2.711,0-4.717-1.151-5.719-2.786v9.248H155.7V46.494z
			 M164.279,60.235c0.892,0,2.748-0.186,3.937-1.82c1.337-1.82,1.522-4.494,1.522-5.831c0-3.343-1.002-6.834-5.125-6.834
			c-5.571,0-5.571,5.905-5.571,7.577C159.042,55.593,159.377,60.235,164.279,60.235z"/>
		<path fill="#FFFFFF" d="M175.64,43.374h3.306v-3.899l3.454-1.114v5.014h4.16v2.563h-4.16v11.179c0,0.928,0,2.488,2.488,2.488
			c0.706,0,1.374-0.111,1.672-0.186v2.711c-0.632,0.111-1.635,0.223-2.897,0.223c-3.194,0-4.717-0.928-4.717-3.974V45.937h-3.306
			V43.374z"/>
		<path fill="#FFFFFF" d="M194.058,43.448v11.996c0,1.82,0.409,4.123,3.975,4.123c1.745,0,3.38-0.594,4.382-2.08
			c0.78-1.114,0.78-2.562,0.78-3.491V43.448h3.603v15.153c0,0.372,0.074,2.451,0.111,3.491h-3.64l-0.074-3.194
			c-0.668,1.3-1.931,3.379-5.942,3.379c-4.605,0-6.76-2.637-6.76-6.313V43.448H194.058z"/>
		<path fill="#FFFFFF" d="M224.917,62.092c-0.26-0.929-0.334-1.82-0.334-2.786c-1.671,3.083-4.196,3.38-5.757,3.38
			c-4.271,0-6.573-2.414-6.573-5.497c0-1.486,0.52-3.863,3.268-5.459c2.006-1.114,4.978-1.226,6.463-1.226
			c0.892,0,1.448,0.038,2.525,0.112c0-2.303,0-3.306-0.669-4.123c-0.705-0.929-2.228-1.226-3.23-1.226
			c-3.528,0-3.714,2.414-3.751,3.157h-3.491c0.111-0.966,0.223-2.266,1.3-3.528c1.411-1.56,4.048-2.005,6.017-2.005
			c2.711,0,5.607,0.854,6.61,2.748c0.595,1.114,0.632,2.006,0.632,2.86l-0.148,8.914c0,0.297,0.037,2.786,0.297,4.68H224.917z
			 M222.503,52.919c-1.411,0-6.722,0-6.722,3.788c0,1.188,0.742,3.231,3.862,3.231c1.782,0,3.12-0.706,3.974-2.005
			c0.78-1.263,0.817-2.303,0.892-4.902C223.877,52.956,223.357,52.919,222.503,52.919z"/>
		<path fill="#FFFFFF" d="M234.273,35.314h3.491v26.778h-3.491V35.314z"/>
		<path fill="#FFFFFF" d="M244.187,35.352h4.197v3.825h-4.197V35.352z M244.559,43.448h3.491v18.644h-3.491V43.448z"/>
		<path fill="#FFFFFF" d="M256.85,56.559c-0.037,1.411,0.706,3.379,4.086,3.379c1.448,0,2.525-0.26,3.269-1.188
			c0.371-0.482,0.594-1.114,0.594-1.746c0-1.82-1.3-2.154-4.085-2.785c-3.9-0.892-7.168-1.671-7.168-5.571
			c0-3.417,2.971-5.645,7.279-5.645c2.34,0,5.607,0.668,6.722,2.897c0.483,1.04,0.483,1.931,0.483,2.711h-3.565
			c0.111-2.822-2.34-3.045-3.603-3.045c-0.521,0-3.788,0-3.788,2.674c0,1.708,1.671,2.117,2.637,2.377
			c5.162,1.226,6.276,1.522,7.391,2.562c1.04,0.966,1.411,2.266,1.411,3.454c0,2.08-1.151,3.862-2.525,4.717
			c-1.634,1.002-3.603,1.263-5.534,1.263c-3.788,0-7.316-1.56-7.279-6.054H256.85z"/>
		<path fill="#FFFFFF" d="M270.551,43.374h3.306v-3.899l3.454-1.114v5.014h4.16v2.563h-4.16v11.179c0,0.928,0,2.488,2.488,2.488
			c0.706,0,1.374-0.111,1.672-0.186v2.711c-0.632,0.111-1.635,0.223-2.897,0.223c-3.194,0-4.717-0.928-4.717-3.974V45.937h-3.306
			V43.374z"/>
	</g>
	<g>
		<path fill="#307FE2" d="M325.693,103.902H0V0h325.693V103.902z M19.801,84.103h286.092V19.799v0H19.801V84.103z"/>
	</g>
	<g>
		<polygon fill="#307FE2" points="16.502,19.799 16.502,84.103 16.502,87.404 19.801,87.404 305.893,87.404 309.191,87.404 
			309.191,84.103 309.191,19.799 309.191,16.5 305.893,16.5 19.801,16.5 16.502,16.5 		"/>
	</g>
	<g>
		<path fill="#FFFFFF" d="M62.61,42.52c-0.148-0.928-0.631-4.643-5.794-4.643c-6.462,0-7.613,6.611-7.613,11.068
			c0,5.051,1.448,10.511,7.576,10.511c1.635,0,3.194-0.409,4.346-1.597c0.966-1.04,1.188-2.191,1.3-2.823h4.086
			c-0.558,5.274-5.423,7.465-10.028,7.465c-9.434,0-11.253-8.319-11.253-13.519c0-5.646,2.191-14.076,11.736-14.076
			c3.788,0,9.136,1.523,9.619,7.614H62.61z"/>
		<path fill="#FFFFFF" d="M79.319,42.965c7.465,0,9.136,5.868,9.136,9.768c0,5.459-3.082,9.991-9.434,9.991
			c-6.165,0-9.173-4.271-9.173-9.73C69.849,48.388,72.002,42.965,79.319,42.965z M79.096,60.124c2.638,0,5.646-1.894,5.646-7.502
			c0-4.643-2.154-7.094-5.422-7.094c-2.229,0-5.831,1.411-5.831,7.242C73.488,56.596,75.122,60.124,79.096,60.124z"/>
		<path fill="#FFFFFF" d="M94.022,45.602l-0.037-2.154h3.491l0.037,3.008c0.408-0.78,1.745-3.38,5.979-3.38
			c1.671,0,6.759,0.631,6.759,6.351v12.665h-3.564V50.245c0-1.226-0.149-2.34-1.003-3.194c-0.892-0.854-2.117-1.263-3.306-1.263
			c-2.525,0-4.865,1.82-4.865,5.571v10.733h-3.491V45.602z"/>
		<path fill="#FFFFFF" d="M127.221,49.428c-0.074-0.854-0.335-3.9-3.714-3.9c-4.829,0-4.829,5.608-4.829,7.02
			c0,3.825,0.929,7.391,4.643,7.391c2.972,0,3.975-2.228,4.049-4.048h3.528c-0.223,3.64-2.935,6.685-7.54,6.685
			c-1.263,0-4.159-0.26-6.128-2.414c-1.114-1.3-2.229-3.269-2.229-7.131c0-7.762,4.754-10.065,8.469-10.065
			c1.226,0,4.011,0.26,5.719,2.303c1.374,1.597,1.486,3.12,1.561,4.16H127.221z"/>
		<path fill="#FFFFFF" d="M137.282,53.401c-0.075,3.863,1.522,6.723,5.348,6.723c2.266,0,4.085-1.188,4.383-3.863h3.491
			c-0.111,0.929-0.261,2.451-1.598,3.9c-0.816,0.928-2.674,2.488-6.425,2.488c-5.868,0-8.653-3.64-8.653-9.545
			c0-3.677,0.742-6.722,3.677-8.765c1.782-1.263,4.011-1.374,5.088-1.374c8.356,0,8.171,7.391,8.097,10.436H137.282z M147.124,50.95
			c0.037-1.783-0.297-5.497-4.605-5.497c-2.266,0-5.014,1.374-5.088,5.497H147.124z"/>
		<path fill="#FFFFFF" d="M155.7,46.494c0-0.817-0.037-1.263-0.111-3.045h3.528l0.074,3.083c1.745-2.934,4.828-3.38,6.351-3.38
			c4.011,0,7.837,2.749,7.837,9.656c0,6.945-4.049,9.991-8.506,9.991c-2.711,0-4.717-1.151-5.719-2.786v9.248H155.7V46.494z
			 M164.279,60.235c0.892,0,2.748-0.186,3.937-1.82c1.337-1.82,1.522-4.494,1.522-5.831c0-3.343-1.002-6.834-5.125-6.834
			c-5.571,0-5.571,5.905-5.571,7.577C159.042,55.593,159.377,60.235,164.279,60.235z"/>
		<path fill="#FFFFFF" d="M175.64,43.374h3.306v-3.899l3.454-1.114v5.014h4.16v2.563h-4.16v11.179c0,0.928,0,2.488,2.488,2.488
			c0.706,0,1.374-0.111,1.672-0.186v2.711c-0.632,0.111-1.635,0.223-2.897,0.223c-3.194,0-4.717-0.928-4.717-3.974V45.937h-3.306
			V43.374z"/>
		<path fill="#FFFFFF" d="M194.058,43.448v11.996c0,1.82,0.409,4.123,3.975,4.123c1.745,0,3.38-0.594,4.382-2.08
			c0.78-1.114,0.78-2.562,0.78-3.491V43.448h3.603v15.153c0,0.372,0.074,2.451,0.111,3.491h-3.64l-0.074-3.194
			c-0.668,1.3-1.931,3.379-5.942,3.379c-4.605,0-6.76-2.637-6.76-6.313V43.448H194.058z"/>
		<path fill="#FFFFFF" d="M224.917,62.092c-0.26-0.929-0.334-1.82-0.334-2.786c-1.671,3.083-4.196,3.38-5.757,3.38
			c-4.271,0-6.573-2.414-6.573-5.497c0-1.486,0.52-3.863,3.268-5.459c2.006-1.114,4.978-1.226,6.463-1.226
			c0.892,0,1.448,0.038,2.525,0.112c0-2.303,0-3.306-0.669-4.123c-0.705-0.929-2.228-1.226-3.23-1.226
			c-3.528,0-3.714,2.414-3.751,3.157h-3.491c0.111-0.966,0.223-2.266,1.3-3.528c1.411-1.56,4.048-2.005,6.017-2.005
			c2.711,0,5.607,0.854,6.61,2.748c0.595,1.114,0.632,2.006,0.632,2.86l-0.148,8.914c0,0.297,0.037,2.786,0.297,4.68H224.917z
			 M222.503,52.919c-1.411,0-6.722,0-6.722,3.788c0,1.188,0.742,3.231,3.862,3.231c1.782,0,3.12-0.706,3.974-2.005
			c0.78-1.263,0.817-2.303,0.892-4.902C223.877,52.956,223.357,52.919,222.503,52.919z"/>
		<path fill="#FFFFFF" d="M234.273,35.314h3.491v26.778h-3.491V35.314z"/>
		<path fill="#FFFFFF" d="M244.187,35.352h4.197v3.825h-4.197V35.352z M244.559,43.448h3.491v18.644h-3.491V43.448z"/>
		<path fill="#FFFFFF" d="M256.85,56.559c-0.037,1.411,0.706,3.379,4.086,3.379c1.448,0,2.525-0.26,3.269-1.188
			c0.371-0.482,0.594-1.114,0.594-1.746c0-1.82-1.3-2.154-4.085-2.785c-3.9-0.892-7.168-1.671-7.168-5.571
			c0-3.417,2.971-5.645,7.279-5.645c2.34,0,5.607,0.668,6.722,2.897c0.483,1.04,0.483,1.931,0.483,2.711h-3.565
			c0.111-2.822-2.34-3.045-3.603-3.045c-0.521,0-3.788,0-3.788,2.674c0,1.708,1.671,2.117,2.637,2.377
			c5.162,1.226,6.276,1.522,7.391,2.562c1.04,0.966,1.411,2.266,1.411,3.454c0,2.08-1.151,3.862-2.525,4.717
			c-1.634,1.002-3.603,1.263-5.534,1.263c-3.788,0-7.316-1.56-7.279-6.054H256.85z"/>
		<path fill="#FFFFFF" d="M270.551,43.374h3.306v-3.899l3.454-1.114v5.014h4.16v2.563h-4.16v11.179c0,0.928,0,2.488,2.488,2.488
			c0.706,0,1.374-0.111,1.672-0.186v2.711c-0.632,0.111-1.635,0.223-2.897,0.223c-3.194,0-4.717-0.928-4.717-3.974V45.937h-3.306
			V43.374z"/>
	</g>
	<g>
		<path fill="#FFFFFF" d="M312.491,90.704H13.202V13.201h299.289V90.704z M19.801,84.104h286.092l-0.001-0.001V19.799L19.801,19.8
			V84.104L19.801,84.104z"/>
	</g>
</g>
</svg>
