<?xml version="1.0" encoding="utf-8"?>
<!-- Generator: Adobe Illustrator 16.0.0, SVG Export Plug-In . SVG Version: 6.00 Build 0)  -->
<!DOCTYPE svg PUBLIC "-//W3C//DTD SVG 1.1//EN" "http://www.w3.org/Graphics/SVG/1.1/DTD/svg11.dtd">
<svg version="1.1" id="Layer_1" xmlns="http://www.w3.org/2000/svg" xmlns:xlink="http://www.w3.org/1999/xlink" x="0px" y="0px"
	 width="217.076px" height="103.903px" viewBox="0 0 217.076 103.903" enable-background="new 0 0 217.076 103.903"
	 xml:space="preserve">
<g>
	<g>
		<path fill="#FFFFFF" d="M54.808,35.276h3.974l10.845,26.815h-4.048l-2.897-6.982H50.239l-2.896,6.982h-3.826L54.808,35.276z
			 M51.428,52.101h10.139l-4.939-13.147L51.428,52.101z"/>
		<path fill="#FFFFFF" d="M83.883,49.426c-0.074-0.854-0.335-3.899-3.714-3.899c-4.828,0-4.828,5.608-4.828,7.02
			c0,3.825,0.928,7.391,4.642,7.391c2.972,0,3.975-2.229,4.049-4.048h3.528c-0.223,3.64-2.935,6.685-7.54,6.685
			c-1.263,0-4.159-0.26-6.128-2.414c-1.114-1.3-2.229-3.268-2.229-7.131c0-7.762,4.754-10.064,8.469-10.064
			c1.226,0,4.011,0.26,5.719,2.303c1.375,1.597,1.486,3.119,1.561,4.159H83.883z"/>
		<path fill="#FFFFFF" d="M88.967,43.373h3.306v-3.899l3.454-1.114v5.014h4.16v2.562h-4.16v11.18c0,0.929,0,2.488,2.488,2.488
			c0.706,0,1.374-0.111,1.672-0.186v2.711c-0.632,0.111-1.635,0.223-2.897,0.223c-3.194,0-4.717-0.929-4.717-3.974V45.935h-3.306
			V43.373z"/>
		<path fill="#FFFFFF" d="M103.857,35.351h4.197v3.825h-4.197V35.351z M104.229,43.447h3.491v18.645h-3.491V43.447z"/>
		<path fill="#FFFFFF" d="M112.435,43.447h3.9l5.942,14.782l5.794-14.782h3.862l-8.171,18.645h-3.528L112.435,43.447z"/>
		<path fill="#FFFFFF" d="M135.569,35.351h4.197v3.825h-4.197V35.351z M135.941,43.447h3.491v18.645h-3.491V43.447z"/>
		<path fill="#FFFFFF" d="M148.232,56.557c-0.037,1.412,0.706,3.38,4.086,3.38c1.448,0,2.525-0.26,3.269-1.188
			c0.371-0.482,0.594-1.114,0.594-1.745c0-1.82-1.3-2.154-4.085-2.786c-3.9-0.891-7.168-1.671-7.168-5.57
			c0-3.417,2.971-5.646,7.279-5.646c2.34,0,5.608,0.668,6.722,2.896c0.483,1.04,0.483,1.932,0.483,2.712h-3.565
			c0.111-2.823-2.34-3.046-3.603-3.046c-0.521,0-3.788,0-3.788,2.674c0,1.709,1.671,2.117,2.637,2.377
			c5.162,1.226,6.276,1.523,7.391,2.562c1.04,0.966,1.411,2.266,1.411,3.454c0,2.08-1.151,3.863-2.525,4.717
			c-1.634,1.003-3.603,1.263-5.534,1.263c-3.788,0-7.316-1.56-7.279-6.054H148.232z"/>
		<path fill="#FFFFFF" d="M161.934,43.373h3.306v-3.899l3.454-1.114v5.014h4.16v2.562h-4.16v11.18c0,0.929,0,2.488,2.488,2.488
			c0.706,0,1.374-0.111,1.672-0.186v2.711c-0.632,0.111-1.635,0.223-2.897,0.223c-3.194,0-4.717-0.929-4.717-3.974V45.935h-3.306
			V43.373z"/>
	</g>
	<g>
		<path fill="#307FE2" d="M217.076,103.903H0V0h217.076V103.903z M19.799,84.104l177.477,0V19.798V19.8H19.799l0.002,64.304H19.799z
			"/>
	</g>
	<g>
		<polygon fill="#307FE2" points="16.5,19.796 16.5,84.101 16.5,87.401 19.799,87.401 197.275,87.401 200.576,87.401 
			200.576,84.101 200.576,19.796 200.576,16.496 197.275,16.496 19.799,16.496 16.5,16.496 		"/>
	</g>
	<g>
		<path fill="#FFFFFF" d="M54.808,35.274h3.974l10.845,26.815h-4.048l-2.897-6.982H50.239l-2.896,6.982h-3.826L54.808,35.274z
			 M51.428,52.099h10.139l-4.939-13.147L51.428,52.099z"/>
		<path fill="#FFFFFF" d="M83.883,49.424c-0.074-0.854-0.335-3.899-3.714-3.899c-4.828,0-4.828,5.608-4.828,7.02
			c0,3.825,0.928,7.391,4.642,7.391c2.972,0,3.975-2.229,4.049-4.048h3.528c-0.223,3.64-2.935,6.685-7.54,6.685
			c-1.263,0-4.159-0.26-6.128-2.414c-1.114-1.3-2.229-3.268-2.229-7.131c0-7.762,4.754-10.064,8.469-10.064
			c1.226,0,4.011,0.26,5.719,2.303c1.375,1.597,1.486,3.119,1.561,4.159H83.883z"/>
		<path fill="#FFFFFF" d="M88.967,43.371h3.306v-3.899l3.454-1.114v5.014h4.16v2.562h-4.16v11.18c0,0.929,0,2.488,2.488,2.488
			c0.706,0,1.374-0.111,1.672-0.186v2.711c-0.632,0.111-1.635,0.223-2.897,0.223c-3.194,0-4.717-0.929-4.717-3.974V45.933h-3.306
			V43.371z"/>
		<path fill="#FFFFFF" d="M103.857,35.349h4.197v3.825h-4.197V35.349z M104.229,43.445h3.491v18.645h-3.491V43.445z"/>
		<path fill="#FFFFFF" d="M112.435,43.445h3.9l5.942,14.782l5.794-14.782h3.862l-8.171,18.645h-3.528L112.435,43.445z"/>
		<path fill="#FFFFFF" d="M135.569,35.349h4.197v3.825h-4.197V35.349z M135.941,43.445h3.491v18.645h-3.491V43.445z"/>
		<path fill="#FFFFFF" d="M148.232,56.555c-0.037,1.412,0.706,3.38,4.086,3.38c1.448,0,2.525-0.26,3.269-1.188
			c0.371-0.482,0.594-1.114,0.594-1.745c0-1.82-1.3-2.154-4.085-2.786c-3.9-0.891-7.168-1.671-7.168-5.57
			c0-3.417,2.971-5.646,7.279-5.646c2.34,0,5.608,0.668,6.722,2.896c0.483,1.04,0.483,1.932,0.483,2.712h-3.565
			c0.111-2.823-2.34-3.046-3.603-3.046c-0.521,0-3.788,0-3.788,2.674c0,1.709,1.671,2.117,2.637,2.377
			c5.162,1.226,6.276,1.523,7.391,2.562c1.04,0.966,1.411,2.266,1.411,3.454c0,2.08-1.151,3.863-2.525,4.717
			c-1.634,1.003-3.603,1.263-5.534,1.263c-3.788,0-7.316-1.56-7.279-6.054H148.232z"/>
		<path fill="#FFFFFF" d="M161.934,43.371h3.306v-3.899l3.454-1.114v5.014h4.16v2.562h-4.16v11.18c0,0.929,0,2.488,2.488,2.488
			c0.706,0,1.374-0.111,1.672-0.186v2.711c-0.632,0.111-1.635,0.223-2.897,0.223c-3.194,0-4.717-0.929-4.717-3.974V45.933h-3.306
			V43.371z"/>
	</g>
	<g>
		<path fill="#FFFFFF" d="M203.876,90.701H13.2V13.196h190.676V90.701z M19.799,84.101h177.478l-0.001-64.306H19.799l0.001,0.001
			L19.799,84.101z"/>
	</g>
</g>
</svg>
