<?xml version="1.0" encoding="utf-8"?>
<!-- Generator: Adobe Illustrator 16.0.0, SVG Export Plug-In . SVG Version: 6.00 Build 0)  -->
<!DOCTYPE svg PUBLIC "-//W3C//DTD SVG 1.1//EN" "http://www.w3.org/Graphics/SVG/1.1/DTD/svg11.dtd">
<svg version="1.1" id="Layer_1" xmlns="http://www.w3.org/2000/svg" xmlns:xlink="http://www.w3.org/1999/xlink" x="0px" y="0px"
	 width="218.917px" height="100.929px" viewBox="0 0 218.917 100.929" enable-background="new 0 0 218.917 100.929"
	 xml:space="preserve">
<g>
	<g>
		<path fill="#307FE2" d="M164.588,100.929H54.31L0,50.464L54.309,0h110.318l54.29,50.613L164.588,100.929z M62.088,81.129
			l94.744-0.001l32.997-30.562l-33-30.766l-0.001,0H62.09l-33,30.665L62.088,81.129L62.088,81.129z"/>
	</g>
	<g>
		<polygon fill="#307FE2" points="59.844,17.381 26.844,48.045 24.242,50.463 26.844,52.88 59.844,83.546 60.793,84.428 
			62.09,84.428 156.828,84.428 158.121,84.428 159.072,83.549 192.072,52.987 194.678,50.574 192.08,48.151 159.08,17.385 
			158.129,16.5 156.828,16.5 62.09,16.5 60.795,16.5 		"/>
	</g>
	<g>
		<path fill="#FFFFFF" d="M159.412,87.728H59.497L19.395,50.464L59.501,13.2h99.927l40.098,37.382L159.412,87.728z M62.089,81.128
			l94.744-0.003l32.997-30.56l-0.001-0.001L156.83,19.799l-0.002,0l-94.741,0.002L29.09,50.463L62.089,81.128L62.089,81.128z"/>
	</g>
	<g>
		<path fill="#FFFFFF" d="M78.688,33.626h3.974l10.845,26.815h-4.048l-2.897-6.982H74.12l-2.897,6.982h-3.825L78.688,33.626z
			 M75.309,50.45h10.139l-4.939-13.147L75.309,50.45z"/>
		<path fill="#FFFFFF" d="M97.327,45.585c0-1.263-0.074-2.562-0.186-3.788h3.528l0.074,3.603c0.668-2.6,2.896-3.454,4.457-3.677
			c1.039-0.148,1.819-0.111,2.414-0.074v3.417c-0.187-0.074-0.409-0.111-0.669-0.148s-0.595-0.037-1.003-0.037
			c-4.122,0-5.088,2.451-5.088,5.645v9.917h-3.528V45.585z"/>
		<path fill="#FFFFFF" d="M111.697,43.951l-0.037-2.154h3.491l0.037,3.008c0.408-0.78,1.745-3.38,5.979-3.38
			c1.671,0,6.76,0.631,6.76,6.351v12.665h-3.566V48.593c0-1.226-0.148-2.34-1.002-3.194c-0.892-0.854-2.117-1.263-3.306-1.263
			c-2.525,0-4.865,1.82-4.865,5.571v10.733h-3.491V43.951z"/>
		<path fill="#FFFFFF" d="M142.371,41.314c7.465,0,9.136,5.868,9.136,9.768c0,5.459-3.082,9.991-9.434,9.991
			c-6.165,0-9.173-4.271-9.173-9.73C132.9,46.736,135.054,41.314,142.371,41.314z M142.147,58.473c2.638,0,5.646-1.894,5.646-7.502
			c0-4.643-2.154-7.094-5.422-7.094c-2.229,0-5.831,1.411-5.831,7.242C136.54,54.944,138.174,58.473,142.147,58.473z"/>
	</g>
</g>
</svg>
