<?xml version="1.0" encoding="utf-8"?>
<!-- Generator: Adobe Illustrator 16.0.0, SVG Export Plug-In . SVG Version: 6.00 Build 0)  -->
<!DOCTYPE svg PUBLIC "-//W3C//DTD SVG 1.1//EN" "http://www.w3.org/Graphics/SVG/1.1/DTD/svg11.dtd">
<svg version="1.1" id="Layer_1" xmlns="http://www.w3.org/2000/svg" xmlns:xlink="http://www.w3.org/1999/xlink" x="0px" y="0px"
	 width="193.613px" height="103.902px" viewBox="0 0 193.613 103.902" enable-background="new 0 0 193.613 103.902"
	 xml:space="preserve">
<g>
	<g>
		<path fill="#FFFFFF" d="M54.811,35.276h3.974l10.845,26.815h-4.048l-2.897-6.982H50.242l-2.897,6.982H43.52L54.811,35.276z
			 M51.431,52.101h10.139L56.63,38.953L51.431,52.101z"/>
		<path fill="#FFFFFF" d="M73.375,45.601l-0.037-2.154h3.491l0.037,3.008c0.408-0.78,1.745-3.38,5.979-3.38
			c1.671,0,6.759,0.631,6.759,6.351v12.665H86.04V50.244c0-1.226-0.149-2.34-1.003-3.194c-0.892-0.854-2.117-1.263-3.306-1.263
			c-2.525,0-4.865,1.82-4.865,5.571v10.733h-3.491V45.601z"/>
		<path fill="#FFFFFF" d="M93.092,43.373h3.306v-3.899l3.454-1.114v5.014h4.16v2.563h-4.16v11.179c0,0.928,0,2.488,2.488,2.488
			c0.706,0,1.374-0.111,1.672-0.186v2.711c-0.632,0.111-1.635,0.223-2.897,0.223c-3.194,0-4.717-0.928-4.717-3.974V45.936h-3.306
			V43.373z"/>
		<path fill="#FFFFFF" d="M116.413,42.964c7.465,0,9.136,5.868,9.136,9.768c0,5.459-3.082,9.991-9.434,9.991
			c-6.165,0-9.173-4.271-9.173-9.73C106.942,48.387,109.096,42.964,116.413,42.964z M116.189,60.123
			c2.638,0,5.646-1.894,5.646-7.502c0-4.643-2.154-7.094-5.422-7.094c-2.229,0-5.831,1.411-5.831,7.242
			C110.582,56.595,112.216,60.123,116.189,60.123z"/>
		<path fill="#FFFFFF" d="M131.116,45.601l-0.037-2.154h3.491l0.037,3.008c0.408-0.78,1.745-3.38,5.979-3.38
			c1.671,0,6.76,0.631,6.76,6.351v12.665h-3.566V50.244c0-1.226-0.148-2.34-1.002-3.194c-0.892-0.854-2.117-1.263-3.306-1.263
			c-2.525,0-4.865,1.82-4.865,5.571v10.733h-3.491V45.601z"/>
	</g>
	<g>
		<path fill="#307FE2" d="M193.613,103.902H0V0h193.613V103.902z M19.799,84.103h154.014V19.8H19.799l0.002,64.303L19.799,84.103z"
			/>
	</g>
	<g>
		<polygon fill="#307FE2" points="16.502,19.795 16.502,84.101 16.502,87.4 19.803,87.4 173.812,87.4 177.111,87.4 177.111,84.101 
			177.111,19.795 177.111,16.495 173.812,16.495 19.803,16.495 16.502,16.495 		"/>
	</g>
	<g>
		<path fill="#FFFFFF" d="M54.812,35.274h3.974l10.845,26.815h-4.048l-2.897-6.982H50.244l-2.897,6.982h-3.825L54.812,35.274z
			 M51.433,52.099h10.139l-4.939-13.147L51.433,52.099z"/>
		<path fill="#FFFFFF" d="M73.377,45.599l-0.037-2.154h3.491l0.037,3.008c0.408-0.78,1.745-3.38,5.979-3.38
			c1.671,0,6.759,0.631,6.759,6.351v12.665h-3.564V50.242c0-1.226-0.149-2.34-1.003-3.194c-0.892-0.854-2.117-1.263-3.306-1.263
			c-2.525,0-4.865,1.82-4.865,5.571v10.733h-3.491V45.599z"/>
		<path fill="#FFFFFF" d="M93.094,43.371h3.306v-3.899l3.454-1.114v5.014h4.16v2.563h-4.16v11.179c0,0.928,0,2.488,2.488,2.488
			c0.706,0,1.374-0.111,1.672-0.186v2.711c-0.632,0.111-1.635,0.223-2.897,0.223c-3.194,0-4.717-0.928-4.717-3.974V45.934h-3.306
			V43.371z"/>
		<path fill="#FFFFFF" d="M116.415,42.962c7.465,0,9.136,5.868,9.136,9.768c0,5.459-3.082,9.991-9.434,9.991
			c-6.165,0-9.173-4.271-9.173-9.73C106.944,48.385,109.098,42.962,116.415,42.962z M116.191,60.121
			c2.638,0,5.646-1.894,5.646-7.502c0-4.643-2.154-7.094-5.422-7.094c-2.229,0-5.831,1.411-5.831,7.242
			C110.584,56.593,112.218,60.121,116.191,60.121z"/>
		<path fill="#FFFFFF" d="M131.118,45.599l-0.037-2.154h3.491l0.037,3.008c0.408-0.78,1.745-3.38,5.979-3.38
			c1.671,0,6.76,0.631,6.76,6.351v12.665h-3.566V50.242c0-1.226-0.148-2.34-1.002-3.194c-0.892-0.854-2.117-1.263-3.306-1.263
			c-2.525,0-4.865,1.82-4.865,5.571v10.733h-3.491V45.599z"/>
	</g>
	<g>
		<path fill="#FFFFFF" d="M180.411,90.7H13.202V13.195h167.209V90.7z M19.802,84.1h154.011l-0.001-64.306l-154.01,0.001V84.1
			L19.802,84.1z"/>
	</g>
</g>
</svg>
