<?xml version="1.0" encoding="utf-8"?>
<!-- Generator: Adobe Illustrator 16.0.0, SVG Export Plug-In . SVG Version: 6.00 Build 0)  -->
<!DOCTYPE svg PUBLIC "-//W3C//DTD SVG 1.1//EN" "http://www.w3.org/Graphics/SVG/1.1/DTD/svg11.dtd">
<svg version="1.1" id="Layer_1" xmlns="http://www.w3.org/2000/svg" xmlns:xlink="http://www.w3.org/1999/xlink" x="0px" y="0px"
	 width="251.663px" height="126.973px" viewBox="0 0 251.663 126.973" enable-background="new 0 0 251.663 126.973"
	 xml:space="preserve">
<g>
	<g>
		<path fill="#307FE2" d="M112.847,126.973l-11.029-18.089l-15.077,15.164l-8.72-19.799l-17.893,13.169l-5.164-22.402l-23.894,9.46
			l4.941-28.062L0,63.49l36.022-12.937l-4.917-28.067l23.874,9.459l5.156-22.412l17.878,13.184l8.712-19.791l15.082,15.169
			l11.034-18.089l12.987,16.654L138.815,0l11.026,18.091L164.92,2.928l8.719,19.798l17.895-13.171l5.161,22.404l23.893-9.459
			l-4.94,28.06l36.015,12.925l-36.026,12.934l4.92,28.067l-23.875-9.459l-5.157,22.412l-17.877-13.182l-8.708,19.792l-15.086-15.171
			l-11.033,18.088l-12.988-16.653L112.847,126.973z M125.827,78.11l10.999,14.103l9.269-15.197l12.414,12.485l6.979-15.861
			l13.506,9.959l3.559-15.467l12.389,4.908l-1.687-9.48l0.012-0.072l-0.012-0.072l0.027-0.009l1.666-9.46l-12.376,4.9l-3.567-15.484
			l-13.527,9.956l-6.98-15.851l-12.421,12.491l-9.257-15.19l-10.987,14.095l-10.996-14.102l-9.269,15.195L93.152,37.473
			L86.17,53.334l-13.504-9.958l-3.558,15.465l-12.392-4.91l1.69,9.483l-0.014,0.083l0.01,0.059l-0.022,0.008l-1.667,9.465
			l12.374-4.899l3.569,15.484l13.527-9.956l6.981,15.85l12.417-12.488l9.26,15.188L125.827,78.11z"/>
	</g>
	<g>
		<polygon fill="#307FE2" points="222.359,63.487 204.446,69.917 207.749,88.763 189.617,81.58 185.259,100.519 169.568,88.949 
			161.724,106.775 147.974,92.947 137.823,109.589 125.829,94.211 113.844,109.589 103.699,92.951 89.952,106.777 82.102,88.953 
			66.392,100.515 62.026,81.572 43.892,88.751 47.209,69.914 29.3,63.487 47.212,57.054 43.91,38.208 62.043,45.393 66.401,26.455 
			82.092,38.026 89.939,20.2 103.687,34.027 113.838,17.384 125.829,32.762 137.817,17.384 147.958,34.025 161.708,20.198 
			169.558,38.022 185.269,26.458 189.633,45.403 207.768,38.223 204.451,57.06 		"/>
	</g>
	<g>
		<path fill="#FFFFFF" d="M113.595,113.935l-10.366-17.001l-14.08,14.16l-8.068-18.318l-16.256,11.964L60.26,84.933l-19.574,7.75
			l3.723-21.144l-22.435-8.051l22.439-8.059l-3.706-21.151l19.569,7.753l4.557-19.807l16.238,11.975l8.063-18.317l14.082,14.163
			l10.372-17.004l12.24,15.697l12.237-15.699l10.363,17.003l14.082-14.161l8.067,18.317l16.257-11.965l4.564,19.81l19.574-7.75
			l-3.722,21.143l22.434,8.051l-22.441,8.057l3.708,21.151l-19.568-7.752l-4.558,19.808l-16.238-11.973l-8.06,18.317l-14.084-14.164
			l-10.372,17.004L125.83,98.237L113.595,113.935z M125.829,90.186l11.745,15.059l9.931-16.281l13.416,13.492l7.627-17.335
			l15.145,11.167l4.158-18.071l16.696,6.615l-2.899-16.541l13.385-4.805l-13.38-4.802l2.91-16.531l-16.695,6.61l-4.165-18.079
			l-15.165,11.162l-7.632-17.331l-13.418,13.493l-9.921-16.278L125.83,36.788l-11.742-15.059l-9.931,16.281L90.742,24.518
			l-7.631,17.335L67.967,30.685l-4.158,18.07l-16.698-6.616l2.898,16.54l-13.384,4.807l13.383,4.803L47.097,84.82l16.694-6.609
			l4.167,18.079l15.164-11.161l7.633,17.33l13.415-13.492l9.923,16.276L125.829,90.186z"/>
	</g>
	<g>
		<path fill="#FFFFFF" d="M77.701,49.28h6.573l7.577,22.099l7.762-22.099h6.128v26.815h-3.64V51.955L93.3,76.095h-3.528
			l-8.468-23.992v23.992h-3.603V49.28z"/>
		<path fill="#FFFFFF" d="M124.044,76.095c-0.26-0.929-0.334-1.82-0.334-2.785c-1.671,3.082-4.197,3.379-5.757,3.379
			c-4.271,0-6.573-2.414-6.573-5.496c0-1.485,0.52-3.862,3.268-5.46c2.006-1.114,4.978-1.226,6.463-1.226
			c0.892,0,1.448,0.037,2.525,0.111c0-2.303,0-3.305-0.669-4.122c-0.705-0.929-2.228-1.226-3.23-1.226
			c-3.528,0-3.714,2.414-3.751,3.156h-3.491c0.111-0.965,0.223-2.265,1.3-3.527c1.411-1.561,4.048-2.006,6.017-2.006
			c2.711,0,5.607,0.854,6.61,2.748c0.595,1.114,0.632,2.006,0.632,2.86l-0.148,8.913c0,0.297,0.037,2.785,0.297,4.68H124.044z
			 M121.63,66.921c-1.411,0-6.722,0-6.722,3.788c0,1.188,0.742,3.231,3.862,3.231c1.782,0,3.119-0.705,3.974-2.006
			c0.78-1.263,0.817-2.302,0.892-4.902C123.004,66.958,122.485,66.921,121.63,66.921z"/>
		<path fill="#FFFFFF" d="M133.512,61.24c0-1.264-0.074-2.563-0.186-3.789h3.528l0.074,3.603c0.668-2.6,2.896-3.454,4.457-3.677
			c1.039-0.148,1.819-0.111,2.414-0.074v3.417c-0.187-0.074-0.409-0.111-0.669-0.148s-0.595-0.037-1.003-0.037
			c-4.122,0-5.088,2.451-5.088,5.646v9.916h-3.528V61.24z"/>
		<path fill="#FFFFFF" d="M147.436,49.355h4.197v3.825h-4.197V49.355z M147.808,57.451h3.491v18.645h-3.491V57.451z"/>
		<path fill="#FFFFFF" d="M169.458,76.095c-0.26-0.929-0.334-1.82-0.334-2.785c-1.671,3.082-4.197,3.379-5.757,3.379
			c-4.271,0-6.573-2.414-6.573-5.496c0-1.485,0.52-3.862,3.268-5.46c2.006-1.114,4.978-1.226,6.463-1.226
			c0.892,0,1.448,0.037,2.525,0.111c0-2.303,0-3.305-0.669-4.122c-0.705-0.929-2.228-1.226-3.23-1.226
			c-3.528,0-3.714,2.414-3.751,3.156h-3.491c0.111-0.965,0.223-2.265,1.3-3.527c1.411-1.561,4.048-2.006,6.017-2.006
			c2.711,0,5.607,0.854,6.61,2.748c0.595,1.114,0.632,2.006,0.632,2.86l-0.148,8.913c0,0.297,0.037,2.785,0.297,4.68H169.458z
			 M167.044,66.921c-1.411,0-6.722,0-6.722,3.788c0,1.188,0.742,3.231,3.862,3.231c1.782,0,3.119-0.705,3.974-2.006
			c0.78-1.263,0.817-2.302,0.892-4.902C168.418,66.958,167.899,66.921,167.044,66.921z"/>
	</g>
</g>
</svg>
