<?xml version="1.0" encoding="utf-8"?>
<!-- Generator: Adobe Illustrator 16.0.0, SVG Export Plug-In . SVG Version: 6.00 Build 0)  -->
<!DOCTYPE svg PUBLIC "-//W3C//DTD SVG 1.1//EN" "http://www.w3.org/Graphics/SVG/1.1/DTD/svg11.dtd">
<svg version="1.1" id="Layer_1" xmlns="http://www.w3.org/2000/svg" xmlns:xlink="http://www.w3.org/1999/xlink" x="0px" y="0px"
	 width="264.19px" height="100.93px" viewBox="0 0 264.19 100.93" enable-background="new 0 0 264.19 100.93" xml:space="preserve">
<g>
	<g>
		<path fill="#307FE2" d="M209.88,100.929H54.31L0,50.465L54.309,0h155.576l54.306,50.464L209.88,100.929z M62.086,81.129l140.019,0
			l32.998-30.663L202.102,19.8H62.088l-33,30.664L62.086,81.129L62.086,81.129z"/>
	</g>
	<g>
		<polygon fill="#307FE2" points="59.842,17.381 26.842,48.045 24.24,50.463 26.842,52.881 59.842,83.545 60.791,84.429 
			62.088,84.429 202.102,84.429 203.397,84.429 204.348,83.545 237.348,52.881 239.95,50.465 237.348,48.047 204.348,17.381 
			203.398,16.499 202.102,16.499 62.088,16.499 60.792,16.499 		"/>
	</g>
	<g>
		<path fill="#FFFFFF" d="M204.695,87.729H59.493L19.392,50.463l40.104-37.265h145.2l40.104,37.268L204.695,87.729z M62.088,81.129
			h140.014l-0.001,0l33.001-30.665l-33-30.666l-140.013,0l-33,30.665l0.001,0l33.001,30.666H62.088z"/>
	</g>
	<g>
		<path fill="#FFFFFF" d="M83.499,40.987c-0.149-0.928-0.631-4.643-5.794-4.643c-6.462,0-7.614,6.611-7.614,11.068
			c0,5.051,1.449,10.511,7.577,10.511c1.634,0,3.194-0.409,4.345-1.597c0.966-1.04,1.188-2.191,1.3-2.823h4.085
			c-0.557,5.274-5.422,7.465-10.028,7.465c-9.434,0-11.253-8.319-11.253-13.519c0-5.646,2.191-14.076,11.736-14.076
			c3.789,0,9.137,1.523,9.619,7.614H83.499z"/>
		<path fill="#FFFFFF" d="M95.304,41.916v11.996c0,1.82,0.409,4.123,3.974,4.123c1.745,0,3.379-0.594,4.382-2.08
			c0.78-1.114,0.78-2.562,0.78-3.491V41.916h3.603v15.153c0,0.372,0.074,2.451,0.111,3.491h-3.64l-0.074-3.194
			c-0.668,1.3-1.931,3.379-5.942,3.379c-4.605,0-6.759-2.637-6.759-6.313V41.916H95.304z"/>
		<path fill="#FFFFFF" d="M114.984,45.704c0-1.263-0.074-2.562-0.186-3.788h3.528l0.074,3.603c0.668-2.6,2.896-3.454,4.457-3.677
			c1.039-0.148,1.819-0.111,2.414-0.074v3.417c-0.187-0.074-0.409-0.111-0.669-0.148s-0.594-0.037-1.003-0.037
			c-4.122,0-5.088,2.451-5.088,5.645v9.917h-3.528V45.704z"/>
		<path fill="#FFFFFF" d="M140.607,60.56c-0.26-0.929-0.334-1.82-0.334-2.786c-1.671,3.083-4.197,3.38-5.757,3.38
			c-4.271,0-6.573-2.414-6.573-5.497c0-1.486,0.52-3.863,3.268-5.459c2.006-1.114,4.978-1.226,6.463-1.226
			c0.892,0,1.448,0.038,2.525,0.112c0-2.303,0-3.306-0.669-4.123c-0.705-0.929-2.228-1.226-3.23-1.226
			c-3.528,0-3.714,2.414-3.751,3.157h-3.491c0.111-0.966,0.223-2.266,1.3-3.528c1.411-1.56,4.048-2.005,6.017-2.005
			c2.711,0,5.607,0.854,6.61,2.748c0.595,1.114,0.632,2.006,0.632,2.86l-0.148,8.914c0,0.297,0.037,2.786,0.297,4.68H140.607z
			 M138.193,51.386c-1.411,0-6.722,0-6.722,3.788c0,1.188,0.742,3.231,3.862,3.231c1.782,0,3.119-0.706,3.974-2.005
			c0.78-1.263,0.817-2.303,0.892-4.902C139.567,51.423,139.048,51.386,138.193,51.386z"/>
		<path fill="#FFFFFF" d="M147.028,41.841h3.306v-3.899l3.454-1.114v5.014h4.16v2.563h-4.16v11.179c0,0.928,0,2.488,2.488,2.488
			c0.706,0,1.374-0.111,1.672-0.186v2.711c-0.632,0.111-1.635,0.223-2.897,0.223c-3.194,0-4.717-0.928-4.717-3.974V44.404h-3.306
			V41.841z"/>
		<path fill="#FFFFFF" d="M170.351,41.433c7.465,0,9.136,5.868,9.136,9.768c0,5.459-3.082,9.991-9.434,9.991
			c-6.165,0-9.173-4.271-9.173-9.73C160.88,46.855,163.033,41.433,170.351,41.433z M170.127,58.591c2.638,0,5.646-1.894,5.646-7.502
			c0-4.643-2.154-7.094-5.422-7.094c-2.229,0-5.831,1.411-5.831,7.242C164.52,55.063,166.153,58.591,170.127,58.591z"/>
		<path fill="#FFFFFF" d="M185.128,45.704c0-1.263-0.074-2.562-0.186-3.788h3.528l0.074,3.603c0.668-2.6,2.896-3.454,4.457-3.677
			c1.039-0.148,1.819-0.111,2.414-0.074v3.417c-0.187-0.074-0.409-0.111-0.669-0.148s-0.595-0.037-1.003-0.037
			c-4.122,0-5.088,2.451-5.088,5.645v9.917h-3.528V45.704z"/>
	</g>
</g>
</svg>
