<?xml version="1.0" encoding="utf-8"?>
<!-- Generator: Adobe Illustrator 16.0.0, SVG Export Plug-In . SVG Version: 6.00 Build 0)  -->
<!DOCTYPE svg PUBLIC "-//W3C//DTD SVG 1.1//EN" "http://www.w3.org/Graphics/SVG/1.1/DTD/svg11.dtd">
<svg version="1.1" id="Layer_1" xmlns="http://www.w3.org/2000/svg" xmlns:xlink="http://www.w3.org/1999/xlink" x="0px" y="0px"
	 width="156.517px" height="103.9px" viewBox="0 0 156.517 103.9" enable-background="new 0 0 156.517 103.9" xml:space="preserve">
<g>
	<g>
		<path fill="#FFFFFF" d="M46.455,35.275h7.762c3.603,0,7.837,0,10.808,3.491c2.377,2.785,3.306,6.462,3.306,10.139
			c0,5.794-2.414,9.359-4.457,10.993c-2.637,2.191-5.942,2.191-9.879,2.191h-7.539V35.275z M50.168,59.045h3.64
			c2.562,0,5.236-0.148,7.02-1.486c3.417-2.562,3.528-6.945,3.528-8.505c0-1.003-0.074-5.571-2.6-8.356
			c-1.709-1.894-3.863-2.34-7.131-2.34h-4.457V59.045z"/>
		<path fill="#FFFFFF" d="M84.628,62.09c-0.26-0.929-0.334-1.82-0.334-2.786c-1.671,3.083-4.196,3.38-5.757,3.38
			c-4.271,0-6.573-2.414-6.573-5.497c0-1.486,0.52-3.863,3.268-5.459c2.006-1.114,4.978-1.226,6.463-1.226
			c0.892,0,1.448,0.038,2.525,0.112c0-2.303,0-3.306-0.669-4.123c-0.705-0.929-2.228-1.226-3.23-1.226
			c-3.528,0-3.714,2.414-3.751,3.157h-3.491c0.111-0.966,0.223-2.266,1.3-3.528c1.411-1.56,4.048-2.005,6.017-2.005
			c2.711,0,5.607,0.854,6.61,2.748c0.595,1.114,0.632,2.006,0.632,2.86l-0.148,8.914c0,0.297,0.037,2.786,0.297,4.68H84.628z
			 M82.214,52.917c-1.411,0-6.722,0-6.722,3.788c0,1.188,0.742,3.231,3.862,3.231c1.782,0,3.12-0.706,3.974-2.005
			c0.78-1.263,0.817-2.303,0.892-4.902C83.588,52.954,83.069,52.917,82.214,52.917z"/>
		<path fill="#FFFFFF" d="M94.022,45.6l-0.037-2.154h3.491l0.037,3.008c0.408-0.78,1.745-3.38,5.979-3.38
			c1.671,0,6.76,0.631,6.76,6.351V62.09h-3.566V50.243c0-1.226-0.148-2.34-1.002-3.194c-0.892-0.854-2.117-1.263-3.306-1.263
			c-2.525,0-4.865,1.82-4.865,5.571V62.09h-3.491V45.6z"/>
	</g>
	<g>
		<path fill="#307FE2" d="M156.517,103.9H0V0h156.517V103.9z M19.799,84.101h116.918l0-64.301H19.799V84.101L19.799,84.101z"/>
	</g>
	<g>
		<polygon fill="#307FE2" points="16.497,19.793 16.497,84.099 16.497,87.398 19.796,87.398 136.713,87.398 140.013,87.398 
			140.013,84.099 140.013,19.793 140.013,16.493 136.713,16.493 19.796,16.493 16.497,16.493 		"/>
	</g>
	<g>
		<path fill="#FFFFFF" d="M46.452,35.271h7.762c3.603,0,7.837,0,10.808,3.491c2.377,2.785,3.306,6.462,3.306,10.139
			c0,5.794-2.414,9.359-4.457,10.993c-2.637,2.191-5.942,2.191-9.879,2.191h-7.539V35.271z M50.166,59.041h3.64
			c2.562,0,5.236-0.148,7.02-1.486c3.417-2.562,3.528-6.945,3.528-8.505c0-1.003-0.074-5.571-2.6-8.356
			c-1.709-1.894-3.863-2.34-7.131-2.34h-4.457V59.041z"/>
		<path fill="#FFFFFF" d="M84.625,62.086c-0.26-0.929-0.334-1.82-0.334-2.786c-1.671,3.083-4.197,3.38-5.757,3.38
			c-4.271,0-6.573-2.414-6.573-5.497c0-1.486,0.52-3.863,3.268-5.459c2.006-1.114,4.978-1.226,6.463-1.226
			c0.892,0,1.448,0.038,2.525,0.112c0-2.303,0-3.306-0.669-4.123c-0.705-0.929-2.228-1.226-3.23-1.226
			c-3.528,0-3.714,2.414-3.751,3.157h-3.491c0.111-0.966,0.223-2.266,1.3-3.528c1.411-1.56,4.048-2.005,6.017-2.005
			c2.711,0,5.607,0.854,6.61,2.748c0.595,1.114,0.632,2.006,0.632,2.86l-0.148,8.914c0,0.297,0.037,2.786,0.297,4.68H84.625z
			 M82.211,52.913c-1.411,0-6.722,0-6.722,3.788c0,1.188,0.742,3.231,3.862,3.231c1.782,0,3.119-0.706,3.974-2.005
			c0.78-1.263,0.817-2.303,0.892-4.902C83.585,52.95,83.066,52.913,82.211,52.913z"/>
		<path fill="#FFFFFF" d="M94.019,45.596l-0.037-2.154h3.491l0.037,3.008c0.408-0.78,1.745-3.38,5.979-3.38
			c1.671,0,6.759,0.631,6.759,6.351v12.665h-3.564V50.239c0-1.226-0.149-2.34-1.003-3.194c-0.892-0.854-2.117-1.263-3.306-1.263
			c-2.525,0-4.865,1.82-4.865,5.571v10.733h-3.491V45.596z"/>
	</g>
	<g>
		<path fill="#FFFFFF" d="M143.313,90.698H13.197V13.193h130.116V90.698z M19.796,84.098h116.917V19.792L19.796,19.793V84.098
			L19.796,84.098z"/>
	</g>
</g>
</svg>
