<?xml version="1.0" encoding="utf-8"?>
<!-- Generator: Adobe Illustrator 16.0.0, SVG Export Plug-In . SVG Version: 6.00 Build 0)  -->
<!DOCTYPE svg PUBLIC "-//W3C//DTD SVG 1.1//EN" "http://www.w3.org/Graphics/SVG/1.1/DTD/svg11.dtd">
<svg version="1.1" id="Layer_1" xmlns="http://www.w3.org/2000/svg" xmlns:xlink="http://www.w3.org/1999/xlink" x="0px" y="0px"
	 width="199.85px" height="103.902px" viewBox="0 0 199.85 103.902" enable-background="new 0 0 199.85 103.902"
	 xml:space="preserve">
<g>
	<g>
		<path fill="#FFFFFF" d="M46.527,35.275h6.574l7.576,22.099l7.762-22.099h6.128V62.09h-3.64V37.95L62.126,62.09h-3.528
			L50.13,38.098V62.09h-3.603V35.275z"/>
		<path fill="#FFFFFF" d="M92.871,62.09c-0.26-0.929-0.334-1.82-0.334-2.785c-1.671,3.082-4.197,3.379-5.757,3.379
			c-4.271,0-6.574-2.414-6.574-5.496c0-1.485,0.52-3.862,3.269-5.46c2.005-1.114,4.977-1.226,6.462-1.226
			c0.891,0,1.448,0.037,2.525,0.111c0-2.303,0-3.305-0.668-4.122c-0.706-0.929-2.229-1.226-3.231-1.226
			c-3.528,0-3.714,2.414-3.751,3.156H81.32c0.111-0.965,0.223-2.265,1.3-3.527c1.412-1.561,4.048-2.006,6.017-2.006
			c2.711,0,5.608,0.854,6.611,2.748c0.594,1.114,0.631,2.006,0.631,2.86l-0.149,8.913c0,0.297,0.037,2.785,0.297,4.68H92.871z
			 M90.457,52.917c-1.412,0-6.723,0-6.723,3.788c0,1.188,0.743,3.231,3.863,3.231c1.783,0,3.12-0.705,3.974-2.006
			c0.78-1.263,0.817-2.302,0.892-4.902C91.831,52.954,91.311,52.917,90.457,52.917z"/>
		<path fill="#FFFFFF" d="M102.338,47.235c0-1.264-0.074-2.563-0.186-3.789h3.528l0.075,3.603c0.668-2.6,2.896-3.454,4.457-3.677
			c1.04-0.148,1.82-0.111,2.414-0.074v3.417c-0.186-0.074-0.409-0.111-0.668-0.148s-0.594-0.037-1.003-0.037
			c-4.123,0-5.088,2.451-5.088,5.646v9.916h-3.528V47.235z"/>
		<path fill="#FFFFFF" d="M116.262,35.35h4.197v3.825h-4.197V35.35z M116.634,43.446h3.491V62.09h-3.491V43.446z"/>
		<path fill="#FFFFFF" d="M123.614,66.77c2.749,0.111,3.417-0.371,3.417-3.343V43.446h3.491v20.39c0,1.783-0.075,5.571-4.754,5.571
			c-0.446,0-1.188-0.037-2.154-0.148V66.77z M126.697,35.35h4.234v3.862h-4.234V35.35z"/>
		<path fill="#FFFFFF" d="M137.354,45.6l-0.037-2.154h3.491l0.038,3.009c0.408-0.78,1.746-3.38,5.979-3.38
			c1.671,0,6.759,0.632,6.759,6.351V62.09h-3.565V50.243c0-1.226-0.148-2.34-1.003-3.194c-0.891-0.854-2.117-1.263-3.305-1.263
			c-2.526,0-4.865,1.82-4.865,5.571V62.09h-3.491V45.6z"/>
	</g>
	<g>
		<path fill="#307FE2" d="M199.85,103.902H0V0h199.85V103.902z M19.8,84.103l160.25,0V19.8H19.8V84.103z"/>
	</g>
	<g>
		<polygon fill="#307FE2" points="16.5,19.795 16.5,84.1 16.5,87.399 19.8,87.399 180.048,87.399 183.348,87.399 183.348,84.1 
			183.348,19.795 183.348,16.495 180.048,16.495 19.8,16.495 16.5,16.495 		"/>
	</g>
	<g>
		<path fill="#FFFFFF" d="M46.527,35.273h6.574l7.576,22.099l7.762-22.099h6.128v26.815h-3.64V37.948l-8.802,24.141h-3.528
			L50.13,38.096v23.992h-3.603V35.273z"/>
		<path fill="#FFFFFF" d="M92.871,62.088c-0.26-0.929-0.334-1.82-0.334-2.785c-1.671,3.082-4.197,3.379-5.757,3.379
			c-4.271,0-6.574-2.414-6.574-5.496c0-1.485,0.52-3.862,3.269-5.46c2.005-1.114,4.977-1.226,6.462-1.226
			c0.891,0,1.448,0.037,2.525,0.111c0-2.303,0-3.305-0.668-4.122c-0.706-0.929-2.229-1.226-3.231-1.226
			c-3.528,0-3.714,2.414-3.751,3.156H81.32c0.111-0.965,0.223-2.265,1.3-3.527c1.412-1.561,4.048-2.006,6.017-2.006
			c2.711,0,5.608,0.854,6.611,2.748c0.594,1.114,0.631,2.006,0.631,2.86l-0.149,8.913c0,0.297,0.037,2.785,0.297,4.68H92.871z
			 M90.457,52.915c-1.412,0-6.723,0-6.723,3.788c0,1.188,0.743,3.231,3.863,3.231c1.783,0,3.12-0.705,3.974-2.006
			c0.78-1.263,0.817-2.302,0.892-4.902C91.831,52.952,91.311,52.915,90.457,52.915z"/>
		<path fill="#FFFFFF" d="M102.338,47.233c0-1.264-0.074-2.563-0.186-3.789h3.528l0.075,3.603c0.668-2.6,2.896-3.454,4.457-3.677
			c1.04-0.148,1.82-0.111,2.414-0.074v3.417c-0.186-0.074-0.409-0.111-0.668-0.148s-0.594-0.037-1.003-0.037
			c-4.123,0-5.088,2.451-5.088,5.646v9.916h-3.528V47.233z"/>
		<path fill="#FFFFFF" d="M116.262,35.348h4.197v3.825h-4.197V35.348z M116.634,43.444h3.491v18.645h-3.491V43.444z"/>
		<path fill="#FFFFFF" d="M123.614,66.768c2.749,0.111,3.417-0.371,3.417-3.343V43.444h3.491v20.39c0,1.783-0.075,5.571-4.754,5.571
			c-0.446,0-1.188-0.037-2.154-0.148V66.768z M126.697,35.348h4.234v3.862h-4.234V35.348z"/>
		<path fill="#FFFFFF" d="M137.354,45.598l-0.037-2.154h3.491l0.038,3.009c0.408-0.78,1.746-3.38,5.979-3.38
			c1.671,0,6.759,0.632,6.759,6.351v12.665h-3.565V50.241c0-1.226-0.148-2.34-1.003-3.194c-0.891-0.854-2.117-1.263-3.305-1.263
			c-2.526,0-4.865,1.82-4.865,5.571v10.733h-3.491V45.598z"/>
	</g>
	<g>
		<path fill="#FFFFFF" d="M186.647,90.699H13.2V13.195h173.448V90.699z M19.799,84.099h160.249V19.794L19.799,19.795V84.099
			L19.799,84.099z"/>
	</g>
</g>
</svg>
