<?xml version="1.0" encoding="utf-8"?>
<!-- Generator: Adobe Illustrator 16.0.0, SVG Export Plug-In . SVG Version: 6.00 Build 0)  -->
<!DOCTYPE svg PUBLIC "-//W3C//DTD SVG 1.1//EN" "http://www.w3.org/Graphics/SVG/1.1/DTD/svg11.dtd">
<svg version="1.1" id="Layer_1" xmlns="http://www.w3.org/2000/svg" xmlns:xlink="http://www.w3.org/1999/xlink" x="0px" y="0px"
	 width="187.347px" height="100.93px" viewBox="0 0 187.347 100.93" enable-background="new 0 0 187.347 100.93"
	 xml:space="preserve">
<g>
	<g>
		<path fill="#307FE2" d="M133.039,100.93H54.297L0,50.378L54.32,0h78.718l54.309,50.467L133.039,100.93z M62.088,81.13l63.173,0
			l33-30.664l-33-30.666l-63.173,0.001l-33,30.604L62.088,81.13z"/>
	</g>
	<g>
		<polygon fill="#307FE2" points="59.845,17.38 26.845,47.985 24.241,50.399 26.84,52.82 59.84,83.544 60.791,84.429 62.089,84.429 
			125.26,84.429 126.556,84.429 127.506,83.546 160.506,52.883 163.107,50.465 160.506,48.048 127.506,17.382 126.557,16.5 
			125.26,16.5 62.089,16.5 60.794,16.5 		"/>
	</g>
	<g>
		<path fill="#FFFFFF" d="M127.852,87.729H59.494l-40.1-37.336L59.499,13.2h68.355l40.101,37.265L127.852,87.729z M62.088,81.129
			l63.171,0l33-30.663l-33-30.667h-63.17l-33,30.605l0.001,0L62.088,81.129z"/>
	</g>
	<g>
		<path fill="#FFFFFF" d="M69.121,53.423c0.037,0.928,0.037,2.08,0.594,2.934c0.446,0.706,1.56,1.634,3.454,1.634
			c1.522,0,2.934-0.631,3.714-1.894c0.631-1.077,0.631-2.785,0.631-3.603V33.888h3.714v19.61c0,4.939-3.899,7.614-8.319,7.614
			c-1.411,0-4.531-0.334-6.388-2.786c-1.263-1.708-1.337-3.825-1.337-4.902H69.121z"/>
		<path fill="#FFFFFF" d="M89.693,52.012c-0.074,3.863,1.523,6.723,5.348,6.723c2.266,0,4.085-1.188,4.382-3.863h3.491
			c-0.111,0.929-0.26,2.451-1.597,3.9c-0.817,0.928-2.674,2.488-6.425,2.488c-5.868,0-8.654-3.64-8.654-9.545
			c0-3.677,0.743-6.722,3.677-8.765c1.783-1.263,4.011-1.374,5.088-1.374c8.356,0,8.171,7.391,8.097,10.436H89.693z M99.535,49.561
			c0.037-1.783-0.297-5.497-4.605-5.497c-2.266,0-5.014,1.374-5.088,5.497H99.535z"/>
		<path fill="#FFFFFF" d="M105.362,41.984h3.305v-3.899l3.454-1.114v5.014h4.16v2.563h-4.16v11.179c0,0.928,0,2.488,2.488,2.488
			c0.706,0,1.375-0.111,1.671-0.186v2.711c-0.631,0.111-1.634,0.223-2.897,0.223c-3.194,0-4.717-0.928-4.717-3.974V44.547h-3.305
			V41.984z"/>
	</g>
</g>
</svg>
