<?xml version="1.0" encoding="utf-8"?>
<!-- Generator: Adobe Illustrator 16.0.0, SVG Export Plug-In . SVG Version: 6.00 Build 0)  -->
<!DOCTYPE svg PUBLIC "-//W3C//DTD SVG 1.1//EN" "http://www.w3.org/Graphics/SVG/1.1/DTD/svg11.dtd">
<svg version="1.1" id="Layer_1" xmlns="http://www.w3.org/2000/svg" xmlns:xlink="http://www.w3.org/1999/xlink" x="0px" y="0px"
	 width="222.586px" height="100.935px" viewBox="0 0 222.586 100.935" enable-background="new 0 0 222.586 100.935"
	 xml:space="preserve">
<g>
	<g>
		<path fill="#307FE2" d="M168.202,100.93H54.305L0,50.438L54.309,0h114.036l54.241,51.027L168.202,100.93z M62.087,81.13l98.409,0
			l32.998-30.284L160.493,19.8H62.087l-33,30.646h0.001L62.087,81.13L62.087,81.13z"/>
	</g>
	<g>
		<polygon fill="#307FE2" points="59.841,17.382 26.841,48.029 24.239,50.446 26.841,52.864 59.841,83.546 60.79,84.429 
			62.087,84.429 160.493,84.429 161.778,84.429 162.726,83.561 195.726,53.277 198.343,50.875 195.755,48.441 162.755,17.396 
			161.802,16.5 160.493,16.5 62.087,16.5 60.79,16.5 		"/>
	</g>
	<g>
		<path fill="#FFFFFF" d="M163.062,87.729H59.493L19.392,50.445l40.103-37.245h103.614l40.083,37.703L163.062,87.729z
			 M62.087,81.129l98.409-0.001l32.998-30.284l-33-31.045l-0.001,0H62.086L29.087,50.447h0.001L62.087,81.129L62.087,81.129z"/>
	</g>
	<g>
		<path fill="#FFFFFF" d="M75.7,33.604h3.974l10.845,26.815h-4.048l-2.897-6.982H71.132l-2.896,6.982h-3.826L75.7,33.604z
			 M72.32,50.429h10.139L77.52,37.282L72.32,50.429z"/>
		<path fill="#FFFFFF" d="M94.339,45.564c0-1.264-0.074-2.563-0.186-3.789h3.528l0.074,3.603c0.668-2.6,2.896-3.454,4.457-3.677
			c1.039-0.148,1.819-0.111,2.414-0.074v3.417c-0.187-0.074-0.409-0.111-0.669-0.148s-0.594-0.037-1.003-0.037
			c-4.122,0-5.088,2.451-5.088,5.646v9.916h-3.528V45.564z"/>
		<path fill="#FFFFFF" d="M104.847,41.701h3.306v-3.899l3.454-1.114v5.014h4.16v2.562h-4.16v11.18c0,0.929,0,2.488,2.488,2.488
			c0.706,0,1.374-0.111,1.672-0.186v2.711c-0.632,0.111-1.635,0.223-2.897,0.223c-3.194,0-4.717-0.929-4.717-3.974V44.263h-3.306
			V41.701z"/>
		<path fill="#FFFFFF" d="M119.736,33.679h4.197v3.825h-4.197V33.679z M120.108,41.775h3.491v18.645h-3.491V41.775z"/>
		<path fill="#FFFFFF" d="M132.399,54.885c-0.037,1.412,0.706,3.38,4.086,3.38c1.448,0,2.525-0.26,3.269-1.188
			c0.371-0.482,0.594-1.114,0.594-1.745c0-1.82-1.3-2.154-4.085-2.786c-3.9-0.891-7.168-1.671-7.168-5.57
			c0-3.417,2.971-5.646,7.279-5.646c2.34,0,5.607,0.668,6.722,2.896c0.483,1.04,0.483,1.932,0.483,2.712h-3.565
			c0.111-2.823-2.34-3.046-3.603-3.046c-0.521,0-3.788,0-3.788,2.674c0,1.709,1.671,2.117,2.637,2.377
			c5.162,1.226,6.276,1.523,7.391,2.562c1.04,0.966,1.411,2.266,1.411,3.454c0,2.08-1.151,3.863-2.525,4.717
			c-1.634,1.003-3.603,1.263-5.534,1.263c-3.788,0-7.316-1.56-7.279-6.054H132.399z"/>
		<path fill="#FFFFFF" d="M146.101,41.701h3.306v-3.899l3.454-1.114v5.014h4.16v2.562h-4.16v11.18c0,0.929,0,2.488,2.488,2.488
			c0.706,0,1.374-0.111,1.672-0.186v2.711c-0.632,0.111-1.635,0.223-2.897,0.223c-3.194,0-4.717-0.929-4.717-3.974V44.263h-3.306
			V41.701z"/>
	</g>
</g>
</svg>
