<?xml version="1.0" encoding="utf-8"?>
<!-- Generator: Adobe Illustrator 16.0.0, SVG Export Plug-In . SVG Version: 6.00 Build 0)  -->
<!DOCTYPE svg PUBLIC "-//W3C//DTD SVG 1.1//EN" "http://www.w3.org/Graphics/SVG/1.1/DTD/svg11.dtd">
<svg version="1.1" id="Layer_1" xmlns="http://www.w3.org/2000/svg" xmlns:xlink="http://www.w3.org/1999/xlink" x="0px" y="0px"
	 width="210.209px" height="103.903px" viewBox="0 0 210.209 103.903" enable-background="new 0 0 210.209 103.903"
	 xml:space="preserve">
<g>
	<g>
		<path fill="#FFFFFF" d="M47.457,35.276l5.794,22.062l6.388-22.062h4.605l6.054,22.247l6.091-22.247h3.64l-7.948,26.815h-4.123
			l-6.203-22.915l-6.648,22.915h-4.011l-7.614-26.815H47.457z"/>
		<path fill="#FFFFFF" d="M83.662,53.401c-0.074,3.862,1.523,6.722,5.348,6.722c2.266,0,4.085-1.188,4.382-3.862h3.491
			c-0.111,0.929-0.26,2.451-1.597,3.899c-0.817,0.929-2.674,2.488-6.425,2.488c-5.868,0-8.654-3.64-8.654-9.545
			c0-3.677,0.743-6.722,3.677-8.765c1.783-1.263,4.011-1.374,5.088-1.374c8.356,0,8.171,7.391,8.097,10.437H83.662z M93.504,50.95
			c0.037-1.783-0.297-5.497-4.605-5.497c-2.266,0-5.014,1.374-5.088,5.497H93.504z"/>
		<path fill="#FFFFFF" d="M102.265,35.313h3.491v26.778h-3.491V35.313z"/>
		<path fill="#FFFFFF" d="M125.438,35.313h3.491v23.808c0,0.408,0.074,2.005,0.148,2.971h-3.491l-0.074-2.971
			c-0.297,0.52-0.706,1.3-1.671,1.968c-1.523,1.04-3.343,1.374-4.605,1.374c-2.488,0-8.022-1.3-8.022-9.471
			c0-7.094,4.048-10.176,8.431-10.176c4.011,0,5.349,2.377,5.794,3.156V35.313z M124.139,47.31
			c-0.743-0.966-2.117-1.895-4.085-1.895c-5.125,0-5.125,6.202-5.125,7.465c0,3.306,0.854,7.131,5.125,7.131
			c5.497,0,5.497-6.054,5.497-7.502C125.55,49.798,124.918,48.312,124.139,47.31z"/>
		<path fill="#FFFFFF" d="M137.319,53.401c-0.074,3.862,1.523,6.722,5.348,6.722c2.266,0,4.085-1.188,4.382-3.862h3.491
			c-0.111,0.929-0.26,2.451-1.597,3.899c-0.817,0.929-2.674,2.488-6.425,2.488c-5.868,0-8.654-3.64-8.654-9.545
			c0-3.677,0.743-6.722,3.677-8.765c1.783-1.263,4.011-1.374,5.088-1.374c8.356,0,8.171,7.391,8.097,10.437H137.319z M147.161,50.95
			c0.037-1.783-0.297-5.497-4.605-5.497c-2.266,0-5.014,1.374-5.088,5.497H147.161z"/>
		<path fill="#FFFFFF" d="M156.034,47.236c0-1.264-0.074-2.563-0.186-3.789h3.528l0.075,3.603c0.668-2.6,2.896-3.454,4.457-3.677
			c1.04-0.148,1.82-0.111,2.414-0.074v3.417c-0.186-0.074-0.409-0.111-0.668-0.148s-0.594-0.037-1.003-0.037
			c-4.123,0-5.088,2.451-5.088,5.646v9.916h-3.528V47.236z"/>
	</g>
	<g>
		<path fill="#307FE2" d="M210.209,103.903H0V0h210.209V103.903z M19.8,84.104l170.609,0V19.798l0,0.001H19.8V84.104z"/>
	</g>
	<g>
		<polygon fill="#307FE2" points="16.499,19.796 16.499,84.101 16.499,87.4 19.799,87.4 190.409,87.4 193.708,87.4 193.708,84.101 
			193.708,19.796 193.708,16.496 190.409,16.496 19.799,16.496 16.499,16.496 		"/>
	</g>
	<g>
		<path fill="#FFFFFF" d="M47.455,35.274l5.794,22.062l6.388-22.062h4.605l6.054,22.247l6.091-22.247h3.64l-7.948,26.815h-4.123
			l-6.203-22.915l-6.648,22.915h-4.011L43.48,35.274H47.455z"/>
		<path fill="#FFFFFF" d="M83.66,53.399c-0.074,3.862,1.523,6.722,5.348,6.722c2.266,0,4.085-1.188,4.382-3.862h3.491
			c-0.111,0.929-0.26,2.451-1.597,3.899c-0.817,0.929-2.674,2.488-6.425,2.488c-5.868,0-8.654-3.64-8.654-9.545
			c0-3.677,0.743-6.722,3.677-8.765c1.783-1.263,4.011-1.374,5.088-1.374c8.356,0,8.171,7.391,8.097,10.437H83.66z M93.502,50.948
			c0.037-1.783-0.297-5.497-4.605-5.497c-2.266,0-5.014,1.374-5.088,5.497H93.502z"/>
		<path fill="#FFFFFF" d="M102.263,35.311h3.491v26.778h-3.491V35.311z"/>
		<path fill="#FFFFFF" d="M125.437,35.311h3.491v23.808c0,0.408,0.074,2.005,0.148,2.971h-3.491l-0.074-2.971
			c-0.297,0.52-0.706,1.3-1.671,1.968c-1.523,1.04-3.343,1.374-4.605,1.374c-2.488,0-8.022-1.3-8.022-9.471
			c0-7.094,4.048-10.176,8.431-10.176c4.011,0,5.349,2.377,5.794,3.156V35.311z M124.137,47.308
			c-0.743-0.966-2.117-1.895-4.085-1.895c-5.125,0-5.125,6.202-5.125,7.465c0,3.306,0.854,7.131,5.125,7.131
			c5.497,0,5.497-6.054,5.497-7.502C125.548,49.796,124.917,48.31,124.137,47.308z"/>
		<path fill="#FFFFFF" d="M137.317,53.399c-0.074,3.862,1.523,6.722,5.348,6.722c2.266,0,4.085-1.188,4.382-3.862h3.491
			c-0.111,0.929-0.26,2.451-1.597,3.899c-0.817,0.929-2.674,2.488-6.425,2.488c-5.868,0-8.654-3.64-8.654-9.545
			c0-3.677,0.743-6.722,3.677-8.765c1.783-1.263,4.011-1.374,5.088-1.374c8.356,0,8.171,7.391,8.097,10.437H137.317z
			 M147.159,50.948c0.037-1.783-0.297-5.497-4.605-5.497c-2.266,0-5.014,1.374-5.088,5.497H147.159z"/>
		<path fill="#FFFFFF" d="M156.032,47.234c0-1.264-0.074-2.563-0.186-3.789h3.528l0.075,3.603c0.668-2.6,2.896-3.454,4.457-3.677
			c1.04-0.148,1.82-0.111,2.414-0.074v3.417c-0.186-0.074-0.409-0.111-0.668-0.148s-0.594-0.037-1.003-0.037
			c-4.123,0-5.088,2.451-5.088,5.646v9.916h-3.528V47.234z"/>
	</g>
	<g>
		<path fill="#FFFFFF" d="M197.008,90.7H13.199V13.196h183.809V90.7z M19.799,84.1h170.61V19.795l-170.61,0.001V84.1L19.799,84.1z"
			/>
	</g>
</g>
</svg>
