<?xml version="1.0" encoding="utf-8"?>
<!-- Generator: Adobe Illustrator 16.0.0, SVG Export Plug-In . SVG Version: 6.00 Build 0)  -->
<!DOCTYPE svg PUBLIC "-//W3C//DTD SVG 1.1//EN" "http://www.w3.org/Graphics/SVG/1.1/DTD/svg11.dtd">
<svg version="1.1" id="Layer_1" xmlns="http://www.w3.org/2000/svg" xmlns:xlink="http://www.w3.org/1999/xlink" x="0px" y="0px"
	 width="369.73px" height="103.902px" viewBox="0 0 369.73 103.902" enable-background="new 0 0 369.73 103.902"
	 xml:space="preserve">
<g>
	<g>
		<path fill="#FFFFFF" d="M46.455,35.275h7.762c3.604,0,7.838,0,10.809,3.491c2.377,2.785,3.305,6.462,3.305,10.139
			c0,5.794-2.414,9.359-4.457,10.993c-2.637,2.191-5.941,2.191-9.879,2.191h-7.539V35.275z M50.17,59.045h3.639
			c2.562,0,5.236-0.148,7.02-1.486c3.418-2.562,3.529-6.945,3.529-8.505c0-1.003-0.074-5.571-2.6-8.356
			c-1.709-1.894-3.863-2.34-7.131-2.34H50.17V59.045z"/>
		<path fill="#FFFFFF" d="M75.383,53.399c-0.076,3.863,1.521,6.723,5.348,6.723c2.266,0,4.084-1.188,4.383-3.863h3.49
			c-0.111,0.929-0.26,2.451-1.598,3.9c-0.816,0.928-2.674,2.488-6.424,2.488c-5.869,0-8.654-3.64-8.654-9.545
			c0-3.677,0.742-6.722,3.678-8.765c1.781-1.263,4.01-1.374,5.088-1.374c8.355,0,8.17,7.391,8.096,10.436H75.383z M85.225,50.948
			c0.037-1.783-0.297-5.497-4.605-5.497c-2.266,0-5.014,1.374-5.088,5.497H85.225z"/>
		<path fill="#FFFFFF" d="M104.533,49.426c-0.074-0.854-0.334-3.9-3.713-3.9c-4.83,0-4.83,5.608-4.83,7.02
			c0,3.825,0.93,7.391,4.643,7.391c2.973,0,3.975-2.228,4.049-4.048h3.529c-0.223,3.64-2.936,6.685-7.541,6.685
			c-1.262,0-4.158-0.26-6.127-2.414c-1.115-1.3-2.229-3.269-2.229-7.131c0-7.762,4.754-10.065,8.469-10.065
			c1.225,0,4.01,0.26,5.719,2.303c1.373,1.597,1.486,3.12,1.561,4.16H104.533z"/>
		<path fill="#FFFFFF" d="M120.574,42.963c7.465,0,9.137,5.868,9.137,9.768c0,5.459-3.082,9.991-9.434,9.991
			c-6.166,0-9.174-4.271-9.174-9.73C111.104,48.386,113.258,42.963,120.574,42.963z M120.352,60.122
			c2.637,0,5.645-1.894,5.645-7.502c0-4.643-2.154-7.094-5.422-7.094c-2.229,0-5.83,1.411-5.83,7.242
			C114.744,56.594,116.377,60.122,120.352,60.122z"/>
		<path fill="#FFFFFF" d="M135.277,45.6l-0.037-2.154h3.49l0.037,3.008c0.408-0.78,1.746-3.38,5.98-3.38
			c1.67,0,6.758,0.631,6.758,6.351V62.09h-3.564V50.243c0-1.226-0.148-2.34-1.002-3.194c-0.893-0.854-2.117-1.263-3.307-1.263
			c-2.525,0-4.865,1.82-4.865,5.571V62.09h-3.49V45.6z"/>
		<path fill="#FFFFFF" d="M159.859,56.557c-0.037,1.411,0.705,3.379,4.086,3.379c1.447,0,2.525-0.26,3.268-1.188
			c0.371-0.482,0.594-1.114,0.594-1.746c0-1.82-1.299-2.154-4.084-2.785c-3.9-0.892-7.168-1.671-7.168-5.571
			c0-3.417,2.971-5.645,7.279-5.645c2.34,0,5.607,0.668,6.721,2.897c0.484,1.04,0.484,1.931,0.484,2.711h-3.566
			c0.111-2.822-2.34-3.045-3.602-3.045c-0.521,0-3.789,0-3.789,2.674c0,1.708,1.672,2.117,2.637,2.377
			c5.162,1.226,6.277,1.522,7.391,2.562c1.041,0.966,1.412,2.266,1.412,3.454c0,2.08-1.152,3.862-2.525,4.717
			c-1.635,1.002-3.604,1.263-5.535,1.263c-3.787,0-7.316-1.56-7.279-6.054H159.859z"/>
		<path fill="#FFFFFF" d="M173.561,43.372h3.305v-3.899l3.455-1.114v5.014h4.16v2.563h-4.16v11.179c0,0.928,0,2.488,2.488,2.488
			c0.705,0,1.373-0.111,1.672-0.186v2.711c-0.633,0.111-1.635,0.223-2.898,0.223c-3.193,0-4.717-0.928-4.717-3.974V45.935h-3.305
			V43.372z"/>
		<path fill="#FFFFFF" d="M188.971,47.234c0-1.263-0.074-2.562-0.186-3.788h3.529l0.074,3.603c0.668-2.6,2.896-3.454,4.457-3.677
			c1.039-0.148,1.818-0.111,2.414-0.074v3.417c-0.188-0.074-0.41-0.111-0.67-0.148s-0.594-0.037-1.002-0.037
			c-4.123,0-5.088,2.451-5.088,5.645v9.917h-3.529V47.234z"/>
		<path fill="#FFFFFF" d="M206.424,43.446v11.996c0,1.82,0.408,4.123,3.975,4.123c1.744,0,3.379-0.594,4.381-2.08
			c0.781-1.114,0.781-2.562,0.781-3.491V43.446h3.602v15.153c0,0.372,0.074,2.451,0.111,3.491h-3.639l-0.074-3.194
			c-0.668,1.3-1.932,3.379-5.943,3.379c-4.605,0-6.76-2.637-6.76-6.313V43.446H206.424z"/>
		<path fill="#FFFFFF" d="M236.541,49.426c-0.074-0.854-0.336-3.9-3.715-3.9c-4.828,0-4.828,5.608-4.828,7.02
			c0,3.825,0.928,7.391,4.643,7.391c2.971,0,3.975-2.228,4.049-4.048h3.527c-0.223,3.64-2.934,6.685-7.539,6.685
			c-1.264,0-4.16-0.26-6.129-2.414c-1.113-1.3-2.229-3.269-2.229-7.131c0-7.762,4.754-10.065,8.469-10.065
			c1.227,0,4.012,0.26,5.719,2.303c1.375,1.597,1.486,3.12,1.561,4.16H236.541z"/>
		<path fill="#FFFFFF" d="M241.625,43.372h3.305v-3.899l3.455-1.114v5.014h4.16v2.563h-4.16v11.179c0,0.928,0,2.488,2.488,2.488
			c0.705,0,1.373-0.111,1.672-0.186v2.711c-0.633,0.111-1.635,0.223-2.898,0.223c-3.193,0-4.717-0.928-4.717-3.974V45.935h-3.305
			V43.372z"/>
		<path fill="#FFFFFF" d="M256.516,35.35h4.197v3.825h-4.197V35.35z M256.887,43.446h3.492V62.09h-3.492V43.446z"/>
		<path fill="#FFFFFF" d="M265.092,43.446h3.9l5.943,14.782l5.793-14.782h3.863L276.42,62.09h-3.527L265.092,43.446z"/>
		<path fill="#FFFFFF" d="M288.227,35.35h4.197v3.825h-4.197V35.35z M288.6,43.446h3.49V62.09h-3.49V43.446z"/>
		<path fill="#FFFFFF" d="M300.889,56.557c-0.037,1.411,0.707,3.379,4.086,3.379c1.449,0,2.525-0.26,3.27-1.188
			c0.371-0.482,0.594-1.114,0.594-1.746c0-1.82-1.301-2.154-4.086-2.785c-3.9-0.892-7.168-1.671-7.168-5.571
			c0-3.417,2.971-5.645,7.279-5.645c2.34,0,5.607,0.668,6.723,2.897c0.482,1.04,0.482,1.931,0.482,2.711h-3.564
			c0.111-2.822-2.34-3.045-3.604-3.045c-0.52,0-3.787,0-3.787,2.674c0,1.708,1.67,2.117,2.637,2.377
			c5.162,1.226,6.275,1.522,7.391,2.562c1.039,0.966,1.41,2.266,1.41,3.454c0,2.08-1.15,3.862-2.525,4.717
			c-1.633,1.002-3.602,1.263-5.533,1.263c-3.789,0-7.316-1.56-7.279-6.054H300.889z"/>
		<path fill="#FFFFFF" d="M314.592,43.372h3.305v-3.899l3.455-1.114v5.014h4.16v2.563h-4.16v11.179c0,0.928,0,2.488,2.488,2.488
			c0.705,0,1.373-0.111,1.672-0.186v2.711c-0.633,0.111-1.635,0.223-2.898,0.223c-3.193,0-4.717-0.928-4.717-3.974V45.935h-3.305
			V43.372z"/>
	</g>
	<g>
		<path fill="#307FE2" d="M369.73,103.902H0V0h369.73V103.902z M19.801,84.103h330.131L349.93,19.8H19.801V84.103L19.801,84.103z"/>
	</g>
	<g>
		<polygon fill="#307FE2" points="16.498,19.795 16.498,84.101 16.498,87.4 19.797,87.4 349.93,87.4 353.23,87.4 353.23,84.101 
			353.23,19.795 353.23,16.495 349.93,16.495 19.797,16.495 16.498,16.495 		"/>
	</g>
	<g>
		<path fill="#FFFFFF" d="M46.453,35.273h7.762c3.604,0,7.838,0,10.809,3.491c2.377,2.785,3.305,6.462,3.305,10.139
			c0,5.794-2.414,9.359-4.457,10.993c-2.637,2.191-5.941,2.191-9.879,2.191h-7.539V35.273z M50.168,59.043h3.639
			c2.562,0,5.236-0.148,7.02-1.486c3.418-2.562,3.529-6.945,3.529-8.505c0-1.003-0.074-5.571-2.6-8.356
			c-1.709-1.894-3.863-2.34-7.131-2.34h-4.457V59.043z"/>
		<path fill="#FFFFFF" d="M75.381,53.397c-0.076,3.863,1.521,6.723,5.348,6.723c2.266,0,4.084-1.188,4.383-3.863h3.49
			c-0.111,0.929-0.26,2.451-1.598,3.9c-0.816,0.928-2.674,2.488-6.424,2.488c-5.869,0-8.654-3.64-8.654-9.545
			c0-3.677,0.742-6.722,3.678-8.765c1.781-1.263,4.01-1.374,5.088-1.374c8.355,0,8.17,7.391,8.096,10.436H75.381z M85.223,50.946
			c0.037-1.783-0.297-5.497-4.605-5.497c-2.266,0-5.014,1.374-5.088,5.497H85.223z"/>
		<path fill="#FFFFFF" d="M104.531,49.424c-0.074-0.854-0.334-3.9-3.713-3.9c-4.83,0-4.83,5.608-4.83,7.02
			c0,3.825,0.93,7.391,4.643,7.391c2.973,0,3.975-2.228,4.049-4.048h3.529c-0.223,3.64-2.936,6.685-7.541,6.685
			c-1.262,0-4.158-0.26-6.127-2.414c-1.115-1.3-2.229-3.269-2.229-7.131c0-7.762,4.754-10.065,8.469-10.065
			c1.225,0,4.01,0.26,5.719,2.303c1.373,1.597,1.486,3.12,1.561,4.16H104.531z"/>
		<path fill="#FFFFFF" d="M120.572,42.961c7.465,0,9.137,5.868,9.137,9.768c0,5.459-3.082,9.991-9.434,9.991
			c-6.166,0-9.174-4.271-9.174-9.73C111.102,48.384,113.256,42.961,120.572,42.961z M120.35,60.12c2.637,0,5.645-1.894,5.645-7.502
			c0-4.643-2.154-7.094-5.422-7.094c-2.229,0-5.83,1.411-5.83,7.242C114.742,56.592,116.375,60.12,120.35,60.12z"/>
		<path fill="#FFFFFF" d="M135.275,45.598l-0.037-2.154h3.49l0.037,3.008c0.408-0.78,1.746-3.38,5.98-3.38
			c1.67,0,6.758,0.631,6.758,6.351v12.665h-3.564V50.241c0-1.226-0.148-2.34-1.002-3.194c-0.893-0.854-2.117-1.263-3.307-1.263
			c-2.525,0-4.865,1.82-4.865,5.571v10.733h-3.49V45.598z"/>
		<path fill="#FFFFFF" d="M159.857,56.555c-0.037,1.411,0.705,3.379,4.086,3.379c1.447,0,2.525-0.26,3.268-1.188
			c0.371-0.482,0.594-1.114,0.594-1.746c0-1.82-1.299-2.154-4.084-2.785c-3.9-0.892-7.168-1.671-7.168-5.571
			c0-3.417,2.971-5.645,7.279-5.645c2.34,0,5.607,0.668,6.721,2.897c0.484,1.04,0.484,1.931,0.484,2.711h-3.566
			c0.111-2.822-2.34-3.045-3.602-3.045c-0.521,0-3.789,0-3.789,2.674c0,1.708,1.672,2.117,2.637,2.377
			c5.162,1.226,6.277,1.522,7.391,2.562c1.041,0.966,1.412,2.266,1.412,3.454c0,2.08-1.152,3.862-2.525,4.717
			c-1.635,1.002-3.604,1.263-5.535,1.263c-3.787,0-7.316-1.56-7.279-6.054H159.857z"/>
		<path fill="#FFFFFF" d="M173.559,43.37h3.305V39.47l3.455-1.114v5.014h4.16v2.563h-4.16v11.179c0,0.928,0,2.488,2.488,2.488
			c0.705,0,1.373-0.111,1.672-0.186v2.711c-0.633,0.111-1.635,0.223-2.898,0.223c-3.193,0-4.717-0.928-4.717-3.974V45.933h-3.305
			V43.37z"/>
		<path fill="#FFFFFF" d="M188.969,47.232c0-1.263-0.074-2.562-0.186-3.788h3.529l0.074,3.603c0.668-2.6,2.896-3.454,4.457-3.677
			c1.039-0.148,1.818-0.111,2.414-0.074v3.417c-0.188-0.074-0.41-0.111-0.67-0.148s-0.594-0.037-1.002-0.037
			c-4.123,0-5.088,2.451-5.088,5.645v9.917h-3.529V47.232z"/>
		<path fill="#FFFFFF" d="M206.422,43.444V55.44c0,1.82,0.408,4.123,3.975,4.123c1.744,0,3.379-0.594,4.381-2.08
			c0.781-1.114,0.781-2.562,0.781-3.491V43.444h3.602v15.153c0,0.372,0.074,2.451,0.111,3.491h-3.639l-0.074-3.194
			c-0.668,1.3-1.932,3.379-5.943,3.379c-4.605,0-6.76-2.637-6.76-6.313V43.444H206.422z"/>
		<path fill="#FFFFFF" d="M236.539,49.424c-0.074-0.854-0.336-3.9-3.715-3.9c-4.828,0-4.828,5.608-4.828,7.02
			c0,3.825,0.928,7.391,4.643,7.391c2.971,0,3.975-2.228,4.049-4.048h3.527c-0.223,3.64-2.934,6.685-7.539,6.685
			c-1.264,0-4.16-0.26-6.129-2.414c-1.113-1.3-2.229-3.269-2.229-7.131c0-7.762,4.754-10.065,8.469-10.065
			c1.227,0,4.012,0.26,5.719,2.303c1.375,1.597,1.486,3.12,1.561,4.16H236.539z"/>
		<path fill="#FFFFFF" d="M241.623,43.37h3.305V39.47l3.455-1.114v5.014h4.16v2.563h-4.16v11.179c0,0.928,0,2.488,2.488,2.488
			c0.705,0,1.373-0.111,1.672-0.186v2.711c-0.633,0.111-1.635,0.223-2.898,0.223c-3.193,0-4.717-0.928-4.717-3.974V45.933h-3.305
			V43.37z"/>
		<path fill="#FFFFFF" d="M256.514,35.348h4.197v3.825h-4.197V35.348z M256.885,43.444h3.492v18.644h-3.492V43.444z"/>
		<path fill="#FFFFFF" d="M265.09,43.444h3.9l5.943,14.782l5.793-14.782h3.863l-8.172,18.644h-3.527L265.09,43.444z"/>
		<path fill="#FFFFFF" d="M288.225,35.348h4.197v3.825h-4.197V35.348z M288.598,43.444h3.49v18.644h-3.49V43.444z"/>
		<path fill="#FFFFFF" d="M300.887,56.555c-0.037,1.411,0.707,3.379,4.086,3.379c1.449,0,2.525-0.26,3.27-1.188
			c0.371-0.482,0.594-1.114,0.594-1.746c0-1.82-1.301-2.154-4.086-2.785c-3.9-0.892-7.168-1.671-7.168-5.571
			c0-3.417,2.971-5.645,7.279-5.645c2.34,0,5.607,0.668,6.723,2.897c0.482,1.04,0.482,1.931,0.482,2.711h-3.564
			c0.111-2.822-2.34-3.045-3.604-3.045c-0.52,0-3.787,0-3.787,2.674c0,1.708,1.67,2.117,2.637,2.377
			c5.162,1.226,6.275,1.522,7.391,2.562c1.039,0.966,1.41,2.266,1.41,3.454c0,2.08-1.15,3.862-2.525,4.717
			c-1.633,1.002-3.602,1.263-5.533,1.263c-3.789,0-7.316-1.56-7.279-6.054H300.887z"/>
		<path fill="#FFFFFF" d="M314.59,43.37h3.305V39.47l3.455-1.114v5.014h4.16v2.563h-4.16v11.179c0,0.928,0,2.488,2.488,2.488
			c0.705,0,1.373-0.111,1.672-0.186v2.711c-0.633,0.111-1.635,0.223-2.898,0.223c-3.193,0-4.717-0.928-4.717-3.974V45.933h-3.305
			V43.37z"/>
	</g>
	<g>
		<path fill="#FFFFFF" d="M356.53,90.7H13.198V13.195H356.53V90.7z M19.797,84.1h330.134l-0.001-64.306H19.797l0.001,0.001
			L19.797,84.1L19.797,84.1z"/>
	</g>
</g>
</svg>
