<?xml version="1.0" encoding="utf-8"?>
<!-- Generator: Adobe Illustrator 16.0.0, SVG Export Plug-In . SVG Version: 6.00 Build 0)  -->
<!DOCTYPE svg PUBLIC "-//W3C//DTD SVG 1.1//EN" "http://www.w3.org/Graphics/SVG/1.1/DTD/svg11.dtd">
<svg version="1.1" id="Layer_1" xmlns="http://www.w3.org/2000/svg" xmlns:xlink="http://www.w3.org/1999/xlink" x="0px" y="0px"
	 width="303.91px" height="130.842px" viewBox="0 0 303.91 130.842" enable-background="new 0 0 303.91 130.842"
	 xml:space="preserve">
<g>
	<g>
		<g>
			<path fill="#307FE2" d="M246.151,130.842c-7.787,0-14.781-2.029-20.952-3.819c-6.457-1.871-12.537-3.633-19.847-3.633
				c-14.09,0-21.249,0.242-28.172,0.475c-7.276,0.245-14.771,0.497-29.505,0.497c-16.771,0-25.64-2.128-33.464-4.006
				c-6.519-1.564-12.146-2.914-24.225-2.914c-7.287,0-12.188,1.154-16.927,2.271c-4.379,1.031-9.098,1.984-13.94,1.984
				c-12.235,0-22.598-5.903-34.647-19.739C13.247,89.071,3.722,77.307,0.877,63.836c-3.16-14.965,2.167-29.742,16.766-46.504
				C27.799,5.669,38.513,0,50.396,0c8.054,0,14.918,2.583,20.974,4.862c6.121,2.304,11.407,4.293,18.608,4.293
				c17.103,0,26.533,2.608,34.111,4.704c6.611,1.83,11.829,3.274,23.566,3.274c15.883,0,24.315,1.262,31.756,2.375
				c6.973,1.045,12.978,1.945,25.931,1.945c6.82,0,10.68-2.456,16.521-6.172c6.419-4.082,15.206-9.67,27.221-9.67
				c7.708,0,15.472,2.24,23.733,6.848c21.439,11.957,28.32,28.119,30.318,39.572c3.369,19.305-4.336,40.915-21.697,60.847
				C270.916,124.965,259.372,130.842,246.151,130.842z M205.353,103.591c10.12,0,18.204,2.342,25.337,4.409
				c5.406,1.568,10.488,3.042,15.462,3.042c4.951,0,11.738-1.269,20.358-11.168c13.364-15.345,19.444-31.127,17.12-44.44
				c-1.258-7.213-5.828-17.524-20.457-25.683c-5.236-2.92-9.845-4.34-14.089-4.34c-6.252,0-11.275,3.194-16.594,6.577
				c-6.825,4.342-14.563,9.266-27.148,9.266c-14.429,0-21.758-1.099-28.846-2.161c-7.429-1.111-14.431-2.159-28.841-2.159
				c-14.427,0-21.429-1.938-28.842-3.989c-7.091-1.961-14.421-3.988-28.836-3.988c-10.804,0-18.655-2.955-25.583-5.562
				c-4.91-1.848-9.548-3.593-13.999-3.593c-3.712,0-9.598,1.092-17.821,10.535C12.175,53.758,17.53,63.844,39.403,88.953
				c9.907,11.376,15.331,12.944,19.717,12.944c2.666,0,5.688-0.583,9.403-1.457c5.29-1.246,11.877-2.797,21.464-2.797
				c14.421,0,21.752,1.759,28.841,3.459c7.417,1.78,14.419,3.46,28.848,3.46c14.4,0,21.727-0.247,28.812-0.485
				C183.601,103.838,190.929,103.591,205.353,103.591z"/>
		</g>
		<g>
			<path fill="#307FE2" d="M266.508,99.875c-19.837,22.782-32.315,3.717-61.155,3.717s-28.84,0.972-57.677,0.972
				c-28.843,0-28.843-6.92-57.688-6.92c-28.843,0-30.74,14.096-50.582-8.688c-20.933-24.029-27.761-34.587-6.832-58.619
				c19.84-22.782,28.568-1.379,57.405-1.379s28.837,7.978,57.677,7.978c28.844,0,28.844,4.318,57.686,4.318
				c28.846,0,32.162-25.819,57.831-11.501C293.607,46.724,287.438,75.842,266.508,99.875"/>
		</g>
		<g>
			<path fill="#FFFFFF" d="M246.097,114.362c-5.318,0-10.654-1.547-16.303-3.185c-6.928-2.009-14.78-4.286-24.441-4.286
				c-14.364,0-21.667,0.246-28.729,0.484c-7.116,0.24-14.475,0.487-28.948,0.487c-14.812,0-22.336-1.805-29.612-3.551
				c-7.222-1.732-14.043-3.369-28.076-3.369c-9.195,0-15.58,1.502-20.71,2.709c-3.653,0.86-6.809,1.602-10.013,1.603
				c0,0-0.001,0-0.002,0c-7.318,0-13.375-3.831-22.346-14.132C16.094,67.218,7.104,54.557,30.085,28.168
				c7.003-8.042,13.31-11.628,20.449-11.628c5.018,0,9.878,1.83,15.023,3.766c6.665,2.508,14.218,5.351,24.421,5.351
				c14.866,0,22.416,2.088,29.717,4.108c7.193,1.99,13.987,3.87,27.96,3.87c14.668,0,22.123,1.116,29.332,2.195
				c7.292,1.092,14.179,2.123,28.354,2.123c11.622,0,18.616-4.448,25.379-8.749c5.723-3.64,11.128-7.077,18.405-7.077
				c4.812,0,9.933,1.551,15.654,4.743c12.655,7.057,20.092,16.477,22.103,27.998c2.497,14.31-3.854,31.064-17.886,47.175
				C261.577,110.562,254.515,114.362,246.097,114.362z M205.353,100.292c10.599,0,18.93,2.416,26.279,4.547
				c5.411,1.569,10.084,2.924,14.465,2.924c4.533,0,10.208-1.194,17.923-10.055c12.699-14.582,18.509-29.393,16.36-41.706
				c-1.652-9.465-7.982-17.327-18.815-23.368c-4.713-2.629-8.782-3.907-12.439-3.907c-5.356,0-9.552,2.668-14.863,6.046
				c-6.851,4.357-15.378,9.78-28.921,9.78c-14.666,0-22.121-1.116-29.33-2.195c-7.292-1.092-14.179-2.123-28.355-2.123
				c-14.868,0-22.418-2.088-29.72-4.108c-7.193-1.99-13.987-3.869-27.957-3.869c-11.403,0-19.91-3.201-26.745-5.774
				c-4.767-1.793-8.882-3.343-12.699-3.343c-3.407,0-8.245,1.064-15.473,9.363C15.758,54.67,21.339,63.191,41.894,86.787
				C50.5,96.67,54.921,98.655,59.265,98.654c2.438,0,5.113-0.63,8.501-1.427c5.463-1.285,12.261-2.884,22.222-2.884
				c14.813,0,22.339,1.805,29.616,3.551c7.221,1.732,14.042,3.369,28.072,3.369c14.362,0,21.664-0.246,28.726-0.484
				C183.518,100.539,190.877,100.292,205.353,100.292z"/>
		</g>
	</g>
	<g>
		<path fill="#FFFFFF" d="M72.971,57.811c-0.408-2.488-2.414-4.196-6.054-4.196c-2.525,0-4.643,0.668-6.054,2.265
			c-2.34,2.601-2.859,6.092-2.859,8.617c0,2.266,0.482,6.091,2.451,8.431c1.745,2.005,4.456,2.637,7.131,2.637
			c3.045,0,4.977-0.594,5.831-0.854v-7.947h-6.129v-3.083h9.843v13.222c-1.561,0.521-4.977,1.634-9.545,1.634
			c-4.939,0-7.837-1.411-9.73-3.342c-2.638-2.675-3.752-6.426-3.752-10.214c0-2.674,0.669-8.987,5.757-12.404
			c2.637-1.783,6.128-1.895,7.466-1.895c2.116,0,5.348,0.26,7.91,2.859c1.598,1.672,1.709,3.231,1.783,4.271H72.971z"/>
		<path fill="#FFFFFF" d="M83.885,63.085c0-1.264-0.074-2.563-0.186-3.789h3.528l0.074,3.603c0.669-2.6,2.896-3.454,4.457-3.677
			c1.04-0.148,1.819-0.111,2.414-0.074v3.417c-0.186-0.074-0.409-0.111-0.669-0.148s-0.594-0.037-1.003-0.037
			c-4.122,0-5.088,2.451-5.088,5.646v9.916h-3.528V63.085z"/>
		<path fill="#FFFFFF" d="M109.509,77.941c-0.261-0.929-0.335-1.82-0.335-2.785c-1.671,3.082-4.196,3.379-5.757,3.379
			c-4.271,0-6.573-2.414-6.573-5.496c0-1.485,0.52-3.862,3.269-5.46c2.005-1.114,4.977-1.226,6.462-1.226
			c0.892,0,1.448,0.037,2.525,0.111c0-2.303,0-3.305-0.668-4.122c-0.706-0.929-2.229-1.226-3.231-1.226
			c-3.528,0-3.714,2.414-3.751,3.156h-3.491c0.111-0.965,0.223-2.265,1.3-3.527c1.411-1.561,4.048-2.006,6.017-2.006
			c2.711,0,5.608,0.854,6.611,2.748c0.594,1.114,0.631,2.006,0.631,2.86l-0.148,8.913c0,0.297,0.037,2.785,0.297,4.68H109.509z
			 M107.095,68.767c-1.412,0-6.723,0-6.723,3.788c0,1.188,0.742,3.231,3.862,3.231c1.783,0,3.12-0.705,3.974-2.006
			c0.78-1.263,0.817-2.302,0.892-4.902C108.469,68.804,107.948,68.767,107.095,68.767z"/>
		<path fill="#FFFFFF" d="M118.901,61.451l-0.037-2.154h3.49l0.038,3.009c0.408-0.78,1.745-3.38,5.979-3.38
			c1.671,0,6.759,0.632,6.759,6.351v12.665h-3.565V66.093c0-1.226-0.148-2.34-1.003-3.194c-0.891-0.854-2.116-1.263-3.305-1.263
			c-2.526,0-4.865,1.82-4.865,5.571v10.733h-3.491V61.451z"/>
		<path fill="#FFFFFF" d="M154.402,51.163h3.491V74.97c0,0.408,0.074,2.005,0.148,2.971h-3.491l-0.074-2.971
			c-0.297,0.52-0.705,1.3-1.671,1.968c-1.522,1.04-3.343,1.374-4.605,1.374c-2.488,0-8.022-1.3-8.022-9.471
			c0-7.094,4.049-10.176,8.431-10.176c4.012,0,5.349,2.377,5.794,3.156V51.163z M153.103,63.16
			c-0.742-0.966-2.117-1.895-4.085-1.895c-5.125,0-5.125,6.202-5.125,7.465c0,3.306,0.854,7.131,5.125,7.131
			c5.496,0,5.496-6.054,5.496-7.502C154.514,65.648,153.883,64.162,153.103,63.16z"/>
		<path fill="#FFFFFF" d="M173.488,53.726c-0.595-0.037-1.337-0.074-2.043-0.074c-2.822,0-2.822,1.411-2.822,2.711v2.934h4.345
			v2.525h-4.345v16.119h-3.454V61.822h-3.677v-2.525h3.677V57.18c0-2.563,0.148-3.491,0.779-4.457
			c0.78-1.188,2.266-2.043,4.68-2.043c1.003,0,2.117,0.148,2.86,0.26V53.726z"/>
		<path fill="#FFFFFF" d="M187.896,77.941c-0.261-0.929-0.335-1.82-0.335-2.785c-1.671,3.082-4.196,3.379-5.757,3.379
			c-4.271,0-6.573-2.414-6.573-5.496c0-1.485,0.52-3.862,3.269-5.46c2.005-1.114,4.977-1.226,6.462-1.226
			c0.892,0,1.448,0.037,2.525,0.111c0-2.303,0-3.305-0.668-4.122c-0.706-0.929-2.229-1.226-3.231-1.226
			c-3.528,0-3.714,2.414-3.751,3.156h-3.491c0.111-0.965,0.223-2.265,1.3-3.527c1.411-1.561,4.048-2.006,6.017-2.006
			c2.711,0,5.608,0.854,6.611,2.748c0.594,1.114,0.631,2.006,0.631,2.86l-0.148,8.913c0,0.297,0.037,2.785,0.297,4.68H187.896z
			 M185.482,68.767c-1.412,0-6.723,0-6.723,3.788c0,1.188,0.742,3.231,3.862,3.231c1.783,0,3.12-0.705,3.974-2.006
			c0.78-1.263,0.817-2.302,0.892-4.902C186.856,68.804,186.336,68.767,185.482,68.767z"/>
		<path fill="#FFFFFF" d="M194.317,59.222h3.306v-3.899l3.454-1.114v5.014h4.159v2.562h-4.159v11.18c0,0.929,0,2.488,2.488,2.488
			c0.705,0,1.374-0.111,1.671-0.186v2.711c-0.631,0.111-1.634,0.223-2.896,0.223c-3.194,0-4.717-0.929-4.717-3.974V61.785h-3.306
			V59.222z"/>
		<path fill="#FFFFFF" d="M209.542,51.163h3.528v10.883c1.151-1.969,3.454-3.083,6.054-3.083c1.969,0,4.791,0.706,5.868,2.972
			c0.371,0.742,0.632,1.634,0.632,4.345v11.662h-3.565v-11.03c0-1.672,0-5.274-4.012-5.274c-2.6,0-3.899,1.598-4.383,2.488
			c-0.594,1.04-0.594,2.786-0.594,3.938v9.879h-3.528V51.163z"/>
		<path fill="#FFFFFF" d="M234.348,69.25c-0.074,3.862,1.522,6.722,5.348,6.722c2.266,0,4.086-1.188,4.383-3.862h3.491
			c-0.111,0.929-0.26,2.451-1.597,3.899c-0.817,0.929-2.675,2.488-6.426,2.488c-5.868,0-8.653-3.64-8.653-9.545
			c0-3.677,0.742-6.722,3.677-8.765c1.782-1.263,4.011-1.374,5.088-1.374c8.356,0,8.171,7.391,8.097,10.437H234.348z
			 M244.189,66.799c0.037-1.783-0.297-5.497-4.605-5.497c-2.266,0-5.014,1.374-5.088,5.497H244.189z"/>
		<path fill="#FFFFFF" d="M253.062,63.085c0-1.264-0.074-2.563-0.187-3.789h3.528l0.075,3.603c0.668-2.6,2.896-3.454,4.456-3.677
			c1.04-0.148,1.82-0.111,2.414-0.074v3.417c-0.186-0.074-0.408-0.111-0.668-0.148s-0.595-0.037-1.003-0.037
			c-4.123,0-5.088,2.451-5.088,5.646v9.916h-3.528V63.085z"/>
	</g>
</g>
</svg>
