<?xml version="1.0" encoding="utf-8"?>
<!-- Generator: Adobe Illustrator 16.0.0, SVG Export Plug-In . SVG Version: 6.00 Build 0)  -->
<!DOCTYPE svg PUBLIC "-//W3C//DTD SVG 1.1//EN" "http://www.w3.org/Graphics/SVG/1.1/DTD/svg11.dtd">
<svg version="1.1" id="Layer_1" xmlns="http://www.w3.org/2000/svg" xmlns:xlink="http://www.w3.org/1999/xlink" x="0px" y="0px"
	 width="322.538px" height="100.93px" viewBox="0 0 322.538 100.93" enable-background="new 0 0 322.538 100.93"
	 xml:space="preserve">
<g>
	<g>
		<path fill="#307FE2" d="M271.579,100.93H54.304L0,50.438L54.313,0h217.312l54.284,50.67L271.579,100.93z M62.087,81.13h201.736
			l33-30.525L263.822,19.8L62.086,19.801L29.088,50.447L62.089,81.13H62.087z"/>
	</g>
	<g>
		<polygon fill="#307FE2" points="59.843,17.382 26.843,48.028 24.241,50.444 26.841,52.862 59.841,83.547 60.792,84.431 
			62.089,84.431 263.821,84.431 265.114,84.431 266.063,83.554 299.063,53.028 301.671,50.616 299.073,48.194 266.073,17.388 
			265.122,16.5 263.821,16.5 62.089,16.5 60.792,16.5 		"/>
	</g>
	<g>
		<path fill="#FFFFFF" d="M266.405,87.73H59.495L19.394,50.442L59.495,13.2h206.928l40.098,37.425L266.405,87.73z M62.089,81.131
			l201.735-0.001l32.997-30.523l-33-30.807H62.088L29.089,50.446L62.089,81.131z"/>
	</g>
	<g>
		<path fill="#FFFFFF" d="M69.255,33.89h9.583c1.374,0,4.196,0,6.165,1.263c2.006,1.263,2.971,3.306,2.971,5.459
			c0,1.894-0.705,3.565-1.894,4.754c-1.151,1.151-2.34,1.523-3.157,1.746c2.562,0.668,3.715,1.82,4.086,5.163
			c0.371,3.157,0.631,5.459,1.671,8.431h-3.974c-0.595-1.783-0.966-5.051-1.227-7.094c-0.445-3.899-1.373-5.014-5.867-5.014h-4.68
			v12.107h-3.678V33.89z M72.858,45.44h5.867c0.409,0,2.526,0,3.529-0.594c0.52-0.297,1.819-1.263,1.819-3.491
			c0-4.345-3.862-4.345-5.349-4.345h-5.867V45.44z"/>
		<path fill="#FFFFFF" d="M95.509,52.014c-0.074,3.863,1.523,6.723,5.348,6.723c2.266,0,4.086-1.188,4.383-3.863h3.491
			c-0.111,0.929-0.26,2.451-1.597,3.9c-0.817,0.928-2.674,2.488-6.426,2.488c-5.867,0-8.653-3.64-8.653-9.545
			c0-3.677,0.743-6.722,3.677-8.765c1.783-1.263,4.012-1.374,5.088-1.374c8.357,0,8.172,7.391,8.098,10.436H95.509z M105.351,49.562
			c0.037-1.783-0.297-5.497-4.605-5.497c-2.266,0-5.014,1.374-5.088,5.497H105.351z"/>
		<path fill="#FFFFFF" d="M116.044,55.171c-0.037,1.411,0.705,3.379,4.085,3.379c1.448,0,2.525-0.26,3.269-1.188
			c0.371-0.482,0.594-1.114,0.594-1.746c0-1.82-1.3-2.154-4.086-2.785c-3.898-0.892-7.168-1.671-7.168-5.571
			c0-3.417,2.972-5.645,7.28-5.645c2.34,0,5.608,0.668,6.722,2.897c0.483,1.04,0.483,1.931,0.483,2.711h-3.565
			c0.111-2.822-2.34-3.045-3.603-3.045c-0.521,0-3.788,0-3.788,2.674c0,1.708,1.671,2.117,2.637,2.377
			c5.162,1.226,6.276,1.522,7.391,2.562c1.04,0.966,1.411,2.266,1.411,3.454c0,2.08-1.151,3.862-2.525,4.717
			c-1.634,1.002-3.603,1.263-5.534,1.263c-3.787,0-7.316-1.56-7.279-6.054H116.044z"/>
		<path fill="#FFFFFF" d="M134.722,52.014c-0.074,3.863,1.523,6.723,5.348,6.723c2.266,0,4.086-1.188,4.383-3.863h3.491
			c-0.111,0.929-0.26,2.451-1.597,3.9c-0.817,0.928-2.674,2.488-6.426,2.488c-5.867,0-8.653-3.64-8.653-9.545
			c0-3.677,0.743-6.722,3.677-8.765c1.783-1.263,4.012-1.374,5.088-1.374c8.357,0,8.172,7.391,8.098,10.436H134.722z
			 M144.563,49.562c0.037-1.783-0.297-5.497-4.605-5.497c-2.266,0-5.014,1.374-5.088,5.497H144.563z"/>
		<path fill="#FFFFFF" d="M164.616,60.705c-0.261-0.929-0.335-1.82-0.335-2.786c-1.671,3.083-4.196,3.38-5.757,3.38
			c-4.271,0-6.574-2.414-6.574-5.497c0-1.486,0.521-3.863,3.27-5.459c2.005-1.114,4.977-1.226,6.462-1.226
			c0.892,0,1.448,0.038,2.525,0.112c0-2.303,0-3.306-0.669-4.123c-0.705-0.929-2.229-1.226-3.23-1.226
			c-3.529,0-3.715,2.414-3.752,3.157h-3.49c0.111-0.966,0.223-2.266,1.299-3.528c1.412-1.56,4.049-2.005,6.018-2.005
			c2.711,0,5.607,0.854,6.611,2.748c0.594,1.114,0.631,2.006,0.631,2.86l-0.148,8.914c0,0.297,0.037,2.786,0.297,4.68H164.616z
			 M162.202,51.531c-1.412,0-6.723,0-6.723,3.788c0,1.188,0.742,3.231,3.862,3.231c1.782,0,3.12-0.706,3.974-2.005
			c0.78-1.263,0.817-2.303,0.892-4.902C163.575,51.568,163.056,51.531,162.202,51.531z"/>
		<path fill="#FFFFFF" d="M174.083,45.849c0-1.263-0.074-2.562-0.187-3.788h3.528l0.074,3.603c0.669-2.6,2.896-3.454,4.457-3.677
			c1.04-0.148,1.82-0.111,2.414-0.074v3.417c-0.186-0.074-0.408-0.111-0.668-0.148s-0.595-0.037-1.004-0.037
			c-4.122,0-5.088,2.451-5.088,5.645v9.917h-3.527V45.849z"/>
		<path fill="#FFFFFF" d="M198.963,48.04c-0.074-0.854-0.334-3.9-3.714-3.9c-4.828,0-4.828,5.608-4.828,7.02
			c0,3.825,0.929,7.391,4.643,7.391c2.971,0,3.974-2.228,4.049-4.048h3.527c-0.223,3.64-2.934,6.685-7.539,6.685
			c-1.263,0-4.16-0.26-6.128-2.414c-1.114-1.3-2.229-3.269-2.229-7.131c0-7.762,4.754-10.065,8.468-10.065
			c1.226,0,4.012,0.26,5.72,2.303c1.374,1.597,1.485,3.12,1.56,4.16H198.963z"/>
		<path fill="#FFFFFF" d="M205.088,33.927h3.528v10.882c1.151-1.968,3.454-3.083,6.055-3.083c1.968,0,4.791,0.706,5.867,2.971
			c0.371,0.743,0.632,1.634,0.632,4.345v11.662h-3.565V49.674c0-1.671,0-5.273-4.012-5.273c-2.6,0-3.899,1.597-4.383,2.488
			c-0.594,1.04-0.594,2.785-0.594,3.937v9.879h-3.528V33.927z"/>
		<path fill="#FFFFFF" d="M229.894,52.014c-0.074,3.863,1.522,6.723,5.348,6.723c2.266,0,4.086-1.188,4.383-3.863h3.49
			c-0.111,0.929-0.26,2.451-1.596,3.9c-0.818,0.928-2.675,2.488-6.426,2.488c-5.868,0-8.654-3.64-8.654-9.545
			c0-3.677,0.743-6.722,3.678-8.765c1.782-1.263,4.011-1.374,5.088-1.374c8.356,0,8.171,7.391,8.097,10.436H229.894z
			 M239.735,49.562c0.037-1.783-0.297-5.497-4.605-5.497c-2.266,0-5.014,1.374-5.088,5.497H239.735z"/>
		<path fill="#FFFFFF" d="M248.608,45.849c0-1.263-0.074-2.562-0.187-3.788h3.528l0.074,3.603c0.669-2.6,2.896-3.454,4.457-3.677
			c1.04-0.148,1.82-0.111,2.414-0.074v3.417c-0.186-0.074-0.408-0.111-0.668-0.148s-0.595-0.037-1.004-0.037
			c-4.122,0-5.088,2.451-5.088,5.645v9.917h-3.527V45.849z"/>
	</g>
</g>
</svg>
