<?xml version="1.0" encoding="utf-8"?>
<!-- Generator: Adobe Illustrator 16.0.0, SVG Export Plug-In . SVG Version: 6.00 Build 0)  -->
<!DOCTYPE svg PUBLIC "-//W3C//DTD SVG 1.1//EN" "http://www.w3.org/Graphics/SVG/1.1/DTD/svg11.dtd">
<svg version="1.1" id="Layer_1" xmlns="http://www.w3.org/2000/svg" xmlns:xlink="http://www.w3.org/1999/xlink" x="0px" y="0px"
	 width="391.909px" height="102.178px" viewBox="0 0 391.909 102.178" enable-background="new 0 0 391.909 102.178"
	 xml:space="preserve">
<g>
	<g>
		<path fill="#307FE2" d="M337.579,100.93H54.306L0,50.438L54.313,0h283.316l54.28,50.669L337.579,100.93z M62.089,81.13h267.734
			l33-30.525h0L329.822,19.8H62.089l-33,30.646L62.09,81.13H62.089z"/>
	</g>
	<g>
		<polygon fill="#307FE2" points="59.844,17.381 26.844,48.028 24.242,50.444 26.843,52.862 59.843,83.546 60.793,84.43 
			62.09,84.43 329.822,84.43 331.115,84.43 332.062,83.553 365.062,53.028 367.67,50.616 365.074,48.194 332.074,17.387 
			331.123,16.5 329.822,16.5 62.09,16.5 60.793,16.5 		"/>
	</g>
	<g>
		<path fill="#FFFFFF" d="M332.408,87.73H59.496L19.394,50.442L59.497,13.2h272.927l40.094,37.426L332.408,87.73z M62.09,81.13
			h267.732l33-30.525l-33-30.806H62.089l-33,30.646L62.09,81.13L62.09,81.13z"/>
	</g>
	<g>
		<path fill="#FFFFFF" d="M85.16,40.574c-0.409-2.488-2.414-4.197-6.054-4.197c-2.525,0-4.643,0.668-6.054,2.266
			c-2.34,2.6-2.86,6.091-2.86,8.616c0,2.266,0.483,6.091,2.451,8.431c1.746,2.005,4.457,2.637,7.131,2.637
			c3.045,0,4.977-0.594,5.831-0.854v-7.948h-6.128v-3.083h9.842v13.222c-1.56,0.52-4.977,1.634-9.545,1.634
			c-4.939,0-7.836-1.411-9.73-3.343c-2.637-2.674-3.751-6.425-3.751-10.213c0-2.674,0.668-8.988,5.757-12.405
			c2.637-1.783,6.128-1.894,7.465-1.894c2.117,0,5.348,0.26,7.911,2.86c1.597,1.671,1.708,3.231,1.783,4.271H85.16z"/>
		<path fill="#FFFFFF" d="M107.253,60.704c-0.26-0.929-0.334-1.82-0.334-2.786c-1.671,3.083-4.197,3.38-5.757,3.38
			c-4.271,0-6.574-2.414-6.574-5.497c0-1.486,0.52-3.863,3.269-5.459c2.005-1.114,4.977-1.226,6.462-1.226
			c0.891,0,1.448,0.038,2.525,0.112c0-2.303,0-3.306-0.668-4.123c-0.706-0.929-2.229-1.226-3.231-1.226
			c-3.528,0-3.714,2.414-3.751,3.157h-3.491c0.111-0.966,0.223-2.266,1.3-3.528c1.412-1.56,4.048-2.005,6.017-2.005
			c2.711,0,5.608,0.854,6.611,2.748c0.594,1.114,0.631,2.006,0.631,2.86l-0.149,8.914c0,0.297,0.037,2.786,0.297,4.68H107.253z
			 M104.839,51.531c-1.412,0-6.723,0-6.723,3.788c0,1.188,0.743,3.231,3.863,3.231c1.783,0,3.12-0.706,3.974-2.005
			c0.78-1.263,0.817-2.303,0.892-4.902C106.213,51.568,105.693,51.531,104.839,51.531z"/>
		<path fill="#FFFFFF" d="M116.608,33.926h3.491v26.778h-3.491V33.926z"/>
		<path fill="#FFFFFF" d="M126.932,33.926h3.491v26.778h-3.491V33.926z"/>
		<path fill="#FFFFFF" d="M139.297,52.013c-0.074,3.863,1.523,6.723,5.348,6.723c2.266,0,4.085-1.188,4.382-3.863h3.491
			c-0.111,0.929-0.26,2.451-1.597,3.9c-0.817,0.928-2.674,2.488-6.425,2.488c-5.868,0-8.654-3.64-8.654-9.545
			c0-3.677,0.743-6.722,3.677-8.765c1.783-1.263,4.011-1.374,5.088-1.374c8.356,0,8.171,7.391,8.097,10.436H139.297z
			 M149.139,49.562c0.037-1.783-0.297-5.497-4.605-5.497c-2.266,0-5.014,1.374-5.088,5.497H149.139z"/>
		<path fill="#FFFFFF" d="M158.012,45.848c0-1.263-0.074-2.562-0.186-3.788h3.528l0.075,3.603c0.668-2.6,2.896-3.454,4.457-3.677
			c1.04-0.148,1.82-0.111,2.414-0.074v3.417c-0.186-0.074-0.409-0.111-0.668-0.148s-0.594-0.037-1.003-0.037
			c-4.123,0-5.088,2.451-5.088,5.645v9.917h-3.528V45.848z"/>
		<path fill="#FFFFFF" d="M180.665,60.815l-2.674,6.945h-3.603l2.823-7.131l-7.762-18.57h3.937l5.831,14.707l5.942-14.707h3.789
			L180.665,60.815z"/>
		<path fill="#FFFFFF" d="M205.616,36.786c2.786-3.008,6.462-3.603,8.951-3.603c7.428,0,12.107,4.754,12.107,13.853
			c0,7.131-2.86,14.299-12.405,14.299c-9.136,0-12.107-6.5-12.107-13.853C202.163,44.437,202.683,39.943,205.616,36.786z
			 M208.439,55.728c1.523,1.894,3.826,2.451,5.942,2.451c2.191,0,4.383-0.594,5.942-2.451c2.191-2.674,2.414-6.908,2.414-8.728
			c0-6.091-2.005-10.696-8.133-10.696c-6.797,0-8.542,5.459-8.542,10.956C206.062,50.193,206.582,53.425,208.439,55.728z"/>
		<path fill="#FFFFFF" d="M233.132,42.06l4.494,14.856l4.717-14.856h4.568l4.234,14.707l4.68-14.707h3.603l-6.574,18.644h-4.011
			l-4.383-15.339l-4.865,15.339h-4.123l-6.165-18.644H233.132z"/>
		<path fill="#FFFFFF" d="M263.172,44.214l-0.037-2.154h3.491l0.038,3.008c0.408-0.78,1.746-3.38,5.979-3.38
			c1.671,0,6.759,0.631,6.759,6.351v12.665h-3.565V48.856c0-1.226-0.148-2.34-1.003-3.194c-0.891-0.854-2.117-1.263-3.305-1.263
			c-2.526,0-4.865,1.82-4.865,5.571v10.733h-3.491V44.214z"/>
		<path fill="#FFFFFF" d="M287.866,52.013c-0.074,3.863,1.523,6.723,5.348,6.723c2.266,0,4.085-1.188,4.382-3.863h3.491
			c-0.111,0.929-0.26,2.451-1.597,3.9c-0.817,0.928-2.674,2.488-6.425,2.488c-5.868,0-8.654-3.64-8.654-9.545
			c0-3.677,0.743-6.722,3.677-8.765c1.783-1.263,4.011-1.374,5.088-1.374c8.356,0,8.171,7.391,8.097,10.436H287.866z
			 M297.708,49.562c0.037-1.783-0.297-5.497-4.605-5.497c-2.266,0-5.014,1.374-5.088,5.497H297.708z"/>
		<path fill="#FFFFFF" d="M306.581,45.848c0-1.263-0.074-2.562-0.186-3.788h3.528l0.075,3.603c0.668-2.6,2.896-3.454,4.457-3.677
			c1.04-0.148,1.82-0.111,2.414-0.074v3.417c-0.186-0.074-0.409-0.111-0.668-0.148s-0.594-0.037-1.003-0.037
			c-4.123,0-5.088,2.451-5.088,5.645v9.917h-3.528V45.848z"/>
	</g>
</g>
</svg>
