<?xml version="1.0" encoding="utf-8"?>
<!-- Generator: Adobe Illustrator 16.0.0, SVG Export Plug-In . SVG Version: 6.00 Build 0)  -->
<!DOCTYPE svg PUBLIC "-//W3C//DTD SVG 1.1//EN" "http://www.w3.org/Graphics/SVG/1.1/DTD/svg11.dtd">
<svg version="1.1" id="Layer_1" xmlns="http://www.w3.org/2000/svg" xmlns:xlink="http://www.w3.org/1999/xlink" x="0px" y="0px"
	 width="391.712px" height="103.902px" viewBox="0 0 391.712 103.902" enable-background="new 0 0 391.712 103.902"
	 xml:space="preserve">
<g>
	<g>
		<path fill="#FFFFFF" d="M52.953,62.09V38.432h-8.987v-3.157h21.652v3.157H56.63V62.09H52.953z"/>
		<path fill="#FFFFFF" d="M69.143,35.312h3.528v10.882c1.151-1.968,3.454-3.083,6.054-3.083c1.968,0,4.791,0.706,5.868,2.971
			c0.371,0.743,0.631,1.634,0.631,4.345V62.09h-3.565V51.06c0-1.671,0-5.273-4.011-5.273c-2.6,0-3.899,1.597-4.383,2.488
			c-0.594,1.04-0.594,2.785-0.594,3.937v9.879h-3.528V35.312z"/>
		<path fill="#FFFFFF" d="M103.194,62.09c-0.26-0.929-0.334-1.82-0.334-2.786c-1.671,3.083-4.197,3.38-5.757,3.38
			c-4.271,0-6.573-2.414-6.573-5.497c0-1.486,0.52-3.863,3.268-5.459c2.006-1.114,4.978-1.226,6.463-1.226
			c0.892,0,1.448,0.038,2.525,0.112c0-2.303,0-3.306-0.669-4.123c-0.705-0.929-2.228-1.226-3.23-1.226
			c-3.528,0-3.714,2.414-3.751,3.157h-3.491c0.111-0.966,0.223-2.266,1.3-3.528c1.411-1.56,4.048-2.005,6.017-2.005
			c2.711,0,5.607,0.854,6.61,2.748c0.595,1.114,0.632,2.006,0.632,2.86l-0.148,8.914c0,0.297,0.037,2.786,0.297,4.68H103.194z
			 M100.78,52.917c-1.411,0-6.722,0-6.722,3.788c0,1.188,0.742,3.231,3.862,3.231c1.782,0,3.119-0.706,3.974-2.005
			c0.78-1.263,0.817-2.303,0.892-4.902C102.154,52.954,101.635,52.917,100.78,52.917z"/>
		<path fill="#FFFFFF" d="M109.616,43.372h3.306v-3.899l3.454-1.114v5.014h4.16v2.563h-4.16v11.179c0,0.928,0,2.488,2.488,2.488
			c0.706,0,1.374-0.111,1.672-0.186v2.711c-0.632,0.111-1.635,0.223-2.897,0.223c-3.194,0-4.717-0.928-4.717-3.974V45.935h-3.306
			V43.372z"/>
		<path fill="#FFFFFF" d="M135.424,35.275h5.162l13.185,22.172V35.275h3.417V62.09h-4.754l-13.63-22.767V62.09h-3.38V35.275z"/>
		<path fill="#FFFFFF" d="M167.247,43.446v11.996c0,1.82,0.409,4.123,3.975,4.123c1.745,0,3.38-0.594,4.382-2.08
			c0.78-1.114,0.78-2.562,0.78-3.491V43.446h3.603v15.153c0,0.372,0.074,2.451,0.111,3.491h-3.64l-0.074-3.194
			c-0.668,1.3-1.932,3.379-5.942,3.379c-4.605,0-6.76-2.637-6.76-6.313V43.446H167.247z"/>
		<path fill="#FFFFFF" d="M199.667,35.312h3.491v23.807c0,0.409,0.074,2.005,0.148,2.971h-3.491l-0.074-2.971
			c-0.298,0.52-0.706,1.3-1.672,1.968c-1.522,1.04-3.343,1.375-4.605,1.375c-2.488,0-8.021-1.3-8.021-9.471
			c0-7.094,4.048-10.176,8.431-10.176c4.011,0,5.348,2.377,5.794,3.157V35.312z M198.367,47.309
			c-0.743-0.965-2.117-1.894-4.086-1.894c-5.125,0-5.125,6.202-5.125,7.465c0,3.306,0.854,7.131,5.125,7.131
			c5.497,0,5.497-6.054,5.497-7.502C199.778,49.797,199.146,48.312,198.367,47.309z"/>
		<path fill="#FFFFFF" d="M211.548,53.399c-0.075,3.863,1.522,6.723,5.348,6.723c2.266,0,4.085-1.188,4.383-3.863h3.491
			c-0.111,0.929-0.261,2.451-1.598,3.9c-0.816,0.928-2.674,2.488-6.425,2.488c-5.868,0-8.653-3.64-8.653-9.545
			c0-3.677,0.742-6.722,3.677-8.765c1.782-1.263,4.011-1.374,5.088-1.374c8.356,0,8.171,7.391,8.097,10.436H211.548z M221.39,50.948
			c0.037-1.783-0.297-5.497-4.605-5.497c-2.266,0-5.014,1.374-5.088,5.497H221.39z"/>
		<path fill="#FFFFFF" d="M240.474,35.275h6.573l7.577,22.098l7.762-22.098h6.128V62.09h-3.64V37.949l-8.802,24.141h-3.528
			l-8.468-23.992V62.09h-3.603V35.275z"/>
		<path fill="#FFFFFF" d="M283.549,42.963c7.465,0,9.136,5.868,9.136,9.768c0,5.459-3.082,9.991-9.434,9.991
			c-6.165,0-9.173-4.271-9.173-9.73C274.078,48.386,276.231,42.963,283.549,42.963z M283.325,60.122
			c2.638,0,5.646-1.894,5.646-7.502c0-4.643-2.154-7.094-5.422-7.094c-2.229,0-5.831,1.411-5.831,7.242
			C277.718,56.594,279.352,60.122,283.325,60.122z"/>
		<path fill="#FFFFFF" d="M311.065,35.312h3.491v23.807c0,0.409,0.074,2.005,0.148,2.971h-3.491l-0.074-2.971
			c-0.298,0.52-0.706,1.3-1.672,1.968c-1.522,1.04-3.343,1.375-4.605,1.375c-2.488,0-8.021-1.3-8.021-9.471
			c0-7.094,4.048-10.176,8.431-10.176c4.011,0,5.348,2.377,5.794,3.157V35.312z M309.766,47.309
			c-0.743-0.965-2.117-1.894-4.086-1.894c-5.125,0-5.125,6.202-5.125,7.465c0,3.306,0.854,7.131,5.125,7.131
			c5.497,0,5.497-6.054,5.497-7.502C311.177,49.797,310.545,48.312,309.766,47.309z"/>
		<path fill="#FFFFFF" d="M322.946,53.399c-0.075,3.863,1.522,6.723,5.348,6.723c2.266,0,4.085-1.188,4.383-3.863h3.491
			c-0.111,0.929-0.261,2.451-1.598,3.9c-0.816,0.928-2.674,2.488-6.425,2.488c-5.868,0-8.653-3.64-8.653-9.545
			c0-3.677,0.742-6.722,3.677-8.765c1.782-1.263,4.011-1.374,5.088-1.374c8.356,0,8.171,7.391,8.097,10.436H322.946z
			 M332.788,50.948c0.037-1.783-0.297-5.497-4.605-5.497c-2.266,0-5.014,1.374-5.088,5.497H332.788z"/>
		<path fill="#FFFFFF" d="M341.549,35.312h3.491V62.09h-3.491V35.312z"/>
	</g>
	<g>
		<path fill="#307FE2" d="M391.712,103.902H0V0h391.712V103.902z M19.8,84.103h352.114L371.912,19.8H19.8V84.103L19.8,84.103z"/>
	</g>
	<g>
		<polygon fill="#307FE2" points="16.498,19.795 16.498,84.101 16.498,87.4 19.796,87.4 371.912,87.4 375.212,87.4 375.212,84.101 
			375.212,19.795 375.212,16.495 371.912,16.495 19.796,16.495 16.498,16.495 		"/>
	</g>
	<g>
		<path fill="#FFFFFF" d="M52.95,62.088V38.43h-8.987v-3.157h21.652v3.157h-8.988v23.658H52.95z"/>
		<path fill="#FFFFFF" d="M69.14,35.311h3.528v10.882c1.151-1.968,3.454-3.083,6.054-3.083c1.968,0,4.791,0.706,5.868,2.971
			c0.371,0.743,0.631,1.634,0.631,4.345v11.662h-3.565V51.058c0-1.671,0-5.273-4.011-5.273c-2.6,0-3.899,1.597-4.383,2.488
			c-0.594,1.04-0.594,2.785-0.594,3.937v9.879H69.14V35.311z"/>
		<path fill="#FFFFFF" d="M103.191,62.088c-0.26-0.929-0.334-1.82-0.334-2.786c-1.671,3.083-4.196,3.38-5.757,3.38
			c-4.271,0-6.573-2.414-6.573-5.497c0-1.486,0.52-3.863,3.268-5.459c2.006-1.114,4.978-1.226,6.463-1.226
			c0.892,0,1.448,0.038,2.525,0.112c0-2.303,0-3.306-0.669-4.123c-0.705-0.929-2.228-1.226-3.23-1.226
			c-3.528,0-3.714,2.414-3.751,3.157h-3.491c0.111-0.966,0.223-2.266,1.3-3.528c1.411-1.56,4.048-2.005,6.017-2.005
			c2.711,0,5.607,0.854,6.61,2.748c0.595,1.114,0.632,2.006,0.632,2.86l-0.148,8.914c0,0.297,0.037,2.786,0.297,4.68H103.191z
			 M100.777,52.915c-1.411,0-6.722,0-6.722,3.788c0,1.188,0.742,3.231,3.862,3.231c1.782,0,3.12-0.706,3.974-2.005
			c0.78-1.263,0.817-2.303,0.892-4.902C102.151,52.952,101.632,52.915,100.777,52.915z"/>
		<path fill="#FFFFFF" d="M109.613,43.37h3.306V39.47l3.454-1.114v5.014h4.16v2.563h-4.16v11.179c0,0.928,0,2.488,2.488,2.488
			c0.706,0,1.374-0.111,1.672-0.186v2.711c-0.632,0.111-1.635,0.223-2.897,0.223c-3.194,0-4.717-0.928-4.717-3.974V45.933h-3.306
			V43.37z"/>
		<path fill="#FFFFFF" d="M135.421,35.273h5.162l13.185,22.172V35.273h3.417v26.815h-4.754l-13.63-22.767v22.767h-3.38V35.273z"/>
		<path fill="#FFFFFF" d="M167.244,43.444V55.44c0,1.82,0.409,4.123,3.975,4.123c1.745,0,3.38-0.594,4.382-2.08
			c0.78-1.114,0.78-2.562,0.78-3.491V43.444h3.603v15.153c0,0.372,0.074,2.451,0.111,3.491h-3.64l-0.074-3.194
			c-0.668,1.3-1.931,3.379-5.942,3.379c-4.605,0-6.76-2.637-6.76-6.313V43.444H167.244z"/>
		<path fill="#FFFFFF" d="M199.664,35.311h3.491v23.807c0,0.409,0.074,2.005,0.148,2.971h-3.491l-0.074-2.971
			c-0.298,0.52-0.706,1.3-1.672,1.968c-1.522,1.04-3.343,1.375-4.605,1.375c-2.488,0-8.021-1.3-8.021-9.471
			c0-7.094,4.048-10.176,8.431-10.176c4.011,0,5.348,2.377,5.794,3.157V35.311z M198.364,47.307
			c-0.743-0.965-2.117-1.894-4.086-1.894c-5.125,0-5.125,6.202-5.125,7.465c0,3.306,0.854,7.131,5.125,7.131
			c5.497,0,5.497-6.054,5.497-7.502C199.775,49.795,199.144,48.31,198.364,47.307z"/>
		<path fill="#FFFFFF" d="M211.545,53.397c-0.075,3.863,1.522,6.723,5.348,6.723c2.266,0,4.085-1.188,4.383-3.863h3.491
			c-0.111,0.929-0.261,2.451-1.598,3.9c-0.816,0.928-2.674,2.488-6.425,2.488c-5.868,0-8.653-3.64-8.653-9.545
			c0-3.677,0.742-6.722,3.677-8.765c1.782-1.263,4.011-1.374,5.088-1.374c8.356,0,8.171,7.391,8.097,10.436H211.545z
			 M221.387,50.946c0.037-1.783-0.297-5.497-4.605-5.497c-2.266,0-5.014,1.374-5.088,5.497H221.387z"/>
		<path fill="#FFFFFF" d="M240.471,35.273h6.573l7.577,22.098l7.762-22.098h6.128v26.815h-3.64V37.947l-8.802,24.141h-3.528
			l-8.468-23.992v23.992h-3.603V35.273z"/>
		<path fill="#FFFFFF" d="M283.546,42.961c7.465,0,9.136,5.868,9.136,9.768c0,5.459-3.082,9.991-9.434,9.991
			c-6.165,0-9.173-4.271-9.173-9.73C274.075,48.384,276.229,42.961,283.546,42.961z M283.322,60.12c2.638,0,5.646-1.894,5.646-7.502
			c0-4.643-2.154-7.094-5.422-7.094c-2.229,0-5.831,1.411-5.831,7.242C277.715,56.592,279.349,60.12,283.322,60.12z"/>
		<path fill="#FFFFFF" d="M311.062,35.311h3.491v23.807c0,0.409,0.074,2.005,0.148,2.971h-3.491l-0.074-2.971
			c-0.298,0.52-0.706,1.3-1.672,1.968c-1.522,1.04-3.343,1.375-4.605,1.375c-2.488,0-8.021-1.3-8.021-9.471
			c0-7.094,4.048-10.176,8.431-10.176c4.011,0,5.348,2.377,5.794,3.157V35.311z M309.763,47.307
			c-0.743-0.965-2.117-1.894-4.086-1.894c-5.125,0-5.125,6.202-5.125,7.465c0,3.306,0.854,7.131,5.125,7.131
			c5.497,0,5.497-6.054,5.497-7.502C311.174,49.795,310.542,48.31,309.763,47.307z"/>
		<path fill="#FFFFFF" d="M322.943,53.397c-0.075,3.863,1.522,6.723,5.348,6.723c2.266,0,4.085-1.188,4.383-3.863h3.491
			c-0.111,0.929-0.261,2.451-1.598,3.9c-0.816,0.928-2.674,2.488-6.425,2.488c-5.868,0-8.653-3.64-8.653-9.545
			c0-3.677,0.742-6.722,3.677-8.765c1.782-1.263,4.011-1.374,5.088-1.374c8.356,0,8.171,7.391,8.097,10.436H322.943z
			 M332.785,50.946c0.037-1.783-0.297-5.497-4.605-5.497c-2.266,0-5.014,1.374-5.088,5.497H332.785z"/>
		<path fill="#FFFFFF" d="M341.546,35.311h3.491v26.778h-3.491V35.311z"/>
	</g>
	<g>
		<path fill="#FFFFFF" d="M378.512,90.7H13.198V13.195h365.314V90.7z M19.796,84.1h352.116l-0.001-64.306H19.796l0.001,0.001
			L19.796,84.1L19.796,84.1z"/>
	</g>
</g>
</svg>
