<?xml version="1.0" encoding="utf-8"?>
<!-- Generator: Adobe Illustrator 16.0.0, SVG Export Plug-In . SVG Version: 6.00 Build 0)  -->
<!DOCTYPE svg PUBLIC "-//W3C//DTD SVG 1.1//EN" "http://www.w3.org/Graphics/SVG/1.1/DTD/svg11.dtd">
<svg version="1.1" id="Layer_1" xmlns="http://www.w3.org/2000/svg" xmlns:xlink="http://www.w3.org/1999/xlink" x="0px" y="0px"
	 width="279.836px" height="103.903px" viewBox="0 0 279.836 103.903" enable-background="new 0 0 279.836 103.903"
	 xml:space="preserve">
<g>
	<g>
		<path fill="#FFFFFF" d="M46.377,35.278h9.582c1.375,0,4.197,0,6.166,1.263c2.006,1.264,2.971,3.306,2.971,5.46
			c0,1.895-0.705,3.565-1.895,4.754c-1.15,1.151-2.34,1.522-3.156,1.746c2.562,0.668,3.713,1.819,4.086,5.162
			c0.371,3.157,0.631,5.46,1.67,8.431h-3.973c-0.596-1.783-0.967-5.051-1.227-7.094c-0.445-3.899-1.373-5.014-5.867-5.014h-4.68
			v12.107h-3.678V35.278z M49.98,46.829h5.867c0.408,0,2.525,0,3.529-0.594c0.52-0.298,1.818-1.263,1.818-3.491
			c0-4.346-3.861-4.346-5.348-4.346H49.98V46.829z"/>
		<path fill="#FFFFFF" d="M72.631,53.403c-0.074,3.862,1.523,6.722,5.348,6.722c2.266,0,4.086-1.188,4.383-3.862h3.492
			c-0.111,0.929-0.262,2.451-1.598,3.899c-0.816,0.929-2.674,2.488-6.426,2.488c-5.867,0-8.652-3.64-8.652-9.545
			c0-3.677,0.742-6.722,3.676-8.765c1.783-1.263,4.012-1.374,5.088-1.374c8.357,0,8.172,7.391,8.098,10.437H72.631z M82.473,50.952
			c0.037-1.783-0.297-5.497-4.605-5.497c-2.266,0-5.014,1.374-5.088,5.497H82.473z"/>
		<path fill="#FFFFFF" d="M93.164,56.559c-0.037,1.412,0.707,3.38,4.086,3.38c1.449,0,2.525-0.26,3.27-1.188
			c0.371-0.482,0.594-1.114,0.594-1.745c0-1.82-1.301-2.154-4.086-2.786c-3.9-0.891-7.168-1.671-7.168-5.57
			c0-3.417,2.971-5.646,7.279-5.646c2.34,0,5.609,0.668,6.723,2.896c0.482,1.04,0.482,1.932,0.482,2.712h-3.564
			c0.111-2.823-2.34-3.046-3.604-3.046c-0.52,0-3.787,0-3.787,2.674c0,1.709,1.67,2.117,2.637,2.377
			c5.162,1.226,6.275,1.523,7.391,2.562c1.039,0.966,1.41,2.266,1.41,3.454c0,2.08-1.15,3.863-2.525,4.717
			c-1.633,1.003-3.602,1.263-5.533,1.263c-3.789,0-7.316-1.56-7.279-6.054H93.164z"/>
		<path fill="#FFFFFF" d="M111.844,53.403c-0.076,3.862,1.521,6.722,5.348,6.722c2.266,0,4.084-1.188,4.383-3.862h3.49
			c-0.111,0.929-0.26,2.451-1.598,3.899c-0.816,0.929-2.674,2.488-6.424,2.488c-5.869,0-8.654-3.64-8.654-9.545
			c0-3.677,0.742-6.722,3.678-8.765c1.781-1.263,4.01-1.374,5.088-1.374c8.355,0,8.17,7.391,8.096,10.437H111.844z M121.686,50.952
			c0.037-1.783-0.297-5.497-4.605-5.497c-2.266,0-5.014,1.374-5.088,5.497H121.686z"/>
		<path fill="#FFFFFF" d="M141.736,62.093c-0.26-0.929-0.334-1.82-0.334-2.785c-1.67,3.082-4.195,3.379-5.756,3.379
			c-4.271,0-6.574-2.414-6.574-5.496c0-1.485,0.52-3.862,3.268-5.46c2.006-1.114,4.979-1.226,6.463-1.226
			c0.893,0,1.449,0.037,2.525,0.111c0-2.303,0-3.305-0.668-4.122c-0.705-0.929-2.229-1.226-3.23-1.226
			c-3.529,0-3.715,2.414-3.752,3.156h-3.49c0.111-0.965,0.223-2.265,1.299-3.527c1.412-1.561,4.049-2.006,6.018-2.006
			c2.711,0,5.607,0.854,6.609,2.748c0.596,1.114,0.633,2.006,0.633,2.86l-0.148,8.913c0,0.297,0.037,2.785,0.297,4.68H141.736z
			 M139.322,52.919c-1.41,0-6.721,0-6.721,3.788c0,1.188,0.742,3.231,3.861,3.231c1.783,0,3.121-0.705,3.975-2.006
			c0.779-1.263,0.816-2.302,0.891-4.902C140.697,52.957,140.178,52.919,139.322,52.919z"/>
		<path fill="#FFFFFF" d="M151.203,47.238c0-1.264-0.074-2.563-0.186-3.789h3.529l0.074,3.603c0.668-2.6,2.896-3.454,4.457-3.677
			c1.039-0.148,1.818-0.111,2.414-0.074v3.417c-0.188-0.074-0.41-0.111-0.67-0.148s-0.594-0.037-1.002-0.037
			c-4.123,0-5.088,2.451-5.088,5.646v9.916h-3.529V47.238z"/>
		<path fill="#FFFFFF" d="M176.086,49.428c-0.074-0.854-0.336-3.899-3.715-3.899c-4.828,0-4.828,5.608-4.828,7.02
			c0,3.825,0.928,7.391,4.643,7.391c2.971,0,3.975-2.229,4.049-4.048h3.527c-0.223,3.64-2.934,6.685-7.539,6.685
			c-1.264,0-4.16-0.26-6.129-2.414c-1.113-1.3-2.229-3.268-2.229-7.131c0-7.762,4.754-10.064,8.469-10.064
			c1.227,0,4.012,0.26,5.719,2.303c1.375,1.597,1.486,3.119,1.561,4.159H176.086z"/>
		<path fill="#FFFFFF" d="M182.174,35.315h3.527v10.883c1.152-1.969,3.455-3.083,6.055-3.083c1.967,0,4.791,0.706,5.867,2.972
			c0.371,0.742,0.631,1.634,0.631,4.345v11.662h-3.564v-11.03c0-1.672,0-5.274-4.012-5.274c-2.6,0-3.898,1.598-4.383,2.488
			c-0.594,1.04-0.594,2.786-0.594,3.938v9.879h-3.527V35.315z"/>
		<path fill="#FFFFFF" d="M206.979,53.403c-0.076,3.862,1.521,6.722,5.348,6.722c2.266,0,4.084-1.188,4.383-3.862h3.49
			c-0.111,0.929-0.26,2.451-1.598,3.899c-0.816,0.929-2.674,2.488-6.424,2.488c-5.869,0-8.654-3.64-8.654-9.545
			c0-3.677,0.742-6.722,3.678-8.765c1.781-1.263,4.01-1.374,5.088-1.374c8.355,0,8.17,7.391,8.096,10.437H206.979z M216.82,50.952
			c0.037-1.783-0.297-5.497-4.605-5.497c-2.266,0-5.014,1.374-5.088,5.497H216.82z"/>
		<path fill="#FFFFFF" d="M225.693,47.238c0-1.264-0.074-2.563-0.186-3.789h3.527l0.074,3.603c0.668-2.6,2.896-3.454,4.457-3.677
			c1.039-0.148,1.82-0.111,2.414-0.074v3.417c-0.186-0.074-0.408-0.111-0.668-0.148s-0.594-0.037-1.004-0.037
			c-4.121,0-5.088,2.451-5.088,5.646v9.916h-3.527V47.238z"/>
	</g>
	<g>
		<path fill="#307FE2" d="M279.836,103.903H0V0h279.836V103.903z M19.801,84.104h240.234V19.8l-240.234,0v64.305V84.104z"/>
	</g>
	<g>
		<polygon fill="#307FE2" points="16.5,19.8 16.5,84.103 16.5,87.404 19.801,87.404 260.033,87.404 263.334,87.404 263.334,84.103 
			263.334,19.8 263.334,16.501 260.033,16.501 19.801,16.501 16.5,16.501 		"/>
	</g>
	<g>
		<path fill="#FFFFFF" d="M46.379,35.278h9.582c1.373,0,4.195,0,6.164,1.263c2.006,1.264,2.971,3.306,2.971,5.46
			c0,1.895-0.705,3.565-1.893,4.754c-1.152,1.151-2.34,1.522-3.158,1.746c2.562,0.668,3.715,1.819,4.086,5.162
			c0.371,3.157,0.631,5.46,1.672,8.431h-3.975c-0.594-1.783-0.965-5.051-1.225-7.094c-0.447-3.899-1.375-5.014-5.869-5.014h-4.68
			v12.107h-3.676V35.278z M49.98,46.829h5.869c0.408,0,2.525,0,3.527-0.594c0.52-0.298,1.82-1.263,1.82-3.491
			c0-4.346-3.863-4.346-5.348-4.346H49.98V46.829z"/>
		<path fill="#FFFFFF" d="M72.633,53.403c-0.076,3.862,1.521,6.722,5.348,6.722c2.266,0,4.084-1.188,4.383-3.862h3.49
			c-0.111,0.929-0.26,2.451-1.598,3.899c-0.816,0.929-2.674,2.488-6.424,2.488c-5.869,0-8.654-3.64-8.654-9.545
			c0-3.677,0.742-6.722,3.678-8.765c1.781-1.263,4.01-1.374,5.088-1.374c8.355,0,8.17,7.391,8.096,10.437H72.633z M82.475,50.952
			c0.037-1.783-0.297-5.497-4.605-5.497c-2.266,0-5.014,1.374-5.088,5.497H82.475z"/>
		<path fill="#FFFFFF" d="M93.166,56.559c-0.037,1.412,0.705,3.38,4.086,3.38c1.447,0,2.525-0.26,3.268-1.188
			c0.371-0.482,0.594-1.114,0.594-1.745c0-1.82-1.299-2.154-4.084-2.786c-3.9-0.891-7.168-1.671-7.168-5.57
			c0-3.417,2.971-5.646,7.279-5.646c2.34,0,5.607,0.668,6.721,2.896c0.484,1.04,0.484,1.932,0.484,2.712h-3.566
			c0.111-2.823-2.34-3.046-3.602-3.046c-0.521,0-3.789,0-3.789,2.674c0,1.709,1.672,2.117,2.637,2.377
			c5.162,1.226,6.277,1.523,7.391,2.562c1.041,0.966,1.412,2.266,1.412,3.454c0,2.08-1.152,3.863-2.525,4.717
			c-1.635,1.003-3.604,1.263-5.535,1.263c-3.787,0-7.316-1.56-7.279-6.054H93.166z"/>
		<path fill="#FFFFFF" d="M111.844,53.403c-0.074,3.862,1.523,6.722,5.348,6.722c2.266,0,4.086-1.188,4.383-3.862h3.492
			c-0.111,0.929-0.262,2.451-1.598,3.899c-0.816,0.929-2.674,2.488-6.426,2.488c-5.867,0-8.652-3.64-8.652-9.545
			c0-3.677,0.742-6.722,3.676-8.765c1.783-1.263,4.012-1.374,5.088-1.374c8.357,0,8.172,7.391,8.098,10.437H111.844z
			 M121.686,50.952c0.037-1.783-0.297-5.497-4.605-5.497c-2.266,0-5.014,1.374-5.088,5.497H121.686z"/>
		<path fill="#FFFFFF" d="M141.738,62.093c-0.26-0.929-0.334-1.82-0.334-2.785c-1.672,3.082-4.197,3.379-5.758,3.379
			c-4.27,0-6.572-2.414-6.572-5.496c0-1.485,0.52-3.862,3.268-5.46c2.006-1.114,4.977-1.226,6.463-1.226
			c0.891,0,1.447,0.037,2.525,0.111c0-2.303,0-3.305-0.67-4.122c-0.705-0.929-2.227-1.226-3.23-1.226
			c-3.527,0-3.713,2.414-3.75,3.156h-3.492c0.111-0.965,0.223-2.265,1.301-3.527c1.41-1.561,4.047-2.006,6.016-2.006
			c2.711,0,5.607,0.854,6.611,2.748c0.594,1.114,0.631,2.006,0.631,2.86l-0.148,8.913c0,0.297,0.037,2.785,0.297,4.68H141.738z
			 M139.324,52.919c-1.412,0-6.723,0-6.723,3.788c0,1.188,0.742,3.231,3.863,3.231c1.781,0,3.119-0.705,3.973-2.006
			c0.781-1.263,0.818-2.302,0.893-4.902C140.697,52.957,140.178,52.919,139.324,52.919z"/>
		<path fill="#FFFFFF" d="M151.205,47.238c0-1.264-0.074-2.563-0.186-3.789h3.527l0.074,3.603c0.668-2.6,2.896-3.454,4.457-3.677
			c1.039-0.148,1.82-0.111,2.414-0.074v3.417c-0.186-0.074-0.408-0.111-0.668-0.148s-0.594-0.037-1.004-0.037
			c-4.121,0-5.088,2.451-5.088,5.646v9.916h-3.527V47.238z"/>
		<path fill="#FFFFFF" d="M176.086,49.428c-0.074-0.854-0.334-3.899-3.713-3.899c-4.828,0-4.828,5.608-4.828,7.02
			c0,3.825,0.928,7.391,4.641,7.391c2.973,0,3.975-2.229,4.049-4.048h3.529c-0.223,3.64-2.936,6.685-7.541,6.685
			c-1.262,0-4.158-0.26-6.127-2.414c-1.115-1.3-2.229-3.268-2.229-7.131c0-7.762,4.754-10.064,8.469-10.064
			c1.225,0,4.01,0.26,5.719,2.303c1.375,1.597,1.486,3.119,1.561,4.159H176.086z"/>
		<path fill="#FFFFFF" d="M182.174,35.315h3.529v10.883c1.15-1.969,3.453-3.083,6.053-3.083c1.969,0,4.791,0.706,5.869,2.972
			c0.371,0.742,0.631,1.634,0.631,4.345v11.662h-3.566v-11.03c0-1.672,0-5.274-4.01-5.274c-2.6,0-3.9,1.598-4.383,2.488
			c-0.594,1.04-0.594,2.786-0.594,3.938v9.879h-3.529V35.315z"/>
		<path fill="#FFFFFF" d="M206.979,53.403c-0.074,3.862,1.523,6.722,5.348,6.722c2.266,0,4.086-1.188,4.383-3.862h3.492
			c-0.111,0.929-0.262,2.451-1.598,3.899c-0.816,0.929-2.674,2.488-6.426,2.488c-5.867,0-8.652-3.64-8.652-9.545
			c0-3.677,0.742-6.722,3.676-8.765c1.783-1.263,4.012-1.374,5.088-1.374c8.357,0,8.172,7.391,8.098,10.437H206.979z M216.82,50.952
			c0.037-1.783-0.297-5.497-4.605-5.497c-2.266,0-5.014,1.374-5.088,5.497H216.82z"/>
		<path fill="#FFFFFF" d="M225.693,47.238c0-1.264-0.074-2.563-0.186-3.789h3.529l0.074,3.603c0.668-2.6,2.896-3.454,4.457-3.677
			c1.039-0.148,1.818-0.111,2.414-0.074v3.417c-0.188-0.074-0.41-0.111-0.67-0.148s-0.594-0.037-1.002-0.037
			c-4.123,0-5.088,2.451-5.088,5.646v9.916h-3.529V47.238z"/>
	</g>
	<g>
		<path fill="#FFFFFF" d="M266.634,90.704H13.2V13.202h253.434V90.704z M19.8,84.104l240.234-0.001V19.8l-0.001,0.001H19.8V84.104z"
			/>
	</g>
</g>
</svg>
