<?xml version="1.0" encoding="utf-8"?>
<!-- Generator: Adobe Illustrator 16.0.0, SVG Export Plug-In . SVG Version: 6.00 Build 0)  -->
<!DOCTYPE svg PUBLIC "-//W3C//DTD SVG 1.1//EN" "http://www.w3.org/Graphics/SVG/1.1/DTD/svg11.dtd">
<svg version="1.1" id="Layer_1" xmlns="http://www.w3.org/2000/svg" xmlns:xlink="http://www.w3.org/1999/xlink" x="0px" y="0px"
	 width="221.812px" height="123.322px" viewBox="0 0 221.812 123.322" enable-background="new 0 0 221.812 123.322"
	 xml:space="preserve">
<g>
	<g>
		<g>
			<path fill="#307FE2" d="M164.995,123.322c-5.187,0-10.051-0.95-14.343-1.788c-4.809-0.939-9.778-1.911-15.93-1.911
				c-17.576,0-27.023-4.875-34.615-8.791c-5.48-2.83-8.496-4.387-16.461-4.387c-5.224,0-9.929,2.798-15.377,6.038
				c-5.615,3.339-14.098,8.382-24.285,8.383c-10.447,0-19.651-5.169-27.357-15.366C3.161,87.675-1.792,73.38,0.565,59.147
				c2.219-13.389,10.61-25.307,22.225-40.682C31.398,7.071,40.688,1.532,51.189,1.532c6.923,0,13.007,2.428,18.55,5.052
				c4.578,2.167,8.189,3.876,13.901,3.876c8.873,0,12.517-1.493,18.032-3.752c7.294-2.988,16.372-6.707,33.042-6.707L137.971,0
				c26.021,0,30.068,1.094,54.132,14.634c16.931,9.528,26.115,20.199,28.905,33.58c4.062,19.477-7.902,37.376-21.606,55.519
				C189.304,117.098,178.371,123.322,164.995,123.322z M83.646,86.646c12.774,0,19.264,3.35,25.54,6.59
				c6.565,3.388,12.768,6.587,25.536,6.587c8.067,0,14.531,1.263,19.725,2.277c3.741,0.73,7.276,1.421,10.548,1.421
				c4.821,0,10.802-1.393,18.608-11.724c11.262-14.911,20.392-28.181,18.021-39.543c-0.968-4.642-4.015-11.802-19.232-20.367
				C161.309,20.026,160.479,19.8,137.971,19.8l-3.252,0.001c-12.775,0-18.976,2.54-25.54,5.229
				c-6.276,2.571-12.766,5.23-25.538,5.23c-10.161,0-16.928-3.203-22.366-5.777c-3.461-1.638-7.072-3.151-10.085-3.151
				c-1.422,0-5.749,0-12.601,9.069C17.235,58.67,12.474,67.154,32.425,93.564c5.657,7.486,10.083,7.502,11.549,7.502
				c0.004,0,0.007,0,0.01,0c4.746,0,9.968-3.105,14.164-5.6C64.758,91.536,72.981,86.646,83.646,86.646z"/>
		</g>
		<g>
			<path fill="#307FE2" d="M183.602,91.798c-15.395,20.375-23.344,8.025-48.879,8.025c-25.539,0-25.539-13.177-51.076-13.177
				c-25.539,0-35.826,27.292-51.223,6.915C12.049,66.595,18.217,57.37,38.59,30.4c15.393-20.375,19.514-0.14,45.051-0.14
				s25.537-10.458,51.076-10.458c25.537,0,25.422-0.436,47.678,12.089C212.473,48.819,203.975,64.827,183.602,91.798"/>
		</g>
		<g>
			<path fill="#FFFFFF" d="M164.977,106.832c-3.516,0-7.06-0.692-11.162-1.493c-5.317-1.038-11.344-2.215-19.092-2.215
				c-13.571,0-20.425-3.536-27.053-6.956c-6.2-3.199-12.057-6.221-24.023-6.221c-9.759,0-17.226,4.439-23.813,8.356
				c-5.289,3.145-10.284,6.114-15.577,6.115c-5.225,0-9.957-2.9-14.465-8.867C7.513,66.065,15.839,55.042,35.957,28.411
				c5.435-7.194,10.225-10.403,15.531-10.403c3.817,0,7.234,1.618,11.19,3.49c5.409,2.561,11.54,5.462,20.962,5.462
				c12.119,0,18.029-2.42,24.286-4.983c6.573-2.692,13.371-5.475,26.79-5.475l4.67-0.002c21.551,0,23.219,0.468,44.626,12.515
				c12.475,7.021,19.098,14.191,20.845,22.566c2.652,12.719-6.864,26.64-18.623,42.206
				C179.234,103.053,173.075,106.832,164.977,106.832z M83.646,83.347c13.569,0,20.423,3.536,27.05,6.956
				c6.201,3.199,12.058,6.221,24.026,6.221c8.386,0,15.023,1.296,20.357,2.337c3.766,0.735,7.019,1.371,9.896,1.371
				c4.872,0,9.456-1.772,15.992-10.423c12.766-16.901,19.325-27.785,17.428-36.88c-1.33-6.374-6.929-12.145-17.62-18.162
				c-20.345-11.449-21.118-11.667-41.39-11.667l-4.67,0.001c-12.12,0-18.031,2.42-24.289,4.983
				c-6.572,2.691-13.369,5.475-26.787,5.475c-10.905,0-18.35-3.523-23.785-6.097c-3.371-1.595-6.033-2.855-8.367-2.855
				c-2.042,0-5.056,0.885-10.266,7.781c-19.541,25.869-25.438,33.676-6.166,59.184c4.229,5.598,7.276,6.245,9.199,6.245
				c3.479,0,7.522-2.404,12.204-5.188C63.417,88.494,72.074,83.347,83.646,83.347z"/>
		</g>
	</g>
	<g>
		<path fill="#FFFFFF" d="M60.523,44.112h15.969v3.157H64.311v8.356h11.477v3.12H64.311v12.182h-3.787V44.112z"/>
		<path fill="#FFFFFF" d="M91.568,70.927c-0.26-0.929-0.334-1.82-0.334-2.785c-1.672,3.082-4.197,3.379-5.758,3.379
			c-4.27,0-6.572-2.414-6.572-5.496c0-1.485,0.52-3.862,3.268-5.46c2.006-1.114,4.977-1.226,6.463-1.226
			c0.891,0,1.447,0.037,2.525,0.111c0-2.303,0-3.305-0.67-4.122c-0.705-0.929-2.227-1.226-3.23-1.226
			c-3.527,0-3.713,2.414-3.75,3.156h-3.492c0.111-0.965,0.223-2.265,1.301-3.527c1.41-1.561,4.047-2.006,6.016-2.006
			c2.711,0,5.607,0.854,6.611,2.748c0.594,1.114,0.631,2.006,0.631,2.86l-0.148,8.913c0,0.297,0.037,2.785,0.297,4.68H91.568z
			 M89.154,61.753c-1.412,0-6.723,0-6.723,3.788c0,1.188,0.742,3.231,3.863,3.231c1.781,0,3.119-0.705,3.973-2.006
			c0.781-1.263,0.818-2.302,0.893-4.902C90.527,61.791,90.008,61.753,89.154,61.753z"/>
		<path fill="#FFFFFF" d="M97.99,52.208h3.305v-3.899l3.455-1.114v5.014h4.16v2.562h-4.16v11.18c0,0.929,0,2.488,2.488,2.488
			c0.705,0,1.373-0.111,1.672-0.186v2.711c-0.633,0.111-1.635,0.223-2.898,0.223c-3.193,0-4.717-0.929-4.717-3.974V54.771H97.99
			V52.208z"/>
		<path fill="#FFFFFF" d="M113.215,44.149h3.527v10.883c1.152-1.969,3.455-3.083,6.055-3.083c1.967,0,4.791,0.706,5.867,2.972
			c0.371,0.742,0.631,1.634,0.631,4.345v11.662h-3.564v-11.03c0-1.672,0-5.274-4.012-5.274c-2.6,0-3.898,1.598-4.383,2.488
			c-0.594,1.04-0.594,2.786-0.594,3.938v9.879h-3.527V44.149z"/>
		<path fill="#FFFFFF" d="M138.02,62.237c-0.074,3.862,1.523,6.722,5.348,6.722c2.266,0,4.086-1.188,4.383-3.862h3.492
			c-0.111,0.929-0.262,2.451-1.598,3.899c-0.816,0.929-2.674,2.488-6.426,2.488c-5.867,0-8.652-3.64-8.652-9.545
			c0-3.677,0.742-6.722,3.676-8.765c1.783-1.263,4.012-1.374,5.088-1.374c8.357,0,8.172,7.391,8.098,10.437H138.02z M147.861,59.786
			c0.037-1.783-0.297-5.497-4.605-5.497c-2.266,0-5.014,1.374-5.088,5.497H147.861z"/>
		<path fill="#FFFFFF" d="M156.734,56.072c0-1.264-0.074-2.563-0.186-3.789h3.529l0.074,3.603c0.668-2.6,2.896-3.454,4.457-3.677
			c1.039-0.148,1.818-0.111,2.414-0.074v3.417c-0.188-0.074-0.41-0.111-0.67-0.148s-0.594-0.037-1.002-0.037
			c-4.123,0-5.088,2.451-5.088,5.646v9.916h-3.529V56.072z"/>
	</g>
</g>
</svg>
