<?xml version="1.0" encoding="utf-8"?>
<!-- Generator: Adobe Illustrator 16.0.0, SVG Export Plug-In . SVG Version: 6.00 Build 0)  -->
<!DOCTYPE svg PUBLIC "-//W3C//DTD SVG 1.1//EN" "http://www.w3.org/Graphics/SVG/1.1/DTD/svg11.dtd">
<svg version="1.1" id="Layer_1" xmlns="http://www.w3.org/2000/svg" xmlns:xlink="http://www.w3.org/1999/xlink" x="0px" y="0px"
	 width="295.378px" height="122.483px" viewBox="0 0 295.378 122.483" enable-background="new 0 0 295.378 122.483"
	 xml:space="preserve">
<g>
	<g>
		<path fill="#307FE2" d="M137.178,122.483l-13.792-17.341l-16.65,14.78l-12.179-18.813l-18.609,13.091l-9.783-21.078L43.35,103.287
			l-3.17-27.928L0,61.248l40.191-14.13l3.177-27.931l22.814,10.167l9.781-21.083l18.593,13.099l12.165-18.812l16.655,14.787
			l13.796-17.34l15.185,16.089L167.539,0l13.792,17.342l16.654-14.787l12.179,18.821l18.607-13.092l9.783,21.08l22.813-10.166
			l3.171,27.929l40.177,14.113l-40.189,14.129l-3.177,27.935l-22.815-10.171l-9.78,21.083l-18.591-13.097l-12.165,18.81
			l-16.656-14.785l-13.797,17.339l-15.184-16.088L137.178,122.483z M152.358,77.542l13.912,14.74l12.589-15.821l15.036,13.348
			l10.829-16.745l16.047,11.305l8.01-17.265l15.948,7.11l1.48-13.016l-1.467-12.916l-15.94,7.104l-8.017-17.273l-16.062,11.302
			L193.888,32.67l-15.042,13.356l-12.582-15.82l-13.903,14.737l-13.913-14.741L125.86,46.024l-15.036-13.348L99.996,49.421
			L83.945,38.113l-8.009,17.263L59.988,48.27l-1.48,13.01l1.468,12.925l15.94-7.102l8.017,17.272l16.062-11.299l10.835,16.737
			l15.042-13.353l12.582,15.819L152.358,77.542z"/>
	</g>
	<g>
		<polygon fill="#307FE2" points="274.854,61.243 255.39,68.085 253.039,88.758 233.657,80.118 224.762,99.292 207.443,87.09 
			195.946,104.868 180.1,90.801 166.907,107.381 152.359,91.967 137.816,107.381 124.629,90.801 108.783,104.868 97.276,87.092 
			79.94,99.288 71.041,80.113 51.663,88.746 49.316,68.075 29.863,61.243 49.327,54.4 51.678,33.728 71.059,42.365 79.954,23.192 
			97.276,35.395 108.772,17.617 124.618,31.684 137.811,15.103 152.359,30.518 166.901,15.103 180.088,31.684 195.937,17.613 
			207.443,35.395 224.778,23.198 233.678,42.375 253.055,33.74 255.402,54.41 		"/>
	</g>
	<g>
		<path fill="#FFFFFF" d="M137.657,111.157l-13.338-16.77l-16.047,14.245L96.597,90.597l-17.654,12.419l-9.121-19.65l-20.237,9.016
			l-2.553-22.485l-24.635-8.652l24.646-8.665l2.557-22.486l20.239,9.019l9.117-19.65l17.64,12.427l11.664-18.037l16.048,14.248
			l13.343-16.771l14.708,15.583l14.702-15.584l13.338,16.771l16.05-14.25l11.675,18.042l17.653-12.421l9.121,19.652l20.236-9.018
			l2.553,22.485l24.633,8.653l-24.646,8.665l-2.558,22.488l-20.24-9.023l-9.116,19.651l-17.637-12.425l-11.664,18.036
			l-16.048-14.246l-13.344,16.77L152.36,95.574L137.657,111.157z M152.359,88.361l14.389,15.245l13.042-16.39l15.644,13.887
			l11.33-17.519l17,11.977l8.674-18.697l18.523,8.258l2.145-18.858l14.283-5.021l-14.271-5.013l-2.141-18.855l-18.518,8.252
			l-8.679-18.701L206.763,38.9l-11.339-17.522L179.778,35.27l-13.036-16.391L152.36,34.125l-14.39-15.247l-13.042,16.391
			l-15.643-13.888l-11.329,17.52L80.952,26.922l-8.673,18.695l-18.522-8.254L51.611,56.22l-14.282,5.021l14.271,5.012l2.141,18.856
			l18.518-8.25l8.679,18.699l17.018-11.972l11.339,17.516l15.645-13.888l13.036,16.39L152.359,88.361z"/>
	</g>
	<g>
		<path fill="#FFFFFF" d="M88.12,44.966h7.762c3.603,0,7.836,0,10.808,3.491c2.377,2.785,3.305,6.462,3.305,10.139
			c0,5.794-2.414,9.359-4.457,10.993c-2.637,2.191-5.942,2.191-9.879,2.191H88.12V44.966z M91.833,68.736h3.64
			c2.562,0,5.237-0.148,7.02-1.486c3.417-2.562,3.528-6.945,3.528-8.505c0-1.003-0.074-5.571-2.6-8.356
			c-1.708-1.894-3.862-2.34-7.131-2.34h-4.457V68.736z"/>
		<path fill="#FFFFFF" d="M126.294,71.781c-0.26-0.929-0.334-1.82-0.334-2.786c-1.671,3.083-4.197,3.38-5.757,3.38
			c-4.271,0-6.574-2.414-6.574-5.497c0-1.486,0.52-3.863,3.269-5.459c2.005-1.114,4.977-1.226,6.462-1.226
			c0.891,0,1.448,0.037,2.525,0.111c0-2.303,0-3.306-0.668-4.123c-0.706-0.929-2.229-1.226-3.231-1.226
			c-3.528,0-3.714,2.414-3.751,3.157h-3.491c0.111-0.966,0.223-2.266,1.3-3.528c1.412-1.56,4.048-2.005,6.017-2.005
			c2.711,0,5.608,0.854,6.611,2.748c0.594,1.114,0.631,2.006,0.631,2.86l-0.149,8.914c0,0.297,0.038,2.786,0.297,4.68H126.294z
			 M123.88,62.608c-1.412,0-6.723,0-6.723,3.788c0,1.188,0.743,3.231,3.863,3.231c1.783,0,3.12-0.706,3.974-2.005
			c0.78-1.263,0.817-2.303,0.892-4.902C125.254,62.645,124.734,62.608,123.88,62.608z"/>
		<path fill="#FFFFFF" d="M135.538,55.625l-0.074-2.488h3.528v2.711c1.783-2.934,4.309-3.194,5.905-3.194
			c4.123,0,5.422,2.117,6.091,3.491c0.632-1.04,2.154-3.491,6.277-3.491c2.674,0,6.833,1.114,6.833,6.611v12.516h-3.528V59.822
			c0-1.634-0.297-2.34-0.631-2.823c-0.595-0.854-1.783-1.634-3.565-1.634c-2.266,0-3.491,1.3-3.974,1.969
			c-0.817,1.151-0.817,3.194-0.817,4.011v10.437h-3.528V59.451c0-2.303-1.337-4.085-4.085-4.085c-2.377,0-3.677,1.486-4.085,2.043
			c-0.78,1.077-0.817,2.6-0.817,3.788v10.585h-3.528V55.625z"/>
		<path fill="#FFFFFF" d="M170.294,45.041h4.197v3.825h-4.197V45.041z M170.666,53.137h3.491v18.644h-3.491V53.137z"/>
		<path fill="#FFFFFF" d="M183.068,63.09c-0.074,3.863,1.523,6.723,5.348,6.723c2.266,0,4.085-1.188,4.382-3.863h3.491
			c-0.111,0.929-0.26,2.451-1.597,3.9c-0.817,0.928-2.674,2.488-6.425,2.488c-5.868,0-8.654-3.64-8.654-9.545
			c0-3.677,0.743-6.722,3.677-8.765c1.783-1.263,4.011-1.374,5.088-1.374c8.356,0,8.171,7.391,8.097,10.436H183.068z
			 M192.911,60.639c0.037-1.783-0.297-5.497-4.605-5.497c-2.266,0-5.014,1.374-5.088,5.497H192.911z"/>
		<path fill="#FFFFFF" d="M201.709,55.291l-0.037-2.154h3.491l0.038,3.008c0.408-0.78,1.746-3.38,5.979-3.38
			c1.671,0,6.759,0.631,6.759,6.351v12.665h-3.565V59.934c0-1.226-0.148-2.34-1.003-3.194c-0.891-0.854-2.117-1.263-3.305-1.263
			c-2.526,0-4.865,1.82-4.865,5.571v10.733h-3.491V55.291z"/>
	</g>
</g>
<g>
	<g>
		<path fill="#307FE2" d="M389.991,127.227l-8.914-19.441l-14.812,15.887l-5.477-21.41l-18.827,13.307l-0.085-24.077l-26.217,7.93
			l12.624-26.67l-32.904-11.727l32.917-11.744l-12.609-26.68l26.206,7.934l0.084-24.089l18.816,13.319l5.469-21.399l14.808,15.888
			l8.906-19.437l11.771,17.718l11.765-17.728l8.914,19.449l14.811-15.884l5.477,21.407l18.83-13.308l0.082,24.08l26.217-7.929
			l-12.623,26.667l32.909,11.728l-32.923,11.741l12.607,26.678l-26.204-7.929l-0.08,24.084l-18.818-13.315l-5.471,21.407
			l-14.807-15.894l-8.908,19.432l-11.77-17.715L389.991,127.227z M401.747,73.715l8.595,12.935l6.418-14l10.268,11.022l3.625-14.184
			l11.203,7.927l0.042-12.561l8.954,2.709l-2.889-6.113l1.201-0.429l-1.202-0.429l2.887-6.1l-8.935,2.702l-0.042-12.579
			l-11.214,7.925l-3.63-14.19l-10.284,11.028L410.335,35.4l-8.58,12.928l-8.594-12.935l-6.413,13.997l-10.274-11.024l-3.627,14.191
			l-11.205-7.931l-0.044,12.563l-8.947-2.709l2.885,6.105l-1.207,0.43l1.21,0.431l-2.888,6.101l8.93-2.701l0.044,12.577
			l11.217-7.929l3.63,14.191l10.278-11.025l6.412,13.983L401.747,73.715z"/>
	</g>
</g>
</svg>
