<?xml version="1.0" encoding="utf-8"?>
<!-- Generator: Adobe Illustrator 16.0.0, SVG Export Plug-In . SVG Version: 6.00 Build 0)  -->
<!DOCTYPE svg PUBLIC "-//W3C//DTD SVG 1.1//EN" "http://www.w3.org/Graphics/SVG/1.1/DTD/svg11.dtd">
<svg version="1.1" id="Layer_1" xmlns="http://www.w3.org/2000/svg" xmlns:xlink="http://www.w3.org/1999/xlink" x="0px" y="0px"
	 width="260.877px" height="126px" viewBox="0 0 260.877 126" enable-background="new 0 0 260.877 126" xml:space="preserve">
<g>
	<g>
		<path fill="#307FE2" d="M117.099,126l-11.512-17.904l-15.286,15.068l-9.367-19.557L63.04,116.762l-6.091-22.109l-23.539,9.648
			l3.325-28.137L0,63.002l36.742-13.168l-3.309-28.141l23.522,9.648L63.04,9.225l17.889,13.166L90.29,2.836l15.287,15.073
			l11.52-17.902l13.338,16.511L143.773,0l11.513,17.907L170.572,2.84l9.364,19.553l17.895-13.161l6.09,22.115l23.541-9.647
			l-3.325,28.138l36.74,13.158l-36.746,13.174l3.315,28.139l-23.528-9.649l-6.081,22.115l-17.891-13.164l-9.355,19.553
			l-15.294-15.072l-11.519,17.905l-13.34-16.513L117.099,126z M130.435,77.972l11.521,14.26l9.876-15.353l12.882,12.693
			l7.697-16.088l13.969,10.278l4.374-15.903l13.093,5.37l-1.222-10.064l0.018-0.155l-0.019-0.165l0.04-0.014l1.188-10.058
			l-13.09,5.365l-4.381-15.907L172.405,52.51l-7.702-16.083l-12.886,12.701l-9.868-15.351l-11.511,14.255l-11.521-14.263
			l-9.883,15.356L96.159,36.43l-7.701,16.086L74.493,42.239l-4.375,15.902L57.023,52.77l1.224,10.069l-0.02,0.172l0.017,0.148
			l-0.036,0.013L57.02,73.226l13.088-5.364l4.382,15.908l13.976-10.275l7.703,16.083l12.886-12.702l9.869,15.35L130.435,77.972z"/>
	</g>
	<g>
		<polygon fill="#307FE2" points="231.527,63 213.377,69.507 215.646,88.769 197.336,81.259 192.108,100.268 176.179,88.547 
			167.652,106.368 153.564,92.485 142.867,109.114 130.437,93.727 118.011,109.114 107.32,92.487 93.234,106.372 84.699,88.551 
			68.765,100.266 63.528,81.257 45.215,88.763 47.491,69.501 29.347,63 47.493,56.497 45.229,37.231 63.537,44.741 68.767,25.732 
			84.693,37.454 93.225,19.633 107.306,33.517 118.007,16.888 130.437,32.275 142.861,16.888 153.552,33.517 167.638,19.633 
			176.171,37.452 192.106,25.732 197.342,44.743 215.657,37.237 213.381,56.501 		"/>
	</g>
	<g>
		<path fill="#FFFFFF" d="M117.782,113.335l-10.896-16.946L92.501,110.57l-8.743-18.254L67.334,104.39l-5.45-19.784l-19.62,8.041
			l2.538-21.48L22.01,63.001l22.796-8.17L42.28,33.346l19.611,8.044l5.443-19.786l16.417,12.083l8.739-18.254l14.382,14.181
			l10.906-16.947l12.657,15.668l12.653-15.67l10.896,16.949l14.386-14.18l8.741,18.252l16.426-12.08l5.448,19.787l19.622-8.042
			l-2.538,21.483L238.864,63l-22.799,8.173l2.531,21.481l-19.615-8.044l-5.441,19.785l-16.419-12.082l-8.734,18.253l-14.39-14.18
			l-10.902,16.948l-12.658-15.668L117.782,113.335z M130.437,89.788l12.203,15.105l10.492-16.31l13.786,13.585l8.318-17.387
			l15.44,11.36l5.014-18.232l17.006,6.975l-2.008-17.042l13.502-4.84l-13.499-4.834l2.015-17.046l-17.009,6.97l-5.022-18.234
			l-15.445,11.359l-8.325-17.385l-13.786,13.588L142.633,21.11l-12.196,15.104l-12.202-15.105l-10.496,16.311l-13.78-13.586
			l-8.323,17.387L70.198,29.858l-5.016,18.232l-17.006-6.975l2.004,17.047L36.684,63l13.497,4.836l-2.015,17.043l17.007-6.97
			l5.022,18.233l15.445-11.355l8.327,17.386l13.786-13.589l10.485,16.308L130.437,89.788z"/>
	</g>
	<g>
		<path fill="#FFFFFF" d="M78.413,49.344l5.793,22.061l6.389-22.061H95.2l6.054,22.247l6.091-22.247h3.64l-7.948,26.815h-4.122
			l-6.202-22.916l-6.648,22.916h-4.011l-7.614-26.815H78.413z"/>
		<path fill="#FFFFFF" d="M123.865,76.159c-0.26-0.929-0.334-1.82-0.334-2.786c-1.671,3.083-4.196,3.38-5.757,3.38
			c-4.271,0-6.573-2.414-6.573-5.497c0-1.486,0.52-3.863,3.268-5.459c2.006-1.114,4.978-1.226,6.463-1.226
			c0.892,0,1.448,0.038,2.525,0.112c0-2.303,0-3.306-0.669-4.123c-0.705-0.929-2.228-1.226-3.23-1.226
			c-3.528,0-3.714,2.414-3.751,3.157h-3.491c0.111-0.966,0.223-2.266,1.3-3.528c1.411-1.56,4.048-2.005,6.017-2.005
			c2.711,0,5.607,0.854,6.61,2.748c0.595,1.114,0.632,2.006,0.632,2.86l-0.148,8.914c0,0.297,0.037,2.786,0.297,4.68H123.865z
			 M121.451,66.986c-1.411,0-6.722,0-6.722,3.788c0,1.188,0.742,3.231,3.862,3.231c1.782,0,3.12-0.706,3.974-2.005
			c0.78-1.263,0.817-2.303,0.892-4.902C122.825,67.023,122.306,66.986,121.451,66.986z"/>
		<path fill="#FFFFFF" d="M133.222,49.381h3.491v26.778h-3.491V49.381z"/>
		<path fill="#FFFFFF" d="M140.609,57.44h3.306v-3.899l3.454-1.114v5.014h4.16v2.563h-4.16v11.179c0,0.928,0,2.488,2.488,2.488
			c0.706,0,1.374-0.111,1.672-0.186v2.711c-0.632,0.111-1.635,0.223-2.897,0.223c-3.194,0-4.717-0.928-4.717-3.974V60.003h-3.306
			V57.44z"/>
		<path fill="#FFFFFF" d="M157.952,67.468c-0.075,3.863,1.522,6.723,5.348,6.723c2.266,0,4.085-1.188,4.383-3.863h3.491
			c-0.111,0.929-0.261,2.451-1.598,3.9c-0.816,0.928-2.674,2.488-6.425,2.488c-5.868,0-8.653-3.64-8.653-9.545
			c0-3.677,0.742-6.722,3.677-8.765c1.782-1.263,4.011-1.374,5.088-1.374c8.356,0,8.171,7.391,8.097,10.436H157.952z
			 M167.794,65.017c0.037-1.783-0.297-5.497-4.605-5.497c-2.266,0-5.014,1.374-5.088,5.497H167.794z"/>
		<path fill="#FFFFFF" d="M176.667,61.303c0-1.263-0.074-2.562-0.186-3.788h3.528l0.074,3.603c0.668-2.6,2.896-3.454,4.457-3.677
			c1.039-0.148,1.819-0.111,2.414-0.074v3.417c-0.187-0.074-0.409-0.111-0.669-0.148s-0.594-0.037-1.003-0.037
			c-4.122,0-5.088,2.451-5.088,5.645v9.917h-3.528V61.303z"/>
	</g>
</g>
</svg>
