<?xml version="1.0" encoding="utf-8"?>
<!-- Generator: Adobe Illustrator 16.0.0, SVG Export Plug-In . SVG Version: 6.00 Build 0)  -->
<!DOCTYPE svg PUBLIC "-//W3C//DTD SVG 1.1//EN" "http://www.w3.org/Graphics/SVG/1.1/DTD/svg11.dtd">
<svg version="1.1" id="Layer_1" xmlns="http://www.w3.org/2000/svg" xmlns:xlink="http://www.w3.org/1999/xlink" x="0px" y="0px"
	 width="309.77px" height="100.93px" viewBox="0 0 309.77 100.93" enable-background="new 0 0 309.77 100.93" xml:space="preserve">
<g>
	<g>
		<path fill="#307FE2" d="M255.363,100.93H54.291L0,50.342L54.325,0h201.234l54.21,51.234L255.363,100.93z M62.087,81.13
			l185.599-0.001l32.998-30.143l-0.001-0.001l-33-31.185H62.087l0,0l-33,30.582L62.087,81.13L62.087,81.13z"/>
	</g>
	<g>
		<polygon fill="#307FE2" points="59.843,17.378 26.843,47.961 24.237,50.375 26.837,52.795 59.837,83.543 60.787,84.429 
			62.086,84.429 247.682,84.429 248.962,84.429 249.908,83.566 282.908,53.422 285.53,51.028 282.949,48.587 249.949,17.401 
			248.995,16.5 247.682,16.5 62.086,16.5 60.792,16.5 		"/>
	</g>
	<g>
		<path fill="#FFFFFF" d="M250.241,87.729H59.488l-40.1-37.359L59.499,13.2h190.809l40.07,37.87L250.241,87.729z M62.086,81.129
			l185.598-0.001l32.999-30.142l0,0l-33-31.186l-185.597,0L29.086,50.382L62.086,81.129L62.086,81.129z"/>
	</g>
	<g>
		<path fill="#FFFFFF" d="M68.62,53.232c0.037,0.929,0.037,2.08,0.594,2.934c0.446,0.706,1.561,1.635,3.454,1.635
			c1.523,0,2.935-0.632,3.715-1.895c0.631-1.077,0.631-2.785,0.631-3.603V33.696h3.714v19.61c0,4.939-3.899,7.613-8.319,7.613
			c-1.411,0-4.531-0.334-6.388-2.785c-1.263-1.708-1.337-3.825-1.337-4.902H68.62z"/>
		<path fill="#FFFFFF" d="M95.208,41.384c7.465,0,9.136,5.868,9.136,9.768c0,5.46-3.082,9.991-9.434,9.991
			c-6.165,0-9.173-4.271-9.173-9.731C85.738,46.806,87.891,41.384,95.208,41.384z M94.985,58.542c2.638,0,5.646-1.894,5.646-7.502
			c0-4.643-2.154-7.094-5.422-7.094c-2.229,0-5.831,1.411-5.831,7.242C89.377,55.014,91.011,58.542,94.985,58.542z"/>
		<path fill="#FFFFFF" d="M112.994,41.867v11.996c0,1.82,0.409,4.123,3.975,4.123c1.745,0,3.38-0.595,4.382-2.08
			c0.78-1.114,0.78-2.562,0.78-3.491V41.867h3.603V57.02c0,0.371,0.074,2.451,0.111,3.491h-3.64l-0.074-3.194
			c-0.668,1.3-1.932,3.38-5.942,3.38c-4.605,0-6.76-2.637-6.76-6.313V41.867H112.994z"/>
		<path fill="#FFFFFF" d="M132.673,45.656c0-1.264-0.074-2.563-0.186-3.789h3.528l0.074,3.603c0.668-2.6,2.896-3.454,4.457-3.677
			c1.039-0.148,1.819-0.111,2.414-0.074v3.417c-0.187-0.074-0.409-0.111-0.669-0.148s-0.594-0.037-1.003-0.037
			c-4.122,0-5.088,2.451-5.088,5.646v9.916h-3.528V45.656z"/>
		<path fill="#FFFFFF" d="M147.044,44.021l-0.037-2.154h3.491l0.037,3.009c0.408-0.78,1.745-3.38,5.979-3.38
			c1.671,0,6.76,0.632,6.76,6.351v12.665h-3.566V48.664c0-1.226-0.148-2.34-1.002-3.194c-0.892-0.854-2.117-1.263-3.306-1.263
			c-2.525,0-4.865,1.82-4.865,5.571v10.733h-3.491V44.021z"/>
		<path fill="#FFFFFF" d="M180.985,60.511c-0.26-0.929-0.334-1.82-0.334-2.785c-1.671,3.082-4.196,3.379-5.757,3.379
			c-4.271,0-6.573-2.414-6.573-5.496c0-1.485,0.52-3.862,3.268-5.46c2.006-1.114,4.978-1.226,6.463-1.226
			c0.892,0,1.448,0.037,2.525,0.111c0-2.303,0-3.305-0.669-4.122c-0.705-0.929-2.228-1.226-3.23-1.226
			c-3.528,0-3.714,2.414-3.751,3.156h-3.491c0.111-0.965,0.223-2.265,1.3-3.527c1.411-1.561,4.048-2.006,6.017-2.006
			c2.711,0,5.607,0.854,6.61,2.748c0.595,1.114,0.632,2.006,0.632,2.86l-0.148,8.913c0,0.297,0.037,2.785,0.297,4.68H180.985z
			 M178.571,51.337c-1.411,0-6.722,0-6.722,3.788c0,1.188,0.742,3.231,3.862,3.231c1.782,0,3.12-0.705,3.974-2.006
			c0.78-1.263,0.817-2.302,0.892-4.902C179.945,51.375,179.425,51.337,178.571,51.337z"/>
		<path fill="#FFFFFF" d="M190.341,33.733h3.491v26.778h-3.491V33.733z"/>
		<path fill="#FFFFFF" d="M200.254,33.771h4.197v3.825h-4.197V33.771z M200.626,41.867h3.491v18.645h-3.491V41.867z"/>
		<path fill="#FFFFFF" d="M212.917,54.977c-0.037,1.412,0.706,3.38,4.086,3.38c1.448,0,2.525-0.26,3.269-1.188
			c0.371-0.482,0.594-1.114,0.594-1.745c0-1.82-1.3-2.154-4.085-2.786c-3.9-0.891-7.168-1.671-7.168-5.57
			c0-3.417,2.971-5.646,7.279-5.646c2.34,0,5.607,0.668,6.722,2.896c0.483,1.04,0.483,1.932,0.483,2.712h-3.565
			c0.111-2.823-2.34-3.046-3.603-3.046c-0.521,0-3.788,0-3.788,2.674c0,1.709,1.671,2.117,2.637,2.377
			c5.162,1.226,6.276,1.523,7.391,2.562c1.04,0.966,1.411,2.266,1.411,3.454c0,2.08-1.151,3.863-2.525,4.717
			c-1.634,1.003-3.603,1.263-5.534,1.263c-3.788,0-7.316-1.56-7.279-6.054H212.917z"/>
		<path fill="#FFFFFF" d="M226.619,41.792h3.306v-3.899l3.454-1.114v5.014h4.16v2.562h-4.16v11.18c0,0.929,0,2.488,2.488,2.488
			c0.706,0,1.374-0.111,1.672-0.186v2.711c-0.632,0.111-1.635,0.223-2.897,0.223c-3.194,0-4.717-0.929-4.717-3.974V44.355h-3.306
			V41.792z"/>
	</g>
</g>
</svg>
