<?xml version="1.0" encoding="utf-8"?>
<!-- Generator: Adobe Illustrator 16.0.0, SVG Export Plug-In . SVG Version: 6.00 Build 0)  -->
<!DOCTYPE svg PUBLIC "-//W3C//DTD SVG 1.1//EN" "http://www.w3.org/Graphics/SVG/1.1/DTD/svg11.dtd">
<svg version="1.1" id="Layer_1" xmlns="http://www.w3.org/2000/svg" xmlns:xlink="http://www.w3.org/1999/xlink" x="0px" y="0px"
	 width="389.46px" height="102.206px" viewBox="0 0 389.46 102.206" enable-background="new 0 0 389.46 102.206"
	 xml:space="preserve">
<g>
	<g>
		<path fill="#307FE2" d="M335.051,100.929H54.311L0,50.464L54.309,0h280.938l54.214,51.228L335.051,100.929z M62.084,81.129
			l265.29-0.002l32.998-30.144l-0.002-0.001L327.371,19.8l-265.285,0l-33,30.665L62.084,81.129L62.084,81.129z"/>
	</g>
	<g>
		<polygon fill="#307FE2" points="59.842,17.382 26.842,48.046 24.238,50.464 26.842,52.881 59.842,83.547 60.789,84.429 
			62.086,84.429 327.371,84.429 328.652,84.429 329.598,83.565 362.598,53.418 365.221,51.022 362.639,48.583 329.639,17.401 
			328.684,16.499 327.371,16.499 62.086,16.499 60.791,16.499 		"/>
	</g>
	<g>
		<path fill="#FFFFFF" d="M329.933,87.729H59.491L19.389,50.464l40.105-37.265h270.502l40.073,37.864L329.933,87.729z
			 M62.086,81.129h265.286l33-30.147l-33.001-31.183H62.086L29.088,50.463l33,30.666L62.086,81.129z"/>
	</g>
	<g>
		<path fill="#FFFFFF" d="M84.046,40.811c-0.148-0.928-0.631-4.643-5.794-4.643c-6.462,0-7.613,6.611-7.613,11.068
			c0,5.051,1.448,10.511,7.576,10.511c1.635,0,3.194-0.409,4.346-1.597c0.966-1.04,1.188-2.191,1.3-2.823h4.086
			c-0.558,5.274-5.423,7.465-10.028,7.465c-9.434,0-11.253-8.319-11.253-13.519c0-5.646,2.191-14.076,11.736-14.076
			c3.788,0,9.136,1.523,9.619,7.614H84.046z"/>
		<path fill="#FFFFFF" d="M95.852,41.74v11.996c0,1.82,0.409,4.123,3.975,4.123c1.745,0,3.38-0.594,4.382-2.08
			c0.78-1.114,0.78-2.562,0.78-3.491V41.74h3.603v15.153c0,0.372,0.074,2.451,0.111,3.491h-3.64l-0.074-3.194
			c-0.668,1.3-1.932,3.379-5.942,3.379c-4.605,0-6.76-2.637-6.76-6.313V41.74H95.852z"/>
		<path fill="#FFFFFF" d="M115.421,33.606h3.491v26.778h-3.491V33.606z"/>
		<path fill="#FFFFFF" d="M122.809,41.665h3.306v-3.899l3.454-1.114v5.014h4.16v2.563h-4.16v11.179c0,0.928,0,2.488,2.488,2.488
			c0.706,0,1.374-0.111,1.672-0.186v2.711c-0.632,0.111-1.635,0.223-2.897,0.223c-3.194,0-4.717-0.928-4.717-3.974V44.228h-3.306
			V41.665z"/>
		<path fill="#FFFFFF" d="M141.228,41.74v11.996c0,1.82,0.409,4.123,3.975,4.123c1.745,0,3.38-0.594,4.382-2.08
			c0.78-1.114,0.78-2.562,0.78-3.491V41.74h3.603v15.153c0,0.372,0.074,2.451,0.111,3.491h-3.64l-0.074-3.194
			c-0.668,1.3-1.931,3.379-5.942,3.379c-4.605,0-6.76-2.637-6.76-6.313V41.74H141.228z"/>
		<path fill="#FFFFFF" d="M160.908,45.528c0-1.263-0.074-2.562-0.186-3.788h3.528l0.074,3.603c0.668-2.6,2.896-3.454,4.457-3.677
			c1.039-0.148,1.819-0.111,2.414-0.074v3.417c-0.187-0.074-0.409-0.111-0.669-0.148s-0.594-0.037-1.003-0.037
			c-4.122,0-5.088,2.451-5.088,5.645v9.917h-3.528V45.528z"/>
		<path fill="#FFFFFF" d="M186.531,60.384c-0.26-0.929-0.334-1.82-0.334-2.786c-1.671,3.083-4.197,3.38-5.757,3.38
			c-4.271,0-6.573-2.414-6.573-5.497c0-1.486,0.52-3.863,3.268-5.459c2.006-1.114,4.978-1.226,6.463-1.226
			c0.892,0,1.448,0.038,2.525,0.112c0-2.303,0-3.306-0.669-4.123c-0.705-0.929-2.228-1.226-3.23-1.226
			c-3.528,0-3.714,2.414-3.751,3.157h-3.491c0.111-0.966,0.223-2.266,1.3-3.528c1.411-1.56,4.048-2.005,6.017-2.005
			c2.711,0,5.607,0.854,6.61,2.748c0.595,1.114,0.632,2.006,0.632,2.86l-0.148,8.914c0,0.297,0.037,2.786,0.297,4.68H186.531z
			 M184.117,51.21c-1.411,0-6.722,0-6.722,3.788c0,1.188,0.742,3.231,3.862,3.231c1.782,0,3.119-0.706,3.974-2.005
			c0.78-1.263,0.817-2.303,0.892-4.902C185.491,51.248,184.972,51.21,184.117,51.21z"/>
		<path fill="#FFFFFF" d="M195.888,33.606h3.491v26.778h-3.491V33.606z"/>
		<path fill="#FFFFFF" d="M222.996,33.569h3.974l10.845,26.815h-4.048l-2.897-6.982h-12.441l-2.896,6.982h-3.826L222.996,33.569z
			 M219.616,50.393h10.139l-4.939-13.147L219.616,50.393z"/>
		<path fill="#FFFFFF" d="M244.792,61.832c0.148,2.08,1.039,3.64,4.345,3.64c4.865,0,4.939-3.528,4.939-8.58
			c-1.485,3.083-5.014,3.157-6.128,3.157c-1.708,0-4.159-0.371-5.72-2.302c-1.597-1.895-2.116-4.383-2.116-6.871
			c0-6.314,3.714-9.396,8.282-9.396c3.751,0,5.125,1.857,5.868,2.823l0.037-2.562h3.379l-0.074,3.379l-0.037,11.662
			c0,4.494-0.148,6.314-0.891,7.725c-1.561,2.971-5.2,3.343-7.763,3.343c-7.465,0-7.688-3.491-7.837-6.017H244.792z M252.925,55.593
			c0.743-0.966,1.263-1.968,1.263-5.348c0-2.34-0.52-3.677-1.448-4.643c-0.929-1.003-2.414-1.634-4.011-1.634
			c-4.42,0-5.014,4.457-5.014,6.834c0,2.86,0.854,6.648,5.125,6.648C250.883,57.45,252.071,56.707,252.925,55.593z"/>
		<path fill="#FFFFFF" d="M266.255,51.693c-0.075,3.863,1.522,6.723,5.348,6.723c2.266,0,4.085-1.188,4.383-3.863h3.491
			c-0.111,0.929-0.261,2.451-1.598,3.9c-0.816,0.928-2.674,2.488-6.425,2.488c-5.868,0-8.653-3.64-8.653-9.545
			c0-3.677,0.742-6.722,3.677-8.765c1.782-1.263,4.011-1.374,5.088-1.374c8.356,0,8.171,7.391,8.097,10.436H266.255z
			 M276.097,49.242c0.037-1.783-0.297-5.497-4.605-5.497c-2.266,0-5.014,1.374-5.088,5.497H276.097z"/>
		<path fill="#FFFFFF" d="M284.895,43.894l-0.037-2.154h3.491l0.037,3.008c0.408-0.78,1.745-3.38,5.979-3.38
			c1.671,0,6.76,0.631,6.76,6.351v12.665h-3.566V48.536c0-1.226-0.148-2.34-1.002-3.194c-0.892-0.854-2.117-1.263-3.306-1.263
			c-2.525,0-4.865,1.82-4.865,5.571v10.733h-3.491V43.894z"/>
		<path fill="#FFFFFF" d="M304.611,41.665h3.306v-3.899l3.454-1.114v5.014h4.16v2.563h-4.16v11.179c0,0.928,0,2.488,2.488,2.488
			c0.706,0,1.374-0.111,1.672-0.186v2.711c-0.632,0.111-1.635,0.223-2.897,0.223c-3.194,0-4.717-0.928-4.717-3.974V44.228h-3.306
			V41.665z"/>
	</g>
</g>
</svg>
