<?xml version="1.0" encoding="utf-8"?>
<!-- Generator: Adobe Illustrator 16.0.0, SVG Export Plug-In . SVG Version: 6.00 Build 0)  -->
<!DOCTYPE svg PUBLIC "-//W3C//DTD SVG 1.1//EN" "http://www.w3.org/Graphics/SVG/1.1/DTD/svg11.dtd">
<svg version="1.1" id="Layer_1" xmlns="http://www.w3.org/2000/svg" xmlns:xlink="http://www.w3.org/1999/xlink" x="0px" y="0px"
	 width="234.158px" height="103.903px" viewBox="0 0 234.158 103.903" enable-background="new 0 0 234.158 103.903"
	 xml:space="preserve">
<g>
	<g>
		<path fill="#FFFFFF" d="M49.127,54.254c0.074,1.857,0.297,5.312,6.462,5.312c5.571,0,6.277-3.454,6.277-4.791
			c0-3.009-2.414-3.603-6.165-4.531c-4.086-1.003-5.905-1.448-7.28-2.377c-2.19-1.485-2.785-3.491-2.785-5.273
			c0-5.46,5.162-7.837,10.214-7.837c1.782,0,5.385,0.297,7.539,2.637c1.485,1.635,1.56,3.454,1.634,4.568h-3.862
			c-0.186-3.343-3.008-4.085-5.646-4.085c-3.714,0-5.942,1.671-5.942,4.345c0,2.377,1.561,3.194,4.828,3.975
			c6.389,1.634,7.094,1.782,8.654,2.822c2.488,1.634,2.674,4.234,2.674,5.349c0,4.754-3.714,8.356-10.585,8.356
			c-2.043,0-6.202-0.335-8.319-3.046c-1.522-1.969-1.56-4.123-1.56-5.423H49.127z"/>
		<path fill="#FFFFFF" d="M81.138,49.426c-0.074-0.854-0.335-3.899-3.714-3.899c-4.828,0-4.828,5.608-4.828,7.02
			c0,3.825,0.928,7.391,4.642,7.391c2.972,0,3.975-2.229,4.049-4.048h3.528c-0.223,3.64-2.935,6.685-7.54,6.685
			c-1.263,0-4.159-0.26-6.128-2.414c-1.114-1.3-2.229-3.268-2.229-7.131c0-7.762,4.754-10.064,8.469-10.064
			c1.226,0,4.011,0.26,5.719,2.303c1.375,1.597,1.486,3.119,1.561,4.159H81.138z"/>
		<path fill="#FFFFFF" d="M92.276,43.447v11.996c0,1.82,0.409,4.123,3.975,4.123c1.745,0,3.38-0.595,4.382-2.08
			c0.78-1.114,0.78-2.562,0.78-3.491V43.447h3.603V58.6c0,0.371,0.074,2.451,0.111,3.491h-3.64l-0.074-3.194
			c-0.668,1.3-1.932,3.38-5.942,3.38c-4.605,0-6.76-2.637-6.76-6.313V43.447H92.276z"/>
		<path fill="#FFFFFF" d="M111.844,35.313h3.491v26.778h-3.491V35.313z"/>
		<path fill="#FFFFFF" d="M121.982,46.493c0-0.817-0.037-1.263-0.111-3.046h3.528l0.074,3.083c1.745-2.935,4.828-3.38,6.351-3.38
			c4.011,0,7.837,2.748,7.837,9.656c0,6.945-4.049,9.991-8.506,9.991c-2.711,0-4.717-1.151-5.719-2.786v9.248h-3.454V46.493z
			 M130.561,60.234c0.892,0,2.748-0.186,3.937-1.819c1.337-1.82,1.522-4.494,1.522-5.831c0-3.343-1.002-6.834-5.125-6.834
			c-5.571,0-5.571,5.905-5.571,7.577C125.324,55.592,125.659,60.234,130.561,60.234z"/>
		<path fill="#FFFFFF" d="M141.921,43.373h3.306v-3.899l3.454-1.114v5.014h4.16v2.562h-4.16v11.18c0,0.929,0,2.488,2.488,2.488
			c0.706,0,1.374-0.111,1.672-0.186v2.711c-0.632,0.111-1.635,0.223-2.897,0.223c-3.194,0-4.717-0.929-4.717-3.974V45.935h-3.306
			V43.373z"/>
		<path fill="#FFFFFF" d="M165.244,42.964c7.465,0,9.136,5.868,9.136,9.768c0,5.46-3.082,9.991-9.434,9.991
			c-6.165,0-9.173-4.271-9.173-9.731C155.773,48.386,157.926,42.964,165.244,42.964z M165.02,60.123
			c2.638,0,5.646-1.894,5.646-7.502c0-4.643-2.154-7.094-5.422-7.094c-2.229,0-5.831,1.411-5.831,7.242
			C159.413,56.594,161.046,60.123,165.02,60.123z"/>
		<path fill="#FFFFFF" d="M180.02,47.236c0-1.264-0.074-2.563-0.186-3.789h3.528l0.074,3.603c0.668-2.6,2.896-3.454,4.457-3.677
			c1.039-0.148,1.819-0.111,2.414-0.074v3.417c-0.187-0.074-0.409-0.111-0.669-0.148s-0.594-0.037-1.003-0.037
			c-4.122,0-5.088,2.451-5.088,5.646v9.916h-3.528V47.236z"/>
	</g>
	<g>
		<path fill="#307FE2" d="M234.158,103.903H0V0h234.158V103.903z M19.799,84.104h194.56l0,0V19.798L19.799,19.8V84.104
			L19.799,84.104z"/>
	</g>
	<g>
		<polygon fill="#307FE2" points="16.5,19.796 16.5,84.101 16.5,87.4 19.799,87.4 214.361,87.4 217.661,87.4 217.661,84.101 
			217.661,19.796 217.661,16.496 214.361,16.496 19.799,16.496 16.5,16.496 		"/>
	</g>
	<g>
		<path fill="#FFFFFF" d="M49.127,54.252c0.074,1.857,0.297,5.312,6.462,5.312c5.571,0,6.277-3.454,6.277-4.791
			c0-3.009-2.414-3.603-6.165-4.531c-4.086-1.003-5.905-1.448-7.28-2.377c-2.19-1.485-2.785-3.491-2.785-5.273
			c0-5.46,5.162-7.837,10.214-7.837c1.782,0,5.385,0.297,7.539,2.637c1.485,1.635,1.56,3.454,1.634,4.568h-3.862
			c-0.186-3.343-3.008-4.085-5.646-4.085c-3.714,0-5.942,1.671-5.942,4.345c0,2.377,1.561,3.194,4.828,3.975
			c6.389,1.634,7.094,1.782,8.654,2.822c2.488,1.634,2.674,4.234,2.674,5.349c0,4.754-3.714,8.356-10.585,8.356
			c-2.043,0-6.202-0.335-8.319-3.046c-1.522-1.969-1.56-4.123-1.56-5.423H49.127z"/>
		<path fill="#FFFFFF" d="M81.138,49.424c-0.074-0.854-0.335-3.899-3.714-3.899c-4.828,0-4.828,5.608-4.828,7.02
			c0,3.825,0.928,7.391,4.642,7.391c2.972,0,3.975-2.229,4.049-4.048h3.528c-0.223,3.64-2.935,6.685-7.54,6.685
			c-1.263,0-4.159-0.26-6.128-2.414c-1.114-1.3-2.229-3.268-2.229-7.131c0-7.762,4.754-10.064,8.469-10.064
			c1.226,0,4.011,0.26,5.719,2.303c1.375,1.597,1.486,3.119,1.561,4.159H81.138z"/>
		<path fill="#FFFFFF" d="M92.276,43.445v11.996c0,1.82,0.409,4.123,3.975,4.123c1.745,0,3.38-0.595,4.382-2.08
			c0.78-1.114,0.78-2.562,0.78-3.491V43.445h3.603v15.153c0,0.371,0.074,2.451,0.111,3.491h-3.64l-0.074-3.194
			c-0.668,1.3-1.932,3.38-5.942,3.38c-4.605,0-6.76-2.637-6.76-6.313V43.445H92.276z"/>
		<path fill="#FFFFFF" d="M111.844,35.311h3.491v26.778h-3.491V35.311z"/>
		<path fill="#FFFFFF" d="M121.982,46.491c0-0.817-0.037-1.263-0.111-3.046h3.528l0.074,3.083c1.745-2.935,4.828-3.38,6.351-3.38
			c4.011,0,7.837,2.748,7.837,9.656c0,6.945-4.049,9.991-8.506,9.991c-2.711,0-4.717-1.151-5.719-2.786v9.248h-3.454V46.491z
			 M130.561,60.232c0.892,0,2.748-0.186,3.937-1.819c1.337-1.82,1.522-4.494,1.522-5.831c0-3.343-1.002-6.834-5.125-6.834
			c-5.571,0-5.571,5.905-5.571,7.577C125.324,55.59,125.659,60.232,130.561,60.232z"/>
		<path fill="#FFFFFF" d="M141.921,43.371h3.306v-3.899l3.454-1.114v5.014h4.16v2.562h-4.16v11.18c0,0.929,0,2.488,2.488,2.488
			c0.706,0,1.374-0.111,1.672-0.186v2.711c-0.632,0.111-1.635,0.223-2.897,0.223c-3.194,0-4.717-0.929-4.717-3.974V45.933h-3.306
			V43.371z"/>
		<path fill="#FFFFFF" d="M165.244,42.962c7.465,0,9.136,5.868,9.136,9.768c0,5.46-3.082,9.991-9.434,9.991
			c-6.165,0-9.173-4.271-9.173-9.731C155.773,48.384,157.926,42.962,165.244,42.962z M165.02,60.121
			c2.638,0,5.646-1.894,5.646-7.502c0-4.643-2.154-7.094-5.422-7.094c-2.229,0-5.831,1.411-5.831,7.242
			C159.413,56.592,161.046,60.121,165.02,60.121z"/>
		<path fill="#FFFFFF" d="M180.02,47.234c0-1.264-0.074-2.563-0.186-3.789h3.528l0.074,3.603c0.668-2.6,2.896-3.454,4.457-3.677
			c1.039-0.148,1.819-0.111,2.414-0.074v3.417c-0.187-0.074-0.409-0.111-0.669-0.148s-0.594-0.037-1.003-0.037
			c-4.122,0-5.088,2.451-5.088,5.646v9.916h-3.528V47.234z"/>
	</g>
	<g>
		<path fill="#FFFFFF" d="M220.96,90.7H13.2V13.196H220.96V90.7z M19.799,84.1h194.562V19.795L19.799,19.796V84.1L19.799,84.1z"/>
	</g>
</g>
</svg>
