<?xml version="1.0" encoding="utf-8"?>
<!-- Generator: Adobe Illustrator 16.0.0, SVG Export Plug-In . SVG Version: 6.00 Build 0)  -->
<!DOCTYPE svg PUBLIC "-//W3C//DTD SVG 1.1//EN" "http://www.w3.org/Graphics/SVG/1.1/DTD/svg11.dtd">
<svg version="1.1" id="Layer_1" xmlns="http://www.w3.org/2000/svg" xmlns:xlink="http://www.w3.org/1999/xlink" x="0px" y="0px"
	 width="304.714px" height="122.483px" viewBox="0 0 304.714 122.483" enable-background="new 0 0 304.714 122.483"
	 xml:space="preserve">
<g>
	<g>
		<path fill="#307FE2" d="M137.178,122.483l-13.792-17.341l-16.65,14.78l-12.179-18.813L75.948,114.2l-9.784-21.077L43.35,103.287
			l-3.171-27.928L0,61.248l40.191-14.13l3.176-27.931l22.814,10.167l9.781-21.083l18.593,13.099L106.72,2.557l16.656,14.787
			l13.796-17.34l15.186,16.089L167.539,0l13.792,17.341l16.653-14.786l12.18,18.821l18.607-13.092l9.783,21.08l22.813-10.166
			l3.171,27.929l40.175,14.113l-40.188,14.129l-3.177,27.935l-22.815-10.171l-9.78,21.083l-18.591-13.097l-12.165,18.81
			l-16.656-14.785l-13.797,17.339l-15.184-16.088L137.178,122.483z M152.358,77.542l13.912,14.74l12.589-15.821l15.037,13.348
			l10.829-16.745l16.047,11.305l8.009-17.265l15.949,7.11l1.48-13.016l-1.467-12.916l-15.94,7.104l-8.017-17.273l-16.062,11.302
			L193.888,32.67l-15.042,13.356l-12.583-15.82l-13.902,14.737l-13.913-14.741l-12.588,15.822l-15.036-13.348L99.996,49.421
			L83.945,38.113l-8.009,17.263L59.988,48.27l-1.479,13.01l1.467,12.925l15.939-7.102l8.018,17.272l16.062-11.3l10.835,16.737
			l15.042-13.353l12.582,15.819L152.358,77.542z"/>
	</g>
	<g>
		<polygon fill="#307FE2" points="274.854,61.243 255.39,68.085 253.039,88.758 233.657,80.118 224.762,99.292 207.443,87.09 
			195.946,104.868 180.1,90.801 166.907,107.381 152.359,91.967 137.816,107.381 124.629,90.801 108.783,104.868 97.276,87.092 
			79.94,99.288 71.04,80.113 51.663,88.746 49.316,68.075 29.863,61.243 49.327,54.4 51.678,33.728 71.059,42.365 79.954,23.192 
			97.276,35.395 108.771,17.617 124.618,31.684 137.81,15.103 152.359,30.518 166.901,15.103 180.088,31.684 195.936,17.613 
			207.443,35.395 224.778,23.198 233.678,42.375 253.055,33.74 255.402,54.41 		"/>
	</g>
	<g>
		<path fill="#FFFFFF" d="M137.657,111.157l-13.338-16.77l-16.047,14.245L96.596,90.597l-17.654,12.419l-9.121-19.65l-20.236,9.016
			l-2.553-22.485l-24.635-8.652l24.646-8.665L49.6,30.093l20.239,9.019l9.117-19.65l17.64,12.427l11.663-18.037l16.049,14.248
			l13.343-16.771l14.708,15.583l14.702-15.584l13.338,16.771l16.049-14.25l11.675,18.042l17.653-12.421l9.121,19.652l20.236-9.018
			l2.553,22.485l24.633,8.653l-24.645,8.665l-2.558,22.488l-20.24-9.023l-9.116,19.651l-17.637-12.425l-11.664,18.036L180.41,94.386
			l-13.344,16.77l-14.707-15.583L137.657,111.157z M152.359,88.361l14.389,15.245l13.042-16.39l15.644,13.887l11.33-17.519
			l17.001,11.977l8.674-18.697l18.523,8.258l2.145-18.858l14.283-5.021l-14.271-5.013l-2.141-18.855l-18.518,8.252l-8.679-18.701
			L206.763,38.9l-11.339-17.522L179.777,35.27l-13.036-16.391l-14.382,15.246l-14.39-15.247l-13.041,16.391l-15.644-13.887
			l-11.329,17.52L80.952,26.922l-8.674,18.695l-18.522-8.254L51.611,56.22l-14.282,5.021L51.6,66.254l2.141,18.856l18.518-8.25
			l8.679,18.699l17.018-11.972l11.338,17.516l15.646-13.888l13.036,16.39L152.359,88.361z"/>
	</g>
	<g>
		<path fill="#FFFFFF" d="M94.376,44.967h6.574l7.576,22.098l7.762-22.098h6.128v26.815h-3.64V47.641l-8.802,24.141h-3.528
			L97.979,47.79v23.992h-3.603V44.967z"/>
		<path fill="#FFFFFF" d="M140.72,71.782c-0.26-0.929-0.334-1.82-0.334-2.786c-1.671,3.083-4.197,3.38-5.757,3.38
			c-4.271,0-6.574-2.414-6.574-5.497c0-1.486,0.52-3.863,3.269-5.459c2.005-1.114,4.977-1.226,6.462-1.226
			c0.891,0,1.448,0.038,2.525,0.112c0-2.303,0-3.306-0.668-4.123c-0.706-0.929-2.229-1.226-3.231-1.226
			c-3.528,0-3.714,2.414-3.751,3.157h-3.491c0.111-0.966,0.223-2.266,1.3-3.528c1.412-1.56,4.048-2.005,6.017-2.005
			c2.711,0,5.608,0.854,6.611,2.748c0.594,1.114,0.631,2.006,0.631,2.86l-0.149,8.914c0,0.297,0.037,2.786,0.297,4.68H140.72z
			 M138.306,62.608c-1.412,0-6.723,0-6.723,3.788c0,1.188,0.743,3.231,3.863,3.231c1.783,0,3.12-0.706,3.974-2.005
			c0.78-1.263,0.817-2.303,0.892-4.902C139.68,62.646,139.16,62.608,138.306,62.608z"/>
		<path fill="#FFFFFF" d="M150.187,56.926c0-1.263-0.074-2.562-0.186-3.788h3.528l0.075,3.603c0.668-2.6,2.896-3.454,4.457-3.677
			c1.04-0.148,1.82-0.111,2.414-0.074v3.417c-0.186-0.074-0.409-0.111-0.668-0.148s-0.594-0.037-1.003-0.037
			c-4.123,0-5.088,2.451-5.088,5.645v9.917h-3.528V56.926z"/>
		<path fill="#FFFFFF" d="M164.111,45.041h4.197v3.825h-4.197V45.041z M164.483,53.138h3.491v18.644h-3.491V53.138z"/>
		<path fill="#FFFFFF" d="M174.88,55.292l-0.037-2.154h3.491l0.037,3.008c0.408-0.78,1.745-3.38,5.979-3.38
			c1.671,0,6.759,0.631,6.759,6.351v12.665h-3.565V59.934c0-1.226-0.148-2.34-1.003-3.194c-0.891-0.854-2.117-1.263-3.305-1.263
			c-2.525,0-4.865,1.82-4.865,5.571v10.733h-3.491V55.292z"/>
		<path fill="#FFFFFF" d="M208.822,71.782c-0.26-0.929-0.334-1.82-0.334-2.786c-1.671,3.083-4.197,3.38-5.757,3.38
			c-4.271,0-6.574-2.414-6.574-5.497c0-1.486,0.52-3.863,3.269-5.459c2.005-1.114,4.977-1.226,6.462-1.226
			c0.891,0,1.448,0.038,2.525,0.112c0-2.303,0-3.306-0.668-4.123c-0.706-0.929-2.229-1.226-3.231-1.226
			c-3.528,0-3.714,2.414-3.751,3.157h-3.491c0.111-0.966,0.223-2.266,1.3-3.528c1.412-1.56,4.048-2.005,6.017-2.005
			c2.711,0,5.608,0.854,6.611,2.748c0.594,1.114,0.631,2.006,0.631,2.86l-0.149,8.914c0,0.297,0.037,2.786,0.297,4.68H208.822z
			 M206.408,62.608c-1.412,0-6.723,0-6.723,3.788c0,1.188,0.743,3.231,3.863,3.231c1.783,0,3.12-0.706,3.974-2.005
			c0.78-1.263,0.817-2.303,0.892-4.902C207.782,62.646,207.262,62.608,206.408,62.608z"/>
	</g>
</g>
</svg>
