<?xml version="1.0" encoding="utf-8"?>
<!-- Generator: Adobe Illustrator 16.0.0, SVG Export Plug-In . SVG Version: 6.00 Build 0)  -->
<!DOCTYPE svg PUBLIC "-//W3C//DTD SVG 1.1//EN" "http://www.w3.org/Graphics/SVG/1.1/DTD/svg11.dtd">
<svg version="1.1" id="Layer_1" xmlns="http://www.w3.org/2000/svg" xmlns:xlink="http://www.w3.org/1999/xlink" x="0px" y="0px"
	 width="168.059px" height="107.204px" viewBox="0 0 168.059 107.204" enable-background="new 0 0 168.059 107.204"
	 xml:space="preserve">
<g>
	<g>
		<path fill="#FFFFFF" d="M46.453,35.278h8.988c3.268,0,5.497,0.187,7.316,2.154c1.337,1.374,1.968,3.194,1.968,5.2
			c0,2.042-0.668,3.788-2.117,5.236c-1.412,1.411-3.269,2.303-8.097,2.303h-4.345v11.922h-3.714V35.278z M50.167,47.051h4.419
			c2.451,0,6.203-0.186,6.203-4.567c0-4.197-3.491-4.197-5.423-4.197h-5.199V47.051z"/>
		<path fill="#FFFFFF" d="M76.124,42.966c7.465,0,9.136,5.868,9.136,9.768c0,5.46-3.083,9.991-9.433,9.991
			c-6.166,0-9.174-4.271-9.174-9.731C66.653,48.388,68.807,42.966,76.124,42.966z M75.901,60.125c2.637,0,5.645-1.894,5.645-7.502
			c0-4.643-2.154-7.094-5.422-7.094c-2.229,0-5.831,1.411-5.831,7.242C70.292,56.596,71.927,60.125,75.901,60.125z"/>
		<path fill="#FFFFFF" d="M92.832,53.403c-0.074,3.862,1.523,6.722,5.348,6.722c2.266,0,4.085-1.188,4.382-3.862h3.491
			c-0.111,0.929-0.26,2.451-1.597,3.899c-0.817,0.929-2.674,2.488-6.425,2.488c-5.868,0-8.654-3.64-8.654-9.545
			c0-3.677,0.743-6.722,3.677-8.765c1.783-1.263,4.011-1.374,5.088-1.374c8.356,0,8.171,7.391,8.097,10.437H92.832z M102.674,50.952
			c0.037-1.783-0.297-5.497-4.605-5.497c-2.266,0-5.014,1.374-5.088,5.497H102.674z"/>
		<path fill="#FFFFFF" d="M108.501,43.375h3.305v-3.899l3.454-1.114v5.014h4.16v2.562h-4.16v11.18c0,0.929,0,2.488,2.488,2.488
			c0.706,0,1.375-0.111,1.671-0.186v2.711c-0.631,0.111-1.634,0.223-2.897,0.223c-3.194,0-4.717-0.929-4.717-3.974V45.937h-3.305
			V43.375z"/>
	</g>
	<g>
		<path fill="#307FE2" d="M168.059,107.204H0V0h168.059V107.204z M19.8,87.404h128.459V19.8L19.8,19.8V87.404L19.8,87.404z"/>
	</g>
	<g>
		<polygon fill="#307FE2" points="16.5,19.8 16.5,87.402 16.5,90.701 19.8,90.701 148.261,90.701 151.561,90.701 151.561,87.402 
			151.561,19.8 151.561,16.5 148.261,16.5 19.8,16.5 16.5,16.5 		"/>
	</g>
	<g>
		<path fill="#FFFFFF" d="M46.453,35.278h8.988c3.268,0,5.497,0.187,7.316,2.154c1.337,1.374,1.968,3.194,1.968,5.2
			c0,2.042-0.668,3.788-2.117,5.236c-1.412,1.411-3.269,2.303-8.097,2.303h-4.345v11.922h-3.714V35.278z M50.167,47.051h4.419
			c2.451,0,6.203-0.186,6.203-4.567c0-4.197-3.491-4.197-5.423-4.197h-5.199V47.051z"/>
		<path fill="#FFFFFF" d="M76.124,42.966c7.465,0,9.136,5.868,9.136,9.768c0,5.46-3.083,9.991-9.433,9.991
			c-6.166,0-9.174-4.271-9.174-9.731C66.653,48.388,68.807,42.966,76.124,42.966z M75.901,60.125c2.637,0,5.645-1.894,5.645-7.502
			c0-4.643-2.154-7.094-5.422-7.094c-2.229,0-5.831,1.411-5.831,7.242C70.292,56.596,71.927,60.125,75.901,60.125z"/>
		<path fill="#FFFFFF" d="M92.832,53.403c-0.074,3.862,1.523,6.722,5.348,6.722c2.266,0,4.085-1.188,4.382-3.862h3.491
			c-0.111,0.929-0.26,2.451-1.597,3.899c-0.817,0.929-2.674,2.488-6.425,2.488c-5.868,0-8.654-3.64-8.654-9.545
			c0-3.677,0.743-6.722,3.677-8.765c1.783-1.263,4.011-1.374,5.088-1.374c8.356,0,8.171,7.391,8.097,10.437H92.832z M102.674,50.952
			c0.037-1.783-0.297-5.497-4.605-5.497c-2.266,0-5.014,1.374-5.088,5.497H102.674z"/>
		<path fill="#FFFFFF" d="M108.501,43.375h3.305v-3.899l3.454-1.114v5.014h4.16v2.562h-4.16v11.18c0,0.929,0,2.488,2.488,2.488
			c0.706,0,1.375-0.111,1.671-0.186v2.711c-0.631,0.111-1.634,0.223-2.897,0.223c-3.194,0-4.717-0.929-4.717-3.974V45.937h-3.305
			V43.375z"/>
	</g>
	<g>
		<path fill="#FFFFFF" d="M154.861,94H13.2V13.2h141.661V94z M19.8,87.401h128.461l0-67.602L19.8,19.8V87.401L19.8,87.401z"/>
	</g>
</g>
</svg>
