<?xml version="1.0" encoding="utf-8"?>
<!-- Generator: Adobe Illustrator 16.0.0, SVG Export Plug-In . SVG Version: 6.00 Build 0)  -->
<!DOCTYPE svg PUBLIC "-//W3C//DTD SVG 1.1//EN" "http://www.w3.org/Graphics/SVG/1.1/DTD/svg11.dtd">
<svg version="1.1" id="Layer_1" xmlns="http://www.w3.org/2000/svg" xmlns:xlink="http://www.w3.org/1999/xlink" x="0px" y="0px"
	 width="259.857px" height="103.902px" viewBox="0 0 259.857 103.902" enable-background="new 0 0 259.857 103.902"
	 xml:space="preserve">
<g>
	<g>
		<path fill="#FFFFFF" d="M54.812,35.275h3.974L69.63,62.09h-4.048l-2.897-6.982H50.243l-2.897,6.982h-3.825L54.812,35.275z
			 M51.432,52.1H61.57l-4.939-13.147L51.432,52.1z"/>
		<path fill="#FFFFFF" d="M73.339,35.312h3.491V62.09h-3.491V35.312z"/>
		<path fill="#FFFFFF" d="M94.21,49.425c-0.074-0.854-0.335-3.899-3.714-3.899c-4.828,0-4.828,5.608-4.828,7.02
			c0,3.825,0.928,7.391,4.642,7.391c2.972,0,3.975-2.229,4.049-4.048h3.528c-0.223,3.64-2.935,6.685-7.54,6.685
			c-1.263,0-4.159-0.26-6.128-2.414c-1.114-1.3-2.229-3.268-2.229-7.131c0-7.762,4.754-10.064,8.469-10.064
			c1.226,0,4.011,0.26,5.719,2.303c1.375,1.597,1.486,3.119,1.561,4.159H94.21z"/>
		<path fill="#FFFFFF" d="M100.335,35.312h3.528v10.883c1.151-1.969,3.454-3.083,6.054-3.083c1.968,0,4.791,0.706,5.868,2.972
			c0.371,0.742,0.631,1.634,0.631,4.345V62.09h-3.565V51.06c0-1.672,0-5.274-4.011-5.274c-2.6,0-3.899,1.598-4.383,2.488
			c-0.594,1.04-0.594,2.786-0.594,3.938v9.879h-3.528V35.312z"/>
		<path fill="#FFFFFF" d="M125.14,53.4c-0.075,3.862,1.522,6.722,5.348,6.722c2.266,0,4.085-1.188,4.383-3.862h3.491
			c-0.111,0.929-0.261,2.451-1.598,3.899c-0.816,0.929-2.674,2.488-6.425,2.488c-5.868,0-8.653-3.64-8.653-9.545
			c0-3.677,0.742-6.722,3.677-8.765c1.782-1.263,4.011-1.374,5.088-1.374c8.356,0,8.171,7.391,8.097,10.437H125.14z M134.981,50.949
			c0.037-1.783-0.297-5.497-4.605-5.497c-2.266,0-5.014,1.374-5.088,5.497H134.981z"/>
		<path fill="#FFFFFF" d="M143.632,45.934l-0.074-2.488h3.528v2.712c1.782-2.935,4.308-3.194,5.905-3.194
			c4.122,0,5.422,2.117,6.091,3.491c0.631-1.04,2.154-3.491,6.276-3.491c2.674,0,6.834,1.114,6.834,6.61V62.09h-3.528V50.131
			c0-1.634-0.297-2.34-0.632-2.822c-0.594-0.854-1.782-1.635-3.565-1.635c-2.266,0-3.491,1.3-3.974,1.969
			c-0.817,1.151-0.817,3.194-0.817,4.011V62.09h-3.528V49.76c0-2.303-1.337-4.086-4.085-4.086c-2.377,0-3.677,1.485-4.086,2.043
			c-0.779,1.077-0.816,2.6-0.816,3.788V62.09h-3.528V45.934z"/>
		<path fill="#FFFFFF" d="M178.387,35.35h4.197v3.825h-4.197V35.35z M178.759,43.446h3.491V62.09h-3.491V43.446z"/>
		<path fill="#FFFFFF" d="M191.05,56.556c-0.037,1.412,0.706,3.38,4.086,3.38c1.448,0,2.525-0.26,3.269-1.188
			c0.371-0.482,0.594-1.114,0.594-1.745c0-1.82-1.3-2.154-4.085-2.786c-3.9-0.891-7.168-1.671-7.168-5.57
			c0-3.417,2.971-5.646,7.279-5.646c2.34,0,5.608,0.668,6.722,2.896c0.483,1.04,0.483,1.932,0.483,2.712h-3.565
			c0.111-2.823-2.34-3.046-3.603-3.046c-0.521,0-3.788,0-3.788,2.674c0,1.709,1.671,2.117,2.637,2.377
			c5.162,1.226,6.276,1.523,7.391,2.562c1.04,0.966,1.411,2.266,1.411,3.454c0,2.08-1.151,3.863-2.525,4.717
			c-1.634,1.003-3.603,1.263-5.534,1.263c-3.788,0-7.316-1.56-7.279-6.054H191.05z"/>
		<path fill="#FFFFFF" d="M204.751,43.372h3.306v-3.899l3.454-1.114v5.014h4.16v2.562h-4.16v11.18c0,0.929,0,2.488,2.488,2.488
			c0.706,0,1.374-0.111,1.672-0.186v2.711c-0.632,0.111-1.635,0.223-2.897,0.223c-3.194,0-4.717-0.929-4.717-3.974V45.934h-3.306
			V43.372z"/>
	</g>
	<g>
		<path fill="#307FE2" d="M259.857,103.902H0V0h259.857V103.902z M19.801,84.103l220.256,0V19.8H19.801V84.103z"/>
	</g>
	<g>
		<polygon fill="#307FE2" points="16.502,19.795 16.502,84.1 16.502,87.399 19.801,87.399 240.059,87.399 243.357,87.399 
			243.357,84.1 243.357,19.795 243.357,16.495 240.059,16.495 19.801,16.495 16.502,16.495 		"/>
	</g>
	<g>
		<path fill="#FFFFFF" d="M54.812,35.273h3.974L69.63,62.088h-4.048l-2.897-6.982H50.243l-2.897,6.982h-3.825L54.812,35.273z
			 M51.432,52.098H61.57l-4.939-13.147L51.432,52.098z"/>
		<path fill="#FFFFFF" d="M73.339,35.31h3.491v26.778h-3.491V35.31z"/>
		<path fill="#FFFFFF" d="M94.21,49.423c-0.074-0.854-0.335-3.899-3.714-3.899c-4.828,0-4.828,5.608-4.828,7.02
			c0,3.825,0.928,7.391,4.642,7.391c2.972,0,3.975-2.229,4.049-4.048h3.528c-0.223,3.64-2.935,6.685-7.54,6.685
			c-1.263,0-4.159-0.26-6.128-2.414c-1.114-1.3-2.229-3.268-2.229-7.131c0-7.762,4.754-10.064,8.469-10.064
			c1.226,0,4.011,0.26,5.719,2.303c1.375,1.597,1.486,3.119,1.561,4.159H94.21z"/>
		<path fill="#FFFFFF" d="M100.335,35.31h3.528v10.883c1.151-1.969,3.454-3.083,6.054-3.083c1.968,0,4.791,0.706,5.868,2.972
			c0.371,0.742,0.631,1.634,0.631,4.345v11.662h-3.565v-11.03c0-1.672,0-5.274-4.011-5.274c-2.6,0-3.899,1.598-4.383,2.488
			c-0.594,1.04-0.594,2.786-0.594,3.938v9.879h-3.528V35.31z"/>
		<path fill="#FFFFFF" d="M125.14,53.398c-0.075,3.862,1.522,6.722,5.348,6.722c2.266,0,4.085-1.188,4.383-3.862h3.491
			c-0.111,0.929-0.261,2.451-1.598,3.899c-0.816,0.929-2.674,2.488-6.425,2.488c-5.868,0-8.653-3.64-8.653-9.545
			c0-3.677,0.742-6.722,3.677-8.765c1.782-1.263,4.011-1.374,5.088-1.374c8.356,0,8.171,7.391,8.097,10.437H125.14z M134.981,50.947
			c0.037-1.783-0.297-5.497-4.605-5.497c-2.266,0-5.014,1.374-5.088,5.497H134.981z"/>
		<path fill="#FFFFFF" d="M143.632,45.932l-0.074-2.488h3.528v2.712c1.782-2.935,4.308-3.194,5.905-3.194
			c4.122,0,5.422,2.117,6.091,3.491c0.631-1.04,2.154-3.491,6.276-3.491c2.674,0,6.834,1.114,6.834,6.61v12.517h-3.528V50.129
			c0-1.634-0.297-2.34-0.632-2.822c-0.594-0.854-1.782-1.635-3.565-1.635c-2.266,0-3.491,1.3-3.974,1.969
			c-0.817,1.151-0.817,3.194-0.817,4.011v10.437h-3.528v-12.33c0-2.303-1.337-4.086-4.085-4.086c-2.377,0-3.677,1.485-4.086,2.043
			c-0.779,1.077-0.816,2.6-0.816,3.788v10.585h-3.528V45.932z"/>
		<path fill="#FFFFFF" d="M178.387,35.348h4.197v3.825h-4.197V35.348z M178.759,43.444h3.491v18.645h-3.491V43.444z"/>
		<path fill="#FFFFFF" d="M191.05,56.554c-0.037,1.412,0.706,3.38,4.086,3.38c1.448,0,2.525-0.26,3.269-1.188
			c0.371-0.482,0.594-1.114,0.594-1.745c0-1.82-1.3-2.154-4.085-2.786c-3.9-0.891-7.168-1.671-7.168-5.57
			c0-3.417,2.971-5.646,7.279-5.646c2.34,0,5.608,0.668,6.722,2.896c0.483,1.04,0.483,1.932,0.483,2.712h-3.565
			c0.111-2.823-2.34-3.046-3.603-3.046c-0.521,0-3.788,0-3.788,2.674c0,1.709,1.671,2.117,2.637,2.377
			c5.162,1.226,6.276,1.523,7.391,2.562c1.04,0.966,1.411,2.266,1.411,3.454c0,2.08-1.151,3.863-2.525,4.717
			c-1.634,1.003-3.603,1.263-5.534,1.263c-3.788,0-7.316-1.56-7.279-6.054H191.05z"/>
		<path fill="#FFFFFF" d="M204.751,43.37h3.306V39.47l3.454-1.114v5.014h4.16v2.562h-4.16v11.18c0,0.929,0,2.488,2.488,2.488
			c0.706,0,1.374-0.111,1.672-0.186v2.711c-0.632,0.111-1.635,0.223-2.897,0.223c-3.194,0-4.717-0.929-4.717-3.974V45.932h-3.306
			V43.37z"/>
	</g>
	<g>
		<path fill="#FFFFFF" d="M246.657,90.699H13.202V13.195h233.455V90.699z M19.801,84.099h220.258l-0.001-64.305H19.801l0.001,0.001
			L19.801,84.099L19.801,84.099z"/>
	</g>
</g>
</svg>
