<?xml version="1.0" encoding="utf-8"?>
<!-- Generator: Adobe Illustrator 16.0.0, SVG Export Plug-In . SVG Version: 6.00 Build 0)  -->
<!DOCTYPE svg PUBLIC "-//W3C//DTD SVG 1.1//EN" "http://www.w3.org/Graphics/SVG/1.1/DTD/svg11.dtd">
<svg version="1.1" id="Layer_1" xmlns="http://www.w3.org/2000/svg" xmlns:xlink="http://www.w3.org/1999/xlink" x="0px" y="0px"
	 width="285.773px" height="100.93px" viewBox="0 0 285.773 100.93" enable-background="new 0 0 285.773 100.93"
	 xml:space="preserve">
<g>
	<g>
		<path fill="#307FE2" d="M231.463,100.929H54.204L0,49.624L54.414,0H231.47l54.304,50.469L231.463,100.929z M62.087,81.129l161.6,0
			l32.998-30.663l-0.001-0.001l-33-30.665H62.088l-33,30.093L62.087,81.129L62.087,81.129z"/>
	</g>
	<g>
		<polygon fill="#307FE2" points="59.864,17.361 26.864,47.454 24.239,49.847 26.819,52.29 59.819,83.526 60.772,84.429 
			62.087,84.429 223.687,84.429 224.983,84.429 225.933,83.547 258.933,52.883 261.534,50.465 258.933,48.047 225.933,17.382 
			224.983,16.499 223.687,16.499 62.087,16.499 60.81,16.499 		"/>
	</g>
	<g>
		<path fill="#FFFFFF" d="M226.279,87.729H59.457L19.391,49.802l40.14-36.603h166.751l40.1,37.267L226.279,87.729z M62.087,81.129
			h161.601l32.999-30.664l-0.001-0.001l-33.001-30.666H62.087l0.001,0L29.087,49.893l0,0L62.087,81.129L62.087,81.129z"/>
	</g>
	<g>
		<path fill="#FFFFFF" d="M75.659,33.888h3.974l10.845,26.815H86.43l-2.897-6.982H71.091l-2.896,6.982h-3.826L75.659,33.888z
			 M72.279,50.712h10.139l-4.939-13.147L72.279,50.712z"/>
		<path fill="#FFFFFF" d="M94.298,45.847c0-1.263-0.074-2.562-0.186-3.788h3.528l0.074,3.603c0.668-2.6,2.896-3.454,4.457-3.677
			c1.039-0.148,1.819-0.111,2.414-0.074v3.417c-0.187-0.074-0.409-0.111-0.669-0.148s-0.594-0.037-1.003-0.037
			c-4.122,0-5.088,2.451-5.088,5.645v9.917h-3.528V45.847z"/>
		<path fill="#FFFFFF" d="M104.806,41.984h3.306v-3.899l3.454-1.114v5.014h4.16v2.563h-4.16v11.179c0,0.928,0,2.488,2.488,2.488
			c0.706,0,1.374-0.111,1.672-0.186v2.711c-0.632,0.111-1.635,0.223-2.897,0.223c-3.194,0-4.717-0.928-4.717-3.974V44.547h-3.306
			V41.984z"/>
		<path fill="#FFFFFF" d="M146.509,41.13c-0.148-0.928-0.631-4.643-5.794-4.643c-6.462,0-7.613,6.611-7.613,11.068
			c0,5.051,1.448,10.511,7.576,10.511c1.635,0,3.194-0.409,4.346-1.597c0.966-1.04,1.188-2.191,1.3-2.823h4.086
			c-0.558,5.274-5.423,7.465-10.028,7.465c-9.434,0-11.253-8.319-11.253-13.519c0-5.646,2.191-14.076,11.736-14.076
			c3.788,0,9.136,1.523,9.619,7.614H146.509z"/>
		<path fill="#FFFFFF" d="M155.307,45.847c0-1.263-0.074-2.562-0.186-3.788h3.528l0.074,3.603c0.668-2.6,2.896-3.454,4.457-3.677
			c1.039-0.148,1.819-0.111,2.414-0.074v3.417c-0.187-0.074-0.409-0.111-0.669-0.148s-0.595-0.037-1.003-0.037
			c-4.122,0-5.088,2.451-5.088,5.645v9.917h-3.528V45.847z"/>
		<path fill="#FFFFFF" d="M169.23,33.962h4.197v3.825h-4.197V33.962z M169.603,42.059h3.491v18.644h-3.491V42.059z"/>
		<path fill="#FFFFFF" d="M177.028,41.984h3.306v-3.899l3.454-1.114v5.014h4.16v2.563h-4.16v11.179c0,0.928,0,2.488,2.488,2.488
			c0.706,0,1.374-0.111,1.672-0.186v2.711c-0.632,0.111-1.635,0.223-2.897,0.223c-3.194,0-4.717-0.928-4.717-3.974V44.547h-3.306
			V41.984z"/>
		<path fill="#FFFFFF" d="M191.919,33.962h4.197v3.825h-4.197V33.962z M192.291,42.059h3.491v18.644h-3.491V42.059z"/>
		<path fill="#FFFFFF" d="M213.199,48.038c-0.074-0.854-0.335-3.9-3.714-3.9c-4.828,0-4.828,5.608-4.828,7.02
			c0,3.825,0.928,7.391,4.642,7.391c2.972,0,3.975-2.228,4.049-4.048h3.528c-0.223,3.64-2.935,6.685-7.54,6.685
			c-1.263,0-4.159-0.26-6.128-2.414c-1.114-1.3-2.229-3.269-2.229-7.131c0-7.762,4.754-10.065,8.469-10.065
			c1.226,0,4.011,0.26,5.719,2.303c1.375,1.597,1.486,3.12,1.561,4.16H213.199z"/>
	</g>
</g>
</svg>
