<?xml version="1.0" encoding="utf-8"?>
<!-- Generator: Adobe Illustrator 16.0.0, SVG Export Plug-In . SVG Version: 6.00 Build 0)  -->
<!DOCTYPE svg PUBLIC "-//W3C//DTD SVG 1.1//EN" "http://www.w3.org/Graphics/SVG/1.1/DTD/svg11.dtd">
<svg version="1.1" id="Layer_1" xmlns="http://www.w3.org/2000/svg" xmlns:xlink="http://www.w3.org/1999/xlink" x="0px" y="0px"
	 width="199.967px" height="123.648px" viewBox="0 0 199.967 123.648" enable-background="new 0 0 199.967 123.648"
	 xml:space="preserve">
<g>
	<g>
		<g>
			<path fill="#307FE2" d="M138.476,123.648c-6.812,0-12.949-1.466-18.884-2.885c-6.274-1.499-12.759-3.048-21.123-3.048
				c-8.319,0-14.645,1.4-20.761,2.754c-5.573,1.234-11.338,2.51-17.731,2.511c-13.065,0-24.773-5.498-36.846-17.304
				C7.566,90.457,0,75.46,0,59.832c0-15.184,7.018-29.428,21.453-43.547C32.661,5.326,44.185-0.001,56.685-0.001
				c7.523,0,14.334,1.9,20.343,3.577c6.696,1.869,13.02,3.634,21.441,3.634c9.013,0,15.113-0.844,21.015-1.661
				c4.727-0.654,9.779-1.292,15.011-1.292c10.795,0,21.177,2.732,34.715,9.135c21.634,10.233,28.337,25.277,30.15,36.094
				c3.083,18.376-5.643,38.688-24.568,57.194l0.001,0C162.959,118.257,151.419,123.648,138.476,123.648z M98.469,97.916
				c10.696,0,19.026,1.99,25.721,3.589c5.046,1.206,9.807,2.344,14.285,2.344c5.074,0,12.215-1.287,22.472-11.32v0
				c14.158-13.843,20.865-27.965,18.886-39.765c-1.504-8.967-7.926-16.19-19.089-21.471c-13.441-6.357-20.56-7.234-26.249-7.234
				c-3.978,0-8.087,0.523-12.298,1.105c-5.948,0.823-13.353,1.847-23.728,1.847c-11.133,0-19.437-2.317-26.763-4.362
				c-5.25-1.465-10.209-2.849-15.021-2.849c-4.891,0-11.741,1.209-21.389,10.642C24.869,40.639,19.801,50.253,19.801,59.832
				c0,10.022,5.617,20.388,17.174,31.688c10.568,10.335,17.844,11.66,23.001,11.66c4.229,0,8.709-0.992,13.452-2.042
				C79.913,99.702,87.983,97.916,98.469,97.916z"/>
		</g>
		<g>
			<path fill="#307FE2" d="M160.947,92.528c-22.24,21.751-31.369,5.388-62.479,5.388c-31.107,0-39.252,15.354-61.494-6.396
				c-21.748-21.269-23.424-39.812-1.676-61.079c22.242-21.75,32.062-3.432,63.17-3.432c31.109,0,34.154-9.021,62.275,4.283
				C190.262,45.256,182.697,71.259,160.947,92.528"/>
		</g>
		<g>
			<path fill="#FFFFFF" d="M138.345,107.121c-4.85,0-9.518-1.115-14.922-2.406c-6.865-1.64-14.646-3.499-24.954-3.499
				c-10.119,0-17.667,1.671-24.325,3.145c-5.133,1.136-9.566,2.117-14.132,2.117c-8.734,0-16.314-3.768-25.345-12.598
				C22.443,81.925,16.501,70.788,16.502,59.832c0-10.513,5.394-20.898,16.489-31.75c8.193-8.012,15.514-11.585,23.735-11.585
				c5.216,0,10.152,1.377,15.868,2.973c7.122,1.987,15.194,4.24,25.874,4.24c10.146,0,17.121-0.965,23.275-1.816
				c4.552-0.629,8.482-1.172,12.683-1.172c8.302,0,16.336,2.198,27.729,7.588c12.196,5.769,19.238,13.812,20.932,23.907
				c2.163,12.895-4.88,28.049-19.832,42.671C154.486,103.462,147.037,107.121,138.345,107.121z M98.469,94.616
				c11.086,0,19.626,2.04,26.487,3.679c4.999,1.194,9.316,2.226,13.389,2.226c4.802,0,10.968-1.23,20.295-10.353
				c13.17-12.878,19.708-26.313,17.938-36.86c-1.314-7.838-7.117-14.242-17.245-19.033c-10.441-4.939-17.657-6.955-24.906-6.955
				c-3.746,0-7.469,0.515-11.778,1.111c-6.051,0.836-13.58,1.877-24.18,1.877c-11.583,0-20.491-2.485-27.648-4.483
				c-5.249-1.464-9.781-2.729-14.094-2.729c-6.446,0-12.165,2.902-19.12,9.704c-9.761,9.544-14.505,18.386-14.505,27.031
				c0,9.088,5.293,18.682,16.181,29.33c9.631,9.418,15.654,10.717,20.729,10.717c3.844,0,7.95-0.909,12.705-1.961
				C79.36,96.446,87.628,94.616,98.469,94.616z"/>
		</g>
	</g>
	<g>
		<path fill="#FFFFFF" d="M53.91,47.154h3.676v23.509h12.479v3.306H53.91V47.154z"/>
		<path fill="#FFFFFF" d="M82.096,54.842c7.465,0,9.137,5.868,9.137,9.768c0,5.459-3.084,9.991-9.434,9.991
			c-6.166,0-9.174-4.271-9.174-9.73C72.625,60.264,74.779,54.842,82.096,54.842z M81.873,72c2.637,0,5.645-1.894,5.645-7.502
			c0-4.643-2.154-7.094-5.422-7.094c-2.229,0-5.832,1.411-5.832,7.242C76.264,68.472,77.898,72,81.873,72z"/>
		<path fill="#FFFFFF" d="M93.344,55.325h3.9l5.941,14.782l5.795-14.782h3.861l-8.17,18.644h-3.529L93.344,55.325z"/>
		<path fill="#FFFFFF" d="M118.93,65.278c-0.074,3.863,1.523,6.723,5.348,6.723c2.266,0,4.086-1.188,4.383-3.863h3.492
			c-0.111,0.929-0.262,2.451-1.598,3.9c-0.816,0.928-2.674,2.488-6.426,2.488c-5.867,0-8.652-3.64-8.652-9.545
			c0-3.677,0.742-6.722,3.676-8.765c1.783-1.263,4.012-1.374,5.088-1.374c8.357,0,8.172,7.391,8.098,10.436H118.93z M128.771,62.827
			c0.037-1.783-0.297-5.497-4.605-5.497c-2.266,0-5.014,1.374-5.088,5.497H128.771z"/>
		<path fill="#FFFFFF" d="M137.645,59.113c0-1.263-0.074-2.562-0.186-3.788h3.529l0.074,3.603c0.668-2.6,2.896-3.454,4.457-3.677
			c1.039-0.148,1.818-0.111,2.414-0.074v3.417c-0.188-0.074-0.41-0.111-0.67-0.148s-0.594-0.037-1.002-0.037
			c-4.123,0-5.088,2.451-5.088,5.645v9.917h-3.529V59.113z"/>
	</g>
</g>
</svg>
