<?xml version="1.0" encoding="utf-8"?>
<!-- Generator: Adobe Illustrator 16.0.0, SVG Export Plug-In . SVG Version: 6.00 Build 0)  -->
<!DOCTYPE svg PUBLIC "-//W3C//DTD SVG 1.1//EN" "http://www.w3.org/Graphics/SVG/1.1/DTD/svg11.dtd">
<svg version="1.1" id="Layer_1" xmlns="http://www.w3.org/2000/svg" xmlns:xlink="http://www.w3.org/1999/xlink" x="0px" y="0px"
	 width="416.825px" height="100.93px" viewBox="0 0 416.825 100.93" enable-background="new 0 0 416.825 100.93"
	 xml:space="preserve">
<g>
	<g>
		<path fill="#307FE2" d="M362.472,100.929H54.309L0,50.465L54.309,0h308.249l54.267,50.812L362.472,100.929z M62.086,81.129
			h292.651l33-30.43l0,0l-33-30.899v0H62.086l-33,30.664L62.086,81.129L62.086,81.129z"/>
	</g>
	<g>
		<polygon fill="#307FE2" points="59.841,17.382 26.841,48.046 24.239,50.462 26.841,52.88 59.841,83.546 60.791,84.429 
			62.087,84.429 354.735,84.429 356.024,84.429 356.972,83.555 389.972,53.124 392.583,50.717 389.99,48.289 356.99,17.391 
			356.038,16.499 354.735,16.499 62.087,16.499 60.792,16.499 		"/>
	</g>
	<g>
		<path fill="#FFFFFF" d="M357.314,87.729H59.493L19.391,50.461l40.104-37.263h297.849l40.089,37.538L357.314,87.729z
			 M62.087,81.129h292.648l33-30.432l0,0l-33.001-30.899H62.087l0.001,0L29.088,50.464L62.087,81.129L62.087,81.129z"/>
	</g>
	<g>
		<path fill="#FFFFFF" d="M82.617,41.66c-0.149-0.929-0.631-4.643-5.794-4.643c-6.462,0-7.614,6.61-7.614,11.067
			c0,5.051,1.449,10.511,7.577,10.511c1.634,0,3.194-0.409,4.345-1.598c0.966-1.039,1.188-2.19,1.3-2.822h4.085
			c-0.557,5.273-5.422,7.465-10.028,7.465c-9.433,0-11.253-8.319-11.253-13.519c0-5.646,2.191-14.076,11.736-14.076
			c3.789,0,9.137,1.522,9.619,7.614H82.617z"/>
		<path fill="#FFFFFF" d="M99.325,42.105c7.465,0,9.137,5.868,9.137,9.768c0,5.46-3.083,9.991-9.434,9.991
			c-6.166,0-9.174-4.271-9.174-9.731C89.854,47.527,92.009,42.105,99.325,42.105z M99.103,59.263c2.637,0,5.645-1.894,5.645-7.502
			c0-4.643-2.154-7.094-5.422-7.094c-2.229,0-5.831,1.411-5.831,7.242C93.494,55.735,95.128,59.263,99.103,59.263z"/>
		<path fill="#FFFFFF" d="M115.922,55.698c-0.037,1.412,0.706,3.38,4.085,3.38c1.448,0,2.525-0.26,3.268-1.188
			c0.372-0.482,0.594-1.114,0.594-1.745c0-1.82-1.3-2.154-4.085-2.786c-3.899-0.891-7.168-1.671-7.168-5.57
			c0-3.417,2.971-5.646,7.28-5.646c2.34,0,5.608,0.668,6.722,2.896c0.483,1.04,0.483,1.932,0.483,2.712h-3.565
			c0.111-2.823-2.34-3.046-3.603-3.046c-0.52,0-3.789,0-3.789,2.674c0,1.709,1.671,2.117,2.637,2.377
			c5.162,1.226,6.276,1.523,7.391,2.562c1.04,0.966,1.411,2.266,1.411,3.454c0,2.08-1.151,3.863-2.525,4.717
			c-1.634,1.003-3.603,1.263-5.534,1.263c-3.788,0-7.316-1.56-7.279-6.054H115.922z"/>
		<path fill="#FFFFFF" d="M132.446,45.076l-0.074-2.488h3.528v2.712c1.783-2.935,4.309-3.194,5.905-3.194
			c4.123,0,5.422,2.117,6.091,3.491c0.632-1.04,2.154-3.491,6.277-3.491c2.674,0,6.833,1.114,6.833,6.61v12.517h-3.528V49.273
			c0-1.634-0.297-2.34-0.631-2.822c-0.595-0.854-1.783-1.635-3.565-1.635c-2.266,0-3.491,1.3-3.974,1.969
			c-0.817,1.151-0.817,3.194-0.817,4.011v10.437h-3.528v-12.33c0-2.303-1.337-4.086-4.085-4.086c-2.377,0-3.677,1.485-4.085,2.043
			c-0.78,1.077-0.817,2.6-0.817,3.788v10.585h-3.528V45.076z"/>
		<path fill="#FFFFFF" d="M175.633,42.105c7.465,0,9.136,5.868,9.136,9.768c0,5.46-3.083,9.991-9.433,9.991
			c-6.166,0-9.174-4.271-9.174-9.731C166.163,47.527,168.317,42.105,175.633,42.105z M175.411,59.263
			c2.637,0,5.645-1.894,5.645-7.502c0-4.643-2.154-7.094-5.422-7.094c-2.229,0-5.831,1.411-5.831,7.242
			C169.802,55.735,171.437,59.263,175.411,59.263z"/>
		<path fill="#FFFFFF" d="M190.113,45.633c0-0.817-0.037-1.263-0.111-3.046h3.528l0.074,3.083c1.746-2.935,4.828-3.38,6.351-3.38
			c4.011,0,7.836,2.748,7.836,9.656c0,6.945-4.048,9.991-8.505,9.991c-2.711,0-4.717-1.151-5.72-2.786V68.4h-3.454V45.633z
			 M198.693,59.375c0.891,0,2.748-0.186,3.937-1.819c1.337-1.82,1.523-4.494,1.523-5.831c0-3.343-1.003-6.834-5.125-6.834
			c-5.571,0-5.571,5.905-5.571,7.577C193.456,54.733,193.79,59.375,198.693,59.375z"/>
		<path fill="#FFFFFF" d="M221.009,42.105c7.465,0,9.136,5.868,9.136,9.768c0,5.46-3.083,9.991-9.433,9.991
			c-6.166,0-9.174-4.271-9.174-9.731C211.539,47.527,213.693,42.105,221.009,42.105z M220.787,59.263
			c2.637,0,5.645-1.894,5.645-7.502c0-4.643-2.154-7.094-5.422-7.094c-2.229,0-5.831,1.411-5.831,7.242
			C215.178,55.735,216.812,59.263,220.787,59.263z"/>
		<path fill="#FFFFFF" d="M235.675,34.454h3.491v26.778h-3.491V34.454z"/>
		<path fill="#FFFFFF" d="M245.59,34.492h4.197v3.825h-4.197V34.492z M245.961,42.587h3.491v18.645h-3.491V42.587z"/>
		<path fill="#FFFFFF" d="M253.387,42.513h3.305v-3.899l3.454-1.114v5.014h4.16v2.562h-4.16v11.18c0,0.929,0,2.488,2.488,2.488
			c0.706,0,1.375-0.111,1.671-0.186v2.711c-0.631,0.111-1.634,0.223-2.897,0.223c-3.194,0-4.717-0.929-4.717-3.974V45.076h-3.305
			V42.513z"/>
		<path fill="#FFFFFF" d="M279.977,61.232c-0.26-0.929-0.334-1.82-0.334-2.785c-1.671,3.082-4.197,3.379-5.757,3.379
			c-4.271,0-6.574-2.414-6.574-5.496c0-1.485,0.52-3.862,3.269-5.46c2.005-1.114,4.977-1.226,6.462-1.226
			c0.891,0,1.448,0.037,2.525,0.111c0-2.303,0-3.305-0.668-4.122c-0.706-0.929-2.229-1.226-3.231-1.226
			c-3.528,0-3.714,2.414-3.751,3.156h-3.491c0.111-0.965,0.223-2.265,1.3-3.527c1.412-1.561,4.048-2.006,6.017-2.006
			c2.711,0,5.608,0.854,6.611,2.748c0.594,1.114,0.631,2.006,0.631,2.86l-0.149,8.913c0,0.297,0.038,2.785,0.297,4.68H279.977z
			 M277.563,52.058c-1.412,0-6.723,0-6.723,3.788c0,1.188,0.743,3.231,3.863,3.231c1.783,0,3.12-0.705,3.974-2.006
			c0.78-1.263,0.817-2.302,0.892-4.902C278.937,52.095,278.417,52.058,277.563,52.058z"/>
		<path fill="#FFFFFF" d="M289.37,44.742l-0.037-2.154h3.491l0.038,3.009c0.408-0.78,1.746-3.38,5.979-3.38
			c1.671,0,6.759,0.632,6.759,6.351v12.665h-3.565V49.384c0-1.226-0.148-2.34-1.003-3.194c-0.891-0.854-2.117-1.263-3.305-1.263
			c-2.526,0-4.865,1.82-4.865,5.571v10.733h-3.491V44.742z"/>
		<path fill="#FFFFFF" d="M311.612,34.492h4.197v3.825h-4.197V34.492z M311.983,42.587h3.491v18.645h-3.491V42.587z"/>
		<path fill="#FFFFFF" d="M324.275,55.698c-0.037,1.412,0.706,3.38,4.085,3.38c1.448,0,2.525-0.26,3.268-1.188
			c0.372-0.482,0.594-1.114,0.594-1.745c0-1.82-1.3-2.154-4.085-2.786c-3.899-0.891-7.168-1.671-7.168-5.57
			c0-3.417,2.971-5.646,7.28-5.646c2.34,0,5.608,0.668,6.722,2.896c0.483,1.04,0.483,1.932,0.483,2.712h-3.565
			c0.111-2.823-2.34-3.046-3.603-3.046c-0.52,0-3.789,0-3.789,2.674c0,1.709,1.671,2.117,2.637,2.377
			c5.162,1.226,6.276,1.523,7.391,2.562c1.04,0.966,1.411,2.266,1.411,3.454c0,2.08-1.151,3.863-2.525,4.717
			c-1.634,1.003-3.603,1.263-5.534,1.263c-3.788,0-7.316-1.56-7.279-6.054H324.275z"/>
		<path fill="#FFFFFF" d="M337.976,42.513h3.305v-3.899l3.454-1.114v5.014h4.16v2.562h-4.16v11.18c0,0.929,0,2.488,2.488,2.488
			c0.706,0,1.375-0.111,1.671-0.186v2.711c-0.631,0.111-1.634,0.223-2.897,0.223c-3.194,0-4.717-0.929-4.717-3.974V45.076h-3.305
			V42.513z"/>
	</g>
</g>
</svg>
