<?xml version="1.0" encoding="utf-8"?>
<!-- Generator: Adobe Illustrator 16.0.0, SVG Export Plug-In . SVG Version: 6.00 Build 0)  -->
<!DOCTYPE svg PUBLIC "-//W3C//DTD SVG 1.1//EN" "http://www.w3.org/Graphics/SVG/1.1/DTD/svg11.dtd">
<svg version="1.1" id="Layer_1" xmlns="http://www.w3.org/2000/svg" xmlns:xlink="http://www.w3.org/1999/xlink" x="0px" y="0px"
	 width="230.431px" height="120.738px" viewBox="0 0 230.431 120.738" enable-background="new 0 0 230.431 120.738"
	 xml:space="preserve">
<g>
	<g>
		<g>
			<path fill="#307FE2" d="M46.862,120.738c-11.322,0-21.583-5.15-30.495-15.309c-32.561-37.106-9.556-63.326,8.928-84.394
				C38.922,5.504,49.122,0,64.276,0c2.889,0,5.845,0.181,9.393,0.454c3.959,0.304,8.424,0.647,13.963,0.647
				c15.265,0,23.356,1.583,30.495,2.981c6.146,1.204,11.45,2.244,22.892,2.244c7.505,0,12.554-0.734,17.438-1.444
				c4.143-0.601,8.572-1.188,13.205-1.188c9.688,0,18.971,2.577,31.043,8.617c15.308,7.661,24.388,18.276,26.988,31.549
				c4.109,20.988-9.648,40.131-23.647,56.089c-9.83,11.203-20.131,16.649-31.493,16.649c-6.551,0-12.122-1.769-17.037-3.33
				c-5.265-1.674-9.81-3.118-16.486-3.118c-13.088,0-19.75,0.148-26.193,0.291l-0.124,0.003c-6.659,0.147-13.546,0.3-27.069,0.3
				c-6.504,0-12.181,2.219-18.191,4.568C63.259,117.731,55.564,120.738,46.862,120.738z M64.276,19.8
				c-6.98,0-12.429,0.995-24.098,14.294c-20.281,23.117-29.134,35.25-8.928,58.277c6.737,7.68,12.136,8.567,15.61,8.567
				c4.972,0,10.26-2.067,15.375-4.065c7.114-2.78,15.17-5.929,25.405-5.929c13.305,0,20.08-0.15,26.632-0.295l0.342,9.895
				l-0.22-9.897c6.551-0.146,13.325-0.296,26.633-0.296c9.748,0,16.513,2.15,22.481,4.047c3.887,1.234,7.56,2.401,11.042,2.401
				c3.398,0,8.817-1.027,16.609-9.907c10.826-12.341,21.562-26.652,19.101-39.225c-1.359-6.938-6.883-12.877-16.418-17.649
				c-11.46-5.733-17.434-6.524-22.183-6.524c-3.004,0-6.073,0.36-10.36,0.982c-5.053,0.735-11.346,1.649-20.282,1.649
				c-13.363,0-20.141-1.328-26.694-2.612c-6.863-1.343-13.347-2.612-26.692-2.612c-6.298,0-11.165-0.374-15.459-0.703
				C69.06,19.958,66.535,19.8,64.276,19.8z"/>
		</g>
		<g>
			<path fill="#307FE2" d="M191.161,86.891c-17.602,20.061-23.441,3.459-50.133,3.459c-26.693,0-26.693,0.596-53.389,0.596
				c-26.693,0-38.785,21.492-56.389,1.426c-20.064-22.867-11.135-35.41,8.928-58.277c17.604-20.062,20.764-13.193,47.453-13.193
				c26.693,0,26.693,5.225,53.387,5.225c26.695,0,28.953-8.051,52.826,3.895C221.245,43.729,211.224,64.022,191.161,86.891"/>
		</g>
		<g>
			<path fill="#FFFFFF" d="M47.03,104.235c-6.66,0-12.462-3.078-18.26-9.687C6.827,69.54,17.3,55.168,37.698,31.918
				c10.39-11.842,16.582-15.452,26.501-15.452c2.481,0,5.134,0.204,8.205,0.439c4.24,0.326,9.047,0.695,15.228,0.695
				c13.667,0,20.611,1.359,27.327,2.673c6.702,1.312,13.033,2.551,26.06,2.551c8.675,0,14.589-0.858,19.808-1.615
				c3.845-0.558,7.164-1.039,10.721-1.039c7.097,0,13.984,1.999,23.774,6.897c10.498,5.252,16.614,11.969,18.181,19.963
				c2.147,10.967-3.978,23.931-19.86,42.035c-6.786,7.734-12.5,11.034-19.105,11.034c-3.965,0-7.7-1.187-12.025-2.561
				c-5.742-1.824-12.25-3.891-21.482-3.891c-13.31,0-20.076,0.151-26.619,0.297c-6.581,0.146-13.385,0.298-26.77,0.298
				c-9.616,0-17.367,3.029-24.206,5.702c-5.642,2.205-10.97,4.287-16.401,4.288H47.03z M64.199,23.066
				c-7.02,0-11.563,1.835-21.54,13.205c-20.831,23.743-26.548,33.843-8.928,53.925c5.785,6.595,10.146,7.44,13.3,7.439
				c4.188,0,8.735-1.777,14-3.835c7.382-2.884,15.748-6.154,26.608-6.154c13.312,0,20.078-0.151,26.622-0.297
				c6.579-0.146,13.384-0.298,26.767-0.298c10.256,0,17.588,2.329,23.48,4.2c3.958,1.258,7.085,2.251,10.027,2.251
				c3.182,0,7.351-1.044,14.145-8.787c14.403-16.418,20.061-27.648,18.344-36.414c-1.168-5.965-5.962-10.98-14.656-15.33
				c-8.8-4.403-14.832-6.199-20.821-6.199c-3.08,0-6.182,0.45-9.773,0.971c-5.17,0.75-11.604,1.683-20.755,1.683
				c-13.667,0-20.611-1.359-27.327-2.673c-6.702-1.312-13.033-2.551-26.06-2.551c-6.435,0-11.591-0.396-15.733-0.714
				C68.963,23.261,66.427,23.066,64.199,23.066z"/>
		</g>
	</g>
	<g>
		<path fill="#FFFFFF" d="M55.112,43.455h6.573l7.577,22.099l7.762-22.099h6.128V70.27h-3.64V46.129L70.711,70.27h-3.528
			l-8.468-23.992V70.27h-3.603V43.455z"/>
		<path fill="#FFFFFF" d="M98.188,51.143c7.465,0,9.136,5.868,9.136,9.768c0,5.46-3.082,9.991-9.434,9.991
			c-6.165,0-9.173-4.271-9.173-9.731C88.717,56.565,90.87,51.143,98.188,51.143z M97.964,68.301c2.638,0,5.646-1.894,5.646-7.502
			c0-4.643-2.154-7.094-5.422-7.094c-2.229,0-5.831,1.411-5.831,7.242C92.356,64.773,93.99,68.301,97.964,68.301z"/>
		<path fill="#FFFFFF" d="M109.919,51.551h3.306v-3.899l3.454-1.114v5.014h4.16v2.562h-4.16v11.18c0,0.929,0,2.488,2.488,2.488
			c0.706,0,1.374-0.111,1.672-0.186v2.711c-0.632,0.111-1.635,0.223-2.897,0.223c-3.194,0-4.717-0.929-4.717-3.974V54.114h-3.306
			V51.551z"/>
		<path fill="#FFFFFF" d="M125.145,43.492h3.528v10.883c1.151-1.969,3.454-3.083,6.054-3.083c1.968,0,4.791,0.706,5.868,2.972
			c0.371,0.742,0.631,1.634,0.631,4.345V70.27h-3.565V59.24c0-1.672,0-5.274-4.011-5.274c-2.6,0-3.899,1.598-4.383,2.488
			c-0.594,1.04-0.594,2.786-0.594,3.938v9.879h-3.528V43.492z"/>
		<path fill="#FFFFFF" d="M149.95,61.58c-0.075,3.862,1.522,6.722,5.348,6.722c2.266,0,4.085-1.188,4.383-3.862h3.491
			c-0.111,0.929-0.261,2.451-1.598,3.899c-0.816,0.929-2.674,2.488-6.425,2.488c-5.868,0-8.653-3.64-8.653-9.545
			c0-3.677,0.742-6.722,3.677-8.765c1.782-1.263,4.011-1.374,5.088-1.374c8.356,0,8.171,7.391,8.097,10.437H149.95z M159.792,59.128
			c0.037-1.783-0.297-5.497-4.605-5.497c-2.266,0-5.014,1.374-5.088,5.497H159.792z"/>
		<path fill="#FFFFFF" d="M168.664,55.415c0-1.264-0.074-2.563-0.186-3.789h3.528l0.074,3.603c0.668-2.6,2.896-3.454,4.457-3.677
			c1.039-0.148,1.819-0.111,2.414-0.074v3.417c-0.187-0.074-0.409-0.111-0.669-0.148s-0.594-0.037-1.003-0.037
			c-4.122,0-5.088,2.451-5.088,5.646v9.916h-3.528V55.415z"/>
	</g>
</g>
</svg>
