<?xml version="1.0" encoding="utf-8"?>
<!-- Generator: Adobe Illustrator 16.0.0, SVG Export Plug-In . SVG Version: 6.00 Build 0)  -->
<!DOCTYPE svg PUBLIC "-//W3C//DTD SVG 1.1//EN" "http://www.w3.org/Graphics/SVG/1.1/DTD/svg11.dtd">
<svg version="1.1" id="Layer_1" xmlns="http://www.w3.org/2000/svg" xmlns:xlink="http://www.w3.org/1999/xlink" x="0px" y="0px"
	 width="290.592px" height="100.93px" viewBox="0 0 290.592 100.93" enable-background="new 0 0 290.592 100.93"
	 xml:space="preserve">
<g>
	<g>
		<path fill="#307FE2" d="M236.282,100.93H54.309L0,50.463L54.309,0h181.974l54.31,50.466L236.282,100.93z M62.088,81.13l166.415,0
			l32.999-30.665l-32.999-30.666v0H62.088l-33,30.664L62.088,81.13z"/>
	</g>
	<g>
		<polygon fill="#307FE2" points="59.841,17.381 26.842,48.045 24.24,50.463 26.842,52.881 59.841,83.545 60.79,84.428 
			62.087,84.428 228.502,84.428 229.799,84.428 230.749,83.545 263.748,52.883 266.351,50.465 263.748,48.047 230.749,17.381 
			229.799,16.499 228.502,16.499 62.087,16.499 60.791,16.499 		"/>
	</g>
	<g>
		<path fill="#FFFFFF" d="M231.095,87.728H59.493L19.392,50.463l40.103-37.265h171.601l40.104,37.267L231.095,87.728z
			 M62.087,81.128l166.416,0l33-30.663l0,0l-33-30.667l-166.415,0l-33,30.665l0.001,0L62.087,81.128L62.087,81.128z"/>
	</g>
	<g>
		<path fill="#FFFFFF" d="M76.47,60.562V36.903h-8.988v-3.157h21.653v3.157h-8.988v23.658H76.47z"/>
		<path fill="#FFFFFF" d="M92.659,33.784h3.528v10.882c1.151-1.968,3.454-3.083,6.054-3.083c1.968,0,4.791,0.706,5.868,2.971
			c0.371,0.743,0.631,1.634,0.631,4.345v11.662h-3.565V49.531c0-1.671,0-5.273-4.011-5.273c-2.6,0-3.9,1.597-4.383,2.488
			c-0.594,1.04-0.594,2.785-0.594,3.937v9.879h-3.528V33.784z"/>
		<path fill="#FFFFFF" d="M117.464,51.871c-0.074,3.863,1.523,6.723,5.348,6.723c2.266,0,4.085-1.188,4.382-3.863h3.491
			c-0.111,0.929-0.26,2.451-1.597,3.9c-0.817,0.928-2.674,2.488-6.425,2.488c-5.868,0-8.654-3.64-8.654-9.545
			c0-3.677,0.743-6.722,3.677-8.765c1.783-1.263,4.011-1.374,5.088-1.374c8.356,0,8.171,7.391,8.097,10.436H117.464z
			 M127.306,49.419c0.037-1.783-0.297-5.497-4.605-5.497c-2.266,0-5.014,1.374-5.088,5.497H127.306z"/>
		<path fill="#FFFFFF" d="M144.089,41.435c7.465,0,9.137,5.868,9.137,9.768c0,5.459-3.083,9.991-9.434,9.991
			c-6.166,0-9.174-4.271-9.174-9.73C134.619,46.857,136.773,41.435,144.089,41.435z M143.867,58.593
			c2.637,0,5.645-1.894,5.645-7.502c0-4.643-2.154-7.094-5.422-7.094c-2.229,0-5.831,1.411-5.831,7.242
			C138.258,55.065,139.893,58.593,143.867,58.593z"/>
		<path fill="#FFFFFF" d="M158.867,45.706c0-1.263-0.074-2.562-0.186-3.788h3.528l0.075,3.603c0.668-2.6,2.896-3.454,4.457-3.677
			c1.04-0.148,1.82-0.111,2.414-0.074v3.417c-0.186-0.074-0.409-0.111-0.668-0.148S167.892,45,167.483,45
			c-4.123,0-5.088,2.451-5.088,5.645v9.917h-3.528V45.706z"/>
		<path fill="#FFFFFF" d="M172.791,33.821h4.197v3.825h-4.197V33.821z M173.163,41.917h3.491v18.644h-3.491V41.917z"/>
		<path fill="#FFFFFF" d="M185.454,55.028c-0.037,1.411,0.706,3.379,4.085,3.379c1.448,0,2.525-0.26,3.268-1.188
			c0.372-0.482,0.594-1.114,0.594-1.746c0-1.82-1.3-2.154-4.085-2.785c-3.899-0.892-7.168-1.671-7.168-5.571
			c0-3.417,2.971-5.645,7.28-5.645c2.34,0,5.608,0.668,6.722,2.897c0.483,1.04,0.483,1.931,0.483,2.711h-3.565
			c0.111-2.822-2.34-3.045-3.603-3.045c-0.52,0-3.789,0-3.789,2.674c0,1.708,1.671,2.117,2.637,2.377
			c5.162,1.226,6.276,1.522,7.391,2.562c1.04,0.966,1.411,2.266,1.411,3.454c0,2.08-1.151,3.862-2.525,4.717
			c-1.634,1.002-3.603,1.263-5.534,1.263c-3.788,0-7.316-1.56-7.279-6.054H185.454z"/>
		<path fill="#FFFFFF" d="M199.155,41.843h3.305v-3.899l3.454-1.114v5.014h4.16v2.563h-4.16v11.179c0,0.928,0,2.488,2.488,2.488
			c0.706,0,1.375-0.111,1.671-0.186v2.711c-0.631,0.111-1.634,0.223-2.897,0.223c-3.194,0-4.717-0.928-4.717-3.974V44.406h-3.305
			V41.843z"/>
	</g>
</g>
</svg>
