<?xml version="1.0" encoding="utf-8"?>
<!-- Generator: Adobe Illustrator 16.0.0, SVG Export Plug-In . SVG Version: 6.00 Build 0)  -->
<!DOCTYPE svg PUBLIC "-//W3C//DTD SVG 1.1//EN" "http://www.w3.org/Graphics/SVG/1.1/DTD/svg11.dtd">
<svg version="1.1" id="Layer_1" xmlns="http://www.w3.org/2000/svg" xmlns:xlink="http://www.w3.org/1999/xlink" x="0px" y="0px"
	 width="475.331px" height="100.93px" viewBox="0 0 475.331 100.93" enable-background="new 0 0 475.331 100.93"
	 xml:space="preserve">
<g>
	<g>
		<path fill="#307FE2" d="M421.025,100.93H54.247L0,49.982L54.37,0h366.655l54.306,50.468L421.025,100.93z M62.088,81.13h351.156
			l33-30.663l-33-30.667l0,0H62.088l-33,30.337L62.09,81.13H62.088z"/>
	</g>
	<g>
		<polygon fill="#307FE2" points="59.854,17.37 26.854,47.707 24.24,50.111 26.829,52.542 59.829,83.535 60.781,84.43 62.087,84.43 
			413.243,84.43 414.541,84.43 415.49,83.546 448.49,52.883 451.092,50.465 448.49,48.047 415.49,17.381 414.541,16.499 
			413.243,16.499 62.087,16.499 60.802,16.499 		"/>
	</g>
	<g>
		<path fill="#FFFFFF" d="M415.839,87.73H59.473L19.392,50.085l40.123-36.887h356.323l40.101,37.267L415.839,87.73z M62.087,81.13
			h351.156l33.001-30.665l-0.001-0.001l-33-30.666H62.087l0.001,0L29.088,50.136L62.089,81.13H62.087z"/>
	</g>
	<g>
		<path fill="#FFFFFF" d="M67.968,33.463h9.582c3.269,0,5.088,0.334,6.759,1.968c1.151,1.114,1.895,2.674,1.895,4.791
			c0,4.42-3.231,5.571-4.531,6.054c1.56,0.446,5.348,1.56,5.348,6.686c0,3.64-2.34,5.497-3.231,6.091
			c-1.857,1.226-3.937,1.226-6.054,1.226h-9.768V33.463z M71.57,44.791h5.2c1.263,0,5.571,0,5.571-4.234
			c0-4.048-3.38-4.048-5.422-4.048H71.57V44.791z M71.57,57.27h6.351c2.934,0,5.274-1.56,5.274-4.643
			c0-2.674-1.857-4.643-5.125-4.643h-6.5V57.27z"/>
		<path fill="#FFFFFF" d="M95.669,41.634V53.63c0,1.82,0.409,4.123,3.974,4.123c1.745,0,3.379-0.594,4.382-2.08
			c0.78-1.114,0.78-2.562,0.78-3.491V41.634h3.603v15.153c0,0.372,0.074,2.451,0.111,3.491h-3.64l-0.074-3.194
			c-0.668,1.3-1.931,3.379-5.942,3.379c-4.605,0-6.759-2.637-6.759-6.313V41.634H95.669z"/>
		<path fill="#FFFFFF" d="M117.169,54.745c-0.037,1.411,0.706,3.379,4.085,3.379c1.448,0,2.525-0.26,3.268-1.188
			c0.372-0.482,0.594-1.114,0.594-1.746c0-1.82-1.3-2.154-4.085-2.785c-3.899-0.892-7.168-1.671-7.168-5.571
			c0-3.417,2.971-5.645,7.28-5.645c2.339,0,5.608,0.668,6.722,2.897c0.483,1.04,0.483,1.931,0.483,2.711h-3.565
			c0.111-2.822-2.34-3.045-3.603-3.045c-0.52,0-3.789,0-3.789,2.674c0,1.708,1.671,2.117,2.637,2.377
			c5.162,1.226,6.276,1.522,7.391,2.562c1.04,0.966,1.412,2.266,1.412,3.454c0,2.08-1.151,3.862-2.526,4.717
			c-1.634,1.002-3.603,1.263-5.534,1.263c-3.788,0-7.316-1.56-7.279-6.054H117.169z"/>
		<path fill="#FFFFFF" d="M133.396,33.538h4.197v3.825h-4.197V33.538z M133.768,41.634h3.491v18.644h-3.491V41.634z"/>
		<path fill="#FFFFFF" d="M144.165,43.788l-0.037-2.154h3.491l0.038,3.008c0.408-0.78,1.746-3.38,5.979-3.38
			c1.671,0,6.759,0.631,6.759,6.351v12.665h-3.565V48.431c0-1.226-0.148-2.34-1.003-3.194c-0.891-0.854-2.117-1.263-3.305-1.263
			c-2.526,0-4.865,1.82-4.865,5.571v10.733h-3.491V43.788z"/>
		<path fill="#FFFFFF" d="M168.858,51.587c-0.074,3.863,1.523,6.723,5.348,6.723c2.266,0,4.085-1.188,4.382-3.863h3.491
			c-0.111,0.929-0.26,2.451-1.597,3.9c-0.817,0.928-2.674,2.488-6.425,2.488c-5.868,0-8.654-3.64-8.654-9.545
			c0-3.677,0.743-6.722,3.677-8.765c1.783-1.263,4.011-1.374,5.088-1.374c8.356,0,8.171,7.391,8.097,10.436H168.858z M178.7,49.136
			c0.037-1.783-0.297-5.497-4.605-5.497c-2.266,0-5.014,1.374-5.088,5.497H178.7z"/>
		<path fill="#FFFFFF" d="M189.393,54.745c-0.037,1.411,0.706,3.379,4.085,3.379c1.448,0,2.525-0.26,3.268-1.188
			c0.372-0.482,0.594-1.114,0.594-1.746c0-1.82-1.3-2.154-4.085-2.785c-3.899-0.892-7.168-1.671-7.168-5.571
			c0-3.417,2.971-5.645,7.28-5.645c2.339,0,5.608,0.668,6.722,2.897c0.483,1.04,0.483,1.931,0.483,2.711h-3.565
			c0.111-2.822-2.34-3.045-3.603-3.045c-0.52,0-3.789,0-3.789,2.674c0,1.708,1.671,2.117,2.637,2.377
			c5.162,1.226,6.276,1.522,7.391,2.562c1.04,0.966,1.412,2.266,1.412,3.454c0,2.08-1.151,3.862-2.526,4.717
			c-1.634,1.002-3.603,1.263-5.534,1.263c-3.788,0-7.316-1.56-7.279-6.054H189.393z"/>
		<path fill="#FFFFFF" d="M207.959,54.745c-0.037,1.411,0.706,3.379,4.085,3.379c1.448,0,2.525-0.26,3.268-1.188
			c0.372-0.482,0.594-1.114,0.594-1.746c0-1.82-1.3-2.154-4.085-2.785c-3.899-0.892-7.168-1.671-7.168-5.571
			c0-3.417,2.971-5.645,7.28-5.645c2.34,0,5.608,0.668,6.722,2.897c0.483,1.04,0.483,1.931,0.483,2.711h-3.565
			c0.111-2.822-2.34-3.045-3.603-3.045c-0.52,0-3.789,0-3.789,2.674c0,1.708,1.671,2.117,2.637,2.377
			c5.162,1.226,6.276,1.522,7.391,2.562c1.04,0.966,1.411,2.266,1.411,3.454c0,2.08-1.151,3.862-2.525,4.717
			c-1.634,1.002-3.603,1.263-5.534,1.263c-3.788,0-7.316-1.56-7.279-6.054H207.959z"/>
		<path fill="#FFFFFF" d="M234.844,33.463h7.762c3.603,0,7.837,0,10.808,3.491c2.377,2.785,3.306,6.462,3.306,10.139
			c0,5.794-2.414,9.359-4.457,10.993c-2.637,2.191-5.942,2.191-9.879,2.191h-7.539V33.463z M238.558,57.233h3.64
			c2.562,0,5.236-0.148,7.02-1.486c3.417-2.562,3.528-6.945,3.528-8.505c0-1.003-0.074-5.571-2.6-8.356
			c-1.709-1.894-3.863-2.34-7.131-2.34h-4.457V57.233z"/>
		<path fill="#FFFFFF" d="M263.771,51.587c-0.075,3.863,1.522,6.723,5.348,6.723c2.266,0,4.085-1.188,4.383-3.863h3.491
			c-0.111,0.929-0.261,2.451-1.598,3.9c-0.816,0.928-2.674,2.488-6.425,2.488c-5.868,0-8.653-3.64-8.653-9.545
			c0-3.677,0.742-6.722,3.677-8.765c1.782-1.263,4.011-1.374,5.088-1.374c8.356,0,8.171,7.391,8.097,10.436H263.771z
			 M273.612,49.136c0.037-1.783-0.297-5.497-4.605-5.497c-2.266,0-5.014,1.374-5.088,5.497H273.612z"/>
		<path fill="#FFFFFF" d="M279.476,41.634h3.9l5.942,14.781l5.794-14.781h3.862l-8.171,18.644h-3.528L279.476,41.634z"/>
		<path fill="#FFFFFF" d="M305.062,51.587c-0.075,3.863,1.522,6.723,5.348,6.723c2.266,0,4.085-1.188,4.383-3.863h3.491
			c-0.111,0.929-0.261,2.451-1.598,3.9c-0.816,0.928-2.674,2.488-6.425,2.488c-5.868,0-8.653-3.64-8.653-9.545
			c0-3.677,0.742-6.722,3.677-8.765c1.782-1.263,4.011-1.374,5.088-1.374c8.356,0,8.171,7.391,8.097,10.436H305.062z
			 M314.904,49.136c0.037-1.783-0.297-5.497-4.605-5.497c-2.266,0-5.014,1.374-5.088,5.497H314.904z"/>
		<path fill="#FFFFFF" d="M323.666,33.5h3.491v26.778h-3.491V33.5z"/>
		<path fill="#FFFFFF" d="M342.011,41.151c7.465,0,9.136,5.868,9.136,9.768c0,5.459-3.082,9.991-9.434,9.991
			c-6.165,0-9.173-4.271-9.173-9.73C332.54,46.574,334.693,41.151,342.011,41.151z M341.787,58.31c2.638,0,5.646-1.895,5.646-7.502
			c0-4.643-2.154-7.094-5.422-7.094c-2.229,0-5.831,1.412-5.831,7.242C336.18,54.782,337.813,58.31,341.787,58.31z"/>
		<path fill="#FFFFFF" d="M356.491,44.68c0-0.817-0.037-1.263-0.111-3.045h3.528l0.074,3.083c1.745-2.934,4.828-3.38,6.351-3.38
			c4.011,0,7.837,2.749,7.837,9.656c0,6.945-4.049,9.991-8.506,9.991c-2.711,0-4.717-1.151-5.719-2.785v9.248h-3.454V44.68z
			 M365.07,58.421c0.892,0,2.748-0.186,3.937-1.82c1.337-1.82,1.522-4.494,1.522-5.831c0-3.343-1.002-6.833-5.125-6.833
			c-5.571,0-5.571,5.905-5.571,7.576C359.833,53.779,360.168,58.421,365.07,58.421z"/>
		<path fill="#FFFFFF" d="M381.408,51.587c-0.075,3.863,1.522,6.723,5.348,6.723c2.266,0,4.085-1.188,4.383-3.863h3.491
			c-0.111,0.929-0.261,2.451-1.598,3.9c-0.816,0.928-2.674,2.488-6.425,2.488c-5.868,0-8.653-3.64-8.653-9.545
			c0-3.677,0.742-6.722,3.677-8.765c1.782-1.263,4.011-1.374,5.088-1.374c8.356,0,8.171,7.391,8.097,10.436H381.408z M391.25,49.136
			c0.037-1.783-0.297-5.497-4.605-5.497c-2.266,0-5.014,1.374-5.088,5.497H391.25z"/>
		<path fill="#FFFFFF" d="M400.122,45.422c0-1.263-0.074-2.562-0.186-3.788h3.528l0.074,3.603c0.668-2.6,2.896-3.454,4.457-3.677
			c1.039-0.149,1.819-0.112,2.414-0.075v3.417c-0.187-0.074-0.409-0.111-0.669-0.148s-0.595-0.037-1.003-0.037
			c-4.122,0-5.088,2.451-5.088,5.645v9.917h-3.528V45.422z"/>
	</g>
</g>
</svg>
