<?xml version="1.0" encoding="utf-8"?>
<!-- Generator: Adobe Illustrator 16.0.0, SVG Export Plug-In . SVG Version: 6.00 Build 0)  -->
<!DOCTYPE svg PUBLIC "-//W3C//DTD SVG 1.1//EN" "http://www.w3.org/Graphics/SVG/1.1/DTD/svg11.dtd">
<svg version="1.1" id="Layer_1" xmlns="http://www.w3.org/2000/svg" xmlns:xlink="http://www.w3.org/1999/xlink" x="0px" y="0px"
	 width="338.325px" height="122.603px" viewBox="0 0 338.325 122.603" enable-background="new 0 0 338.325 122.603"
	 xml:space="preserve">
<g>
	<g>
		<g>
			<path fill="#307FE2" d="M281.44,122.603c-6.054,0-11.585-1.056-16.935-2.078c-5.772-1.102-11.22-2.141-17.782-2.141
				c-14.827,0-22.693-1.24-29.633-2.333c-6.299-0.993-11.737-1.851-23.471-1.851c-12.563,0-18.271,0.211-24.312,0.436
				c-6.609,0.246-13.408,0.499-28.793,0.499c-11.002,0-21.37-2.612-31.397-5.139c-8.042-2.027-15.633-3.939-21.72-3.939
				c-7.455,0-16.154,4.16-23.829,7.83c-8.632,4.126-17.555,8.392-27.227,8.393c-3.892,0-7.659-0.708-11.199-2.104
				c-5.768-2.274-13.66-7.584-18.515-19.966C-8.785,60.902,4.833,45.296,25.446,21.675l0.438-0.502
				C35.588,10.05,44.997,4.867,55.491,4.867c6.169,0,11.779,1.851,16.924,3.851c4.751,1.847,8.504,3.307,14.959,3.307
				c12.012,0,17.574-0.719,24.014-1.552c7.174-0.925,14.56-1.877,29.09-1.877c10.155,0,14.474-1.399,20.451-3.335
				C168.175,2.916,177.184,0,193.583,0c14.373,0,21.678,0.814,28.741,1.602c6.566,0.731,12.208,1.36,24.37,1.36
				c3.374,0,6.317-0.033,8.938-0.062l0.204-0.002c1.963-0.022,3.784-0.039,5.487-0.039c17.428,0,25.041,2.171,45.256,12.909
				c17.846,9.48,28.281,21.804,31.018,36.629c3.036,16.44-3.377,33.068-20.182,52.329
				C306.92,116.755,295.152,122.603,281.44,122.603z M193.62,94.399c13.285,0,20.031,1.063,26.554,2.092
				c6.826,1.076,13.273,2.092,26.55,2.092c8.435,0,15.369,1.323,21.488,2.491c4.657,0.889,9.049,1.728,13.229,1.728
				c5.625,0,12.525-1.318,21.056-11.095c16.442-18.846,16.796-29.411,15.631-35.718c-1.585-8.585-8.595-16.235-20.835-22.737
				c-18.35-9.747-22.572-10.595-35.968-10.595c-1.633,0-3.379,0.016-5.263,0.038l-0.207,0.002c-2.687,0.03-5.702,0.063-9.16,0.063
				c-13.261,0-19.706-0.718-26.528-1.478c-6.562-0.732-13.311-1.484-26.583-1.484c-13.275,0-20.024,2.184-26.552,4.296
				c-6.525,2.113-13.272,4.298-26.554,4.298c-13.259,0-19.703,0.831-26.525,1.711c-6.547,0.847-13.291,1.719-26.578,1.719
				c-10.169,0-16.804-2.58-22.135-4.652c-3.866-1.503-7.004-2.505-9.748-2.505c-1.744,0-6.379,0-14.692,9.529l-0.439,0.503
				C20.671,57.261,14.036,64.864,25.062,92.98c1.834,4.679,4.237,7.549,7.346,8.775c1.233,0.486,2.52,0.723,3.934,0.723
				c5.184,0,11.741-3.135,18.685-6.455c9.102-4.352,20.427-9.767,32.372-9.767c8.543,0,17.29,2.204,26.552,4.538
				c8.861,2.233,18.02,4.541,26.565,4.541c15.016,0,21.628-0.246,28.022-0.484C174.805,94.617,180.689,94.399,193.62,94.399z"/>
		</g>
		<g>
			<path fill="#307FE2" d="M302.495,91.708c-17.449,20-29.232,6.875-55.771,6.875c-26.551,0-26.551-4.183-53.104-4.183
				c-26.551,0-23.854,0.933-53.105,0.933c-17.092,0-36.027-9.078-53.119-9.078c-29.248,0-52.643,31.447-62.334,6.727
				C13.956,64.66,20.798,57.119,40.798,34.196c17.447-20,20.033-2.371,46.576-2.371c26.551,0,26.551-3.43,53.102-3.43
				c26.553,0,26.553-8.596,53.107-8.596s26.555,2.963,53.111,2.963c26.559,0,27.145-1.968,50.598,10.49
				C326.88,48.971,322.497,68.785,302.495,91.708"/>
		</g>
		<g>
			<path fill="#FFFFFF" d="M281.386,106.111c-4.399,0-8.96-0.871-13.788-1.793c-5.976-1.141-12.748-2.435-20.874-2.435
				c-13.533,0-20.412-1.083-27.064-2.131c-6.696-1.055-13.021-2.051-26.039-2.051c-12.893,0-18.755,0.217-24.96,0.447
				c-6.442,0.239-13.104,0.485-28.146,0.485c-8.955,0-18.314-2.358-27.366-4.639c-8.66-2.183-17.616-4.439-25.753-4.439
				c-11.195,0-21.688,5.017-30.945,9.443c-7.588,3.628-14.142,6.762-20.089,6.762c-6.617,0-11.318-3.786-14.372-11.574
				C10.233,64.205,18.326,54.93,37.878,32.522l0.434-0.496c6.529-7.485,11.742-10.679,17.431-10.679
				c3.623,0,6.898,1.273,10.692,2.748c5.076,1.973,11.393,4.429,20.939,4.429c13.063,0,19.409-0.82,26.128-1.688
				c6.63-0.856,13.486-1.742,26.974-1.742c12.755,0,18.964-2.01,25.536-4.138c6.771-2.192,13.772-4.458,27.571-4.458
				c13.461,0,20.303,0.763,26.921,1.501c6.734,0.751,13.096,1.461,26.19,1.461c3.532,0,6.604-0.035,9.329-0.066
				c2.196-0.025,4.172-0.047,5.983-0.047c13.882,0,19.045,1.541,36.833,10.989c13.36,7.098,20.73,15.292,22.532,25.052
				c2.048,11.096-3.16,23.325-16.391,38.488C297.601,102.338,290.323,106.111,281.386,106.111z M193.62,91.101
				c13.535,0,20.414,1.083,27.066,2.131c6.695,1.055,13.021,2.051,26.037,2.051c8.75,0,15.85,1.355,22.112,2.552
				c4.709,0.899,8.775,1.676,12.55,1.676c5.153,0,10.977-1.208,18.623-9.973c11.639-13.339,16.503-24.117,14.873-32.951
				c-1.412-7.65-7.672-14.331-19.138-20.422c-17.695-9.399-21.612-10.218-33.737-10.218c-1.789,0-3.739,0.022-5.908,0.047
				c-2.748,0.031-5.844,0.066-9.404,0.066c-13.462,0-20.305-0.763-26.923-1.501c-6.734-0.751-13.095-1.461-26.188-1.461
				c-12.757,0-18.966,2.01-25.538,4.138c-6.771,2.192-13.772,4.458-27.569,4.458c-13.063,0-19.409,0.82-26.128,1.688
				c-6.63,0.856-13.486,1.742-26.974,1.742c-10.784,0-18.036-2.819-23.331-4.877c-3.305-1.285-5.916-2.3-8.301-2.3
				c-2.529,0-5.987,1-12.458,8.417l-0.433,0.497C23.139,59.454,17.84,65.525,28.134,91.777c2.551,6.506,5.59,7.383,8.228,7.383
				c4.45,0,10.378-2.834,17.242-6.116c9.89-4.729,21.1-10.088,33.792-10.088c8.955,0,18.314,2.358,27.366,4.639
				c8.66,2.183,17.616,4.439,25.753,4.439c14.919,0,21.519-0.245,27.9-0.481C174.685,91.32,180.605,91.101,193.62,91.101z"/>
		</g>
	</g>
	<g>
		<path fill="#FFFFFF" d="M44.951,48.958h15.971v3.157H48.739v8.356h11.477v3.12H48.739v12.182h-3.788V48.958z"/>
		<path fill="#FFFFFF" d="M75.959,75.774c-0.26-0.929-0.334-1.82-0.334-2.785c-1.672,3.082-4.197,3.379-5.757,3.379
			c-4.271,0-6.573-2.414-6.573-5.496c0-1.485,0.52-3.862,3.268-5.46c2.006-1.114,4.977-1.226,6.463-1.226
			c0.891,0,1.448,0.037,2.525,0.111c0-2.303,0-3.305-0.668-4.122c-0.706-0.929-2.229-1.226-3.232-1.226
			c-3.527,0-3.713,2.414-3.75,3.156h-3.492c0.111-0.965,0.224-2.265,1.301-3.527c1.411-1.561,4.048-2.006,6.017-2.006
			c2.711,0,5.608,0.854,6.61,2.748c0.595,1.114,0.632,2.006,0.632,2.86l-0.149,8.913c0,0.297,0.038,2.785,0.298,4.68H75.959z
			 M73.545,66.6c-1.411,0-6.723,0-6.723,3.788c0,1.188,0.743,3.231,3.863,3.231c1.783,0,3.119-0.705,3.974-2.006
			c0.78-1.263,0.817-2.302,0.892-4.902C74.92,66.637,74.399,66.6,73.545,66.6z"/>
		<path fill="#FFFFFF" d="M82.418,57.129h3.899l5.942,14.782l5.794-14.782h3.862l-8.17,18.645h-3.529L82.418,57.129z"/>
		<path fill="#FFFFFF" d="M113.426,56.647c7.466,0,9.137,5.868,9.137,9.768c0,5.46-3.082,9.991-9.434,9.991
			c-6.165,0-9.174-4.271-9.174-9.731C103.955,62.069,106.109,56.647,113.426,56.647z M113.203,73.805
			c2.637,0,5.646-1.894,5.646-7.502c0-4.643-2.153-7.094-5.423-7.094c-2.229,0-5.83,1.411-5.83,7.242
			C107.596,70.277,109.229,73.805,113.203,73.805z"/>
		<path fill="#FFFFFF" d="M131.212,57.129v11.996c0,1.82,0.409,4.123,3.974,4.123c1.746,0,3.38-0.595,4.383-2.08
			c0.779-1.114,0.779-2.562,0.779-3.491V57.129h3.604v15.153c0,0.371,0.074,2.451,0.111,3.491h-3.641l-0.074-3.194
			c-0.668,1.3-1.931,3.38-5.941,3.38c-4.605,0-6.76-2.637-6.76-6.313V57.129H131.212z"/>
		<path fill="#FFFFFF" d="M150.892,60.918c0-1.264-0.074-2.563-0.186-3.789h3.528l0.074,3.603c0.668-2.6,2.896-3.454,4.457-3.677
			c1.039-0.148,1.819-0.111,2.414-0.074v3.417c-0.186-0.074-0.409-0.111-0.669-0.148s-0.595-0.037-1.003-0.037
			c-4.123,0-5.088,2.451-5.088,5.646v9.916h-3.528V60.918z"/>
		<path fill="#FFFFFF" d="M164.816,49.034h4.196v3.825h-4.196V49.034z M165.188,57.129h3.49v18.645h-3.49V57.129z"/>
		<path fill="#FFFFFF" d="M172.613,57.055h3.306v-3.899l3.454-1.114v5.014h4.16v2.562h-4.16v11.18c0,0.929,0,2.488,2.488,2.488
			c0.705,0,1.375-0.111,1.672-0.186v2.711c-0.632,0.111-1.635,0.223-2.897,0.223c-3.194,0-4.717-0.929-4.717-3.974V59.618h-3.306
			V57.055z"/>
		<path fill="#FFFFFF" d="M189.955,67.083c-0.074,3.862,1.523,6.722,5.349,6.722c2.266,0,4.085-1.188,4.382-3.862h3.492
			c-0.111,0.929-0.26,2.451-1.598,3.899c-0.816,0.929-2.674,2.488-6.425,2.488c-5.868,0-8.653-3.64-8.653-9.545
			c0-3.677,0.742-6.722,3.676-8.765c1.783-1.263,4.012-1.374,5.089-1.374c8.356,0,8.171,7.391,8.097,10.437H189.955z
			 M199.798,64.632c0.037-1.783-0.298-5.497-4.605-5.497c-2.266,0-5.015,1.374-5.089,5.497H199.798z"/>
		<path fill="#FFFFFF" d="M225.308,48.958h3.974l10.845,26.815h-4.048l-2.896-6.982h-12.442l-2.897,6.982h-3.824L225.308,48.958z
			 M221.928,65.784h10.139l-4.939-13.147L221.928,65.784z"/>
		<path fill="#FFFFFF" d="M246.955,57.129v11.996c0,1.82,0.408,4.123,3.974,4.123c1.745,0,3.38-0.595,4.382-2.08
			c0.78-1.114,0.78-2.562,0.78-3.491V57.129h3.603v15.153c0,0.371,0.074,2.451,0.111,3.491h-3.64l-0.074-3.194
			c-0.669,1.3-1.931,3.38-5.942,3.38c-4.605,0-6.76-2.637-6.76-6.313V57.129H246.955z"/>
		<path fill="#FFFFFF" d="M266.561,59.284l-0.037-2.154h3.49l0.037,3.009c0.408-0.78,1.746-3.38,5.98-3.38
			c1.67,0,6.759,0.632,6.759,6.351v12.665h-3.565V63.926c0-1.226-0.148-2.34-1.003-3.194c-0.892-0.854-2.116-1.263-3.306-1.263
			c-2.525,0-4.865,1.82-4.865,5.571v10.733h-3.49V59.284z"/>
		<path fill="#FFFFFF" d="M286.277,57.055h3.305v-3.899l3.454-1.114v5.014h4.159v2.562h-4.159v11.18c0,0.929,0,2.488,2.488,2.488
			c0.706,0,1.374-0.111,1.671-0.186v2.711c-0.631,0.111-1.634,0.223-2.896,0.223c-3.193,0-4.717-0.929-4.717-3.974V59.618h-3.305
			V57.055z"/>
	</g>
</g>
</svg>
