<?xml version="1.0" encoding="utf-8"?>
<!-- Generator: Adobe Illustrator 16.0.0, SVG Export Plug-In . SVG Version: 6.00 Build 0)  -->
<!DOCTYPE svg PUBLIC "-//W3C//DTD SVG 1.1//EN" "http://www.w3.org/Graphics/SVG/1.1/DTD/svg11.dtd">
<svg version="1.1" id="Layer_1" xmlns="http://www.w3.org/2000/svg" xmlns:xlink="http://www.w3.org/1999/xlink" x="0px" y="0px"
	 width="288.124px" height="100.929px" viewBox="0 0 288.124 100.929" enable-background="new 0 0 288.124 100.929"
	 xml:space="preserve">
<g>
	<g>
		<path fill="#307FE2" d="M233.772,100.929H54.309L0,50.465L54.308,0h179.551l54.265,50.81L233.772,100.929z M62.086,81.129h163.951
			l32.999-30.43l-0.001,0l-33-30.899v0H62.088l-33,30.664L62.086,81.129L62.086,81.129z"/>
	</g>
	<g>
		<polygon fill="#307FE2" points="59.841,17.381 26.841,48.045 24.239,50.463 26.841,52.881 59.841,83.545 60.791,84.429 
			62.087,84.429 226.036,84.429 227.325,84.429 228.272,83.555 261.272,53.125 263.883,50.717 261.292,48.29 228.292,17.391 
			227.339,16.499 226.036,16.499 62.087,16.499 60.792,16.499 		"/>
	</g>
	<g>
		<path fill="#FFFFFF" d="M228.615,87.729H59.492L19.391,50.463l40.104-37.265h169.149l40.086,37.537L228.615,87.729z
			 M62.087,81.129h163.948l33-30.431l0,0l-33.001-30.9l-163.947,0l-33,30.665l0,0l33.001,30.666H62.087z"/>
	</g>
	<g>
		<path fill="#FFFFFF" d="M67.524,34.416h8.988c3.268,0,5.497,0.186,7.316,2.154c1.337,1.375,1.968,3.194,1.968,5.2
			c0,2.043-0.668,3.789-2.117,5.237c-1.412,1.411-3.269,2.303-8.097,2.303h-4.345V61.23h-3.714V34.416z M71.238,46.189h4.419
			c2.451,0,6.203-0.186,6.203-4.568c0-4.197-3.491-4.197-5.423-4.197h-5.199V46.189z"/>
		<path fill="#FFFFFF" d="M89.655,46.375c0-1.263-0.074-2.562-0.186-3.788h3.528l0.075,3.603c0.668-2.6,2.896-3.454,4.457-3.677
			c1.04-0.148,1.82-0.111,2.414-0.074v3.417c-0.186-0.074-0.409-0.111-0.668-0.148s-0.594-0.037-1.003-0.037
			c-4.123,0-5.088,2.451-5.088,5.645v9.917h-3.528V46.375z"/>
		<path fill="#FFFFFF" d="M112.011,42.104c7.465,0,9.137,5.868,9.137,9.768c0,5.459-3.083,9.991-9.434,9.991
			c-6.166,0-9.174-4.271-9.174-9.73C102.54,47.526,104.694,42.104,112.011,42.104z M111.788,59.262c2.637,0,5.645-1.894,5.645-7.502
			c0-4.643-2.154-7.094-5.422-7.094c-2.229,0-5.831,1.411-5.831,7.242C106.18,55.734,107.814,59.262,111.788,59.262z"/>
		<path fill="#FFFFFF" d="M139.527,34.453h3.491v23.807c0,0.409,0.074,2.005,0.148,2.971h-3.491l-0.075-2.971
			c-0.297,0.52-0.706,1.3-1.671,1.968c-1.523,1.04-3.343,1.375-4.605,1.375c-2.488,0-8.022-1.3-8.022-9.471
			c0-7.094,4.048-10.176,8.431-10.176c4.011,0,5.348,2.377,5.793,3.157V34.453z M138.227,46.449
			c-0.743-0.965-2.117-1.894-4.085-1.894c-5.125,0-5.125,6.202-5.125,7.465c0,3.306,0.854,7.131,5.125,7.131
			c5.497,0,5.497-6.054,5.497-7.502C139.638,48.937,139.007,47.452,138.227,46.449z"/>
		<path fill="#FFFFFF" d="M152.484,42.586v11.996c0,1.82,0.409,4.123,3.974,4.123c1.746,0,3.379-0.594,4.382-2.08
			c0.78-1.114,0.78-2.562,0.78-3.491V42.586h3.603v15.153c0,0.372,0.074,2.451,0.112,3.491h-3.64l-0.074-3.194
			c-0.668,1.3-1.931,3.379-5.942,3.379c-4.605,0-6.759-2.637-6.759-6.313V42.586H152.484z"/>
		<path fill="#FFFFFF" d="M182.6,48.566c-0.074-0.854-0.334-3.9-3.714-3.9c-4.828,0-4.828,5.608-4.828,7.02
			c0,3.825,0.929,7.391,4.643,7.391c2.971,0,3.974-2.228,4.048-4.048h3.528c-0.223,3.64-2.934,6.685-7.54,6.685
			c-1.263,0-4.16-0.26-6.128-2.414c-1.114-1.3-2.229-3.269-2.229-7.131c0-7.762,4.754-10.065,8.468-10.065
			c1.226,0,4.011,0.26,5.72,2.303c1.374,1.597,1.485,3.12,1.56,4.16H182.6z"/>
		<path fill="#FFFFFF" d="M192.662,52.54c-0.074,3.863,1.523,6.723,5.348,6.723c2.266,0,4.085-1.188,4.382-3.863h3.491
			c-0.111,0.929-0.26,2.451-1.597,3.9c-0.817,0.928-2.674,2.488-6.425,2.488c-5.868,0-8.654-3.64-8.654-9.545
			c0-3.677,0.743-6.722,3.677-8.765c1.783-1.263,4.011-1.374,5.088-1.374c8.356,0,8.171,7.391,8.097,10.436H192.662z
			 M202.504,50.088c0.037-1.783-0.297-5.497-4.605-5.497c-2.266,0-5.014,1.374-5.088,5.497H202.504z"/>
		<path fill="#FFFFFF" d="M211.377,46.375c0-1.263-0.074-2.562-0.186-3.788h3.528l0.075,3.603c0.668-2.6,2.896-3.454,4.457-3.677
			c1.04-0.148,1.82-0.111,2.414-0.074v3.417c-0.186-0.074-0.409-0.111-0.668-0.148s-0.594-0.037-1.003-0.037
			c-4.123,0-5.088,2.451-5.088,5.645v9.917h-3.528V46.375z"/>
	</g>
</g>
</svg>
