<?xml version="1.0" encoding="utf-8"?>
<!-- Generator: Adobe Illustrator 16.0.0, SVG Export Plug-In . SVG Version: 6.00 Build 0)  -->
<!DOCTYPE svg PUBLIC "-//W3C//DTD SVG 1.1//EN" "http://www.w3.org/Graphics/SVG/1.1/DTD/svg11.dtd">
<svg version="1.1" id="Layer_1" xmlns="http://www.w3.org/2000/svg" xmlns:xlink="http://www.w3.org/1999/xlink" x="0px" y="0px"
	 width="212.749px" height="132.42px" viewBox="0 0 212.749 132.42" enable-background="new 0 0 212.749 132.42"
	 xml:space="preserve">
<g>
	<g>
		<path fill="#307FE2" d="M-158.2,127.677l-13.792-17.341l-16.65,14.78l-12.179-18.813l-18.609,13.091l-9.783-21.078l-22.814,10.164
			l-3.17-27.928l-40.18-14.111l40.191-14.13l3.177-27.931l22.814,10.167l9.781-21.083l18.593,13.099l12.165-18.812l16.655,14.787
			l13.796-17.34l15.185,16.089l15.181-16.093l13.792,17.342l16.654-14.787l12.179,18.821l18.607-13.092l9.783,21.08l22.813-10.166
			l3.171,27.929L9.337,66.433l-40.189,14.129l-3.177,27.935l-22.815-10.171l-9.78,21.083l-18.591-13.097l-12.165,18.81
			l-16.656-14.785l-13.797,17.339l-15.184-16.088L-158.2,127.677z M-143.021,82.736l13.912,14.74l12.589-15.821l15.036,13.348
			l10.829-16.745l16.047,11.305l8.01-17.265l15.948,7.11l1.48-13.016l-1.467-12.916l-15.94,7.104l-8.017-17.273l-16.062,11.302
			l-10.835-16.744l-15.042,13.356l-12.582-15.82l-13.903,14.737l-13.913-14.741l-12.588,15.822l-15.036-13.348l-10.828,16.745
			l-16.051-11.308l-8.009,17.263l-15.948-7.107l-1.48,13.01l1.468,12.925l15.94-7.102l8.017,17.272l16.062-11.299l10.835,16.737
			l15.042-13.353l12.582,15.819L-143.021,82.736z"/>
	</g>
</g>
<g>
	<g>
		<path fill="#307FE2" d="M94.612,132.42l-8.914-19.441l-14.812,15.887l-5.477-21.41l-18.827,13.307l-0.085-24.077l-26.217,7.93
			l12.624-26.67L0,66.219l32.917-11.744l-12.609-26.68l26.206,7.934l0.084-24.089l18.816,13.319L70.882,3.56L85.69,19.447
			L94.596,0.01l11.771,17.718L118.132,0l8.914,19.449l14.811-15.884l5.477,21.407l18.83-13.308l0.082,24.08l26.217-7.929
			L179.84,54.483l32.909,11.728l-32.923,11.741l12.607,26.678l-26.204-7.929l-0.08,24.084l-18.818-13.315l-5.471,21.407
			l-14.807-15.894l-8.908,19.432l-11.77-17.715L94.612,132.42z M106.368,78.909l8.595,12.935l6.418-14l10.268,11.022l3.625-14.184
			l11.203,7.927l0.042-12.561l8.954,2.709l-2.889-6.113l1.201-0.429l-1.202-0.429l2.887-6.1l-8.935,2.702l-0.042-12.579
			l-11.214,7.925l-3.63-14.19l-10.284,11.028l-6.408-13.981l-8.58,12.928l-8.594-12.935l-6.413,13.997L81.096,43.56L77.469,57.75
			l-11.205-7.931l-0.044,12.563l-8.947-2.709l2.885,6.105l-1.207,0.43l1.21,0.431l-2.888,6.101l8.93-2.701l0.044,12.577
			l11.217-7.929l3.63,14.191l10.278-11.025l6.412,13.983L106.368,78.909z"/>
	</g>
	<g>
		<polygon fill="#307FE2" points="183.267,66.214 166.205,72.299 173.953,88.694 156.374,83.375 156.313,101.697 141.302,91.076 
			136.754,108.871 124.217,95.413 116.554,112.129 106.372,96.804 96.199,112.129 88.536,95.417 75.991,108.873 71.438,91.072 
			56.416,101.69 56.351,83.363 38.777,88.679 46.533,72.293 29.476,66.214 46.538,60.127 38.791,43.734 56.367,49.056 
			56.431,30.729 71.441,41.354 75.989,23.56 88.53,37.016 96.189,20.299 106.372,35.625 116.544,20.297 124.205,37.012 
			136.752,23.556 141.306,41.354 156.328,30.738 156.39,49.067 173.966,43.752 166.211,60.136 		"/>
	</g>
	<g>
		<path fill="#FFFFFF" d="M95.803,117.202l-7.976-17.394l-13.112,14.064l-4.784-18.703l-15.973,11.291l-0.07-19.765l-19.734,5.969
			l8.973-18.957l-21.019-7.491l21.026-7.501L34.17,39.75l19.733,5.975l0.069-19.767l15.962,11.298l4.778-18.696L87.82,32.624
			l7.971-17.397l10.58,15.924l10.57-15.928l7.974,17.398l13.113-14.063l4.785,18.701l15.974-11.289l0.067,19.767l19.736-5.969
			l-8.972,18.955l21.019,7.49l-21.027,7.499l8.963,18.966l-19.735-5.972l-0.065,19.763L142.81,95.174l-4.779,18.698l-13.104-14.067
			l-7.975,17.395l-10.579-15.923L95.803,117.202z M106.371,92.33l9.785,14.728l7.352-16.037l11.97,12.849l4.317-16.892l14.059,9.947
			l0.056-16.882l15.423,4.667L162.8,70.886l13.097-4.671l-13.092-4.666l6.538-13.812l-15.416,4.662l-0.058-16.892l-14.07,9.943
			l-4.323-16.897l-11.981,12.849l-7.348-16.031l-9.774,14.728l-9.785-14.728L89.24,41.408L77.266,28.56l-4.317,16.894L58.89,35.502
			l-0.059,16.885l-15.419-4.668l6.532,13.821l-13.098,4.673L49.94,70.88l-6.539,13.814l15.413-4.662l0.06,16.889l14.071-9.946
			l4.322,16.898l11.978-12.848l7.35,16.03L106.371,92.33z"/>
	</g>
	<g>
		<path fill="#FFFFFF" d="M72.438,51.526h5.163l13.185,22.173V51.526h3.417v26.815h-4.754l-13.63-22.767v22.767h-3.38V51.526z"/>
		<path fill="#FFFFFF" d="M100.733,51.602h4.197v3.825h-4.197V51.602z M101.105,59.697h3.491v18.645h-3.491V59.697z"/>
		<path fill="#FFFFFF" d="M122.012,65.677c-0.074-0.854-0.334-3.899-3.714-3.899c-4.828,0-4.828,5.608-4.828,7.02
			c0,3.825,0.929,7.391,4.643,7.391c2.971,0,3.974-2.229,4.048-4.048h3.528c-0.223,3.64-2.934,6.685-7.54,6.685
			c-1.263,0-4.16-0.26-6.128-2.414c-1.114-1.3-2.229-3.268-2.229-7.131c0-7.762,4.754-10.064,8.468-10.064
			c1.226,0,4.011,0.26,5.72,2.303c1.374,1.597,1.485,3.119,1.56,4.159H122.012z"/>
		<path fill="#FFFFFF" d="M127.878,51.341h3.454v15.971l6.982-7.614h4.568l-7.874,7.911l8.356,10.733h-4.568l-7.465-10.064v10.064
			h-3.454V51.341z"/>
	</g>
</g>
</svg>
